M48
;DRILL file {KiCad 4.0.7-e2-6376~58~ubuntu16.04.1} date Mon Jan  7 01:20:51 2019
;FORMAT={-:-/ absolute / inch / decimal}
FMAT,2
INCH,TZ
T1C0.016
T2C0.039
T3C0.040
T4C0.079
T5C0.087
%
G90
G05
M72
T1
X6.4764Y-4.5079
X6.5542Y-4.1027
X6.5553Y-4.205
X6.5557Y-4.4
X6.6325Y-4.29
X6.6428Y-4.4049
X6.7196Y-4.2979
X6.752Y-4.3504
X6.7756Y-4.2787
X6.8073Y-3.9878
X6.8664Y-4.2563
X6.8701Y-4.0157
X6.9019Y-4.302
X6.9882Y-4.0748
X6.9882Y-4.5079
X6.9973Y-4.275
T2
X6.437Y-4.1929
X6.437Y-4.2913
X6.437Y-4.3898
X7.0079Y-4.1929
X7.0079Y-4.3898
T3
X6.3583Y-3.7189
X6.3583Y-3.8189
X6.3583Y-3.9189
X6.6535Y-3.7402
X6.6535Y-3.8402
X6.7535Y-3.7402
X6.7535Y-3.8402
X6.8535Y-3.7402
X6.8535Y-3.8402
T5
X6.2992Y-4.2913
X7.1654Y-4.2913
T4
X6.7224Y-4.0709G85X6.7421Y-4.0709
G05
X6.7224Y-4.5118G85X6.7421Y-4.5118
G05
T0
M30
