G04 #@! TF.FileFunction,Legend,Bot*
%FSLAX46Y46*%
G04 Gerber Fmt 4.6, Leading zero omitted, Abs format (unit mm)*
G04 Created by KiCad (PCBNEW 4.0.7-e2-6376~58~ubuntu16.04.1) date Mon Jan  7 01:20:49 2019*
%MOMM*%
%LPD*%
G01*
G04 APERTURE LIST*
%ADD10C,0.100000*%
%ADD11C,0.250000*%
%ADD12C,0.120000*%
G04 APERTURE END LIST*
D10*
D11*
X174214285Y-93202381D02*
X174547619Y-92726190D01*
X174785714Y-93202381D02*
X174785714Y-92202381D01*
X174404761Y-92202381D01*
X174309523Y-92250000D01*
X174261904Y-92297619D01*
X174214285Y-92392857D01*
X174214285Y-92535714D01*
X174261904Y-92630952D01*
X174309523Y-92678571D01*
X174404761Y-92726190D01*
X174785714Y-92726190D01*
X173785714Y-92678571D02*
X173452380Y-92678571D01*
X173309523Y-93202381D02*
X173785714Y-93202381D01*
X173785714Y-92202381D01*
X173309523Y-92202381D01*
X173023809Y-92202381D02*
X172452380Y-92202381D01*
X172738095Y-93202381D02*
X172738095Y-92202381D01*
X171547618Y-93202381D02*
X171880952Y-92726190D01*
X172119047Y-93202381D02*
X172119047Y-92202381D01*
X171738094Y-92202381D01*
X171642856Y-92250000D01*
X171595237Y-92297619D01*
X171547618Y-92392857D01*
X171547618Y-92535714D01*
X171595237Y-92630952D01*
X171642856Y-92678571D01*
X171738094Y-92726190D01*
X172119047Y-92726190D01*
X171166666Y-92916667D02*
X170690475Y-92916667D01*
X171261904Y-93202381D02*
X170928571Y-92202381D01*
X170595237Y-93202381D01*
X170261904Y-93202381D02*
X170261904Y-92202381D01*
X170023809Y-92202381D01*
X169880951Y-92250000D01*
X169785713Y-92345238D01*
X169738094Y-92440476D01*
X169690475Y-92630952D01*
X169690475Y-92773810D01*
X169738094Y-92964286D01*
X169785713Y-93059524D01*
X169880951Y-93154762D01*
X170023809Y-93202381D01*
X170261904Y-93202381D01*
X169261904Y-93202381D02*
X169261904Y-92202381D01*
X168595238Y-92202381D02*
X168404761Y-92202381D01*
X168309523Y-92250000D01*
X168214285Y-92345238D01*
X168166666Y-92535714D01*
X168166666Y-92869048D01*
X168214285Y-93059524D01*
X168309523Y-93154762D01*
X168404761Y-93202381D01*
X168595238Y-93202381D01*
X168690476Y-93154762D01*
X168785714Y-93059524D01*
X168833333Y-92869048D01*
X168833333Y-92535714D01*
X168785714Y-92345238D01*
X168690476Y-92250000D01*
X168595238Y-92202381D01*
X176666667Y-99928571D02*
X176333333Y-99928571D01*
X176190476Y-100452381D02*
X176666667Y-100452381D01*
X176666667Y-99452381D01*
X176190476Y-99452381D01*
X175761905Y-100452381D02*
X175761905Y-99452381D01*
X175190476Y-100452381D01*
X175190476Y-99452381D01*
X174142857Y-100357143D02*
X174190476Y-100404762D01*
X174333333Y-100452381D01*
X174428571Y-100452381D01*
X174571429Y-100404762D01*
X174666667Y-100309524D01*
X174714286Y-100214286D01*
X174761905Y-100023810D01*
X174761905Y-99880952D01*
X174714286Y-99690476D01*
X174666667Y-99595238D01*
X174571429Y-99500000D01*
X174428571Y-99452381D01*
X174333333Y-99452381D01*
X174190476Y-99500000D01*
X174142857Y-99547619D01*
X173523810Y-99452381D02*
X173333333Y-99452381D01*
X173238095Y-99500000D01*
X173142857Y-99595238D01*
X173095238Y-99785714D01*
X173095238Y-100119048D01*
X173142857Y-100309524D01*
X173238095Y-100404762D01*
X173333333Y-100452381D01*
X173523810Y-100452381D01*
X173619048Y-100404762D01*
X173714286Y-100309524D01*
X173761905Y-100119048D01*
X173761905Y-99785714D01*
X173714286Y-99595238D01*
X173619048Y-99500000D01*
X173523810Y-99452381D01*
X172666667Y-100452381D02*
X172666667Y-99452381D01*
X172428572Y-99452381D01*
X172285714Y-99500000D01*
X172190476Y-99595238D01*
X172142857Y-99690476D01*
X172095238Y-99880952D01*
X172095238Y-100023810D01*
X172142857Y-100214286D01*
X172190476Y-100309524D01*
X172285714Y-100404762D01*
X172428572Y-100452381D01*
X172666667Y-100452381D01*
X171666667Y-99928571D02*
X171333333Y-99928571D01*
X171190476Y-100452381D02*
X171666667Y-100452381D01*
X171666667Y-99452381D01*
X171190476Y-99452381D01*
X170190476Y-100452381D02*
X170523810Y-99976190D01*
X170761905Y-100452381D02*
X170761905Y-99452381D01*
X170380952Y-99452381D01*
X170285714Y-99500000D01*
X170238095Y-99547619D01*
X170190476Y-99642857D01*
X170190476Y-99785714D01*
X170238095Y-99880952D01*
X170285714Y-99928571D01*
X170380952Y-99976190D01*
X170761905Y-99976190D01*
X169095238Y-99785714D02*
X168857143Y-100452381D01*
X168619047Y-99785714D01*
X167714285Y-100452381D02*
X168285714Y-100452381D01*
X168000000Y-100452381D02*
X168000000Y-99452381D01*
X168095238Y-99595238D01*
X168190476Y-99690476D01*
X168285714Y-99738095D01*
X167285714Y-100357143D02*
X167238095Y-100404762D01*
X167285714Y-100452381D01*
X167333333Y-100404762D01*
X167285714Y-100357143D01*
X167285714Y-100452381D01*
X166619048Y-99452381D02*
X166523809Y-99452381D01*
X166428571Y-99500000D01*
X166380952Y-99547619D01*
X166333333Y-99642857D01*
X166285714Y-99833333D01*
X166285714Y-100071429D01*
X166333333Y-100261905D01*
X166380952Y-100357143D01*
X166428571Y-100404762D01*
X166523809Y-100452381D01*
X166619048Y-100452381D01*
X166714286Y-100404762D01*
X166761905Y-100357143D01*
X166809524Y-100261905D01*
X166857143Y-100071429D01*
X166857143Y-99833333D01*
X166809524Y-99642857D01*
X166761905Y-99547619D01*
X166714286Y-99500000D01*
X166619048Y-99452381D01*
D12*
X170500000Y-109000000D02*
X171500000Y-109000000D01*
X171000000Y-109500000D02*
X171000000Y-108500000D01*
X177700000Y-105300000D02*
X177700000Y-102700000D01*
X177700000Y-110300000D02*
X177700000Y-107700000D01*
X177700000Y-115300000D02*
X177700000Y-112700000D01*
X163800000Y-113100000D02*
X163500000Y-112800000D01*
X163200000Y-113100000D02*
X163800000Y-113100000D01*
X163500000Y-112800000D02*
X163200000Y-113100000D01*
X164300000Y-115300000D02*
X164300000Y-112800000D01*
X169100000Y-115300000D02*
X164300000Y-115300000D01*
X164300000Y-102700000D02*
X164300000Y-105500000D01*
X169200000Y-102700000D02*
X164300000Y-102700000D01*
X177700000Y-102700000D02*
X172800000Y-102700000D01*
X172800000Y-115300000D02*
X177700000Y-115300000D01*
X174000000Y-109000000D02*
G75*
G03X174000000Y-109000000I-3000000J0D01*
G01*
M02*
