G04 #@! TF.FileFunction,Profile,NP*
%FSLAX46Y46*%
G04 Gerber Fmt 4.6, Leading zero omitted, Abs format (unit mm)*
G04 Created by KiCad (PCBNEW 4.0.7-e2-6376~58~ubuntu16.04.1) date Mon Jan  7 01:20:49 2019*
%MOMM*%
%LPD*%
G01*
G04 APERTURE LIST*
%ADD10C,0.100000*%
%ADD11C,0.150000*%
G04 APERTURE END LIST*
D10*
D11*
X180000000Y-92000000D02*
G75*
G03X179500000Y-91500000I-500000J0D01*
G01*
X157427521Y-107456513D02*
X159223062Y-104581648D01*
X159223062Y-104581648D02*
G75*
G03X160000000Y-101500000I-5723062J3081648D01*
G01*
X180000000Y-104500000D02*
G75*
G03X181500000Y-106000000I1500000J0D01*
G01*
X161500000Y-91500000D02*
G75*
G03X160000000Y-93000000I0J-1500000D01*
G01*
X160000000Y-93000000D02*
X160000000Y-101500000D01*
X179500000Y-91500000D02*
X161500000Y-91500000D01*
X180000000Y-104500000D02*
X180000000Y-92000000D01*
X181500000Y-106000000D02*
X182000000Y-106000000D01*
X182000000Y-112000000D02*
X181500000Y-112000000D01*
X180000000Y-115000000D02*
X180000000Y-113500000D01*
X162000000Y-115000000D02*
X162000000Y-113500000D01*
X178500000Y-116500000D02*
X163500000Y-116500000D01*
X160000000Y-112000000D02*
X160500000Y-112000000D01*
X157427521Y-107456513D02*
G75*
G03X160000000Y-112000000I2572479J-1543487D01*
G01*
X162000000Y-113500000D02*
G75*
G03X160500000Y-112000000I-1500000J0D01*
G01*
X162000000Y-115000000D02*
G75*
G03X163500000Y-116500000I1500000J0D01*
G01*
X178500000Y-116500000D02*
G75*
G03X180000000Y-115000000I0J1500000D01*
G01*
X181500000Y-112000000D02*
G75*
G03X180000000Y-113500000I0J-1500000D01*
G01*
X182000000Y-112000000D02*
G75*
G03X182000000Y-106000000I0J3000000D01*
G01*
M02*
