G04 #@! TF.FileFunction,Copper,L1,Top,Signal*
%FSLAX46Y46*%
G04 Gerber Fmt 4.6, Leading zero omitted, Abs format (unit mm)*
G04 Created by KiCad (PCBNEW 4.0.7-e2-6376~58~ubuntu16.04.1) date Mon Jan  7 01:20:49 2019*
%MOMM*%
%LPD*%
G01*
G04 APERTURE LIST*
%ADD10C,0.100000*%
%ADD11R,1.000000X1.250000*%
%ADD12C,2.000000*%
%ADD13R,3.000000X2.500000*%
%ADD14R,2.000000X2.000000*%
%ADD15R,0.400000X1.000000*%
%ADD16R,1.727200X1.727200*%
%ADD17O,1.727200X1.727200*%
%ADD18C,1.524000*%
%ADD19R,1.270000X0.970000*%
%ADD20C,4.000000*%
%ADD21C,0.600000*%
%ADD22C,0.250000*%
G04 APERTURE END LIST*
D10*
D11*
X174500000Y-114500000D03*
X176500000Y-114500000D03*
X176500000Y-103500000D03*
X174500000Y-103500000D03*
D12*
X178000000Y-106500000D03*
X178000000Y-111500000D03*
D13*
X171000000Y-103400000D03*
X171000000Y-114600000D03*
D12*
X163500000Y-106500000D03*
X163500000Y-109000000D03*
D14*
X163500000Y-111500000D03*
D15*
X169700000Y-111900000D03*
X170350000Y-111900000D03*
X171000000Y-111900000D03*
X171650000Y-111900000D03*
X172300000Y-111900000D03*
X172950000Y-111900000D03*
X173600000Y-111900000D03*
X174250000Y-111900000D03*
X174900000Y-111900000D03*
X175550000Y-111900000D03*
X175550000Y-106100000D03*
X174900000Y-106100000D03*
X174250000Y-106100000D03*
X173600000Y-106100000D03*
X172950000Y-106100000D03*
X172300000Y-106100000D03*
X171650000Y-106100000D03*
X171000000Y-106100000D03*
X170350000Y-106100000D03*
X169700000Y-106100000D03*
D16*
X169000000Y-97540000D03*
D17*
X169000000Y-95000000D03*
X171540000Y-97540000D03*
X171540000Y-95000000D03*
X174080000Y-97540000D03*
X174080000Y-95000000D03*
D18*
X161500000Y-99540000D03*
X161500000Y-97000000D03*
X161500000Y-94460000D03*
D11*
X167500000Y-114500000D03*
X165500000Y-114500000D03*
D19*
X166500000Y-111770000D03*
X166500000Y-110500000D03*
X166500000Y-109230000D03*
X166500000Y-106770000D03*
X166500000Y-105500000D03*
X166500000Y-104230000D03*
D20*
X182000000Y-109000000D03*
X160000000Y-109000000D03*
D21*
X177730253Y-108585563D03*
X168725914Y-111883422D03*
X166515062Y-111761256D03*
X166504075Y-106808112D03*
X177500000Y-103500000D03*
X164500000Y-114500000D03*
X177500000Y-114500000D03*
X174500000Y-102000000D03*
X174407385Y-108110921D03*
X166477119Y-104207546D03*
X168464838Y-108964838D03*
X171500000Y-110500000D03*
X172906234Y-101290132D03*
X175308384Y-109270971D03*
X172099905Y-108678036D03*
X170678466Y-109166821D03*
D22*
X171650000Y-111900000D02*
X171650000Y-112650000D01*
X171650000Y-112650000D02*
X171275001Y-113024999D01*
X171275001Y-113024999D02*
X168850001Y-113024999D01*
X168850001Y-113024999D02*
X167500000Y-114375000D01*
X167500000Y-114375000D02*
X167500000Y-114500000D01*
X177430254Y-108285564D02*
X177730253Y-108585563D01*
X176289783Y-107145093D02*
X177430254Y-108285564D01*
X173483184Y-107145093D02*
X176289783Y-107145093D01*
X172950000Y-106100000D02*
X172950000Y-106611909D01*
X172950000Y-106611909D02*
X173483184Y-107145093D01*
X169700000Y-111900000D02*
X168742492Y-111900000D01*
X168742492Y-111900000D02*
X168725914Y-111883422D01*
X166506318Y-111770000D02*
X166515062Y-111761256D01*
X166500000Y-111770000D02*
X166506318Y-111770000D01*
X166500000Y-106804037D02*
X166504075Y-106808112D01*
X166500000Y-106770000D02*
X166500000Y-106804037D01*
X176500000Y-103500000D02*
X177500000Y-103500000D01*
X165500000Y-114500000D02*
X164500000Y-114500000D01*
X176500000Y-114500000D02*
X177500000Y-114500000D01*
X172728601Y-96188601D02*
X172403599Y-95863599D01*
X172728601Y-100228601D02*
X172728601Y-96188601D01*
X174500000Y-102000000D02*
X172728601Y-100228601D01*
X172403599Y-95863599D02*
X171540000Y-95000000D01*
X172300000Y-106721413D02*
X173689508Y-108110921D01*
X173983121Y-108110921D02*
X174407385Y-108110921D01*
X173689508Y-108110921D02*
X173983121Y-108110921D01*
X172300000Y-106100000D02*
X172300000Y-106721413D01*
X166494313Y-104207546D02*
X166477119Y-104207546D01*
X166500000Y-104213233D02*
X166494313Y-104207546D01*
X166500000Y-104230000D02*
X166500000Y-104213233D01*
X168199676Y-109230000D02*
X168464838Y-108964838D01*
X166500000Y-109230000D02*
X168199676Y-109230000D01*
X171650000Y-110500000D02*
X171500000Y-110500000D01*
X172300000Y-111900000D02*
X172300000Y-111150000D01*
X172300000Y-111150000D02*
X171650000Y-110500000D01*
X172300000Y-106100000D02*
X172300000Y-105503184D01*
X172300000Y-105503184D02*
X174303184Y-103500000D01*
X174303184Y-103500000D02*
X174500000Y-103500000D01*
X172300000Y-111900000D02*
X172300000Y-112545749D01*
X172300000Y-112545749D02*
X174254251Y-114500000D01*
X174254251Y-114500000D02*
X174500000Y-114500000D01*
X169158155Y-109791831D02*
X171716835Y-109791831D01*
X163500000Y-112750000D02*
X164064998Y-113314998D01*
X172950000Y-111024996D02*
X172950000Y-111150000D01*
X163500000Y-111500000D02*
X163500000Y-112750000D01*
X167989294Y-112325704D02*
X167989294Y-110960692D01*
X172950000Y-111150000D02*
X172950000Y-111900000D01*
X167000000Y-113314998D02*
X167989294Y-112325704D01*
X167989294Y-110960692D02*
X169158155Y-109791831D01*
X164064998Y-113314998D02*
X167000000Y-113314998D01*
X171716835Y-109791831D02*
X172950000Y-111024996D01*
X165339837Y-108339837D02*
X170836704Y-108339837D01*
X170836704Y-108339837D02*
X171799904Y-109303037D01*
X171799904Y-109303037D02*
X172075859Y-109303037D01*
X172075859Y-109303037D02*
X173600000Y-110827178D01*
X173600000Y-110827178D02*
X173600000Y-111150000D01*
X173600000Y-111150000D02*
X173600000Y-111900000D01*
X163500000Y-106500000D02*
X165339837Y-108339837D01*
X174250000Y-111900000D02*
X174250000Y-112650000D01*
X176774999Y-112725001D02*
X177000001Y-112499999D01*
X174250000Y-112650000D02*
X174325001Y-112725001D01*
X174325001Y-112725001D02*
X176774999Y-112725001D01*
X177000001Y-112499999D02*
X178000000Y-111500000D01*
X174943599Y-95863599D02*
X174080000Y-95000000D01*
X175450011Y-96370011D02*
X174943599Y-95863599D01*
X174250000Y-106100000D02*
X174250000Y-105350000D01*
X174250000Y-105350000D02*
X175450011Y-104149989D01*
X175450011Y-104149989D02*
X175450011Y-96370011D01*
X171650000Y-106100000D02*
X171650000Y-105350000D01*
X168360023Y-104666830D02*
X168360023Y-103112199D01*
X171650000Y-105350000D02*
X171518303Y-105218303D01*
X171518303Y-105218303D02*
X168911496Y-105218303D01*
X168360023Y-103112199D02*
X167811399Y-102563575D01*
X168911496Y-105218303D02*
X168360023Y-104666830D01*
X167811399Y-102563575D02*
X167811399Y-96188601D01*
X168136401Y-95863599D02*
X169000000Y-95000000D01*
X167811399Y-96188601D02*
X168136401Y-95863599D01*
X171540000Y-99923898D02*
X172606235Y-100990133D01*
X171540000Y-97540000D02*
X171540000Y-99923898D01*
X172606235Y-100990133D02*
X172906234Y-101290132D01*
X172297156Y-107354979D02*
X174213148Y-109270971D01*
X174213148Y-109270971D02*
X174884120Y-109270971D01*
X171000000Y-106850000D02*
X171504979Y-107354979D01*
X174884120Y-109270971D02*
X175308384Y-109270971D01*
X171000000Y-106100000D02*
X171000000Y-106850000D01*
X171504979Y-107354979D02*
X172297156Y-107354979D01*
X170350000Y-106100000D02*
X170350000Y-106850000D01*
X170350000Y-106850000D02*
X170274999Y-106925001D01*
X170274999Y-106925001D02*
X169239999Y-106925001D01*
X169239999Y-106925001D02*
X167460001Y-105145003D01*
X167460001Y-105145003D02*
X167460001Y-103484999D01*
X167460001Y-103484999D02*
X163548940Y-99573938D01*
X163548940Y-99573938D02*
X161533938Y-99573938D01*
X161533938Y-99573938D02*
X161500000Y-99540000D01*
X162587001Y-95547001D02*
X162261999Y-95221999D01*
X167910012Y-103298599D02*
X162587001Y-97975588D01*
X167910012Y-104853230D02*
X167910012Y-103298599D01*
X162587001Y-97975588D02*
X162587001Y-95547001D01*
X169156782Y-106100000D02*
X167910012Y-104853230D01*
X169700000Y-106100000D02*
X169156782Y-106100000D01*
X162261999Y-95221999D02*
X161500000Y-94460000D01*
X174900000Y-111900000D02*
X174900000Y-111230644D01*
X174900000Y-111230644D02*
X172348628Y-108679272D01*
X172348628Y-108679272D02*
X172101141Y-108679272D01*
X172101141Y-108679272D02*
X172099905Y-108678036D01*
X166500000Y-110500000D02*
X167813575Y-110500000D01*
X167813575Y-110500000D02*
X169146754Y-109166821D01*
X169146754Y-109166821D02*
X170254202Y-109166821D01*
X170254202Y-109166821D02*
X170678466Y-109166821D01*
X169483578Y-107804990D02*
X167178588Y-105500000D01*
X175550000Y-111244233D02*
X172110757Y-107804990D01*
X172110757Y-107804990D02*
X169483578Y-107804990D01*
X175550000Y-111900000D02*
X175550000Y-111244233D01*
X167178588Y-105500000D02*
X166500000Y-105500000D01*
M02*
