M48
;DRILL file {KiCad 4.0.7-e2-6376~58~ubuntu16.04.1} date Mon Jan  7 01:20:10 2019
;FORMAT={-:-/ absolute / inch / decimal}
FMAT,2
INCH,TZ
T1C0.016
T2C0.024
T3C0.039
T4C0.040
T5C0.087
%
G90
G05
M72
T1
X7.2244Y-3.9764
X7.2244Y-4.3701
X7.252Y-4.4272
T2
X6.7913Y-3.937
X6.9685Y-4.2913
X6.9882Y-4.0945
X7.0276Y-3.8189
X7.126Y-4.2992
X7.1457Y-3.7008
X7.2244Y-3.8583
X7.3425Y-3.7008
T3
X6.4713Y-3.65
X6.4713Y-3.75
X6.4713Y-3.85
X6.4713Y-3.95
X6.4713Y-4.05
X6.4713Y-4.15
X6.4713Y-4.25
X6.4713Y-4.35
X6.4713Y-4.45
X6.4713Y-4.55
X6.4713Y-4.65
X6.4713Y-4.75
X6.5713Y-3.65
X6.5713Y-3.75
X6.5713Y-3.85
X6.5713Y-3.95
X6.5713Y-4.05
X6.5713Y-4.15
X6.5713Y-4.25
X6.5713Y-4.35
X6.5713Y-4.45
X6.5713Y-4.55
X6.5713Y-4.65
X6.5713Y-4.75
T4
X7.0276Y-4.7244
X7.1276Y-4.7244
X7.2276Y-4.7244
X7.4409Y-4.0732
X7.4409Y-4.1732
X7.4409Y-4.2732
X7.5409Y-4.0732
X7.5409Y-4.1732
X7.5409Y-4.2732
T5
X6.8307Y-3.6614
X6.8307Y-4.7244
X7.5787Y-3.6614
X7.5787Y-4.7244
T0
M30
