G04 #@! TF.FileFunction,Copper,L1,Top,Signal*
%FSLAX46Y46*%
G04 Gerber Fmt 4.6, Leading zero omitted, Abs format (unit mm)*
G04 Created by KiCad (PCBNEW 4.0.7-e2-6376~58~ubuntu16.04.1) date Mon Jan  7 01:20:08 2019*
%MOMM*%
%LPD*%
G01*
G04 APERTURE LIST*
%ADD10C,0.100000*%
%ADD11R,1.000000X1.250000*%
%ADD12R,1.250000X1.000000*%
%ADD13R,0.970000X1.270000*%
%ADD14R,1.700000X1.700000*%
%ADD15O,1.700000X1.700000*%
%ADD16R,1.300000X0.700000*%
%ADD17R,0.400000X1.000000*%
%ADD18R,1.727200X1.727200*%
%ADD19O,1.727200X1.727200*%
%ADD20C,1.524000*%
%ADD21C,4.000000*%
%ADD22C,0.800000*%
%ADD23C,0.600000*%
%ADD24C,0.400000*%
%ADD25C,0.600000*%
G04 APERTURE END LIST*
D10*
D11*
X180500000Y-98000000D03*
X182500000Y-98000000D03*
X180000000Y-109000000D03*
X178000000Y-109000000D03*
D12*
X173500000Y-100000000D03*
X173500000Y-102000000D03*
D13*
X186270000Y-93000000D03*
X185000000Y-93000000D03*
X183730000Y-93000000D03*
X181270000Y-93000000D03*
X180000000Y-93000000D03*
X178730000Y-93000000D03*
D14*
X164370000Y-92710000D03*
D15*
X166910000Y-92710000D03*
X164370000Y-95250000D03*
X166910000Y-95250000D03*
X164370000Y-97790000D03*
X166910000Y-97790000D03*
X164370000Y-100330000D03*
X166910000Y-100330000D03*
X164370000Y-102870000D03*
X166910000Y-102870000D03*
X164370000Y-105410000D03*
X166910000Y-105410000D03*
X164370000Y-107950000D03*
X166910000Y-107950000D03*
X164370000Y-110490000D03*
X166910000Y-110490000D03*
D14*
X164370000Y-113030000D03*
D15*
X166910000Y-113030000D03*
X164370000Y-115570000D03*
X166910000Y-115570000D03*
X164370000Y-118110000D03*
X166910000Y-118110000D03*
X164370000Y-120650000D03*
X166910000Y-120650000D03*
D16*
X173500000Y-114450000D03*
X173500000Y-112550000D03*
X176000000Y-114450000D03*
X176000000Y-112550000D03*
X178500000Y-114450000D03*
X178500000Y-112550000D03*
X181000000Y-114450000D03*
X181000000Y-112550000D03*
D17*
X182425000Y-100600000D03*
X181775000Y-100600000D03*
X181125000Y-100600000D03*
X180475000Y-100600000D03*
X179825000Y-100600000D03*
X179175000Y-100600000D03*
X178525000Y-100600000D03*
X177875000Y-100600000D03*
X177225000Y-100600000D03*
X176575000Y-100600000D03*
X176575000Y-106400000D03*
X177225000Y-106400000D03*
X177875000Y-106400000D03*
X178525000Y-106400000D03*
X179175000Y-106400000D03*
X179825000Y-106400000D03*
X180475000Y-106400000D03*
X181125000Y-106400000D03*
X181775000Y-106400000D03*
X182425000Y-106400000D03*
D18*
X189000000Y-103460000D03*
D19*
X191540000Y-103460000D03*
X189000000Y-106000000D03*
X191540000Y-106000000D03*
X189000000Y-108540000D03*
X191540000Y-108540000D03*
D20*
X183580000Y-120000000D03*
X181040000Y-120000000D03*
X178500000Y-120000000D03*
D21*
X173500000Y-120000000D03*
X192500000Y-120000000D03*
X173500000Y-93000000D03*
X192500000Y-93000000D03*
D22*
X177000000Y-109000000D03*
D23*
X183500000Y-101000000D03*
D22*
X186500000Y-94000000D03*
X181500000Y-94000000D03*
X172500000Y-100000000D03*
X183500000Y-98000000D03*
X181000000Y-109198517D03*
X178500000Y-97000000D03*
X177500000Y-104000000D03*
D23*
X184200010Y-112449990D03*
X183500000Y-111000000D03*
D24*
X180475000Y-100600000D02*
X180475000Y-98025000D01*
X180475000Y-98025000D02*
X180500000Y-98000000D01*
X179175000Y-107589588D02*
X178727813Y-108036775D01*
X179175000Y-107521569D02*
X179175000Y-107589588D01*
X179175000Y-106400000D02*
X179175000Y-107521569D01*
D25*
X178000000Y-109000000D02*
X178000000Y-108764588D01*
X178000000Y-108764588D02*
X178727813Y-108036775D01*
X178000000Y-109000000D02*
X177000000Y-109000000D01*
D24*
X183100000Y-100600000D02*
X183500000Y-101000000D01*
X182425000Y-100600000D02*
X183100000Y-100600000D01*
D25*
X186270000Y-93770000D02*
X186500000Y-94000000D01*
X186270000Y-93000000D02*
X186270000Y-93770000D01*
X181270000Y-93770000D02*
X181500000Y-94000000D01*
X181270000Y-93000000D02*
X181270000Y-93770000D01*
X173500000Y-100000000D02*
X172500000Y-100000000D01*
X182500000Y-98000000D02*
X183500000Y-98000000D01*
D24*
X179825000Y-106400000D02*
X179825000Y-108825000D01*
X179825000Y-108825000D02*
X180000000Y-109000000D01*
D25*
X180000000Y-109000000D02*
X180801483Y-109000000D01*
X180801483Y-109000000D02*
X181000000Y-109198517D01*
X178500000Y-97000000D02*
X178500000Y-93230000D01*
X178500000Y-93230000D02*
X178730000Y-93000000D01*
X174400000Y-104000000D02*
X177500000Y-104000000D01*
X173500000Y-102000000D02*
X173500000Y-103100000D01*
X173500000Y-103100000D02*
X174400000Y-104000000D01*
D24*
X179000000Y-102000000D02*
X179325000Y-102000000D01*
X179325000Y-102000000D02*
X179825000Y-101500000D01*
X179825000Y-101500000D02*
X179825000Y-100600000D01*
D25*
X174725000Y-102000000D02*
X179000000Y-102000000D01*
X173500000Y-102000000D02*
X174725000Y-102000000D01*
X183730000Y-93000000D02*
X183730000Y-91930692D01*
X183730000Y-91930692D02*
X183052416Y-91253108D01*
X183052416Y-91253108D02*
X179454467Y-91253108D01*
X179454467Y-91253108D02*
X178730000Y-91977575D01*
X178730000Y-91977575D02*
X178730000Y-93000000D01*
D24*
X183800001Y-99699999D02*
X185000000Y-98500000D01*
X185000000Y-98500000D02*
X185000000Y-93000000D01*
X181775000Y-100600000D02*
X181775001Y-99699999D01*
X181775001Y-99699999D02*
X183800001Y-99699999D01*
X181125000Y-100600000D02*
X181125000Y-99220002D01*
X181125000Y-99220002D02*
X181400001Y-98945001D01*
X181400001Y-98945001D02*
X181400001Y-95435001D01*
X181400001Y-95435001D02*
X180000000Y-94035000D01*
X180000000Y-94035000D02*
X180000000Y-93000000D01*
X179175000Y-100600000D02*
X179175000Y-99326458D01*
X176230481Y-96381939D02*
X172135707Y-96381939D01*
X179175000Y-99326458D02*
X176230481Y-96381939D01*
X172135707Y-96381939D02*
X168463768Y-92710000D01*
X168463768Y-92710000D02*
X166910000Y-92710000D01*
X166910000Y-93156232D02*
X166910000Y-92710000D01*
X178525000Y-100600000D02*
X178525000Y-99525000D01*
X178525000Y-99525000D02*
X176061521Y-97061521D01*
X176061521Y-97061521D02*
X168721521Y-97061521D01*
X168721521Y-97061521D02*
X166910000Y-95250000D01*
X177875000Y-100600000D02*
X177875000Y-99723542D01*
X177875000Y-99723542D02*
X175941458Y-97790000D01*
X175941458Y-97790000D02*
X168112081Y-97790000D01*
X168112081Y-97790000D02*
X166910000Y-97790000D01*
X177225000Y-100600000D02*
X177225000Y-99922084D01*
X168728648Y-98511352D02*
X167759999Y-99480001D01*
X177225000Y-99922084D02*
X175814268Y-98511352D01*
X175814268Y-98511352D02*
X168728648Y-98511352D01*
X167759999Y-99480001D02*
X166910000Y-100330000D01*
X176575000Y-100600000D02*
X175975000Y-100600000D01*
X175975000Y-100600000D02*
X175594240Y-100980760D01*
X175594240Y-100980760D02*
X168799240Y-100980760D01*
X168799240Y-100980760D02*
X167759999Y-102020001D01*
X167759999Y-102020001D02*
X166910000Y-102870000D01*
X176575000Y-106400000D02*
X169271006Y-106400000D01*
X169271006Y-106400000D02*
X168281006Y-105410000D01*
X168281006Y-105410000D02*
X166910000Y-105410000D01*
X177225000Y-106400000D02*
X177225000Y-107300000D01*
X177225000Y-107300000D02*
X177158624Y-107366376D01*
X177158624Y-107366376D02*
X169120426Y-107366376D01*
X169120426Y-107366376D02*
X168536802Y-107950000D01*
X168536802Y-107950000D02*
X166910000Y-107950000D01*
X178525000Y-106400000D02*
X178525000Y-107043919D01*
X178525000Y-107043919D02*
X177602532Y-107966387D01*
X177602532Y-107966387D02*
X169433613Y-107966387D01*
X169433613Y-107966387D02*
X167759999Y-109640001D01*
X167759999Y-109640001D02*
X166910000Y-110490000D01*
X173500000Y-114450000D02*
X168330000Y-114450000D01*
X168330000Y-114450000D02*
X166910000Y-113030000D01*
X174580000Y-115570000D02*
X168112081Y-115570000D01*
X175700000Y-114450000D02*
X174580000Y-115570000D01*
X168112081Y-115570000D02*
X166910000Y-115570000D01*
X176000000Y-114450000D02*
X175700000Y-114450000D01*
X178500000Y-114450000D02*
X178200000Y-114450000D01*
X168849989Y-116170011D02*
X167759999Y-117260001D01*
X178200000Y-114450000D02*
X176479989Y-116170011D01*
X167759999Y-117260001D02*
X166910000Y-118110000D01*
X176479989Y-116170011D02*
X168849989Y-116170011D01*
X167759999Y-119800001D02*
X166910000Y-120650000D01*
X178379978Y-116770022D02*
X170789978Y-116770022D01*
X180700000Y-114450000D02*
X178379978Y-116770022D01*
X170789978Y-116770022D02*
X167759999Y-119800001D01*
X181000000Y-114450000D02*
X180700000Y-114450000D01*
X166910000Y-120650000D02*
X166475315Y-120650000D01*
D25*
X181000000Y-112550000D02*
X181300000Y-112550000D01*
X181300000Y-112550000D02*
X182250000Y-113500000D01*
X182250000Y-113500000D02*
X186500000Y-113500000D01*
X186500000Y-113500000D02*
X189000000Y-111000000D01*
X189000000Y-111000000D02*
X189000000Y-108540000D01*
X178500000Y-112550000D02*
X181000000Y-112550000D01*
X176000000Y-112550000D02*
X178500000Y-112550000D01*
X173500000Y-112550000D02*
X176000000Y-112550000D01*
D24*
X177875000Y-106400000D02*
X177875000Y-105500000D01*
X177875000Y-105500000D02*
X181366562Y-102008438D01*
X181366562Y-102008438D02*
X192164919Y-102008438D01*
X192164919Y-102008438D02*
X192932796Y-102776315D01*
X192932796Y-102776315D02*
X192932796Y-107147204D01*
X192932796Y-107147204D02*
X192403599Y-107676401D01*
X192403599Y-107676401D02*
X191540000Y-108540000D01*
X190676401Y-104323599D02*
X191540000Y-103460000D01*
X187393272Y-104723601D02*
X190276399Y-104723601D01*
X190276399Y-104723601D02*
X190676401Y-104323599D01*
X180475000Y-106400000D02*
X180475000Y-105301457D01*
X180475000Y-105301457D02*
X181376468Y-104399989D01*
X181376468Y-104399989D02*
X187069660Y-104399989D01*
X187069660Y-104399989D02*
X187393272Y-104723601D01*
X181125000Y-106400000D02*
X181125001Y-105499999D01*
X186778686Y-105000000D02*
X187778686Y-106000000D01*
X181125001Y-105499999D02*
X181625000Y-105000000D01*
X181625000Y-105000000D02*
X186778686Y-105000000D01*
X187778686Y-106000000D02*
X189000000Y-106000000D01*
X181800001Y-110474245D02*
X183775746Y-112449990D01*
X181800001Y-107325001D02*
X181800001Y-110474245D01*
X181775000Y-107300000D02*
X181800001Y-107325001D01*
X181775000Y-106400000D02*
X181775000Y-107300000D01*
X183775746Y-112449990D02*
X184200010Y-112449990D01*
X182425000Y-106400000D02*
X182425000Y-109925000D01*
X182425000Y-109925000D02*
X183500000Y-111000000D01*
M02*
