G04 #@! TF.GenerationSoftware,KiCad,Pcbnew,5.0.2-bee76a0~70~ubuntu16.04.1*
G04 #@! TF.CreationDate,2019-02-04T09:50:23+01:00*
G04 #@! TF.ProjectId,mb-a,6d622d61-2e6b-4696-9361-645f70636258,rev?*
G04 #@! TF.SameCoordinates,Original*
G04 #@! TF.FileFunction,Legend,Bot*
G04 #@! TF.FilePolarity,Positive*
%FSLAX46Y46*%
G04 Gerber Fmt 4.6, Leading zero omitted, Abs format (unit mm)*
G04 Created by KiCad (PCBNEW 5.0.2-bee76a0~70~ubuntu16.04.1) date Mon 04 Feb 2019 09:50:23 AM CET*
%MOMM*%
%LPD*%
G01*
G04 APERTURE LIST*
%ADD10C,0.100000*%
%ADD11C,0.150000*%
G04 APERTURE END LIST*
D10*
G04 #@! TO.C,M1*
X138002570Y-52057204D02*
X138002570Y-53942796D01*
X136500000Y-93038583D02*
G75*
G03X136500000Y-93038583I-1500000J0D01*
G01*
X89962457Y-52057204D02*
X89962457Y-93981379D01*
X136500000Y-53000000D02*
G75*
G03X136500000Y-53000000I-1500000J0D01*
G01*
X123586771Y-58002570D02*
G75*
G02X125586771Y-56002570I2000000J0D01*
G01*
X128908528Y-51954658D02*
X129548528Y-51954658D01*
X92022231Y-49997429D02*
X135942795Y-49997429D01*
X97478528Y-52904658D02*
X130498528Y-52904658D01*
X94465027Y-93038583D02*
G75*
G03X94465027Y-93038583I-1500000J0D01*
G01*
X138002570Y-92095788D02*
X138002570Y-93981379D01*
X92022231Y-96041154D02*
X135942795Y-96041154D01*
X130498528Y-50364658D02*
X130498528Y-52904658D01*
X130498528Y-50364658D02*
X97478528Y-50364658D01*
X130472892Y-90961414D02*
X130472892Y-96041414D01*
X130472892Y-90961414D02*
X97452892Y-90961414D01*
X97452892Y-90961414D02*
X97452892Y-96041414D01*
X135942795Y-49997429D02*
G75*
G02X138002570Y-52057204I0J-2059775D01*
G01*
X89962456Y-52057204D02*
G75*
G02X92022231Y-49997429I2059775J0D01*
G01*
X92022231Y-96041153D02*
G75*
G02X89962457Y-93981379I0J2059774D01*
G01*
X135942795Y-90036013D02*
G75*
G02X138002570Y-92095788I0J-2059775D01*
G01*
X138002570Y-93981379D02*
G75*
G02X135942795Y-96041154I-2059775J0D01*
G01*
X138002569Y-53942796D02*
G75*
G02X135942795Y-56002570I-2059774J0D01*
G01*
X135942795Y-56002570D02*
X125586771Y-56002570D01*
X94465027Y-53000000D02*
G75*
G03X94465027Y-53000000I-1500000J0D01*
G01*
X123586771Y-58002570D02*
X123586771Y-88036013D01*
X125586771Y-90036013D02*
X135942795Y-90036013D01*
X97478528Y-50364658D02*
X97478528Y-52904658D01*
X129681076Y-51634658D02*
G75*
G03X129681076Y-51634658I-452548J0D01*
G01*
X125586771Y-90036013D02*
G75*
G02X123586771Y-88036013I0J2000000D01*
G01*
X128908528Y-51314658D02*
X128908528Y-51954658D01*
D11*
X100249523Y-86472380D02*
X100249523Y-85472380D01*
X99916190Y-86186666D01*
X99582857Y-85472380D01*
X99582857Y-86472380D01*
X98582857Y-86472380D02*
X99154285Y-86472380D01*
X98868571Y-86472380D02*
X98868571Y-85472380D01*
X98963809Y-85615238D01*
X99059047Y-85710476D01*
X99154285Y-85758095D01*
G04 #@! TD*
M02*
