G04 #@! TF.FileFunction,Soldermask,Bot*
%FSLAX46Y46*%
G04 Gerber Fmt 4.6, Leading zero omitted, Abs format (unit mm)*
G04 Created by KiCad (PCBNEW 4.0.7-e2-6376~58~ubuntu16.04.1) date Fri Feb  1 18:55:09 2019*
%MOMM*%
%LPD*%
G01*
G04 APERTURE LIST*
%ADD10C,0.100000*%
%ADD11O,3.400000X2.900000*%
%ADD12O,2.900000X3.400000*%
%ADD13R,2.127200X2.127200*%
%ADD14O,2.127200X2.127200*%
%ADD15C,2.100000*%
G04 APERTURE END LIST*
D10*
D11*
X97000000Y-77000000D03*
X97000000Y-82000000D03*
D12*
X100500000Y-45000000D03*
X95500000Y-45000000D03*
D13*
X95000000Y-61000000D03*
D14*
X97540000Y-61000000D03*
X95000000Y-63540000D03*
X97540000Y-63540000D03*
X95000000Y-66080000D03*
X97540000Y-66080000D03*
D15*
X98722892Y-94771414D03*
X98722892Y-92231414D03*
X101262892Y-94771414D03*
X101262892Y-92231414D03*
X103802892Y-94771414D03*
X103802892Y-92231414D03*
X106342892Y-94771414D03*
X106342892Y-92231414D03*
X108882892Y-94771414D03*
X108882892Y-92231414D03*
X111422892Y-94771414D03*
X111422892Y-92231414D03*
X113962892Y-94771414D03*
X113962892Y-92231414D03*
X116502892Y-94771414D03*
X116502892Y-92231414D03*
X119042892Y-94771414D03*
X119042892Y-92231414D03*
X121582892Y-94771414D03*
X121582892Y-92231414D03*
X124122892Y-94771414D03*
X124122892Y-92231414D03*
X126662892Y-94771414D03*
X126662892Y-92231414D03*
X129202892Y-94771414D03*
X129202892Y-92231414D03*
X98748528Y-51634658D03*
X101288528Y-51634658D03*
X103828528Y-51634658D03*
X106368528Y-51634658D03*
X108908528Y-51634658D03*
X111448528Y-51634658D03*
X113988528Y-51634658D03*
X116528528Y-51634658D03*
X119068528Y-51634658D03*
X121608528Y-51634658D03*
X124148528Y-51634658D03*
X126688528Y-51634658D03*
X129228528Y-51634658D03*
M02*
