G04 #@! TF.FileFunction,Soldermask,Top*
%FSLAX46Y46*%
G04 Gerber Fmt 4.6, Leading zero omitted, Abs format (unit mm)*
G04 Created by KiCad (PCBNEW 4.0.7-e2-6376~58~ubuntu16.04.1) date Fri Feb  1 18:55:09 2019*
%MOMM*%
%LPD*%
G01*
G04 APERTURE LIST*
%ADD10C,0.100000*%
%ADD11R,1.700000X1.100000*%
%ADD12O,3.400000X2.900000*%
%ADD13O,2.900000X3.400000*%
%ADD14R,2.127200X2.127200*%
%ADD15O,2.127200X2.127200*%
%ADD16R,1.900000X1.000000*%
%ADD17R,2.400000X4.200000*%
%ADD18R,2.400000X1.900000*%
%ADD19R,1.100000X1.700000*%
%ADD20C,2.100000*%
%ADD21R,1.400000X1.650000*%
%ADD22R,4.400000X2.900000*%
%ADD23R,1.650000X1.400000*%
G04 APERTURE END LIST*
D10*
D11*
X102500000Y-56050000D03*
X102500000Y-57950000D03*
X105000000Y-56050000D03*
X105000000Y-57950000D03*
X108000000Y-56050000D03*
X108000000Y-57950000D03*
D12*
X97000000Y-77000000D03*
X97000000Y-82000000D03*
D13*
X100500000Y-45000000D03*
X95500000Y-45000000D03*
D14*
X95000000Y-61000000D03*
D15*
X97540000Y-61000000D03*
X95000000Y-63540000D03*
X97540000Y-63540000D03*
X95000000Y-66080000D03*
X97540000Y-66080000D03*
D16*
X114700000Y-77445000D03*
X114700000Y-76175000D03*
X114700000Y-74905000D03*
X114700000Y-73635000D03*
X114700000Y-72365000D03*
X114700000Y-71095000D03*
X114700000Y-69825000D03*
X114700000Y-68555000D03*
X109300000Y-68555000D03*
X109300000Y-69825000D03*
X109300000Y-71095000D03*
X109300000Y-72365000D03*
X109300000Y-73635000D03*
X109300000Y-74905000D03*
X109300000Y-76175000D03*
X109300000Y-77445000D03*
D17*
X115500000Y-45000000D03*
D18*
X109200000Y-45000000D03*
X109200000Y-47300000D03*
X109200000Y-42700000D03*
D19*
X103050000Y-73000000D03*
X104950000Y-73000000D03*
D20*
X98722892Y-94771414D03*
X98722892Y-92231414D03*
X101262892Y-94771414D03*
X101262892Y-92231414D03*
X103802892Y-94771414D03*
X103802892Y-92231414D03*
X106342892Y-94771414D03*
X106342892Y-92231414D03*
X108882892Y-94771414D03*
X108882892Y-92231414D03*
X111422892Y-94771414D03*
X111422892Y-92231414D03*
X113962892Y-94771414D03*
X113962892Y-92231414D03*
X116502892Y-94771414D03*
X116502892Y-92231414D03*
X119042892Y-94771414D03*
X119042892Y-92231414D03*
X121582892Y-94771414D03*
X121582892Y-92231414D03*
X124122892Y-94771414D03*
X124122892Y-92231414D03*
X126662892Y-94771414D03*
X126662892Y-92231414D03*
X129202892Y-94771414D03*
X129202892Y-92231414D03*
X98748528Y-51634658D03*
X101288528Y-51634658D03*
X103828528Y-51634658D03*
X106368528Y-51634658D03*
X108908528Y-51634658D03*
X111448528Y-51634658D03*
X113988528Y-51634658D03*
X116528528Y-51634658D03*
X119068528Y-51634658D03*
X121608528Y-51634658D03*
X124148528Y-51634658D03*
X126688528Y-51634658D03*
X129228528Y-51634658D03*
D19*
X104950000Y-64000000D03*
X103050000Y-64000000D03*
X104950000Y-82000000D03*
X103050000Y-82000000D03*
D21*
X103000000Y-70000000D03*
X105000000Y-70000000D03*
X103000000Y-76000000D03*
X105000000Y-76000000D03*
X105000000Y-61000000D03*
X103000000Y-61000000D03*
X103000000Y-85000000D03*
X105000000Y-85000000D03*
X105000000Y-67000000D03*
X103000000Y-67000000D03*
X105000000Y-79000000D03*
X103000000Y-79000000D03*
D22*
X120400000Y-45000000D03*
X126500000Y-45000000D03*
X113950000Y-84000000D03*
X120050000Y-84000000D03*
D21*
X108000000Y-83000000D03*
X110000000Y-83000000D03*
X108000000Y-80000000D03*
X110000000Y-80000000D03*
X108000000Y-66000000D03*
X110000000Y-66000000D03*
X108000000Y-63000000D03*
X110000000Y-63000000D03*
D22*
X114077432Y-62000000D03*
X120177432Y-62000000D03*
D23*
X106000000Y-44000000D03*
X106000000Y-46000000D03*
D21*
X118000000Y-70000000D03*
X120000000Y-70000000D03*
X118000000Y-73000000D03*
X120000000Y-73000000D03*
X118000000Y-76000000D03*
X120000000Y-76000000D03*
M02*
