M48
;DRILL file {KiCad 4.0.7-e2-6376~58~ubuntu16.04.1} date Fri Feb  1 18:55:11 2019
;FORMAT={-:-/ absolute / inch / decimal}
FMAT,2
INCH,TZ
T1C0.016
T2C0.031
T3C0.039
T4C0.040
T5C0.051
T6C0.079
%
G90
G05
M72
T1
X3.9567Y-2.5591
X4.195Y-2.9266
X4.4591Y-2.9995
T2
X3.775Y-2.0066
X3.9764Y-2.4803
X3.9961Y-2.7559
X3.9961Y-2.9921
X4.0748Y-3.5039
X4.1732Y-2.4016
X4.1732Y-3.3465
X4.2244Y-1.6811
X4.252Y-2.5394
X4.252Y-3.2087
X4.7047Y-2.3228
X4.7047Y-3.4016
X4.7835Y-2.7559
X4.7835Y-2.874
X4.9232Y-1.6584
T3
X3.8867Y-3.6312
X3.8867Y-3.7312
X3.8877Y-2.0329
X3.9867Y-3.6312
X3.9867Y-3.7312
X3.9877Y-2.0329
X4.0867Y-3.6312
X4.0867Y-3.7312
X4.0877Y-2.0329
X4.1867Y-3.6312
X4.1867Y-3.7312
X4.1877Y-2.0329
X4.2867Y-3.6312
X4.2867Y-3.7312
X4.2877Y-2.0329
X4.3867Y-3.6312
X4.3867Y-3.7312
X4.3877Y-2.0329
X4.4867Y-3.6312
X4.4867Y-3.7312
X4.4877Y-2.0329
X4.5867Y-3.6312
X4.5867Y-3.7312
X4.5877Y-2.0329
X4.6867Y-3.6312
X4.6867Y-3.7312
X4.6877Y-2.0329
X4.7867Y-3.6312
X4.7867Y-3.7312
X4.7877Y-2.0329
X4.8867Y-3.6312
X4.8867Y-3.7312
X4.8877Y-2.0329
X4.9867Y-3.6312
X4.9867Y-3.7312
X4.9877Y-2.0329
X5.0867Y-3.6312
X5.0867Y-3.7312
X5.0877Y-2.0329
T4
X3.7402Y-2.4016
X3.7402Y-2.5016
X3.7402Y-2.6016
X3.8402Y-2.4016
X3.8402Y-2.5016
X3.8402Y-2.6016
T5
X3.7598Y-1.7717
X3.8189Y-3.0315
X3.8189Y-3.2283
X3.9567Y-1.7717
T6
X4.4094Y-2.874
T0
M30
