G04 #@! TF.GenerationSoftware,KiCad,Pcbnew,5.0.2-bee76a0~70~ubuntu16.04.1*
G04 #@! TF.CreationDate,2019-02-04T09:50:23+01:00*
G04 #@! TF.ProjectId,mb-a,6d622d61-2e6b-4696-9361-645f70636258,rev?*
G04 #@! TF.SameCoordinates,Original*
G04 #@! TF.FileFunction,Copper,L2,Bot*
G04 #@! TF.FilePolarity,Positive*
%FSLAX46Y46*%
G04 Gerber Fmt 4.6, Leading zero omitted, Abs format (unit mm)*
G04 Created by KiCad (PCBNEW 5.0.2-bee76a0~70~ubuntu16.04.1) date Mon 04 Feb 2019 09:50:23 AM CET*
%MOMM*%
%LPD*%
G01*
G04 APERTURE LIST*
G04 #@! TA.AperFunction,ComponentPad*
%ADD10O,3.000000X2.500000*%
G04 #@! TD*
G04 #@! TA.AperFunction,ComponentPad*
%ADD11O,2.500000X3.000000*%
G04 #@! TD*
G04 #@! TA.AperFunction,ComponentPad*
%ADD12R,1.727200X1.727200*%
G04 #@! TD*
G04 #@! TA.AperFunction,ComponentPad*
%ADD13O,1.727200X1.727200*%
G04 #@! TD*
G04 #@! TA.AperFunction,ComponentPad*
%ADD14C,1.700000*%
G04 #@! TD*
G04 #@! TA.AperFunction,ViaPad*
%ADD15C,1.000000*%
G04 #@! TD*
G04 #@! TA.AperFunction,ViaPad*
%ADD16C,3.000000*%
G04 #@! TD*
G04 #@! TA.AperFunction,ViaPad*
%ADD17C,0.600000*%
G04 #@! TD*
G04 #@! TA.AperFunction,Conductor*
%ADD18C,0.400000*%
G04 #@! TD*
G04 #@! TA.AperFunction,Conductor*
%ADD19C,1.000000*%
G04 #@! TD*
G04 #@! TA.AperFunction,Conductor*
%ADD20C,0.254000*%
G04 #@! TD*
G04 APERTURE END LIST*
D10*
G04 #@! TO.P,J2,1*
G04 #@! TO.N,Net-(C15-Pad2)*
X97000000Y-77000000D03*
G04 #@! TO.P,J2,2*
G04 #@! TO.N,Net-(C14-Pad1)*
X97000000Y-82000000D03*
G04 #@! TD*
D11*
G04 #@! TO.P,J1,1*
G04 #@! TO.N,GND*
X100500000Y-45000000D03*
G04 #@! TO.P,J1,2*
G04 #@! TO.N,+12V*
X95500000Y-45000000D03*
G04 #@! TD*
D12*
G04 #@! TO.P,X1,1*
G04 #@! TO.N,GND*
X95000000Y-61000000D03*
D13*
G04 #@! TO.P,X1,2*
G04 #@! TO.N,/SCL*
X97540000Y-61000000D03*
G04 #@! TO.P,X1,3*
G04 #@! TO.N,/SDA*
X95000000Y-63540000D03*
G04 #@! TO.P,X1,4*
G04 #@! TO.N,+3V3*
X97540000Y-63540000D03*
G04 #@! TO.P,X1,5*
G04 #@! TO.N,+5V*
X95000000Y-66080000D03*
G04 #@! TO.P,X1,6*
G04 #@! TO.N,/ALERT*
X97540000Y-66080000D03*
G04 #@! TD*
D14*
G04 #@! TO.P,M1,1*
G04 #@! TO.N,+3V3*
X98722892Y-94771414D03*
G04 #@! TO.P,M1,2*
G04 #@! TO.N,+5V*
X98722892Y-92231414D03*
G04 #@! TO.P,M1,3*
G04 #@! TO.N,/SDA*
X101262892Y-94771414D03*
G04 #@! TO.P,M1,4*
G04 #@! TO.N,+5V*
X101262892Y-92231414D03*
G04 #@! TO.P,M1,5*
G04 #@! TO.N,/SCL*
X103802892Y-94771414D03*
G04 #@! TO.P,M1,6*
G04 #@! TO.N,GND*
X103802892Y-92231414D03*
G04 #@! TO.P,M1,7*
G04 #@! TO.N,N/C*
X106342892Y-94771414D03*
G04 #@! TO.P,M1,8*
G04 #@! TO.N,/ALERT*
X106342892Y-92231414D03*
G04 #@! TO.P,M1,9*
G04 #@! TO.N,GND*
X108882892Y-94771414D03*
G04 #@! TO.P,M1,10*
G04 #@! TO.N,N/C*
X108882892Y-92231414D03*
G04 #@! TO.P,M1,11*
X111422892Y-94771414D03*
G04 #@! TO.P,M1,12*
X111422892Y-92231414D03*
G04 #@! TO.P,M1,13*
X113962892Y-94771414D03*
G04 #@! TO.P,M1,14*
G04 #@! TO.N,GND*
X113962892Y-92231414D03*
G04 #@! TO.P,M1,15*
G04 #@! TO.N,N/C*
X116502892Y-94771414D03*
G04 #@! TO.P,M1,16*
X116502892Y-92231414D03*
G04 #@! TO.P,M1,17*
G04 #@! TO.N,+3V3*
X119042892Y-94771414D03*
G04 #@! TO.P,M1,18*
G04 #@! TO.N,N/C*
X119042892Y-92231414D03*
G04 #@! TO.P,M1,19*
X121582892Y-94771414D03*
G04 #@! TO.P,M1,20*
G04 #@! TO.N,GND*
X121582892Y-92231414D03*
G04 #@! TO.P,M1,21*
G04 #@! TO.N,N/C*
X124122892Y-94771414D03*
G04 #@! TO.P,M1,22*
X124122892Y-92231414D03*
G04 #@! TO.P,M1,23*
X126662892Y-94771414D03*
G04 #@! TO.P,M1,24*
X126662892Y-92231414D03*
G04 #@! TO.P,M1,25*
G04 #@! TO.N,GND*
X129202892Y-94771414D03*
G04 #@! TO.P,M1,26*
G04 #@! TO.N,N/C*
X129202892Y-92231414D03*
G04 #@! TO.P,M1,39*
X98748528Y-51634658D03*
G04 #@! TO.P,M1,38*
X101288528Y-51634658D03*
G04 #@! TO.P,M1,37*
X103828528Y-51634658D03*
G04 #@! TO.P,M1,36*
X106368528Y-51634658D03*
G04 #@! TO.P,M1,35*
X108908528Y-51634658D03*
G04 #@! TO.P,M1,34*
X111448528Y-51634658D03*
G04 #@! TO.P,M1,33*
G04 #@! TO.N,/AUDIO*
X113988528Y-51634658D03*
G04 #@! TO.P,M1,32*
G04 #@! TO.N,N/C*
X116528528Y-51634658D03*
G04 #@! TO.P,M1,31*
X119068528Y-51634658D03*
G04 #@! TO.P,M1,30*
X121608528Y-51634658D03*
G04 #@! TO.P,M1,29*
X124148528Y-51634658D03*
G04 #@! TO.P,M1,28*
G04 #@! TO.N,GND*
X126688528Y-51634658D03*
G04 #@! TO.P,M1,27*
G04 #@! TO.N,+5V*
X129228528Y-51634658D03*
G04 #@! TD*
D15*
G04 #@! TO.N,GND*
X125048397Y-42123017D03*
D16*
X112000000Y-73000000D03*
D15*
X106000000Y-85000000D03*
X119500000Y-86400000D03*
X108000000Y-81500000D03*
X106000000Y-61000000D03*
X108000000Y-64500000D03*
X101500000Y-76000000D03*
X101500000Y-70000000D03*
X121500000Y-70000000D03*
X121500000Y-73000000D03*
X119500000Y-59000000D03*
X107300000Y-42700000D03*
G04 #@! TO.N,+5V*
X95884000Y-50968000D03*
G04 #@! TO.N,+3V3*
X101000000Y-63000000D03*
X103500000Y-89000000D03*
D17*
G04 #@! TO.N,/AVCC*
X113260419Y-76188207D03*
X106552000Y-74336000D03*
G04 #@! TO.N,/ALERT*
X100500000Y-65000000D03*
G04 #@! TD*
D18*
G04 #@! TO.N,GND*
X108882892Y-94771414D02*
X110132893Y-93521413D01*
X110132893Y-93521413D02*
X112672893Y-93521413D01*
X112672893Y-93521413D02*
X113112893Y-93081413D01*
X113112893Y-93081413D02*
X113962892Y-92231414D01*
X129202892Y-94771414D02*
X127952891Y-93521413D01*
X127952891Y-93521413D02*
X122872891Y-93521413D01*
X122872891Y-93521413D02*
X122432891Y-93081413D01*
X122432891Y-93081413D02*
X121582892Y-92231414D01*
D19*
G04 #@! TO.N,+5V*
X95884000Y-50968000D02*
X92500000Y-54352000D01*
X92500000Y-54352000D02*
X92500000Y-56681105D01*
X98722892Y-92231414D02*
X101262892Y-92231414D01*
X92500000Y-56681105D02*
X92500000Y-66000000D01*
X92500000Y-66000000D02*
X92500000Y-86008522D01*
X95000000Y-66080000D02*
X92580000Y-66080000D01*
X92580000Y-66080000D02*
X92500000Y-66000000D01*
X92500000Y-86008522D02*
X98722892Y-92231414D01*
G04 #@! TO.N,+3V3*
X99500000Y-68500000D02*
X102000000Y-66000000D01*
X102000000Y-64000000D02*
X101000000Y-63000000D01*
X99500000Y-69000000D02*
X99500000Y-68500000D01*
X103500000Y-89000000D02*
X99500000Y-85000000D01*
X102000000Y-66000000D02*
X102000000Y-64000000D01*
X99500000Y-85000000D02*
X99500000Y-69000000D01*
D18*
G04 #@! TO.N,/AVCC*
X112836155Y-76188207D02*
X113260419Y-76188207D01*
X108404207Y-76188207D02*
X112836155Y-76188207D01*
X106552000Y-74336000D02*
X108404207Y-76188207D01*
G04 #@! TO.N,/SDA*
X96263601Y-64803601D02*
X95863599Y-64403599D01*
X96263601Y-66686529D02*
X96263601Y-64803601D01*
X93440629Y-69509501D02*
X96263601Y-66686529D01*
X93440629Y-84877941D02*
X93440629Y-69509501D01*
X99544101Y-90981413D02*
X93440629Y-84877941D01*
X95863599Y-64403599D02*
X95000000Y-63540000D01*
X101862893Y-90981413D02*
X99544101Y-90981413D01*
X102512893Y-91631413D02*
X101862893Y-90981413D01*
X102512893Y-93521413D02*
X102512893Y-91631413D01*
X101262892Y-94771414D02*
X102512893Y-93521413D01*
G04 #@! TO.N,/SCL*
X94040640Y-71449490D02*
X99115757Y-66374373D01*
X98403599Y-61863599D02*
X97540000Y-61000000D01*
X102111425Y-90381403D02*
X99792633Y-90381403D01*
X104402893Y-90981413D02*
X102711435Y-90981413D01*
X102711435Y-90981413D02*
X102111425Y-90381403D01*
X105052893Y-91631413D02*
X104402893Y-90981413D01*
X99115757Y-66374373D02*
X99115757Y-62575757D01*
X99115757Y-62575757D02*
X98403599Y-61863599D01*
X99792633Y-90381403D02*
X94040640Y-84629410D01*
X94040640Y-84629410D02*
X94040640Y-71449490D01*
X105052893Y-93521413D02*
X105052893Y-91631413D01*
X103802892Y-94771414D02*
X105052893Y-93521413D01*
G04 #@! TO.N,/ALERT*
X100153742Y-89781392D02*
X94702609Y-84330259D01*
X94702609Y-71636064D02*
X100500000Y-65838673D01*
X102359957Y-89781392D02*
X100153742Y-89781392D01*
X104651425Y-90381402D02*
X102959966Y-90381402D01*
X94702609Y-84330259D02*
X94702609Y-71636064D01*
X105652904Y-91382881D02*
X104651425Y-90381402D01*
X100500000Y-65838673D02*
X100500000Y-65000000D01*
X105652904Y-92231414D02*
X105652904Y-91382881D01*
X106342892Y-92231414D02*
X105652904Y-92231414D01*
X102959966Y-90381402D02*
X102359957Y-89781392D01*
G04 #@! TD*
D20*
G04 #@! TO.N,GND*
G36*
X110163970Y-93072599D02*
X110581707Y-93490336D01*
X110608452Y-93501414D01*
X110581707Y-93512492D01*
X110163970Y-93930229D01*
X110144737Y-93976661D01*
X109926850Y-93907061D01*
X109062497Y-94771414D01*
X109076640Y-94785557D01*
X108897035Y-94965162D01*
X108882892Y-94951019D01*
X108868750Y-94965162D01*
X108689145Y-94785557D01*
X108703287Y-94771414D01*
X107838934Y-93907061D01*
X107621047Y-93976661D01*
X107601814Y-93930229D01*
X107184077Y-93512492D01*
X107157332Y-93501414D01*
X107184077Y-93490336D01*
X107601814Y-93072599D01*
X107612892Y-93045854D01*
X107623970Y-93072599D01*
X108041707Y-93490336D01*
X108088139Y-93509569D01*
X108018539Y-93727456D01*
X108882892Y-94591809D01*
X109747245Y-93727456D01*
X109677645Y-93509569D01*
X109724077Y-93490336D01*
X110141814Y-93072599D01*
X110152892Y-93045854D01*
X110163970Y-93072599D01*
X110163970Y-93072599D01*
G37*
X110163970Y-93072599D02*
X110581707Y-93490336D01*
X110608452Y-93501414D01*
X110581707Y-93512492D01*
X110163970Y-93930229D01*
X110144737Y-93976661D01*
X109926850Y-93907061D01*
X109062497Y-94771414D01*
X109076640Y-94785557D01*
X108897035Y-94965162D01*
X108882892Y-94951019D01*
X108868750Y-94965162D01*
X108689145Y-94785557D01*
X108703287Y-94771414D01*
X107838934Y-93907061D01*
X107621047Y-93976661D01*
X107601814Y-93930229D01*
X107184077Y-93512492D01*
X107157332Y-93501414D01*
X107184077Y-93490336D01*
X107601814Y-93072599D01*
X107612892Y-93045854D01*
X107623970Y-93072599D01*
X108041707Y-93490336D01*
X108088139Y-93509569D01*
X108018539Y-93727456D01*
X108882892Y-94591809D01*
X109747245Y-93727456D01*
X109677645Y-93509569D01*
X109724077Y-93490336D01*
X110141814Y-93072599D01*
X110152892Y-93045854D01*
X110163970Y-93072599D01*
G36*
X127943970Y-93072599D02*
X128361707Y-93490336D01*
X128408139Y-93509569D01*
X128338539Y-93727456D01*
X129202892Y-94591809D01*
X129217035Y-94577667D01*
X129396640Y-94757272D01*
X129382497Y-94771414D01*
X129396640Y-94785557D01*
X129217035Y-94965162D01*
X129202892Y-94951019D01*
X129188750Y-94965162D01*
X129009145Y-94785557D01*
X129023287Y-94771414D01*
X128158934Y-93907061D01*
X127941047Y-93976661D01*
X127921814Y-93930229D01*
X127504077Y-93512492D01*
X127477332Y-93501414D01*
X127504077Y-93490336D01*
X127921814Y-93072599D01*
X127932892Y-93045854D01*
X127943970Y-93072599D01*
X127943970Y-93072599D01*
G37*
X127943970Y-93072599D02*
X128361707Y-93490336D01*
X128408139Y-93509569D01*
X128338539Y-93727456D01*
X129202892Y-94591809D01*
X129217035Y-94577667D01*
X129396640Y-94757272D01*
X129382497Y-94771414D01*
X129396640Y-94785557D01*
X129217035Y-94965162D01*
X129202892Y-94951019D01*
X129188750Y-94965162D01*
X129009145Y-94785557D01*
X129023287Y-94771414D01*
X128158934Y-93907061D01*
X127941047Y-93976661D01*
X127921814Y-93930229D01*
X127504077Y-93512492D01*
X127477332Y-93501414D01*
X127504077Y-93490336D01*
X127921814Y-93072599D01*
X127932892Y-93045854D01*
X127943970Y-93072599D01*
G36*
X128860027Y-40768803D02*
X129191110Y-40919338D01*
X129466639Y-41156749D01*
X129664456Y-41461944D01*
X129775700Y-41833917D01*
X129790001Y-42026362D01*
X129790000Y-50259875D01*
X129523913Y-50149658D01*
X128933143Y-50149658D01*
X128387343Y-50375736D01*
X127969606Y-50793473D01*
X127950373Y-50839905D01*
X127732486Y-50770305D01*
X126868133Y-51634658D01*
X126882276Y-51648801D01*
X126702671Y-51828406D01*
X126688528Y-51814263D01*
X126674386Y-51828406D01*
X126494781Y-51648801D01*
X126508923Y-51634658D01*
X125644570Y-50770305D01*
X125426683Y-50839905D01*
X125407450Y-50793473D01*
X125204677Y-50590700D01*
X125824175Y-50590700D01*
X126688528Y-51455053D01*
X127552881Y-50590700D01*
X127472608Y-50339399D01*
X126917249Y-50137940D01*
X126327070Y-50164343D01*
X125904448Y-50339399D01*
X125824175Y-50590700D01*
X125204677Y-50590700D01*
X124989713Y-50375736D01*
X124443913Y-50149658D01*
X123853143Y-50149658D01*
X123307343Y-50375736D01*
X122889606Y-50793473D01*
X122878528Y-50820218D01*
X122867450Y-50793473D01*
X122449713Y-50375736D01*
X121903913Y-50149658D01*
X121313143Y-50149658D01*
X120767343Y-50375736D01*
X120349606Y-50793473D01*
X120338528Y-50820218D01*
X120327450Y-50793473D01*
X119909713Y-50375736D01*
X119363913Y-50149658D01*
X118773143Y-50149658D01*
X118227343Y-50375736D01*
X117809606Y-50793473D01*
X117798528Y-50820218D01*
X117787450Y-50793473D01*
X117369713Y-50375736D01*
X116823913Y-50149658D01*
X116233143Y-50149658D01*
X115687343Y-50375736D01*
X115269606Y-50793473D01*
X115258528Y-50820218D01*
X115247450Y-50793473D01*
X114829713Y-50375736D01*
X114283913Y-50149658D01*
X113693143Y-50149658D01*
X113147343Y-50375736D01*
X112729606Y-50793473D01*
X112718528Y-50820218D01*
X112707450Y-50793473D01*
X112289713Y-50375736D01*
X111743913Y-50149658D01*
X111153143Y-50149658D01*
X110607343Y-50375736D01*
X110189606Y-50793473D01*
X110178528Y-50820218D01*
X110167450Y-50793473D01*
X109749713Y-50375736D01*
X109203913Y-50149658D01*
X108613143Y-50149658D01*
X108067343Y-50375736D01*
X107649606Y-50793473D01*
X107638528Y-50820218D01*
X107627450Y-50793473D01*
X107209713Y-50375736D01*
X106663913Y-50149658D01*
X106073143Y-50149658D01*
X105527343Y-50375736D01*
X105109606Y-50793473D01*
X105098528Y-50820218D01*
X105087450Y-50793473D01*
X104669713Y-50375736D01*
X104123913Y-50149658D01*
X103533143Y-50149658D01*
X102987343Y-50375736D01*
X102569606Y-50793473D01*
X102558528Y-50820218D01*
X102547450Y-50793473D01*
X102129713Y-50375736D01*
X101583913Y-50149658D01*
X100993143Y-50149658D01*
X100447343Y-50375736D01*
X100029606Y-50793473D01*
X100018528Y-50820218D01*
X100007450Y-50793473D01*
X99589713Y-50375736D01*
X99043913Y-50149658D01*
X98453143Y-50149658D01*
X97907343Y-50375736D01*
X97489606Y-50793473D01*
X97263528Y-51339273D01*
X97263528Y-51930043D01*
X97489606Y-52475843D01*
X97907343Y-52893580D01*
X98453143Y-53119658D01*
X99043913Y-53119658D01*
X99589713Y-52893580D01*
X100007450Y-52475843D01*
X100018528Y-52449098D01*
X100029606Y-52475843D01*
X100447343Y-52893580D01*
X100993143Y-53119658D01*
X101583913Y-53119658D01*
X102129713Y-52893580D01*
X102547450Y-52475843D01*
X102558528Y-52449098D01*
X102569606Y-52475843D01*
X102987343Y-52893580D01*
X103533143Y-53119658D01*
X104123913Y-53119658D01*
X104669713Y-52893580D01*
X105087450Y-52475843D01*
X105098528Y-52449098D01*
X105109606Y-52475843D01*
X105527343Y-52893580D01*
X106073143Y-53119658D01*
X106663913Y-53119658D01*
X107209713Y-52893580D01*
X107627450Y-52475843D01*
X107638528Y-52449098D01*
X107649606Y-52475843D01*
X108067343Y-52893580D01*
X108613143Y-53119658D01*
X109203913Y-53119658D01*
X109749713Y-52893580D01*
X110167450Y-52475843D01*
X110178528Y-52449098D01*
X110189606Y-52475843D01*
X110607343Y-52893580D01*
X111153143Y-53119658D01*
X111743913Y-53119658D01*
X112289713Y-52893580D01*
X112707450Y-52475843D01*
X112718528Y-52449098D01*
X112729606Y-52475843D01*
X113147343Y-52893580D01*
X113693143Y-53119658D01*
X114283913Y-53119658D01*
X114829713Y-52893580D01*
X115247450Y-52475843D01*
X115258528Y-52449098D01*
X115269606Y-52475843D01*
X115687343Y-52893580D01*
X116233143Y-53119658D01*
X116823913Y-53119658D01*
X117369713Y-52893580D01*
X117787450Y-52475843D01*
X117798528Y-52449098D01*
X117809606Y-52475843D01*
X118227343Y-52893580D01*
X118773143Y-53119658D01*
X119363913Y-53119658D01*
X119909713Y-52893580D01*
X120327450Y-52475843D01*
X120338528Y-52449098D01*
X120349606Y-52475843D01*
X120767343Y-52893580D01*
X121313143Y-53119658D01*
X121903913Y-53119658D01*
X122449713Y-52893580D01*
X122867450Y-52475843D01*
X122878528Y-52449098D01*
X122889606Y-52475843D01*
X123307343Y-52893580D01*
X123644195Y-53033109D01*
X123277224Y-53458998D01*
X123225286Y-53540211D01*
X123172404Y-53620716D01*
X123168766Y-53628590D01*
X122934060Y-54144799D01*
X122907020Y-54237268D01*
X122878842Y-54329435D01*
X122877560Y-54338014D01*
X122799893Y-54880338D01*
X122790000Y-54930075D01*
X122790001Y-89069926D01*
X122795169Y-89095908D01*
X122813920Y-89348235D01*
X122829474Y-89418981D01*
X122839302Y-89490726D01*
X122841736Y-89499052D01*
X123004213Y-90042337D01*
X123044652Y-90129855D01*
X123083978Y-90217770D01*
X123088648Y-90225072D01*
X123088651Y-90225078D01*
X123088655Y-90225082D01*
X123397080Y-90700924D01*
X123460440Y-90773555D01*
X123522876Y-90846918D01*
X123529413Y-90852621D01*
X123542947Y-90864283D01*
X123281707Y-90972492D01*
X122863970Y-91390229D01*
X122844737Y-91436661D01*
X122626850Y-91367061D01*
X121762497Y-92231414D01*
X122626850Y-93095767D01*
X122844737Y-93026167D01*
X122863970Y-93072599D01*
X123281707Y-93490336D01*
X123308452Y-93501414D01*
X123281707Y-93512492D01*
X122863970Y-93930229D01*
X122852892Y-93956974D01*
X122841814Y-93930229D01*
X122424077Y-93512492D01*
X122377645Y-93493259D01*
X122447245Y-93275372D01*
X121582892Y-92411019D01*
X120718539Y-93275372D01*
X120788139Y-93493259D01*
X120741707Y-93512492D01*
X120323970Y-93930229D01*
X120312892Y-93956974D01*
X120301814Y-93930229D01*
X119884077Y-93512492D01*
X119857332Y-93501414D01*
X119884077Y-93490336D01*
X120301814Y-93072599D01*
X120321047Y-93026167D01*
X120538934Y-93095767D01*
X121403287Y-92231414D01*
X120538934Y-91367061D01*
X120321047Y-91436661D01*
X120301814Y-91390229D01*
X120099041Y-91187456D01*
X120718539Y-91187456D01*
X121582892Y-92051809D01*
X122447245Y-91187456D01*
X122366972Y-90936155D01*
X121811613Y-90734696D01*
X121221434Y-90761099D01*
X120798812Y-90936155D01*
X120718539Y-91187456D01*
X120099041Y-91187456D01*
X119884077Y-90972492D01*
X119338277Y-90746414D01*
X118747507Y-90746414D01*
X118201707Y-90972492D01*
X117783970Y-91390229D01*
X117772892Y-91416974D01*
X117761814Y-91390229D01*
X117344077Y-90972492D01*
X116798277Y-90746414D01*
X116207507Y-90746414D01*
X115661707Y-90972492D01*
X115243970Y-91390229D01*
X115224737Y-91436661D01*
X115006850Y-91367061D01*
X114142497Y-92231414D01*
X115006850Y-93095767D01*
X115224737Y-93026167D01*
X115243970Y-93072599D01*
X115661707Y-93490336D01*
X115688452Y-93501414D01*
X115661707Y-93512492D01*
X115243970Y-93930229D01*
X115232892Y-93956974D01*
X115221814Y-93930229D01*
X114804077Y-93512492D01*
X114757645Y-93493259D01*
X114827245Y-93275372D01*
X113962892Y-92411019D01*
X113098539Y-93275372D01*
X113168139Y-93493259D01*
X113121707Y-93512492D01*
X112703970Y-93930229D01*
X112692892Y-93956974D01*
X112681814Y-93930229D01*
X112264077Y-93512492D01*
X112237332Y-93501414D01*
X112264077Y-93490336D01*
X112681814Y-93072599D01*
X112701047Y-93026167D01*
X112918934Y-93095767D01*
X113783287Y-92231414D01*
X112918934Y-91367061D01*
X112701047Y-91436661D01*
X112681814Y-91390229D01*
X112479041Y-91187456D01*
X113098539Y-91187456D01*
X113962892Y-92051809D01*
X114827245Y-91187456D01*
X114746972Y-90936155D01*
X114191613Y-90734696D01*
X113601434Y-90761099D01*
X113178812Y-90936155D01*
X113098539Y-91187456D01*
X112479041Y-91187456D01*
X112264077Y-90972492D01*
X111718277Y-90746414D01*
X111127507Y-90746414D01*
X110581707Y-90972492D01*
X110163970Y-91390229D01*
X110152892Y-91416974D01*
X110141814Y-91390229D01*
X109724077Y-90972492D01*
X109178277Y-90746414D01*
X108587507Y-90746414D01*
X108041707Y-90972492D01*
X107623970Y-91390229D01*
X107612892Y-91416974D01*
X107601814Y-91390229D01*
X107184077Y-90972492D01*
X106638277Y-90746414D01*
X106203323Y-90746414D01*
X106185186Y-90734296D01*
X105300012Y-89849122D01*
X105253426Y-89779401D01*
X104977226Y-89594850D01*
X104733662Y-89546402D01*
X104733658Y-89546402D01*
X104651425Y-89530045D01*
X104569192Y-89546402D01*
X104502188Y-89546402D01*
X104505829Y-89537613D01*
X104569145Y-89442854D01*
X104591379Y-89331076D01*
X104635000Y-89225766D01*
X104635000Y-89111781D01*
X104657235Y-88999999D01*
X104635000Y-88888217D01*
X104635000Y-88774234D01*
X104591380Y-88668925D01*
X104569145Y-88557145D01*
X104505828Y-88462384D01*
X104462207Y-88357074D01*
X104142926Y-88037793D01*
X104142924Y-88037792D01*
X100635000Y-84529869D01*
X100635000Y-74150017D01*
X105617000Y-74150017D01*
X105617000Y-74521983D01*
X105759345Y-74865635D01*
X106022365Y-75128655D01*
X106263788Y-75228656D01*
X107755623Y-76720492D01*
X107802206Y-76790208D01*
X108078406Y-76974759D01*
X108321970Y-77023207D01*
X108321973Y-77023207D01*
X108404206Y-77039564D01*
X108486439Y-77023207D01*
X112833014Y-77023207D01*
X113074436Y-77123207D01*
X113446402Y-77123207D01*
X113790054Y-76980862D01*
X114053074Y-76717842D01*
X114195419Y-76374190D01*
X114195419Y-76002224D01*
X114053074Y-75658572D01*
X113790054Y-75395552D01*
X113446402Y-75253207D01*
X113074436Y-75253207D01*
X112833014Y-75353207D01*
X108750076Y-75353207D01*
X107444656Y-74047788D01*
X107344655Y-73806365D01*
X107081635Y-73543345D01*
X106737983Y-73401000D01*
X106366017Y-73401000D01*
X106022365Y-73543345D01*
X105759345Y-73806365D01*
X105617000Y-74150017D01*
X100635000Y-74150017D01*
X100635000Y-68970131D01*
X102723521Y-66881610D01*
X102818289Y-66818289D01*
X103069146Y-66442855D01*
X103135000Y-66111783D01*
X103135000Y-66111782D01*
X103157235Y-66000000D01*
X103135000Y-65888217D01*
X103135000Y-64111783D01*
X103157235Y-64000000D01*
X103069146Y-63557145D01*
X102881609Y-63276476D01*
X102818289Y-63181711D01*
X102723523Y-63118391D01*
X101962208Y-62357077D01*
X101962207Y-62357074D01*
X101642926Y-62037793D01*
X101537616Y-61994172D01*
X101442854Y-61930854D01*
X101331073Y-61908619D01*
X101225766Y-61865000D01*
X101111783Y-61865000D01*
X101000000Y-61842765D01*
X100888217Y-61865000D01*
X100774234Y-61865000D01*
X100668927Y-61908619D01*
X100557146Y-61930854D01*
X100462384Y-61994172D01*
X100357074Y-62037793D01*
X100276472Y-62118395D01*
X100181712Y-62181712D01*
X100118395Y-62276472D01*
X100037793Y-62357074D01*
X99994172Y-62462384D01*
X99955944Y-62519596D01*
X99932538Y-62401927D01*
X99902309Y-62249956D01*
X99717758Y-61973756D01*
X99648039Y-61927171D01*
X99052187Y-61331320D01*
X99052183Y-61331314D01*
X99010373Y-61289504D01*
X99067959Y-61000000D01*
X98951650Y-60415275D01*
X98620430Y-59919570D01*
X98124725Y-59588350D01*
X97687598Y-59501400D01*
X97392402Y-59501400D01*
X96955275Y-59588350D01*
X96460772Y-59918767D01*
X96401927Y-59776702D01*
X96223299Y-59598073D01*
X95989910Y-59501400D01*
X95285750Y-59501400D01*
X95127000Y-59660150D01*
X95127000Y-60873000D01*
X95147000Y-60873000D01*
X95147000Y-61127000D01*
X95127000Y-61127000D01*
X95127000Y-61147000D01*
X94873000Y-61147000D01*
X94873000Y-61127000D01*
X94853000Y-61127000D01*
X94853000Y-60873000D01*
X94873000Y-60873000D01*
X94873000Y-59660150D01*
X94714250Y-59501400D01*
X94010090Y-59501400D01*
X93776701Y-59598073D01*
X93635000Y-59739775D01*
X93635000Y-54822131D01*
X96526924Y-51930208D01*
X96526926Y-51930207D01*
X96846207Y-51610926D01*
X96889827Y-51505619D01*
X96953146Y-51410855D01*
X96975381Y-51299072D01*
X97019000Y-51193766D01*
X97019000Y-51079783D01*
X97041235Y-50968000D01*
X97019000Y-50856217D01*
X97019000Y-50742234D01*
X96975381Y-50636927D01*
X96953146Y-50525146D01*
X96889828Y-50430384D01*
X96846207Y-50325074D01*
X96765605Y-50244472D01*
X96702288Y-50149712D01*
X96607528Y-50086395D01*
X96526926Y-50005793D01*
X96421616Y-49962172D01*
X96326854Y-49898854D01*
X96215073Y-49876619D01*
X96109766Y-49833000D01*
X95995783Y-49833000D01*
X95884000Y-49810765D01*
X95772217Y-49833000D01*
X95658234Y-49833000D01*
X95552928Y-49876619D01*
X95441145Y-49898854D01*
X95346381Y-49962173D01*
X95241074Y-50005793D01*
X94921793Y-50325074D01*
X94921792Y-50325076D01*
X92210000Y-53036869D01*
X92210000Y-44564345D01*
X93615000Y-44564345D01*
X93615000Y-45435654D01*
X93724369Y-45985489D01*
X94140991Y-46609009D01*
X94764510Y-47025631D01*
X95500000Y-47171929D01*
X96235489Y-47025631D01*
X96859009Y-46609009D01*
X97275631Y-45985490D01*
X97385000Y-45435655D01*
X97385000Y-45424040D01*
X98614885Y-45424040D01*
X98824983Y-46132194D01*
X99290087Y-46706042D01*
X99939389Y-47058221D01*
X100080355Y-47087695D01*
X100373000Y-46971572D01*
X100373000Y-45127000D01*
X100627000Y-45127000D01*
X100627000Y-46971572D01*
X100919645Y-47087695D01*
X101060611Y-47058221D01*
X101709913Y-46706042D01*
X102175017Y-46132194D01*
X102385115Y-45424040D01*
X102230382Y-45127000D01*
X100627000Y-45127000D01*
X100373000Y-45127000D01*
X98769618Y-45127000D01*
X98614885Y-45424040D01*
X97385000Y-45424040D01*
X97385000Y-44575960D01*
X98614885Y-44575960D01*
X98769618Y-44873000D01*
X100373000Y-44873000D01*
X100373000Y-43028428D01*
X100627000Y-43028428D01*
X100627000Y-44873000D01*
X102230382Y-44873000D01*
X102385115Y-44575960D01*
X102175017Y-43867806D01*
X101709913Y-43293958D01*
X101060611Y-42941779D01*
X100919645Y-42912305D01*
X100627000Y-43028428D01*
X100373000Y-43028428D01*
X100080355Y-42912305D01*
X99939389Y-42941779D01*
X99290087Y-43293958D01*
X98824983Y-43867806D01*
X98614885Y-44575960D01*
X97385000Y-44575960D01*
X97385000Y-44564346D01*
X97275631Y-44014510D01*
X96859009Y-43390991D01*
X96235490Y-42974369D01*
X95500000Y-42828071D01*
X94764511Y-42974369D01*
X94140991Y-43390991D01*
X93724369Y-44014510D01*
X93615000Y-44564345D01*
X92210000Y-44564345D01*
X92210000Y-42050580D01*
X92268803Y-41639973D01*
X92419338Y-41308890D01*
X92656749Y-41033361D01*
X92961944Y-40835544D01*
X93333917Y-40724300D01*
X93526348Y-40710000D01*
X128449420Y-40710000D01*
X128860027Y-40768803D01*
X128860027Y-40768803D01*
G37*
X128860027Y-40768803D02*
X129191110Y-40919338D01*
X129466639Y-41156749D01*
X129664456Y-41461944D01*
X129775700Y-41833917D01*
X129790001Y-42026362D01*
X129790000Y-50259875D01*
X129523913Y-50149658D01*
X128933143Y-50149658D01*
X128387343Y-50375736D01*
X127969606Y-50793473D01*
X127950373Y-50839905D01*
X127732486Y-50770305D01*
X126868133Y-51634658D01*
X126882276Y-51648801D01*
X126702671Y-51828406D01*
X126688528Y-51814263D01*
X126674386Y-51828406D01*
X126494781Y-51648801D01*
X126508923Y-51634658D01*
X125644570Y-50770305D01*
X125426683Y-50839905D01*
X125407450Y-50793473D01*
X125204677Y-50590700D01*
X125824175Y-50590700D01*
X126688528Y-51455053D01*
X127552881Y-50590700D01*
X127472608Y-50339399D01*
X126917249Y-50137940D01*
X126327070Y-50164343D01*
X125904448Y-50339399D01*
X125824175Y-50590700D01*
X125204677Y-50590700D01*
X124989713Y-50375736D01*
X124443913Y-50149658D01*
X123853143Y-50149658D01*
X123307343Y-50375736D01*
X122889606Y-50793473D01*
X122878528Y-50820218D01*
X122867450Y-50793473D01*
X122449713Y-50375736D01*
X121903913Y-50149658D01*
X121313143Y-50149658D01*
X120767343Y-50375736D01*
X120349606Y-50793473D01*
X120338528Y-50820218D01*
X120327450Y-50793473D01*
X119909713Y-50375736D01*
X119363913Y-50149658D01*
X118773143Y-50149658D01*
X118227343Y-50375736D01*
X117809606Y-50793473D01*
X117798528Y-50820218D01*
X117787450Y-50793473D01*
X117369713Y-50375736D01*
X116823913Y-50149658D01*
X116233143Y-50149658D01*
X115687343Y-50375736D01*
X115269606Y-50793473D01*
X115258528Y-50820218D01*
X115247450Y-50793473D01*
X114829713Y-50375736D01*
X114283913Y-50149658D01*
X113693143Y-50149658D01*
X113147343Y-50375736D01*
X112729606Y-50793473D01*
X112718528Y-50820218D01*
X112707450Y-50793473D01*
X112289713Y-50375736D01*
X111743913Y-50149658D01*
X111153143Y-50149658D01*
X110607343Y-50375736D01*
X110189606Y-50793473D01*
X110178528Y-50820218D01*
X110167450Y-50793473D01*
X109749713Y-50375736D01*
X109203913Y-50149658D01*
X108613143Y-50149658D01*
X108067343Y-50375736D01*
X107649606Y-50793473D01*
X107638528Y-50820218D01*
X107627450Y-50793473D01*
X107209713Y-50375736D01*
X106663913Y-50149658D01*
X106073143Y-50149658D01*
X105527343Y-50375736D01*
X105109606Y-50793473D01*
X105098528Y-50820218D01*
X105087450Y-50793473D01*
X104669713Y-50375736D01*
X104123913Y-50149658D01*
X103533143Y-50149658D01*
X102987343Y-50375736D01*
X102569606Y-50793473D01*
X102558528Y-50820218D01*
X102547450Y-50793473D01*
X102129713Y-50375736D01*
X101583913Y-50149658D01*
X100993143Y-50149658D01*
X100447343Y-50375736D01*
X100029606Y-50793473D01*
X100018528Y-50820218D01*
X100007450Y-50793473D01*
X99589713Y-50375736D01*
X99043913Y-50149658D01*
X98453143Y-50149658D01*
X97907343Y-50375736D01*
X97489606Y-50793473D01*
X97263528Y-51339273D01*
X97263528Y-51930043D01*
X97489606Y-52475843D01*
X97907343Y-52893580D01*
X98453143Y-53119658D01*
X99043913Y-53119658D01*
X99589713Y-52893580D01*
X100007450Y-52475843D01*
X100018528Y-52449098D01*
X100029606Y-52475843D01*
X100447343Y-52893580D01*
X100993143Y-53119658D01*
X101583913Y-53119658D01*
X102129713Y-52893580D01*
X102547450Y-52475843D01*
X102558528Y-52449098D01*
X102569606Y-52475843D01*
X102987343Y-52893580D01*
X103533143Y-53119658D01*
X104123913Y-53119658D01*
X104669713Y-52893580D01*
X105087450Y-52475843D01*
X105098528Y-52449098D01*
X105109606Y-52475843D01*
X105527343Y-52893580D01*
X106073143Y-53119658D01*
X106663913Y-53119658D01*
X107209713Y-52893580D01*
X107627450Y-52475843D01*
X107638528Y-52449098D01*
X107649606Y-52475843D01*
X108067343Y-52893580D01*
X108613143Y-53119658D01*
X109203913Y-53119658D01*
X109749713Y-52893580D01*
X110167450Y-52475843D01*
X110178528Y-52449098D01*
X110189606Y-52475843D01*
X110607343Y-52893580D01*
X111153143Y-53119658D01*
X111743913Y-53119658D01*
X112289713Y-52893580D01*
X112707450Y-52475843D01*
X112718528Y-52449098D01*
X112729606Y-52475843D01*
X113147343Y-52893580D01*
X113693143Y-53119658D01*
X114283913Y-53119658D01*
X114829713Y-52893580D01*
X115247450Y-52475843D01*
X115258528Y-52449098D01*
X115269606Y-52475843D01*
X115687343Y-52893580D01*
X116233143Y-53119658D01*
X116823913Y-53119658D01*
X117369713Y-52893580D01*
X117787450Y-52475843D01*
X117798528Y-52449098D01*
X117809606Y-52475843D01*
X118227343Y-52893580D01*
X118773143Y-53119658D01*
X119363913Y-53119658D01*
X119909713Y-52893580D01*
X120327450Y-52475843D01*
X120338528Y-52449098D01*
X120349606Y-52475843D01*
X120767343Y-52893580D01*
X121313143Y-53119658D01*
X121903913Y-53119658D01*
X122449713Y-52893580D01*
X122867450Y-52475843D01*
X122878528Y-52449098D01*
X122889606Y-52475843D01*
X123307343Y-52893580D01*
X123644195Y-53033109D01*
X123277224Y-53458998D01*
X123225286Y-53540211D01*
X123172404Y-53620716D01*
X123168766Y-53628590D01*
X122934060Y-54144799D01*
X122907020Y-54237268D01*
X122878842Y-54329435D01*
X122877560Y-54338014D01*
X122799893Y-54880338D01*
X122790000Y-54930075D01*
X122790001Y-89069926D01*
X122795169Y-89095908D01*
X122813920Y-89348235D01*
X122829474Y-89418981D01*
X122839302Y-89490726D01*
X122841736Y-89499052D01*
X123004213Y-90042337D01*
X123044652Y-90129855D01*
X123083978Y-90217770D01*
X123088648Y-90225072D01*
X123088651Y-90225078D01*
X123088655Y-90225082D01*
X123397080Y-90700924D01*
X123460440Y-90773555D01*
X123522876Y-90846918D01*
X123529413Y-90852621D01*
X123542947Y-90864283D01*
X123281707Y-90972492D01*
X122863970Y-91390229D01*
X122844737Y-91436661D01*
X122626850Y-91367061D01*
X121762497Y-92231414D01*
X122626850Y-93095767D01*
X122844737Y-93026167D01*
X122863970Y-93072599D01*
X123281707Y-93490336D01*
X123308452Y-93501414D01*
X123281707Y-93512492D01*
X122863970Y-93930229D01*
X122852892Y-93956974D01*
X122841814Y-93930229D01*
X122424077Y-93512492D01*
X122377645Y-93493259D01*
X122447245Y-93275372D01*
X121582892Y-92411019D01*
X120718539Y-93275372D01*
X120788139Y-93493259D01*
X120741707Y-93512492D01*
X120323970Y-93930229D01*
X120312892Y-93956974D01*
X120301814Y-93930229D01*
X119884077Y-93512492D01*
X119857332Y-93501414D01*
X119884077Y-93490336D01*
X120301814Y-93072599D01*
X120321047Y-93026167D01*
X120538934Y-93095767D01*
X121403287Y-92231414D01*
X120538934Y-91367061D01*
X120321047Y-91436661D01*
X120301814Y-91390229D01*
X120099041Y-91187456D01*
X120718539Y-91187456D01*
X121582892Y-92051809D01*
X122447245Y-91187456D01*
X122366972Y-90936155D01*
X121811613Y-90734696D01*
X121221434Y-90761099D01*
X120798812Y-90936155D01*
X120718539Y-91187456D01*
X120099041Y-91187456D01*
X119884077Y-90972492D01*
X119338277Y-90746414D01*
X118747507Y-90746414D01*
X118201707Y-90972492D01*
X117783970Y-91390229D01*
X117772892Y-91416974D01*
X117761814Y-91390229D01*
X117344077Y-90972492D01*
X116798277Y-90746414D01*
X116207507Y-90746414D01*
X115661707Y-90972492D01*
X115243970Y-91390229D01*
X115224737Y-91436661D01*
X115006850Y-91367061D01*
X114142497Y-92231414D01*
X115006850Y-93095767D01*
X115224737Y-93026167D01*
X115243970Y-93072599D01*
X115661707Y-93490336D01*
X115688452Y-93501414D01*
X115661707Y-93512492D01*
X115243970Y-93930229D01*
X115232892Y-93956974D01*
X115221814Y-93930229D01*
X114804077Y-93512492D01*
X114757645Y-93493259D01*
X114827245Y-93275372D01*
X113962892Y-92411019D01*
X113098539Y-93275372D01*
X113168139Y-93493259D01*
X113121707Y-93512492D01*
X112703970Y-93930229D01*
X112692892Y-93956974D01*
X112681814Y-93930229D01*
X112264077Y-93512492D01*
X112237332Y-93501414D01*
X112264077Y-93490336D01*
X112681814Y-93072599D01*
X112701047Y-93026167D01*
X112918934Y-93095767D01*
X113783287Y-92231414D01*
X112918934Y-91367061D01*
X112701047Y-91436661D01*
X112681814Y-91390229D01*
X112479041Y-91187456D01*
X113098539Y-91187456D01*
X113962892Y-92051809D01*
X114827245Y-91187456D01*
X114746972Y-90936155D01*
X114191613Y-90734696D01*
X113601434Y-90761099D01*
X113178812Y-90936155D01*
X113098539Y-91187456D01*
X112479041Y-91187456D01*
X112264077Y-90972492D01*
X111718277Y-90746414D01*
X111127507Y-90746414D01*
X110581707Y-90972492D01*
X110163970Y-91390229D01*
X110152892Y-91416974D01*
X110141814Y-91390229D01*
X109724077Y-90972492D01*
X109178277Y-90746414D01*
X108587507Y-90746414D01*
X108041707Y-90972492D01*
X107623970Y-91390229D01*
X107612892Y-91416974D01*
X107601814Y-91390229D01*
X107184077Y-90972492D01*
X106638277Y-90746414D01*
X106203323Y-90746414D01*
X106185186Y-90734296D01*
X105300012Y-89849122D01*
X105253426Y-89779401D01*
X104977226Y-89594850D01*
X104733662Y-89546402D01*
X104733658Y-89546402D01*
X104651425Y-89530045D01*
X104569192Y-89546402D01*
X104502188Y-89546402D01*
X104505829Y-89537613D01*
X104569145Y-89442854D01*
X104591379Y-89331076D01*
X104635000Y-89225766D01*
X104635000Y-89111781D01*
X104657235Y-88999999D01*
X104635000Y-88888217D01*
X104635000Y-88774234D01*
X104591380Y-88668925D01*
X104569145Y-88557145D01*
X104505828Y-88462384D01*
X104462207Y-88357074D01*
X104142926Y-88037793D01*
X104142924Y-88037792D01*
X100635000Y-84529869D01*
X100635000Y-74150017D01*
X105617000Y-74150017D01*
X105617000Y-74521983D01*
X105759345Y-74865635D01*
X106022365Y-75128655D01*
X106263788Y-75228656D01*
X107755623Y-76720492D01*
X107802206Y-76790208D01*
X108078406Y-76974759D01*
X108321970Y-77023207D01*
X108321973Y-77023207D01*
X108404206Y-77039564D01*
X108486439Y-77023207D01*
X112833014Y-77023207D01*
X113074436Y-77123207D01*
X113446402Y-77123207D01*
X113790054Y-76980862D01*
X114053074Y-76717842D01*
X114195419Y-76374190D01*
X114195419Y-76002224D01*
X114053074Y-75658572D01*
X113790054Y-75395552D01*
X113446402Y-75253207D01*
X113074436Y-75253207D01*
X112833014Y-75353207D01*
X108750076Y-75353207D01*
X107444656Y-74047788D01*
X107344655Y-73806365D01*
X107081635Y-73543345D01*
X106737983Y-73401000D01*
X106366017Y-73401000D01*
X106022365Y-73543345D01*
X105759345Y-73806365D01*
X105617000Y-74150017D01*
X100635000Y-74150017D01*
X100635000Y-68970131D01*
X102723521Y-66881610D01*
X102818289Y-66818289D01*
X103069146Y-66442855D01*
X103135000Y-66111783D01*
X103135000Y-66111782D01*
X103157235Y-66000000D01*
X103135000Y-65888217D01*
X103135000Y-64111783D01*
X103157235Y-64000000D01*
X103069146Y-63557145D01*
X102881609Y-63276476D01*
X102818289Y-63181711D01*
X102723523Y-63118391D01*
X101962208Y-62357077D01*
X101962207Y-62357074D01*
X101642926Y-62037793D01*
X101537616Y-61994172D01*
X101442854Y-61930854D01*
X101331073Y-61908619D01*
X101225766Y-61865000D01*
X101111783Y-61865000D01*
X101000000Y-61842765D01*
X100888217Y-61865000D01*
X100774234Y-61865000D01*
X100668927Y-61908619D01*
X100557146Y-61930854D01*
X100462384Y-61994172D01*
X100357074Y-62037793D01*
X100276472Y-62118395D01*
X100181712Y-62181712D01*
X100118395Y-62276472D01*
X100037793Y-62357074D01*
X99994172Y-62462384D01*
X99955944Y-62519596D01*
X99932538Y-62401927D01*
X99902309Y-62249956D01*
X99717758Y-61973756D01*
X99648039Y-61927171D01*
X99052187Y-61331320D01*
X99052183Y-61331314D01*
X99010373Y-61289504D01*
X99067959Y-61000000D01*
X98951650Y-60415275D01*
X98620430Y-59919570D01*
X98124725Y-59588350D01*
X97687598Y-59501400D01*
X97392402Y-59501400D01*
X96955275Y-59588350D01*
X96460772Y-59918767D01*
X96401927Y-59776702D01*
X96223299Y-59598073D01*
X95989910Y-59501400D01*
X95285750Y-59501400D01*
X95127000Y-59660150D01*
X95127000Y-60873000D01*
X95147000Y-60873000D01*
X95147000Y-61127000D01*
X95127000Y-61127000D01*
X95127000Y-61147000D01*
X94873000Y-61147000D01*
X94873000Y-61127000D01*
X94853000Y-61127000D01*
X94853000Y-60873000D01*
X94873000Y-60873000D01*
X94873000Y-59660150D01*
X94714250Y-59501400D01*
X94010090Y-59501400D01*
X93776701Y-59598073D01*
X93635000Y-59739775D01*
X93635000Y-54822131D01*
X96526924Y-51930208D01*
X96526926Y-51930207D01*
X96846207Y-51610926D01*
X96889827Y-51505619D01*
X96953146Y-51410855D01*
X96975381Y-51299072D01*
X97019000Y-51193766D01*
X97019000Y-51079783D01*
X97041235Y-50968000D01*
X97019000Y-50856217D01*
X97019000Y-50742234D01*
X96975381Y-50636927D01*
X96953146Y-50525146D01*
X96889828Y-50430384D01*
X96846207Y-50325074D01*
X96765605Y-50244472D01*
X96702288Y-50149712D01*
X96607528Y-50086395D01*
X96526926Y-50005793D01*
X96421616Y-49962172D01*
X96326854Y-49898854D01*
X96215073Y-49876619D01*
X96109766Y-49833000D01*
X95995783Y-49833000D01*
X95884000Y-49810765D01*
X95772217Y-49833000D01*
X95658234Y-49833000D01*
X95552928Y-49876619D01*
X95441145Y-49898854D01*
X95346381Y-49962173D01*
X95241074Y-50005793D01*
X94921793Y-50325074D01*
X94921792Y-50325076D01*
X92210000Y-53036869D01*
X92210000Y-44564345D01*
X93615000Y-44564345D01*
X93615000Y-45435654D01*
X93724369Y-45985489D01*
X94140991Y-46609009D01*
X94764510Y-47025631D01*
X95500000Y-47171929D01*
X96235489Y-47025631D01*
X96859009Y-46609009D01*
X97275631Y-45985490D01*
X97385000Y-45435655D01*
X97385000Y-45424040D01*
X98614885Y-45424040D01*
X98824983Y-46132194D01*
X99290087Y-46706042D01*
X99939389Y-47058221D01*
X100080355Y-47087695D01*
X100373000Y-46971572D01*
X100373000Y-45127000D01*
X100627000Y-45127000D01*
X100627000Y-46971572D01*
X100919645Y-47087695D01*
X101060611Y-47058221D01*
X101709913Y-46706042D01*
X102175017Y-46132194D01*
X102385115Y-45424040D01*
X102230382Y-45127000D01*
X100627000Y-45127000D01*
X100373000Y-45127000D01*
X98769618Y-45127000D01*
X98614885Y-45424040D01*
X97385000Y-45424040D01*
X97385000Y-44575960D01*
X98614885Y-44575960D01*
X98769618Y-44873000D01*
X100373000Y-44873000D01*
X100373000Y-43028428D01*
X100627000Y-43028428D01*
X100627000Y-44873000D01*
X102230382Y-44873000D01*
X102385115Y-44575960D01*
X102175017Y-43867806D01*
X101709913Y-43293958D01*
X101060611Y-42941779D01*
X100919645Y-42912305D01*
X100627000Y-43028428D01*
X100373000Y-43028428D01*
X100080355Y-42912305D01*
X99939389Y-42941779D01*
X99290087Y-43293958D01*
X98824983Y-43867806D01*
X98614885Y-44575960D01*
X97385000Y-44575960D01*
X97385000Y-44564346D01*
X97275631Y-44014510D01*
X96859009Y-43390991D01*
X96235490Y-42974369D01*
X95500000Y-42828071D01*
X94764511Y-42974369D01*
X94140991Y-43390991D01*
X93724369Y-44014510D01*
X93615000Y-44564345D01*
X92210000Y-44564345D01*
X92210000Y-42050580D01*
X92268803Y-41639973D01*
X92419338Y-41308890D01*
X92656749Y-41033361D01*
X92961944Y-40835544D01*
X93333917Y-40724300D01*
X93526348Y-40710000D01*
X128449420Y-40710000D01*
X128860027Y-40768803D01*
G36*
X103996640Y-92217272D02*
X103982497Y-92231414D01*
X103996640Y-92245557D01*
X103817035Y-92425162D01*
X103802892Y-92411019D01*
X103788750Y-92425162D01*
X103609145Y-92245557D01*
X103623287Y-92231414D01*
X103609145Y-92217272D01*
X103788750Y-92037667D01*
X103802892Y-92051809D01*
X103817035Y-92037667D01*
X103996640Y-92217272D01*
X103996640Y-92217272D01*
G37*
X103996640Y-92217272D02*
X103982497Y-92231414D01*
X103996640Y-92245557D01*
X103817035Y-92425162D01*
X103802892Y-92411019D01*
X103788750Y-92425162D01*
X103609145Y-92245557D01*
X103623287Y-92231414D01*
X103609145Y-92217272D01*
X103788750Y-92037667D01*
X103802892Y-92051809D01*
X103817035Y-92037667D01*
X103996640Y-92217272D01*
G04 #@! TD*
M02*
