G04 #@! TF.GenerationSoftware,KiCad,Pcbnew,5.0.2-bee76a0~70~ubuntu16.04.1*
G04 #@! TF.CreationDate,2019-04-26T01:24:52+02:00*
G04 #@! TF.ProjectId,mb-a,6d622d61-2e6b-4696-9361-645f70636258,rev?*
G04 #@! TF.SameCoordinates,Original*
G04 #@! TF.FileFunction,Legend,Bot*
G04 #@! TF.FilePolarity,Positive*
%FSLAX46Y46*%
G04 Gerber Fmt 4.6, Leading zero omitted, Abs format (unit mm)*
G04 Created by KiCad (PCBNEW 5.0.2-bee76a0~70~ubuntu16.04.1) date Fri 26 Apr 2019 01:24:52 AM CEST*
%MOMM*%
%LPD*%
G01*
G04 APERTURE LIST*
%ADD10C,0.100000*%
%ADD11C,0.120000*%
%ADD12C,0.150000*%
G04 APERTURE END LIST*
D10*
G04 #@! TO.C,M1*
X128908528Y-51314658D02*
X128908528Y-51954658D01*
X125586771Y-90036013D02*
G75*
G02X123586771Y-88036013I0J2000000D01*
G01*
X129681076Y-51634658D02*
G75*
G03X129681076Y-51634658I-452548J0D01*
G01*
X97478528Y-50364658D02*
X97478528Y-52904658D01*
X125586771Y-90036013D02*
X135942795Y-90036013D01*
X123586771Y-58002570D02*
X123586771Y-88036013D01*
X94465027Y-53000000D02*
G75*
G03X94465027Y-53000000I-1500000J0D01*
G01*
X135942795Y-56002570D02*
X125586771Y-56002570D01*
X138002569Y-53942796D02*
G75*
G02X135942795Y-56002570I-2059774J0D01*
G01*
X138002570Y-93981379D02*
G75*
G02X135942795Y-96041154I-2059775J0D01*
G01*
X135942795Y-90036013D02*
G75*
G02X138002570Y-92095788I0J-2059775D01*
G01*
X92022231Y-96041153D02*
G75*
G02X89962457Y-93981379I0J2059774D01*
G01*
X89962456Y-52057204D02*
G75*
G02X92022231Y-49997429I2059775J0D01*
G01*
X135942795Y-49997429D02*
G75*
G02X138002570Y-52057204I0J-2059775D01*
G01*
X97452892Y-90961414D02*
X97452892Y-96041414D01*
X130472892Y-90961414D02*
X97452892Y-90961414D01*
X130472892Y-90961414D02*
X130472892Y-96041414D01*
X130498528Y-50364658D02*
X97478528Y-50364658D01*
X130498528Y-50364658D02*
X130498528Y-52904658D01*
X92022231Y-96041154D02*
X135942795Y-96041154D01*
X138002570Y-92095788D02*
X138002570Y-93981379D01*
X94465027Y-93038583D02*
G75*
G03X94465027Y-93038583I-1500000J0D01*
G01*
X97478528Y-52904658D02*
X130498528Y-52904658D01*
X92022231Y-49997429D02*
X135942795Y-49997429D01*
X128908528Y-51954658D02*
X129548528Y-51954658D01*
X123586771Y-58002570D02*
G75*
G02X125586771Y-56002570I2000000J0D01*
G01*
X136500000Y-53000000D02*
G75*
G03X136500000Y-53000000I-1500000J0D01*
G01*
X89962457Y-52057204D02*
X89962457Y-93981379D01*
X136500000Y-93038583D02*
G75*
G03X136500000Y-93038583I-1500000J0D01*
G01*
X138002570Y-52057204D02*
X138002570Y-53942796D01*
D11*
G04 #@! TO.C,C4*
X108741250Y-48543750D02*
X107953750Y-48543750D01*
X108347500Y-48937500D02*
X108347500Y-48150000D01*
X104154437Y-47910000D02*
X103090000Y-46845563D01*
X108845563Y-47910000D02*
X109910000Y-46845563D01*
X108845563Y-47910000D02*
X107560000Y-47910000D01*
X104154437Y-47910000D02*
X105440000Y-47910000D01*
X103090000Y-46845563D02*
X103090000Y-41090000D01*
X109910000Y-46845563D02*
X109910000Y-41090000D01*
X109910000Y-41090000D02*
X107560000Y-41090000D01*
X103090000Y-41090000D02*
X105440000Y-41090000D01*
G04 #@! TO.C,C19*
X128741250Y-48543750D02*
X127953750Y-48543750D01*
X128347500Y-48937500D02*
X128347500Y-48150000D01*
X124154437Y-47910000D02*
X123090000Y-46845563D01*
X128845563Y-47910000D02*
X129910000Y-46845563D01*
X128845563Y-47910000D02*
X127560000Y-47910000D01*
X124154437Y-47910000D02*
X125440000Y-47910000D01*
X123090000Y-46845563D02*
X123090000Y-41090000D01*
X129910000Y-46845563D02*
X129910000Y-41090000D01*
X129910000Y-41090000D02*
X127560000Y-41090000D01*
X123090000Y-41090000D02*
X125440000Y-41090000D01*
G04 #@! TO.C,L3*
X112500000Y-48600000D02*
X120500000Y-48600000D01*
X112500000Y-42400000D02*
X120500000Y-42400000D01*
G04 #@! TO.C,M1*
D12*
X100249523Y-86472380D02*
X100249523Y-85472380D01*
X99916190Y-86186666D01*
X99582857Y-85472380D01*
X99582857Y-86472380D01*
X98582857Y-86472380D02*
X99154285Y-86472380D01*
X98868571Y-86472380D02*
X98868571Y-85472380D01*
X98963809Y-85615238D01*
X99059047Y-85710476D01*
X99154285Y-85758095D01*
G04 #@! TO.C,C4*
X111207142Y-46583333D02*
X111254761Y-46535714D01*
X111302380Y-46392857D01*
X111302380Y-46297619D01*
X111254761Y-46154761D01*
X111159523Y-46059523D01*
X111064285Y-46011904D01*
X110873809Y-45964285D01*
X110730952Y-45964285D01*
X110540476Y-46011904D01*
X110445238Y-46059523D01*
X110350000Y-46154761D01*
X110302380Y-46297619D01*
X110302380Y-46392857D01*
X110350000Y-46535714D01*
X110397619Y-46583333D01*
X110635714Y-47440476D02*
X111302380Y-47440476D01*
X110254761Y-47202380D02*
X110969047Y-46964285D01*
X110969047Y-47583333D01*
G04 #@! TO.C,C19*
X122607142Y-46107142D02*
X122654761Y-46059523D01*
X122702380Y-45916666D01*
X122702380Y-45821428D01*
X122654761Y-45678571D01*
X122559523Y-45583333D01*
X122464285Y-45535714D01*
X122273809Y-45488095D01*
X122130952Y-45488095D01*
X121940476Y-45535714D01*
X121845238Y-45583333D01*
X121750000Y-45678571D01*
X121702380Y-45821428D01*
X121702380Y-45916666D01*
X121750000Y-46059523D01*
X121797619Y-46107142D01*
X122702380Y-47059523D02*
X122702380Y-46488095D01*
X122702380Y-46773809D02*
X121702380Y-46773809D01*
X121845238Y-46678571D01*
X121940476Y-46583333D01*
X121988095Y-46488095D01*
X122702380Y-47535714D02*
X122702380Y-47726190D01*
X122654761Y-47821428D01*
X122607142Y-47869047D01*
X122464285Y-47964285D01*
X122273809Y-48011904D01*
X121892857Y-48011904D01*
X121797619Y-47964285D01*
X121750000Y-47916666D01*
X121702380Y-47821428D01*
X121702380Y-47630952D01*
X121750000Y-47535714D01*
X121797619Y-47488095D01*
X121892857Y-47440476D01*
X122130952Y-47440476D01*
X122226190Y-47488095D01*
X122273809Y-47535714D01*
X122321428Y-47630952D01*
X122321428Y-47821428D01*
X122273809Y-47916666D01*
X122226190Y-47964285D01*
X122130952Y-48011904D01*
G04 #@! TO.C,L3*
X116666666Y-41702380D02*
X117142857Y-41702380D01*
X117142857Y-40702380D01*
X116428571Y-40702380D02*
X115809523Y-40702380D01*
X116142857Y-41083333D01*
X116000000Y-41083333D01*
X115904761Y-41130952D01*
X115857142Y-41178571D01*
X115809523Y-41273809D01*
X115809523Y-41511904D01*
X115857142Y-41607142D01*
X115904761Y-41654761D01*
X116000000Y-41702380D01*
X116285714Y-41702380D01*
X116380952Y-41654761D01*
X116428571Y-41607142D01*
G04 #@! TD*
M02*
