M48
;DRILL file {KiCad 5.0.2-bee76a0~70~ubuntu16.04.1} date Fri 26 Apr 2019 01:24:54 AM CEST
;FORMAT={-:-/ absolute / inch / decimal}
FMAT,2
INCH,TZ
T1C0.0157
T2C0.0315
T3C0.0394
T4C0.0400
T5C0.0512
T6C0.0787
%
G90
G05
T1
X3.9567Y-2.5591
X4.195Y-2.9266
X4.4591Y-2.9995
T2
X3.775Y-2.0066
X3.9764Y-2.4803
X3.9961Y-2.7559
X3.9961Y-2.9921
X4.0059Y-1.8799
X4.0748Y-3.5039
X4.1732Y-2.4016
X4.1732Y-3.3465
X4.252Y-2.5394
X4.252Y-3.2087
X4.3701Y-1.6339
X4.4882Y-1.8504
X4.7047Y-2.3228
X4.7047Y-3.4016
X4.7835Y-2.7559
X4.7835Y-2.874
X4.8031Y-1.7421
T3
X3.8867Y-3.6312
X3.8867Y-3.7312
X3.8877Y-2.0329
X3.9867Y-3.6312
X3.9867Y-3.7312
X3.9877Y-2.0329
X4.0867Y-3.6312
X4.0867Y-3.7312
X4.0877Y-2.0329
X4.1867Y-3.6312
X4.1867Y-3.7312
X4.1877Y-2.0329
X4.2867Y-3.6312
X4.2867Y-3.7312
X4.2877Y-2.0329
X4.3867Y-3.6312
X4.3867Y-3.7312
X4.3877Y-2.0329
X4.4867Y-3.6312
X4.4867Y-3.7312
X4.4877Y-2.0329
X4.5867Y-3.6312
X4.5867Y-3.7312
X4.5877Y-2.0329
X4.6867Y-3.6312
X4.6867Y-3.7312
X4.6877Y-2.0329
X4.7867Y-3.6312
X4.7867Y-3.7312
X4.7877Y-2.0329
X4.8867Y-3.6312
X4.8867Y-3.7312
X4.8877Y-2.0329
X4.9867Y-3.6312
X4.9867Y-3.7312
X4.9877Y-2.0329
X5.0867Y-3.6312
X5.0867Y-3.7312
X5.0877Y-2.0329
T4
X3.7402Y-2.3984
X3.7402Y-2.4984
X3.7402Y-2.5984
X3.8402Y-2.3984
X3.8402Y-2.4984
X3.8402Y-2.5984
T5
X3.7598Y-1.7717
X3.9567Y-1.7717
X3.8189Y-3.0315
X3.8189Y-3.2283
T6
X4.4094Y-2.874
T0
M30
