G04 #@! TF.GenerationSoftware,KiCad,Pcbnew,5.0.2-bee76a0~70~ubuntu16.04.1*
G04 #@! TF.CreationDate,2019-04-26T01:24:52+02:00*
G04 #@! TF.ProjectId,mb-a,6d622d61-2e6b-4696-9361-645f70636258,rev?*
G04 #@! TF.SameCoordinates,Original*
G04 #@! TF.FileFunction,Copper,L1,Top*
G04 #@! TF.FilePolarity,Positive*
%FSLAX46Y46*%
G04 Gerber Fmt 4.6, Leading zero omitted, Abs format (unit mm)*
G04 Created by KiCad (PCBNEW 5.0.2-bee76a0~70~ubuntu16.04.1) date Fri 26 Apr 2019 01:24:52 AM CEST*
%MOMM*%
%LPD*%
G01*
G04 APERTURE LIST*
G04 #@! TA.AperFunction,ComponentPad*
%ADD10O,3.000000X2.500000*%
G04 #@! TD*
G04 #@! TA.AperFunction,ComponentPad*
%ADD11O,2.500000X3.000000*%
G04 #@! TD*
G04 #@! TA.AperFunction,ComponentPad*
%ADD12C,1.700000*%
G04 #@! TD*
G04 #@! TA.AperFunction,Conductor*
%ADD13C,0.100000*%
G04 #@! TD*
G04 #@! TA.AperFunction,SMDPad,CuDef*
%ADD14C,0.975000*%
G04 #@! TD*
G04 #@! TA.AperFunction,SMDPad,CuDef*
%ADD15C,2.500000*%
G04 #@! TD*
G04 #@! TA.AperFunction,SMDPad,CuDef*
%ADD16R,1.500000X0.600000*%
G04 #@! TD*
G04 #@! TA.AperFunction,ComponentPad*
%ADD17O,1.727200X1.727200*%
G04 #@! TD*
G04 #@! TA.AperFunction,ComponentPad*
%ADD18R,1.727200X1.727200*%
G04 #@! TD*
G04 #@! TA.AperFunction,SMDPad,CuDef*
%ADD19R,1.060000X0.650000*%
G04 #@! TD*
G04 #@! TA.AperFunction,ViaPad*
%ADD20C,3.000000*%
G04 #@! TD*
G04 #@! TA.AperFunction,ViaPad*
%ADD21C,1.000000*%
G04 #@! TD*
G04 #@! TA.AperFunction,ViaPad*
%ADD22C,0.600000*%
G04 #@! TD*
G04 #@! TA.AperFunction,Conductor*
%ADD23C,1.000000*%
G04 #@! TD*
G04 #@! TA.AperFunction,Conductor*
%ADD24C,0.400000*%
G04 #@! TD*
G04 #@! TA.AperFunction,Conductor*
%ADD25C,0.600000*%
G04 #@! TD*
G04 APERTURE END LIST*
D10*
G04 #@! TO.P,J2,2*
G04 #@! TO.N,Net-(C14-Pad1)*
X97000000Y-82000000D03*
G04 #@! TO.P,J2,1*
G04 #@! TO.N,Net-(C15-Pad2)*
X97000000Y-77000000D03*
G04 #@! TD*
D11*
G04 #@! TO.P,J1,2*
G04 #@! TO.N,+12V*
X95500000Y-45000000D03*
G04 #@! TO.P,J1,1*
G04 #@! TO.N,GND*
X100500000Y-45000000D03*
G04 #@! TD*
D12*
G04 #@! TO.P,M1,27*
G04 #@! TO.N,+5V*
X129228528Y-51634658D03*
G04 #@! TO.P,M1,28*
G04 #@! TO.N,GND*
X126688528Y-51634658D03*
G04 #@! TO.P,M1,29*
G04 #@! TO.N,N/C*
X124148528Y-51634658D03*
G04 #@! TO.P,M1,30*
X121608528Y-51634658D03*
G04 #@! TO.P,M1,31*
X119068528Y-51634658D03*
G04 #@! TO.P,M1,32*
X116528528Y-51634658D03*
G04 #@! TO.P,M1,33*
G04 #@! TO.N,/AUDIO*
X113988528Y-51634658D03*
G04 #@! TO.P,M1,34*
G04 #@! TO.N,N/C*
X111448528Y-51634658D03*
G04 #@! TO.P,M1,35*
X108908528Y-51634658D03*
G04 #@! TO.P,M1,36*
X106368528Y-51634658D03*
G04 #@! TO.P,M1,37*
X103828528Y-51634658D03*
G04 #@! TO.P,M1,38*
X101288528Y-51634658D03*
G04 #@! TO.P,M1,39*
X98748528Y-51634658D03*
G04 #@! TO.P,M1,26*
X129202892Y-92231414D03*
G04 #@! TO.P,M1,25*
G04 #@! TO.N,GND*
X129202892Y-94771414D03*
G04 #@! TO.P,M1,24*
G04 #@! TO.N,N/C*
X126662892Y-92231414D03*
G04 #@! TO.P,M1,23*
X126662892Y-94771414D03*
G04 #@! TO.P,M1,22*
X124122892Y-92231414D03*
G04 #@! TO.P,M1,21*
X124122892Y-94771414D03*
G04 #@! TO.P,M1,20*
G04 #@! TO.N,GND*
X121582892Y-92231414D03*
G04 #@! TO.P,M1,19*
G04 #@! TO.N,N/C*
X121582892Y-94771414D03*
G04 #@! TO.P,M1,18*
X119042892Y-92231414D03*
G04 #@! TO.P,M1,17*
G04 #@! TO.N,+3V3*
X119042892Y-94771414D03*
G04 #@! TO.P,M1,16*
G04 #@! TO.N,N/C*
X116502892Y-92231414D03*
G04 #@! TO.P,M1,15*
X116502892Y-94771414D03*
G04 #@! TO.P,M1,14*
G04 #@! TO.N,GND*
X113962892Y-92231414D03*
G04 #@! TO.P,M1,13*
G04 #@! TO.N,N/C*
X113962892Y-94771414D03*
G04 #@! TO.P,M1,12*
X111422892Y-92231414D03*
G04 #@! TO.P,M1,11*
X111422892Y-94771414D03*
G04 #@! TO.P,M1,10*
X108882892Y-92231414D03*
G04 #@! TO.P,M1,9*
G04 #@! TO.N,GND*
X108882892Y-94771414D03*
G04 #@! TO.P,M1,8*
G04 #@! TO.N,/ALERT*
X106342892Y-92231414D03*
G04 #@! TO.P,M1,7*
G04 #@! TO.N,N/C*
X106342892Y-94771414D03*
G04 #@! TO.P,M1,6*
G04 #@! TO.N,GND*
X103802892Y-92231414D03*
G04 #@! TO.P,M1,5*
G04 #@! TO.N,/SCL*
X103802892Y-94771414D03*
G04 #@! TO.P,M1,4*
G04 #@! TO.N,+5V*
X101262892Y-92231414D03*
G04 #@! TO.P,M1,3*
G04 #@! TO.N,/SDA*
X101262892Y-94771414D03*
G04 #@! TO.P,M1,2*
G04 #@! TO.N,+5V*
X98722892Y-92231414D03*
G04 #@! TO.P,M1,1*
G04 #@! TO.N,+3V3*
X98722892Y-94771414D03*
G04 #@! TD*
D13*
G04 #@! TO.N,/AUDIO*
G04 #@! TO.C,C1*
G36*
X120205142Y-75301174D02*
X120228803Y-75304684D01*
X120252007Y-75310496D01*
X120274529Y-75318554D01*
X120296153Y-75328782D01*
X120316670Y-75341079D01*
X120335883Y-75355329D01*
X120353607Y-75371393D01*
X120369671Y-75389117D01*
X120383921Y-75408330D01*
X120396218Y-75428847D01*
X120406446Y-75450471D01*
X120414504Y-75472993D01*
X120420316Y-75496197D01*
X120423826Y-75519858D01*
X120425000Y-75543750D01*
X120425000Y-76456250D01*
X120423826Y-76480142D01*
X120420316Y-76503803D01*
X120414504Y-76527007D01*
X120406446Y-76549529D01*
X120396218Y-76571153D01*
X120383921Y-76591670D01*
X120369671Y-76610883D01*
X120353607Y-76628607D01*
X120335883Y-76644671D01*
X120316670Y-76658921D01*
X120296153Y-76671218D01*
X120274529Y-76681446D01*
X120252007Y-76689504D01*
X120228803Y-76695316D01*
X120205142Y-76698826D01*
X120181250Y-76700000D01*
X119693750Y-76700000D01*
X119669858Y-76698826D01*
X119646197Y-76695316D01*
X119622993Y-76689504D01*
X119600471Y-76681446D01*
X119578847Y-76671218D01*
X119558330Y-76658921D01*
X119539117Y-76644671D01*
X119521393Y-76628607D01*
X119505329Y-76610883D01*
X119491079Y-76591670D01*
X119478782Y-76571153D01*
X119468554Y-76549529D01*
X119460496Y-76527007D01*
X119454684Y-76503803D01*
X119451174Y-76480142D01*
X119450000Y-76456250D01*
X119450000Y-75543750D01*
X119451174Y-75519858D01*
X119454684Y-75496197D01*
X119460496Y-75472993D01*
X119468554Y-75450471D01*
X119478782Y-75428847D01*
X119491079Y-75408330D01*
X119505329Y-75389117D01*
X119521393Y-75371393D01*
X119539117Y-75355329D01*
X119558330Y-75341079D01*
X119578847Y-75328782D01*
X119600471Y-75318554D01*
X119622993Y-75310496D01*
X119646197Y-75304684D01*
X119669858Y-75301174D01*
X119693750Y-75300000D01*
X120181250Y-75300000D01*
X120205142Y-75301174D01*
X120205142Y-75301174D01*
G37*
D14*
G04 #@! TD*
G04 #@! TO.P,C1,2*
G04 #@! TO.N,/AUDIO*
X119937500Y-76000000D03*
D13*
G04 #@! TO.N,Net-(C1-Pad1)*
G04 #@! TO.C,C1*
G36*
X118330142Y-75301174D02*
X118353803Y-75304684D01*
X118377007Y-75310496D01*
X118399529Y-75318554D01*
X118421153Y-75328782D01*
X118441670Y-75341079D01*
X118460883Y-75355329D01*
X118478607Y-75371393D01*
X118494671Y-75389117D01*
X118508921Y-75408330D01*
X118521218Y-75428847D01*
X118531446Y-75450471D01*
X118539504Y-75472993D01*
X118545316Y-75496197D01*
X118548826Y-75519858D01*
X118550000Y-75543750D01*
X118550000Y-76456250D01*
X118548826Y-76480142D01*
X118545316Y-76503803D01*
X118539504Y-76527007D01*
X118531446Y-76549529D01*
X118521218Y-76571153D01*
X118508921Y-76591670D01*
X118494671Y-76610883D01*
X118478607Y-76628607D01*
X118460883Y-76644671D01*
X118441670Y-76658921D01*
X118421153Y-76671218D01*
X118399529Y-76681446D01*
X118377007Y-76689504D01*
X118353803Y-76695316D01*
X118330142Y-76698826D01*
X118306250Y-76700000D01*
X117818750Y-76700000D01*
X117794858Y-76698826D01*
X117771197Y-76695316D01*
X117747993Y-76689504D01*
X117725471Y-76681446D01*
X117703847Y-76671218D01*
X117683330Y-76658921D01*
X117664117Y-76644671D01*
X117646393Y-76628607D01*
X117630329Y-76610883D01*
X117616079Y-76591670D01*
X117603782Y-76571153D01*
X117593554Y-76549529D01*
X117585496Y-76527007D01*
X117579684Y-76503803D01*
X117576174Y-76480142D01*
X117575000Y-76456250D01*
X117575000Y-75543750D01*
X117576174Y-75519858D01*
X117579684Y-75496197D01*
X117585496Y-75472993D01*
X117593554Y-75450471D01*
X117603782Y-75428847D01*
X117616079Y-75408330D01*
X117630329Y-75389117D01*
X117646393Y-75371393D01*
X117664117Y-75355329D01*
X117683330Y-75341079D01*
X117703847Y-75328782D01*
X117725471Y-75318554D01*
X117747993Y-75310496D01*
X117771197Y-75304684D01*
X117794858Y-75301174D01*
X117818750Y-75300000D01*
X118306250Y-75300000D01*
X118330142Y-75301174D01*
X118330142Y-75301174D01*
G37*
D14*
G04 #@! TD*
G04 #@! TO.P,C1,1*
G04 #@! TO.N,Net-(C1-Pad1)*
X118062500Y-76000000D03*
D13*
G04 #@! TO.N,GND*
G04 #@! TO.C,C2*
G36*
X120205142Y-72301174D02*
X120228803Y-72304684D01*
X120252007Y-72310496D01*
X120274529Y-72318554D01*
X120296153Y-72328782D01*
X120316670Y-72341079D01*
X120335883Y-72355329D01*
X120353607Y-72371393D01*
X120369671Y-72389117D01*
X120383921Y-72408330D01*
X120396218Y-72428847D01*
X120406446Y-72450471D01*
X120414504Y-72472993D01*
X120420316Y-72496197D01*
X120423826Y-72519858D01*
X120425000Y-72543750D01*
X120425000Y-73456250D01*
X120423826Y-73480142D01*
X120420316Y-73503803D01*
X120414504Y-73527007D01*
X120406446Y-73549529D01*
X120396218Y-73571153D01*
X120383921Y-73591670D01*
X120369671Y-73610883D01*
X120353607Y-73628607D01*
X120335883Y-73644671D01*
X120316670Y-73658921D01*
X120296153Y-73671218D01*
X120274529Y-73681446D01*
X120252007Y-73689504D01*
X120228803Y-73695316D01*
X120205142Y-73698826D01*
X120181250Y-73700000D01*
X119693750Y-73700000D01*
X119669858Y-73698826D01*
X119646197Y-73695316D01*
X119622993Y-73689504D01*
X119600471Y-73681446D01*
X119578847Y-73671218D01*
X119558330Y-73658921D01*
X119539117Y-73644671D01*
X119521393Y-73628607D01*
X119505329Y-73610883D01*
X119491079Y-73591670D01*
X119478782Y-73571153D01*
X119468554Y-73549529D01*
X119460496Y-73527007D01*
X119454684Y-73503803D01*
X119451174Y-73480142D01*
X119450000Y-73456250D01*
X119450000Y-72543750D01*
X119451174Y-72519858D01*
X119454684Y-72496197D01*
X119460496Y-72472993D01*
X119468554Y-72450471D01*
X119478782Y-72428847D01*
X119491079Y-72408330D01*
X119505329Y-72389117D01*
X119521393Y-72371393D01*
X119539117Y-72355329D01*
X119558330Y-72341079D01*
X119578847Y-72328782D01*
X119600471Y-72318554D01*
X119622993Y-72310496D01*
X119646197Y-72304684D01*
X119669858Y-72301174D01*
X119693750Y-72300000D01*
X120181250Y-72300000D01*
X120205142Y-72301174D01*
X120205142Y-72301174D01*
G37*
D14*
G04 #@! TD*
G04 #@! TO.P,C2,2*
G04 #@! TO.N,GND*
X119937500Y-73000000D03*
D13*
G04 #@! TO.N,Net-(C2-Pad1)*
G04 #@! TO.C,C2*
G36*
X118330142Y-72301174D02*
X118353803Y-72304684D01*
X118377007Y-72310496D01*
X118399529Y-72318554D01*
X118421153Y-72328782D01*
X118441670Y-72341079D01*
X118460883Y-72355329D01*
X118478607Y-72371393D01*
X118494671Y-72389117D01*
X118508921Y-72408330D01*
X118521218Y-72428847D01*
X118531446Y-72450471D01*
X118539504Y-72472993D01*
X118545316Y-72496197D01*
X118548826Y-72519858D01*
X118550000Y-72543750D01*
X118550000Y-73456250D01*
X118548826Y-73480142D01*
X118545316Y-73503803D01*
X118539504Y-73527007D01*
X118531446Y-73549529D01*
X118521218Y-73571153D01*
X118508921Y-73591670D01*
X118494671Y-73610883D01*
X118478607Y-73628607D01*
X118460883Y-73644671D01*
X118441670Y-73658921D01*
X118421153Y-73671218D01*
X118399529Y-73681446D01*
X118377007Y-73689504D01*
X118353803Y-73695316D01*
X118330142Y-73698826D01*
X118306250Y-73700000D01*
X117818750Y-73700000D01*
X117794858Y-73698826D01*
X117771197Y-73695316D01*
X117747993Y-73689504D01*
X117725471Y-73681446D01*
X117703847Y-73671218D01*
X117683330Y-73658921D01*
X117664117Y-73644671D01*
X117646393Y-73628607D01*
X117630329Y-73610883D01*
X117616079Y-73591670D01*
X117603782Y-73571153D01*
X117593554Y-73549529D01*
X117585496Y-73527007D01*
X117579684Y-73503803D01*
X117576174Y-73480142D01*
X117575000Y-73456250D01*
X117575000Y-72543750D01*
X117576174Y-72519858D01*
X117579684Y-72496197D01*
X117585496Y-72472993D01*
X117593554Y-72450471D01*
X117603782Y-72428847D01*
X117616079Y-72408330D01*
X117630329Y-72389117D01*
X117646393Y-72371393D01*
X117664117Y-72355329D01*
X117683330Y-72341079D01*
X117703847Y-72328782D01*
X117725471Y-72318554D01*
X117747993Y-72310496D01*
X117771197Y-72304684D01*
X117794858Y-72301174D01*
X117818750Y-72300000D01*
X118306250Y-72300000D01*
X118330142Y-72301174D01*
X118330142Y-72301174D01*
G37*
D14*
G04 #@! TD*
G04 #@! TO.P,C2,1*
G04 #@! TO.N,Net-(C2-Pad1)*
X118062500Y-73000000D03*
D13*
G04 #@! TO.N,GND*
G04 #@! TO.C,C3*
G36*
X120205142Y-69301174D02*
X120228803Y-69304684D01*
X120252007Y-69310496D01*
X120274529Y-69318554D01*
X120296153Y-69328782D01*
X120316670Y-69341079D01*
X120335883Y-69355329D01*
X120353607Y-69371393D01*
X120369671Y-69389117D01*
X120383921Y-69408330D01*
X120396218Y-69428847D01*
X120406446Y-69450471D01*
X120414504Y-69472993D01*
X120420316Y-69496197D01*
X120423826Y-69519858D01*
X120425000Y-69543750D01*
X120425000Y-70456250D01*
X120423826Y-70480142D01*
X120420316Y-70503803D01*
X120414504Y-70527007D01*
X120406446Y-70549529D01*
X120396218Y-70571153D01*
X120383921Y-70591670D01*
X120369671Y-70610883D01*
X120353607Y-70628607D01*
X120335883Y-70644671D01*
X120316670Y-70658921D01*
X120296153Y-70671218D01*
X120274529Y-70681446D01*
X120252007Y-70689504D01*
X120228803Y-70695316D01*
X120205142Y-70698826D01*
X120181250Y-70700000D01*
X119693750Y-70700000D01*
X119669858Y-70698826D01*
X119646197Y-70695316D01*
X119622993Y-70689504D01*
X119600471Y-70681446D01*
X119578847Y-70671218D01*
X119558330Y-70658921D01*
X119539117Y-70644671D01*
X119521393Y-70628607D01*
X119505329Y-70610883D01*
X119491079Y-70591670D01*
X119478782Y-70571153D01*
X119468554Y-70549529D01*
X119460496Y-70527007D01*
X119454684Y-70503803D01*
X119451174Y-70480142D01*
X119450000Y-70456250D01*
X119450000Y-69543750D01*
X119451174Y-69519858D01*
X119454684Y-69496197D01*
X119460496Y-69472993D01*
X119468554Y-69450471D01*
X119478782Y-69428847D01*
X119491079Y-69408330D01*
X119505329Y-69389117D01*
X119521393Y-69371393D01*
X119539117Y-69355329D01*
X119558330Y-69341079D01*
X119578847Y-69328782D01*
X119600471Y-69318554D01*
X119622993Y-69310496D01*
X119646197Y-69304684D01*
X119669858Y-69301174D01*
X119693750Y-69300000D01*
X120181250Y-69300000D01*
X120205142Y-69301174D01*
X120205142Y-69301174D01*
G37*
D14*
G04 #@! TD*
G04 #@! TO.P,C3,2*
G04 #@! TO.N,GND*
X119937500Y-70000000D03*
D13*
G04 #@! TO.N,/VCLAMP*
G04 #@! TO.C,C3*
G36*
X118330142Y-69301174D02*
X118353803Y-69304684D01*
X118377007Y-69310496D01*
X118399529Y-69318554D01*
X118421153Y-69328782D01*
X118441670Y-69341079D01*
X118460883Y-69355329D01*
X118478607Y-69371393D01*
X118494671Y-69389117D01*
X118508921Y-69408330D01*
X118521218Y-69428847D01*
X118531446Y-69450471D01*
X118539504Y-69472993D01*
X118545316Y-69496197D01*
X118548826Y-69519858D01*
X118550000Y-69543750D01*
X118550000Y-70456250D01*
X118548826Y-70480142D01*
X118545316Y-70503803D01*
X118539504Y-70527007D01*
X118531446Y-70549529D01*
X118521218Y-70571153D01*
X118508921Y-70591670D01*
X118494671Y-70610883D01*
X118478607Y-70628607D01*
X118460883Y-70644671D01*
X118441670Y-70658921D01*
X118421153Y-70671218D01*
X118399529Y-70681446D01*
X118377007Y-70689504D01*
X118353803Y-70695316D01*
X118330142Y-70698826D01*
X118306250Y-70700000D01*
X117818750Y-70700000D01*
X117794858Y-70698826D01*
X117771197Y-70695316D01*
X117747993Y-70689504D01*
X117725471Y-70681446D01*
X117703847Y-70671218D01*
X117683330Y-70658921D01*
X117664117Y-70644671D01*
X117646393Y-70628607D01*
X117630329Y-70610883D01*
X117616079Y-70591670D01*
X117603782Y-70571153D01*
X117593554Y-70549529D01*
X117585496Y-70527007D01*
X117579684Y-70503803D01*
X117576174Y-70480142D01*
X117575000Y-70456250D01*
X117575000Y-69543750D01*
X117576174Y-69519858D01*
X117579684Y-69496197D01*
X117585496Y-69472993D01*
X117593554Y-69450471D01*
X117603782Y-69428847D01*
X117616079Y-69408330D01*
X117630329Y-69389117D01*
X117646393Y-69371393D01*
X117664117Y-69355329D01*
X117683330Y-69341079D01*
X117703847Y-69328782D01*
X117725471Y-69318554D01*
X117747993Y-69310496D01*
X117771197Y-69304684D01*
X117794858Y-69301174D01*
X117818750Y-69300000D01*
X118306250Y-69300000D01*
X118330142Y-69301174D01*
X118330142Y-69301174D01*
G37*
D14*
G04 #@! TD*
G04 #@! TO.P,C3,1*
G04 #@! TO.N,/VCLAMP*
X118062500Y-70000000D03*
D13*
G04 #@! TO.N,GND*
G04 #@! TO.C,C5*
G36*
X121901936Y-60751204D02*
X121926205Y-60754804D01*
X121950003Y-60760765D01*
X121973103Y-60769030D01*
X121995281Y-60779520D01*
X122016325Y-60792133D01*
X122036030Y-60806747D01*
X122054209Y-60823223D01*
X122070685Y-60841402D01*
X122085299Y-60861107D01*
X122097912Y-60882151D01*
X122108402Y-60904329D01*
X122116667Y-60927429D01*
X122122628Y-60951227D01*
X122126228Y-60975496D01*
X122127432Y-61000000D01*
X122127432Y-63000000D01*
X122126228Y-63024504D01*
X122122628Y-63048773D01*
X122116667Y-63072571D01*
X122108402Y-63095671D01*
X122097912Y-63117849D01*
X122085299Y-63138893D01*
X122070685Y-63158598D01*
X122054209Y-63176777D01*
X122036030Y-63193253D01*
X122016325Y-63207867D01*
X121995281Y-63220480D01*
X121973103Y-63230970D01*
X121950003Y-63239235D01*
X121926205Y-63245196D01*
X121901936Y-63248796D01*
X121877432Y-63250000D01*
X118877432Y-63250000D01*
X118852928Y-63248796D01*
X118828659Y-63245196D01*
X118804861Y-63239235D01*
X118781761Y-63230970D01*
X118759583Y-63220480D01*
X118738539Y-63207867D01*
X118718834Y-63193253D01*
X118700655Y-63176777D01*
X118684179Y-63158598D01*
X118669565Y-63138893D01*
X118656952Y-63117849D01*
X118646462Y-63095671D01*
X118638197Y-63072571D01*
X118632236Y-63048773D01*
X118628636Y-63024504D01*
X118627432Y-63000000D01*
X118627432Y-61000000D01*
X118628636Y-60975496D01*
X118632236Y-60951227D01*
X118638197Y-60927429D01*
X118646462Y-60904329D01*
X118656952Y-60882151D01*
X118669565Y-60861107D01*
X118684179Y-60841402D01*
X118700655Y-60823223D01*
X118718834Y-60806747D01*
X118738539Y-60792133D01*
X118759583Y-60779520D01*
X118781761Y-60769030D01*
X118804861Y-60760765D01*
X118828659Y-60754804D01*
X118852928Y-60751204D01*
X118877432Y-60750000D01*
X121877432Y-60750000D01*
X121901936Y-60751204D01*
X121901936Y-60751204D01*
G37*
D15*
G04 #@! TD*
G04 #@! TO.P,C5,2*
G04 #@! TO.N,GND*
X120377432Y-62000000D03*
D13*
G04 #@! TO.N,+12V*
G04 #@! TO.C,C5*
G36*
X115401936Y-60751204D02*
X115426205Y-60754804D01*
X115450003Y-60760765D01*
X115473103Y-60769030D01*
X115495281Y-60779520D01*
X115516325Y-60792133D01*
X115536030Y-60806747D01*
X115554209Y-60823223D01*
X115570685Y-60841402D01*
X115585299Y-60861107D01*
X115597912Y-60882151D01*
X115608402Y-60904329D01*
X115616667Y-60927429D01*
X115622628Y-60951227D01*
X115626228Y-60975496D01*
X115627432Y-61000000D01*
X115627432Y-63000000D01*
X115626228Y-63024504D01*
X115622628Y-63048773D01*
X115616667Y-63072571D01*
X115608402Y-63095671D01*
X115597912Y-63117849D01*
X115585299Y-63138893D01*
X115570685Y-63158598D01*
X115554209Y-63176777D01*
X115536030Y-63193253D01*
X115516325Y-63207867D01*
X115495281Y-63220480D01*
X115473103Y-63230970D01*
X115450003Y-63239235D01*
X115426205Y-63245196D01*
X115401936Y-63248796D01*
X115377432Y-63250000D01*
X112377432Y-63250000D01*
X112352928Y-63248796D01*
X112328659Y-63245196D01*
X112304861Y-63239235D01*
X112281761Y-63230970D01*
X112259583Y-63220480D01*
X112238539Y-63207867D01*
X112218834Y-63193253D01*
X112200655Y-63176777D01*
X112184179Y-63158598D01*
X112169565Y-63138893D01*
X112156952Y-63117849D01*
X112146462Y-63095671D01*
X112138197Y-63072571D01*
X112132236Y-63048773D01*
X112128636Y-63024504D01*
X112127432Y-63000000D01*
X112127432Y-61000000D01*
X112128636Y-60975496D01*
X112132236Y-60951227D01*
X112138197Y-60927429D01*
X112146462Y-60904329D01*
X112156952Y-60882151D01*
X112169565Y-60861107D01*
X112184179Y-60841402D01*
X112200655Y-60823223D01*
X112218834Y-60806747D01*
X112238539Y-60792133D01*
X112259583Y-60779520D01*
X112281761Y-60769030D01*
X112304861Y-60760765D01*
X112328659Y-60754804D01*
X112352928Y-60751204D01*
X112377432Y-60750000D01*
X115377432Y-60750000D01*
X115401936Y-60751204D01*
X115401936Y-60751204D01*
G37*
D15*
G04 #@! TD*
G04 #@! TO.P,C5,1*
G04 #@! TO.N,+12V*
X113877432Y-62000000D03*
D13*
G04 #@! TO.N,+12V*
G04 #@! TO.C,C6*
G36*
X110205142Y-62301174D02*
X110228803Y-62304684D01*
X110252007Y-62310496D01*
X110274529Y-62318554D01*
X110296153Y-62328782D01*
X110316670Y-62341079D01*
X110335883Y-62355329D01*
X110353607Y-62371393D01*
X110369671Y-62389117D01*
X110383921Y-62408330D01*
X110396218Y-62428847D01*
X110406446Y-62450471D01*
X110414504Y-62472993D01*
X110420316Y-62496197D01*
X110423826Y-62519858D01*
X110425000Y-62543750D01*
X110425000Y-63456250D01*
X110423826Y-63480142D01*
X110420316Y-63503803D01*
X110414504Y-63527007D01*
X110406446Y-63549529D01*
X110396218Y-63571153D01*
X110383921Y-63591670D01*
X110369671Y-63610883D01*
X110353607Y-63628607D01*
X110335883Y-63644671D01*
X110316670Y-63658921D01*
X110296153Y-63671218D01*
X110274529Y-63681446D01*
X110252007Y-63689504D01*
X110228803Y-63695316D01*
X110205142Y-63698826D01*
X110181250Y-63700000D01*
X109693750Y-63700000D01*
X109669858Y-63698826D01*
X109646197Y-63695316D01*
X109622993Y-63689504D01*
X109600471Y-63681446D01*
X109578847Y-63671218D01*
X109558330Y-63658921D01*
X109539117Y-63644671D01*
X109521393Y-63628607D01*
X109505329Y-63610883D01*
X109491079Y-63591670D01*
X109478782Y-63571153D01*
X109468554Y-63549529D01*
X109460496Y-63527007D01*
X109454684Y-63503803D01*
X109451174Y-63480142D01*
X109450000Y-63456250D01*
X109450000Y-62543750D01*
X109451174Y-62519858D01*
X109454684Y-62496197D01*
X109460496Y-62472993D01*
X109468554Y-62450471D01*
X109478782Y-62428847D01*
X109491079Y-62408330D01*
X109505329Y-62389117D01*
X109521393Y-62371393D01*
X109539117Y-62355329D01*
X109558330Y-62341079D01*
X109578847Y-62328782D01*
X109600471Y-62318554D01*
X109622993Y-62310496D01*
X109646197Y-62304684D01*
X109669858Y-62301174D01*
X109693750Y-62300000D01*
X110181250Y-62300000D01*
X110205142Y-62301174D01*
X110205142Y-62301174D01*
G37*
D14*
G04 #@! TD*
G04 #@! TO.P,C6,2*
G04 #@! TO.N,+12V*
X109937500Y-63000000D03*
D13*
G04 #@! TO.N,GND*
G04 #@! TO.C,C6*
G36*
X108330142Y-62301174D02*
X108353803Y-62304684D01*
X108377007Y-62310496D01*
X108399529Y-62318554D01*
X108421153Y-62328782D01*
X108441670Y-62341079D01*
X108460883Y-62355329D01*
X108478607Y-62371393D01*
X108494671Y-62389117D01*
X108508921Y-62408330D01*
X108521218Y-62428847D01*
X108531446Y-62450471D01*
X108539504Y-62472993D01*
X108545316Y-62496197D01*
X108548826Y-62519858D01*
X108550000Y-62543750D01*
X108550000Y-63456250D01*
X108548826Y-63480142D01*
X108545316Y-63503803D01*
X108539504Y-63527007D01*
X108531446Y-63549529D01*
X108521218Y-63571153D01*
X108508921Y-63591670D01*
X108494671Y-63610883D01*
X108478607Y-63628607D01*
X108460883Y-63644671D01*
X108441670Y-63658921D01*
X108421153Y-63671218D01*
X108399529Y-63681446D01*
X108377007Y-63689504D01*
X108353803Y-63695316D01*
X108330142Y-63698826D01*
X108306250Y-63700000D01*
X107818750Y-63700000D01*
X107794858Y-63698826D01*
X107771197Y-63695316D01*
X107747993Y-63689504D01*
X107725471Y-63681446D01*
X107703847Y-63671218D01*
X107683330Y-63658921D01*
X107664117Y-63644671D01*
X107646393Y-63628607D01*
X107630329Y-63610883D01*
X107616079Y-63591670D01*
X107603782Y-63571153D01*
X107593554Y-63549529D01*
X107585496Y-63527007D01*
X107579684Y-63503803D01*
X107576174Y-63480142D01*
X107575000Y-63456250D01*
X107575000Y-62543750D01*
X107576174Y-62519858D01*
X107579684Y-62496197D01*
X107585496Y-62472993D01*
X107593554Y-62450471D01*
X107603782Y-62428847D01*
X107616079Y-62408330D01*
X107630329Y-62389117D01*
X107646393Y-62371393D01*
X107664117Y-62355329D01*
X107683330Y-62341079D01*
X107703847Y-62328782D01*
X107725471Y-62318554D01*
X107747993Y-62310496D01*
X107771197Y-62304684D01*
X107794858Y-62301174D01*
X107818750Y-62300000D01*
X108306250Y-62300000D01*
X108330142Y-62301174D01*
X108330142Y-62301174D01*
G37*
D14*
G04 #@! TD*
G04 #@! TO.P,C6,1*
G04 #@! TO.N,GND*
X108062500Y-63000000D03*
D13*
G04 #@! TO.N,+12V*
G04 #@! TO.C,C7*
G36*
X110205142Y-65301174D02*
X110228803Y-65304684D01*
X110252007Y-65310496D01*
X110274529Y-65318554D01*
X110296153Y-65328782D01*
X110316670Y-65341079D01*
X110335883Y-65355329D01*
X110353607Y-65371393D01*
X110369671Y-65389117D01*
X110383921Y-65408330D01*
X110396218Y-65428847D01*
X110406446Y-65450471D01*
X110414504Y-65472993D01*
X110420316Y-65496197D01*
X110423826Y-65519858D01*
X110425000Y-65543750D01*
X110425000Y-66456250D01*
X110423826Y-66480142D01*
X110420316Y-66503803D01*
X110414504Y-66527007D01*
X110406446Y-66549529D01*
X110396218Y-66571153D01*
X110383921Y-66591670D01*
X110369671Y-66610883D01*
X110353607Y-66628607D01*
X110335883Y-66644671D01*
X110316670Y-66658921D01*
X110296153Y-66671218D01*
X110274529Y-66681446D01*
X110252007Y-66689504D01*
X110228803Y-66695316D01*
X110205142Y-66698826D01*
X110181250Y-66700000D01*
X109693750Y-66700000D01*
X109669858Y-66698826D01*
X109646197Y-66695316D01*
X109622993Y-66689504D01*
X109600471Y-66681446D01*
X109578847Y-66671218D01*
X109558330Y-66658921D01*
X109539117Y-66644671D01*
X109521393Y-66628607D01*
X109505329Y-66610883D01*
X109491079Y-66591670D01*
X109478782Y-66571153D01*
X109468554Y-66549529D01*
X109460496Y-66527007D01*
X109454684Y-66503803D01*
X109451174Y-66480142D01*
X109450000Y-66456250D01*
X109450000Y-65543750D01*
X109451174Y-65519858D01*
X109454684Y-65496197D01*
X109460496Y-65472993D01*
X109468554Y-65450471D01*
X109478782Y-65428847D01*
X109491079Y-65408330D01*
X109505329Y-65389117D01*
X109521393Y-65371393D01*
X109539117Y-65355329D01*
X109558330Y-65341079D01*
X109578847Y-65328782D01*
X109600471Y-65318554D01*
X109622993Y-65310496D01*
X109646197Y-65304684D01*
X109669858Y-65301174D01*
X109693750Y-65300000D01*
X110181250Y-65300000D01*
X110205142Y-65301174D01*
X110205142Y-65301174D01*
G37*
D14*
G04 #@! TD*
G04 #@! TO.P,C7,2*
G04 #@! TO.N,+12V*
X109937500Y-66000000D03*
D13*
G04 #@! TO.N,GND*
G04 #@! TO.C,C7*
G36*
X108330142Y-65301174D02*
X108353803Y-65304684D01*
X108377007Y-65310496D01*
X108399529Y-65318554D01*
X108421153Y-65328782D01*
X108441670Y-65341079D01*
X108460883Y-65355329D01*
X108478607Y-65371393D01*
X108494671Y-65389117D01*
X108508921Y-65408330D01*
X108521218Y-65428847D01*
X108531446Y-65450471D01*
X108539504Y-65472993D01*
X108545316Y-65496197D01*
X108548826Y-65519858D01*
X108550000Y-65543750D01*
X108550000Y-66456250D01*
X108548826Y-66480142D01*
X108545316Y-66503803D01*
X108539504Y-66527007D01*
X108531446Y-66549529D01*
X108521218Y-66571153D01*
X108508921Y-66591670D01*
X108494671Y-66610883D01*
X108478607Y-66628607D01*
X108460883Y-66644671D01*
X108441670Y-66658921D01*
X108421153Y-66671218D01*
X108399529Y-66681446D01*
X108377007Y-66689504D01*
X108353803Y-66695316D01*
X108330142Y-66698826D01*
X108306250Y-66700000D01*
X107818750Y-66700000D01*
X107794858Y-66698826D01*
X107771197Y-66695316D01*
X107747993Y-66689504D01*
X107725471Y-66681446D01*
X107703847Y-66671218D01*
X107683330Y-66658921D01*
X107664117Y-66644671D01*
X107646393Y-66628607D01*
X107630329Y-66610883D01*
X107616079Y-66591670D01*
X107603782Y-66571153D01*
X107593554Y-66549529D01*
X107585496Y-66527007D01*
X107579684Y-66503803D01*
X107576174Y-66480142D01*
X107575000Y-66456250D01*
X107575000Y-65543750D01*
X107576174Y-65519858D01*
X107579684Y-65496197D01*
X107585496Y-65472993D01*
X107593554Y-65450471D01*
X107603782Y-65428847D01*
X107616079Y-65408330D01*
X107630329Y-65389117D01*
X107646393Y-65371393D01*
X107664117Y-65355329D01*
X107683330Y-65341079D01*
X107703847Y-65328782D01*
X107725471Y-65318554D01*
X107747993Y-65310496D01*
X107771197Y-65304684D01*
X107794858Y-65301174D01*
X107818750Y-65300000D01*
X108306250Y-65300000D01*
X108330142Y-65301174D01*
X108330142Y-65301174D01*
G37*
D14*
G04 #@! TD*
G04 #@! TO.P,C7,1*
G04 #@! TO.N,GND*
X108062500Y-66000000D03*
D13*
G04 #@! TO.N,+12V*
G04 #@! TO.C,C8*
G36*
X110205142Y-79301174D02*
X110228803Y-79304684D01*
X110252007Y-79310496D01*
X110274529Y-79318554D01*
X110296153Y-79328782D01*
X110316670Y-79341079D01*
X110335883Y-79355329D01*
X110353607Y-79371393D01*
X110369671Y-79389117D01*
X110383921Y-79408330D01*
X110396218Y-79428847D01*
X110406446Y-79450471D01*
X110414504Y-79472993D01*
X110420316Y-79496197D01*
X110423826Y-79519858D01*
X110425000Y-79543750D01*
X110425000Y-80456250D01*
X110423826Y-80480142D01*
X110420316Y-80503803D01*
X110414504Y-80527007D01*
X110406446Y-80549529D01*
X110396218Y-80571153D01*
X110383921Y-80591670D01*
X110369671Y-80610883D01*
X110353607Y-80628607D01*
X110335883Y-80644671D01*
X110316670Y-80658921D01*
X110296153Y-80671218D01*
X110274529Y-80681446D01*
X110252007Y-80689504D01*
X110228803Y-80695316D01*
X110205142Y-80698826D01*
X110181250Y-80700000D01*
X109693750Y-80700000D01*
X109669858Y-80698826D01*
X109646197Y-80695316D01*
X109622993Y-80689504D01*
X109600471Y-80681446D01*
X109578847Y-80671218D01*
X109558330Y-80658921D01*
X109539117Y-80644671D01*
X109521393Y-80628607D01*
X109505329Y-80610883D01*
X109491079Y-80591670D01*
X109478782Y-80571153D01*
X109468554Y-80549529D01*
X109460496Y-80527007D01*
X109454684Y-80503803D01*
X109451174Y-80480142D01*
X109450000Y-80456250D01*
X109450000Y-79543750D01*
X109451174Y-79519858D01*
X109454684Y-79496197D01*
X109460496Y-79472993D01*
X109468554Y-79450471D01*
X109478782Y-79428847D01*
X109491079Y-79408330D01*
X109505329Y-79389117D01*
X109521393Y-79371393D01*
X109539117Y-79355329D01*
X109558330Y-79341079D01*
X109578847Y-79328782D01*
X109600471Y-79318554D01*
X109622993Y-79310496D01*
X109646197Y-79304684D01*
X109669858Y-79301174D01*
X109693750Y-79300000D01*
X110181250Y-79300000D01*
X110205142Y-79301174D01*
X110205142Y-79301174D01*
G37*
D14*
G04 #@! TD*
G04 #@! TO.P,C8,2*
G04 #@! TO.N,+12V*
X109937500Y-80000000D03*
D13*
G04 #@! TO.N,GND*
G04 #@! TO.C,C8*
G36*
X108330142Y-79301174D02*
X108353803Y-79304684D01*
X108377007Y-79310496D01*
X108399529Y-79318554D01*
X108421153Y-79328782D01*
X108441670Y-79341079D01*
X108460883Y-79355329D01*
X108478607Y-79371393D01*
X108494671Y-79389117D01*
X108508921Y-79408330D01*
X108521218Y-79428847D01*
X108531446Y-79450471D01*
X108539504Y-79472993D01*
X108545316Y-79496197D01*
X108548826Y-79519858D01*
X108550000Y-79543750D01*
X108550000Y-80456250D01*
X108548826Y-80480142D01*
X108545316Y-80503803D01*
X108539504Y-80527007D01*
X108531446Y-80549529D01*
X108521218Y-80571153D01*
X108508921Y-80591670D01*
X108494671Y-80610883D01*
X108478607Y-80628607D01*
X108460883Y-80644671D01*
X108441670Y-80658921D01*
X108421153Y-80671218D01*
X108399529Y-80681446D01*
X108377007Y-80689504D01*
X108353803Y-80695316D01*
X108330142Y-80698826D01*
X108306250Y-80700000D01*
X107818750Y-80700000D01*
X107794858Y-80698826D01*
X107771197Y-80695316D01*
X107747993Y-80689504D01*
X107725471Y-80681446D01*
X107703847Y-80671218D01*
X107683330Y-80658921D01*
X107664117Y-80644671D01*
X107646393Y-80628607D01*
X107630329Y-80610883D01*
X107616079Y-80591670D01*
X107603782Y-80571153D01*
X107593554Y-80549529D01*
X107585496Y-80527007D01*
X107579684Y-80503803D01*
X107576174Y-80480142D01*
X107575000Y-80456250D01*
X107575000Y-79543750D01*
X107576174Y-79519858D01*
X107579684Y-79496197D01*
X107585496Y-79472993D01*
X107593554Y-79450471D01*
X107603782Y-79428847D01*
X107616079Y-79408330D01*
X107630329Y-79389117D01*
X107646393Y-79371393D01*
X107664117Y-79355329D01*
X107683330Y-79341079D01*
X107703847Y-79328782D01*
X107725471Y-79318554D01*
X107747993Y-79310496D01*
X107771197Y-79304684D01*
X107794858Y-79301174D01*
X107818750Y-79300000D01*
X108306250Y-79300000D01*
X108330142Y-79301174D01*
X108330142Y-79301174D01*
G37*
D14*
G04 #@! TD*
G04 #@! TO.P,C8,1*
G04 #@! TO.N,GND*
X108062500Y-80000000D03*
D13*
G04 #@! TO.N,+12V*
G04 #@! TO.C,C9*
G36*
X110205142Y-82301174D02*
X110228803Y-82304684D01*
X110252007Y-82310496D01*
X110274529Y-82318554D01*
X110296153Y-82328782D01*
X110316670Y-82341079D01*
X110335883Y-82355329D01*
X110353607Y-82371393D01*
X110369671Y-82389117D01*
X110383921Y-82408330D01*
X110396218Y-82428847D01*
X110406446Y-82450471D01*
X110414504Y-82472993D01*
X110420316Y-82496197D01*
X110423826Y-82519858D01*
X110425000Y-82543750D01*
X110425000Y-83456250D01*
X110423826Y-83480142D01*
X110420316Y-83503803D01*
X110414504Y-83527007D01*
X110406446Y-83549529D01*
X110396218Y-83571153D01*
X110383921Y-83591670D01*
X110369671Y-83610883D01*
X110353607Y-83628607D01*
X110335883Y-83644671D01*
X110316670Y-83658921D01*
X110296153Y-83671218D01*
X110274529Y-83681446D01*
X110252007Y-83689504D01*
X110228803Y-83695316D01*
X110205142Y-83698826D01*
X110181250Y-83700000D01*
X109693750Y-83700000D01*
X109669858Y-83698826D01*
X109646197Y-83695316D01*
X109622993Y-83689504D01*
X109600471Y-83681446D01*
X109578847Y-83671218D01*
X109558330Y-83658921D01*
X109539117Y-83644671D01*
X109521393Y-83628607D01*
X109505329Y-83610883D01*
X109491079Y-83591670D01*
X109478782Y-83571153D01*
X109468554Y-83549529D01*
X109460496Y-83527007D01*
X109454684Y-83503803D01*
X109451174Y-83480142D01*
X109450000Y-83456250D01*
X109450000Y-82543750D01*
X109451174Y-82519858D01*
X109454684Y-82496197D01*
X109460496Y-82472993D01*
X109468554Y-82450471D01*
X109478782Y-82428847D01*
X109491079Y-82408330D01*
X109505329Y-82389117D01*
X109521393Y-82371393D01*
X109539117Y-82355329D01*
X109558330Y-82341079D01*
X109578847Y-82328782D01*
X109600471Y-82318554D01*
X109622993Y-82310496D01*
X109646197Y-82304684D01*
X109669858Y-82301174D01*
X109693750Y-82300000D01*
X110181250Y-82300000D01*
X110205142Y-82301174D01*
X110205142Y-82301174D01*
G37*
D14*
G04 #@! TD*
G04 #@! TO.P,C9,2*
G04 #@! TO.N,+12V*
X109937500Y-83000000D03*
D13*
G04 #@! TO.N,GND*
G04 #@! TO.C,C9*
G36*
X108330142Y-82301174D02*
X108353803Y-82304684D01*
X108377007Y-82310496D01*
X108399529Y-82318554D01*
X108421153Y-82328782D01*
X108441670Y-82341079D01*
X108460883Y-82355329D01*
X108478607Y-82371393D01*
X108494671Y-82389117D01*
X108508921Y-82408330D01*
X108521218Y-82428847D01*
X108531446Y-82450471D01*
X108539504Y-82472993D01*
X108545316Y-82496197D01*
X108548826Y-82519858D01*
X108550000Y-82543750D01*
X108550000Y-83456250D01*
X108548826Y-83480142D01*
X108545316Y-83503803D01*
X108539504Y-83527007D01*
X108531446Y-83549529D01*
X108521218Y-83571153D01*
X108508921Y-83591670D01*
X108494671Y-83610883D01*
X108478607Y-83628607D01*
X108460883Y-83644671D01*
X108441670Y-83658921D01*
X108421153Y-83671218D01*
X108399529Y-83681446D01*
X108377007Y-83689504D01*
X108353803Y-83695316D01*
X108330142Y-83698826D01*
X108306250Y-83700000D01*
X107818750Y-83700000D01*
X107794858Y-83698826D01*
X107771197Y-83695316D01*
X107747993Y-83689504D01*
X107725471Y-83681446D01*
X107703847Y-83671218D01*
X107683330Y-83658921D01*
X107664117Y-83644671D01*
X107646393Y-83628607D01*
X107630329Y-83610883D01*
X107616079Y-83591670D01*
X107603782Y-83571153D01*
X107593554Y-83549529D01*
X107585496Y-83527007D01*
X107579684Y-83503803D01*
X107576174Y-83480142D01*
X107575000Y-83456250D01*
X107575000Y-82543750D01*
X107576174Y-82519858D01*
X107579684Y-82496197D01*
X107585496Y-82472993D01*
X107593554Y-82450471D01*
X107603782Y-82428847D01*
X107616079Y-82408330D01*
X107630329Y-82389117D01*
X107646393Y-82371393D01*
X107664117Y-82355329D01*
X107683330Y-82341079D01*
X107703847Y-82328782D01*
X107725471Y-82318554D01*
X107747993Y-82310496D01*
X107771197Y-82304684D01*
X107794858Y-82301174D01*
X107818750Y-82300000D01*
X108306250Y-82300000D01*
X108330142Y-82301174D01*
X108330142Y-82301174D01*
G37*
D14*
G04 #@! TD*
G04 #@! TO.P,C9,1*
G04 #@! TO.N,GND*
X108062500Y-83000000D03*
D13*
G04 #@! TO.N,GND*
G04 #@! TO.C,C10*
G36*
X121774504Y-82751204D02*
X121798773Y-82754804D01*
X121822571Y-82760765D01*
X121845671Y-82769030D01*
X121867849Y-82779520D01*
X121888893Y-82792133D01*
X121908598Y-82806747D01*
X121926777Y-82823223D01*
X121943253Y-82841402D01*
X121957867Y-82861107D01*
X121970480Y-82882151D01*
X121980970Y-82904329D01*
X121989235Y-82927429D01*
X121995196Y-82951227D01*
X121998796Y-82975496D01*
X122000000Y-83000000D01*
X122000000Y-85000000D01*
X121998796Y-85024504D01*
X121995196Y-85048773D01*
X121989235Y-85072571D01*
X121980970Y-85095671D01*
X121970480Y-85117849D01*
X121957867Y-85138893D01*
X121943253Y-85158598D01*
X121926777Y-85176777D01*
X121908598Y-85193253D01*
X121888893Y-85207867D01*
X121867849Y-85220480D01*
X121845671Y-85230970D01*
X121822571Y-85239235D01*
X121798773Y-85245196D01*
X121774504Y-85248796D01*
X121750000Y-85250000D01*
X118750000Y-85250000D01*
X118725496Y-85248796D01*
X118701227Y-85245196D01*
X118677429Y-85239235D01*
X118654329Y-85230970D01*
X118632151Y-85220480D01*
X118611107Y-85207867D01*
X118591402Y-85193253D01*
X118573223Y-85176777D01*
X118556747Y-85158598D01*
X118542133Y-85138893D01*
X118529520Y-85117849D01*
X118519030Y-85095671D01*
X118510765Y-85072571D01*
X118504804Y-85048773D01*
X118501204Y-85024504D01*
X118500000Y-85000000D01*
X118500000Y-83000000D01*
X118501204Y-82975496D01*
X118504804Y-82951227D01*
X118510765Y-82927429D01*
X118519030Y-82904329D01*
X118529520Y-82882151D01*
X118542133Y-82861107D01*
X118556747Y-82841402D01*
X118573223Y-82823223D01*
X118591402Y-82806747D01*
X118611107Y-82792133D01*
X118632151Y-82779520D01*
X118654329Y-82769030D01*
X118677429Y-82760765D01*
X118701227Y-82754804D01*
X118725496Y-82751204D01*
X118750000Y-82750000D01*
X121750000Y-82750000D01*
X121774504Y-82751204D01*
X121774504Y-82751204D01*
G37*
D15*
G04 #@! TD*
G04 #@! TO.P,C10,2*
G04 #@! TO.N,GND*
X120250000Y-84000000D03*
D13*
G04 #@! TO.N,+12V*
G04 #@! TO.C,C10*
G36*
X115274504Y-82751204D02*
X115298773Y-82754804D01*
X115322571Y-82760765D01*
X115345671Y-82769030D01*
X115367849Y-82779520D01*
X115388893Y-82792133D01*
X115408598Y-82806747D01*
X115426777Y-82823223D01*
X115443253Y-82841402D01*
X115457867Y-82861107D01*
X115470480Y-82882151D01*
X115480970Y-82904329D01*
X115489235Y-82927429D01*
X115495196Y-82951227D01*
X115498796Y-82975496D01*
X115500000Y-83000000D01*
X115500000Y-85000000D01*
X115498796Y-85024504D01*
X115495196Y-85048773D01*
X115489235Y-85072571D01*
X115480970Y-85095671D01*
X115470480Y-85117849D01*
X115457867Y-85138893D01*
X115443253Y-85158598D01*
X115426777Y-85176777D01*
X115408598Y-85193253D01*
X115388893Y-85207867D01*
X115367849Y-85220480D01*
X115345671Y-85230970D01*
X115322571Y-85239235D01*
X115298773Y-85245196D01*
X115274504Y-85248796D01*
X115250000Y-85250000D01*
X112250000Y-85250000D01*
X112225496Y-85248796D01*
X112201227Y-85245196D01*
X112177429Y-85239235D01*
X112154329Y-85230970D01*
X112132151Y-85220480D01*
X112111107Y-85207867D01*
X112091402Y-85193253D01*
X112073223Y-85176777D01*
X112056747Y-85158598D01*
X112042133Y-85138893D01*
X112029520Y-85117849D01*
X112019030Y-85095671D01*
X112010765Y-85072571D01*
X112004804Y-85048773D01*
X112001204Y-85024504D01*
X112000000Y-85000000D01*
X112000000Y-83000000D01*
X112001204Y-82975496D01*
X112004804Y-82951227D01*
X112010765Y-82927429D01*
X112019030Y-82904329D01*
X112029520Y-82882151D01*
X112042133Y-82861107D01*
X112056747Y-82841402D01*
X112073223Y-82823223D01*
X112091402Y-82806747D01*
X112111107Y-82792133D01*
X112132151Y-82779520D01*
X112154329Y-82769030D01*
X112177429Y-82760765D01*
X112201227Y-82754804D01*
X112225496Y-82751204D01*
X112250000Y-82750000D01*
X115250000Y-82750000D01*
X115274504Y-82751204D01*
X115274504Y-82751204D01*
G37*
D15*
G04 #@! TD*
G04 #@! TO.P,C10,1*
G04 #@! TO.N,+12V*
X113750000Y-84000000D03*
D13*
G04 #@! TO.N,Net-(C12-Pad2)*
G04 #@! TO.C,C12*
G36*
X103330142Y-78301174D02*
X103353803Y-78304684D01*
X103377007Y-78310496D01*
X103399529Y-78318554D01*
X103421153Y-78328782D01*
X103441670Y-78341079D01*
X103460883Y-78355329D01*
X103478607Y-78371393D01*
X103494671Y-78389117D01*
X103508921Y-78408330D01*
X103521218Y-78428847D01*
X103531446Y-78450471D01*
X103539504Y-78472993D01*
X103545316Y-78496197D01*
X103548826Y-78519858D01*
X103550000Y-78543750D01*
X103550000Y-79456250D01*
X103548826Y-79480142D01*
X103545316Y-79503803D01*
X103539504Y-79527007D01*
X103531446Y-79549529D01*
X103521218Y-79571153D01*
X103508921Y-79591670D01*
X103494671Y-79610883D01*
X103478607Y-79628607D01*
X103460883Y-79644671D01*
X103441670Y-79658921D01*
X103421153Y-79671218D01*
X103399529Y-79681446D01*
X103377007Y-79689504D01*
X103353803Y-79695316D01*
X103330142Y-79698826D01*
X103306250Y-79700000D01*
X102818750Y-79700000D01*
X102794858Y-79698826D01*
X102771197Y-79695316D01*
X102747993Y-79689504D01*
X102725471Y-79681446D01*
X102703847Y-79671218D01*
X102683330Y-79658921D01*
X102664117Y-79644671D01*
X102646393Y-79628607D01*
X102630329Y-79610883D01*
X102616079Y-79591670D01*
X102603782Y-79571153D01*
X102593554Y-79549529D01*
X102585496Y-79527007D01*
X102579684Y-79503803D01*
X102576174Y-79480142D01*
X102575000Y-79456250D01*
X102575000Y-78543750D01*
X102576174Y-78519858D01*
X102579684Y-78496197D01*
X102585496Y-78472993D01*
X102593554Y-78450471D01*
X102603782Y-78428847D01*
X102616079Y-78408330D01*
X102630329Y-78389117D01*
X102646393Y-78371393D01*
X102664117Y-78355329D01*
X102683330Y-78341079D01*
X102703847Y-78328782D01*
X102725471Y-78318554D01*
X102747993Y-78310496D01*
X102771197Y-78304684D01*
X102794858Y-78301174D01*
X102818750Y-78300000D01*
X103306250Y-78300000D01*
X103330142Y-78301174D01*
X103330142Y-78301174D01*
G37*
D14*
G04 #@! TD*
G04 #@! TO.P,C12,2*
G04 #@! TO.N,Net-(C12-Pad2)*
X103062500Y-79000000D03*
D13*
G04 #@! TO.N,Net-(C12-Pad1)*
G04 #@! TO.C,C12*
G36*
X105205142Y-78301174D02*
X105228803Y-78304684D01*
X105252007Y-78310496D01*
X105274529Y-78318554D01*
X105296153Y-78328782D01*
X105316670Y-78341079D01*
X105335883Y-78355329D01*
X105353607Y-78371393D01*
X105369671Y-78389117D01*
X105383921Y-78408330D01*
X105396218Y-78428847D01*
X105406446Y-78450471D01*
X105414504Y-78472993D01*
X105420316Y-78496197D01*
X105423826Y-78519858D01*
X105425000Y-78543750D01*
X105425000Y-79456250D01*
X105423826Y-79480142D01*
X105420316Y-79503803D01*
X105414504Y-79527007D01*
X105406446Y-79549529D01*
X105396218Y-79571153D01*
X105383921Y-79591670D01*
X105369671Y-79610883D01*
X105353607Y-79628607D01*
X105335883Y-79644671D01*
X105316670Y-79658921D01*
X105296153Y-79671218D01*
X105274529Y-79681446D01*
X105252007Y-79689504D01*
X105228803Y-79695316D01*
X105205142Y-79698826D01*
X105181250Y-79700000D01*
X104693750Y-79700000D01*
X104669858Y-79698826D01*
X104646197Y-79695316D01*
X104622993Y-79689504D01*
X104600471Y-79681446D01*
X104578847Y-79671218D01*
X104558330Y-79658921D01*
X104539117Y-79644671D01*
X104521393Y-79628607D01*
X104505329Y-79610883D01*
X104491079Y-79591670D01*
X104478782Y-79571153D01*
X104468554Y-79549529D01*
X104460496Y-79527007D01*
X104454684Y-79503803D01*
X104451174Y-79480142D01*
X104450000Y-79456250D01*
X104450000Y-78543750D01*
X104451174Y-78519858D01*
X104454684Y-78496197D01*
X104460496Y-78472993D01*
X104468554Y-78450471D01*
X104478782Y-78428847D01*
X104491079Y-78408330D01*
X104505329Y-78389117D01*
X104521393Y-78371393D01*
X104539117Y-78355329D01*
X104558330Y-78341079D01*
X104578847Y-78328782D01*
X104600471Y-78318554D01*
X104622993Y-78310496D01*
X104646197Y-78304684D01*
X104669858Y-78301174D01*
X104693750Y-78300000D01*
X105181250Y-78300000D01*
X105205142Y-78301174D01*
X105205142Y-78301174D01*
G37*
D14*
G04 #@! TD*
G04 #@! TO.P,C12,1*
G04 #@! TO.N,Net-(C12-Pad1)*
X104937500Y-79000000D03*
D13*
G04 #@! TO.N,Net-(C13-Pad2)*
G04 #@! TO.C,C13*
G36*
X103330142Y-66301174D02*
X103353803Y-66304684D01*
X103377007Y-66310496D01*
X103399529Y-66318554D01*
X103421153Y-66328782D01*
X103441670Y-66341079D01*
X103460883Y-66355329D01*
X103478607Y-66371393D01*
X103494671Y-66389117D01*
X103508921Y-66408330D01*
X103521218Y-66428847D01*
X103531446Y-66450471D01*
X103539504Y-66472993D01*
X103545316Y-66496197D01*
X103548826Y-66519858D01*
X103550000Y-66543750D01*
X103550000Y-67456250D01*
X103548826Y-67480142D01*
X103545316Y-67503803D01*
X103539504Y-67527007D01*
X103531446Y-67549529D01*
X103521218Y-67571153D01*
X103508921Y-67591670D01*
X103494671Y-67610883D01*
X103478607Y-67628607D01*
X103460883Y-67644671D01*
X103441670Y-67658921D01*
X103421153Y-67671218D01*
X103399529Y-67681446D01*
X103377007Y-67689504D01*
X103353803Y-67695316D01*
X103330142Y-67698826D01*
X103306250Y-67700000D01*
X102818750Y-67700000D01*
X102794858Y-67698826D01*
X102771197Y-67695316D01*
X102747993Y-67689504D01*
X102725471Y-67681446D01*
X102703847Y-67671218D01*
X102683330Y-67658921D01*
X102664117Y-67644671D01*
X102646393Y-67628607D01*
X102630329Y-67610883D01*
X102616079Y-67591670D01*
X102603782Y-67571153D01*
X102593554Y-67549529D01*
X102585496Y-67527007D01*
X102579684Y-67503803D01*
X102576174Y-67480142D01*
X102575000Y-67456250D01*
X102575000Y-66543750D01*
X102576174Y-66519858D01*
X102579684Y-66496197D01*
X102585496Y-66472993D01*
X102593554Y-66450471D01*
X102603782Y-66428847D01*
X102616079Y-66408330D01*
X102630329Y-66389117D01*
X102646393Y-66371393D01*
X102664117Y-66355329D01*
X102683330Y-66341079D01*
X102703847Y-66328782D01*
X102725471Y-66318554D01*
X102747993Y-66310496D01*
X102771197Y-66304684D01*
X102794858Y-66301174D01*
X102818750Y-66300000D01*
X103306250Y-66300000D01*
X103330142Y-66301174D01*
X103330142Y-66301174D01*
G37*
D14*
G04 #@! TD*
G04 #@! TO.P,C13,2*
G04 #@! TO.N,Net-(C13-Pad2)*
X103062500Y-67000000D03*
D13*
G04 #@! TO.N,Net-(C13-Pad1)*
G04 #@! TO.C,C13*
G36*
X105205142Y-66301174D02*
X105228803Y-66304684D01*
X105252007Y-66310496D01*
X105274529Y-66318554D01*
X105296153Y-66328782D01*
X105316670Y-66341079D01*
X105335883Y-66355329D01*
X105353607Y-66371393D01*
X105369671Y-66389117D01*
X105383921Y-66408330D01*
X105396218Y-66428847D01*
X105406446Y-66450471D01*
X105414504Y-66472993D01*
X105420316Y-66496197D01*
X105423826Y-66519858D01*
X105425000Y-66543750D01*
X105425000Y-67456250D01*
X105423826Y-67480142D01*
X105420316Y-67503803D01*
X105414504Y-67527007D01*
X105406446Y-67549529D01*
X105396218Y-67571153D01*
X105383921Y-67591670D01*
X105369671Y-67610883D01*
X105353607Y-67628607D01*
X105335883Y-67644671D01*
X105316670Y-67658921D01*
X105296153Y-67671218D01*
X105274529Y-67681446D01*
X105252007Y-67689504D01*
X105228803Y-67695316D01*
X105205142Y-67698826D01*
X105181250Y-67700000D01*
X104693750Y-67700000D01*
X104669858Y-67698826D01*
X104646197Y-67695316D01*
X104622993Y-67689504D01*
X104600471Y-67681446D01*
X104578847Y-67671218D01*
X104558330Y-67658921D01*
X104539117Y-67644671D01*
X104521393Y-67628607D01*
X104505329Y-67610883D01*
X104491079Y-67591670D01*
X104478782Y-67571153D01*
X104468554Y-67549529D01*
X104460496Y-67527007D01*
X104454684Y-67503803D01*
X104451174Y-67480142D01*
X104450000Y-67456250D01*
X104450000Y-66543750D01*
X104451174Y-66519858D01*
X104454684Y-66496197D01*
X104460496Y-66472993D01*
X104468554Y-66450471D01*
X104478782Y-66428847D01*
X104491079Y-66408330D01*
X104505329Y-66389117D01*
X104521393Y-66371393D01*
X104539117Y-66355329D01*
X104558330Y-66341079D01*
X104578847Y-66328782D01*
X104600471Y-66318554D01*
X104622993Y-66310496D01*
X104646197Y-66304684D01*
X104669858Y-66301174D01*
X104693750Y-66300000D01*
X105181250Y-66300000D01*
X105205142Y-66301174D01*
X105205142Y-66301174D01*
G37*
D14*
G04 #@! TD*
G04 #@! TO.P,C13,1*
G04 #@! TO.N,Net-(C13-Pad1)*
X104937500Y-67000000D03*
D13*
G04 #@! TO.N,GND*
G04 #@! TO.C,C14*
G36*
X105205142Y-84301174D02*
X105228803Y-84304684D01*
X105252007Y-84310496D01*
X105274529Y-84318554D01*
X105296153Y-84328782D01*
X105316670Y-84341079D01*
X105335883Y-84355329D01*
X105353607Y-84371393D01*
X105369671Y-84389117D01*
X105383921Y-84408330D01*
X105396218Y-84428847D01*
X105406446Y-84450471D01*
X105414504Y-84472993D01*
X105420316Y-84496197D01*
X105423826Y-84519858D01*
X105425000Y-84543750D01*
X105425000Y-85456250D01*
X105423826Y-85480142D01*
X105420316Y-85503803D01*
X105414504Y-85527007D01*
X105406446Y-85549529D01*
X105396218Y-85571153D01*
X105383921Y-85591670D01*
X105369671Y-85610883D01*
X105353607Y-85628607D01*
X105335883Y-85644671D01*
X105316670Y-85658921D01*
X105296153Y-85671218D01*
X105274529Y-85681446D01*
X105252007Y-85689504D01*
X105228803Y-85695316D01*
X105205142Y-85698826D01*
X105181250Y-85700000D01*
X104693750Y-85700000D01*
X104669858Y-85698826D01*
X104646197Y-85695316D01*
X104622993Y-85689504D01*
X104600471Y-85681446D01*
X104578847Y-85671218D01*
X104558330Y-85658921D01*
X104539117Y-85644671D01*
X104521393Y-85628607D01*
X104505329Y-85610883D01*
X104491079Y-85591670D01*
X104478782Y-85571153D01*
X104468554Y-85549529D01*
X104460496Y-85527007D01*
X104454684Y-85503803D01*
X104451174Y-85480142D01*
X104450000Y-85456250D01*
X104450000Y-84543750D01*
X104451174Y-84519858D01*
X104454684Y-84496197D01*
X104460496Y-84472993D01*
X104468554Y-84450471D01*
X104478782Y-84428847D01*
X104491079Y-84408330D01*
X104505329Y-84389117D01*
X104521393Y-84371393D01*
X104539117Y-84355329D01*
X104558330Y-84341079D01*
X104578847Y-84328782D01*
X104600471Y-84318554D01*
X104622993Y-84310496D01*
X104646197Y-84304684D01*
X104669858Y-84301174D01*
X104693750Y-84300000D01*
X105181250Y-84300000D01*
X105205142Y-84301174D01*
X105205142Y-84301174D01*
G37*
D14*
G04 #@! TD*
G04 #@! TO.P,C14,2*
G04 #@! TO.N,GND*
X104937500Y-85000000D03*
D13*
G04 #@! TO.N,Net-(C14-Pad1)*
G04 #@! TO.C,C14*
G36*
X103330142Y-84301174D02*
X103353803Y-84304684D01*
X103377007Y-84310496D01*
X103399529Y-84318554D01*
X103421153Y-84328782D01*
X103441670Y-84341079D01*
X103460883Y-84355329D01*
X103478607Y-84371393D01*
X103494671Y-84389117D01*
X103508921Y-84408330D01*
X103521218Y-84428847D01*
X103531446Y-84450471D01*
X103539504Y-84472993D01*
X103545316Y-84496197D01*
X103548826Y-84519858D01*
X103550000Y-84543750D01*
X103550000Y-85456250D01*
X103548826Y-85480142D01*
X103545316Y-85503803D01*
X103539504Y-85527007D01*
X103531446Y-85549529D01*
X103521218Y-85571153D01*
X103508921Y-85591670D01*
X103494671Y-85610883D01*
X103478607Y-85628607D01*
X103460883Y-85644671D01*
X103441670Y-85658921D01*
X103421153Y-85671218D01*
X103399529Y-85681446D01*
X103377007Y-85689504D01*
X103353803Y-85695316D01*
X103330142Y-85698826D01*
X103306250Y-85700000D01*
X102818750Y-85700000D01*
X102794858Y-85698826D01*
X102771197Y-85695316D01*
X102747993Y-85689504D01*
X102725471Y-85681446D01*
X102703847Y-85671218D01*
X102683330Y-85658921D01*
X102664117Y-85644671D01*
X102646393Y-85628607D01*
X102630329Y-85610883D01*
X102616079Y-85591670D01*
X102603782Y-85571153D01*
X102593554Y-85549529D01*
X102585496Y-85527007D01*
X102579684Y-85503803D01*
X102576174Y-85480142D01*
X102575000Y-85456250D01*
X102575000Y-84543750D01*
X102576174Y-84519858D01*
X102579684Y-84496197D01*
X102585496Y-84472993D01*
X102593554Y-84450471D01*
X102603782Y-84428847D01*
X102616079Y-84408330D01*
X102630329Y-84389117D01*
X102646393Y-84371393D01*
X102664117Y-84355329D01*
X102683330Y-84341079D01*
X102703847Y-84328782D01*
X102725471Y-84318554D01*
X102747993Y-84310496D01*
X102771197Y-84304684D01*
X102794858Y-84301174D01*
X102818750Y-84300000D01*
X103306250Y-84300000D01*
X103330142Y-84301174D01*
X103330142Y-84301174D01*
G37*
D14*
G04 #@! TD*
G04 #@! TO.P,C14,1*
G04 #@! TO.N,Net-(C14-Pad1)*
X103062500Y-85000000D03*
D13*
G04 #@! TO.N,Net-(C15-Pad2)*
G04 #@! TO.C,C15*
G36*
X103330142Y-60301174D02*
X103353803Y-60304684D01*
X103377007Y-60310496D01*
X103399529Y-60318554D01*
X103421153Y-60328782D01*
X103441670Y-60341079D01*
X103460883Y-60355329D01*
X103478607Y-60371393D01*
X103494671Y-60389117D01*
X103508921Y-60408330D01*
X103521218Y-60428847D01*
X103531446Y-60450471D01*
X103539504Y-60472993D01*
X103545316Y-60496197D01*
X103548826Y-60519858D01*
X103550000Y-60543750D01*
X103550000Y-61456250D01*
X103548826Y-61480142D01*
X103545316Y-61503803D01*
X103539504Y-61527007D01*
X103531446Y-61549529D01*
X103521218Y-61571153D01*
X103508921Y-61591670D01*
X103494671Y-61610883D01*
X103478607Y-61628607D01*
X103460883Y-61644671D01*
X103441670Y-61658921D01*
X103421153Y-61671218D01*
X103399529Y-61681446D01*
X103377007Y-61689504D01*
X103353803Y-61695316D01*
X103330142Y-61698826D01*
X103306250Y-61700000D01*
X102818750Y-61700000D01*
X102794858Y-61698826D01*
X102771197Y-61695316D01*
X102747993Y-61689504D01*
X102725471Y-61681446D01*
X102703847Y-61671218D01*
X102683330Y-61658921D01*
X102664117Y-61644671D01*
X102646393Y-61628607D01*
X102630329Y-61610883D01*
X102616079Y-61591670D01*
X102603782Y-61571153D01*
X102593554Y-61549529D01*
X102585496Y-61527007D01*
X102579684Y-61503803D01*
X102576174Y-61480142D01*
X102575000Y-61456250D01*
X102575000Y-60543750D01*
X102576174Y-60519858D01*
X102579684Y-60496197D01*
X102585496Y-60472993D01*
X102593554Y-60450471D01*
X102603782Y-60428847D01*
X102616079Y-60408330D01*
X102630329Y-60389117D01*
X102646393Y-60371393D01*
X102664117Y-60355329D01*
X102683330Y-60341079D01*
X102703847Y-60328782D01*
X102725471Y-60318554D01*
X102747993Y-60310496D01*
X102771197Y-60304684D01*
X102794858Y-60301174D01*
X102818750Y-60300000D01*
X103306250Y-60300000D01*
X103330142Y-60301174D01*
X103330142Y-60301174D01*
G37*
D14*
G04 #@! TD*
G04 #@! TO.P,C15,2*
G04 #@! TO.N,Net-(C15-Pad2)*
X103062500Y-61000000D03*
D13*
G04 #@! TO.N,GND*
G04 #@! TO.C,C15*
G36*
X105205142Y-60301174D02*
X105228803Y-60304684D01*
X105252007Y-60310496D01*
X105274529Y-60318554D01*
X105296153Y-60328782D01*
X105316670Y-60341079D01*
X105335883Y-60355329D01*
X105353607Y-60371393D01*
X105369671Y-60389117D01*
X105383921Y-60408330D01*
X105396218Y-60428847D01*
X105406446Y-60450471D01*
X105414504Y-60472993D01*
X105420316Y-60496197D01*
X105423826Y-60519858D01*
X105425000Y-60543750D01*
X105425000Y-61456250D01*
X105423826Y-61480142D01*
X105420316Y-61503803D01*
X105414504Y-61527007D01*
X105406446Y-61549529D01*
X105396218Y-61571153D01*
X105383921Y-61591670D01*
X105369671Y-61610883D01*
X105353607Y-61628607D01*
X105335883Y-61644671D01*
X105316670Y-61658921D01*
X105296153Y-61671218D01*
X105274529Y-61681446D01*
X105252007Y-61689504D01*
X105228803Y-61695316D01*
X105205142Y-61698826D01*
X105181250Y-61700000D01*
X104693750Y-61700000D01*
X104669858Y-61698826D01*
X104646197Y-61695316D01*
X104622993Y-61689504D01*
X104600471Y-61681446D01*
X104578847Y-61671218D01*
X104558330Y-61658921D01*
X104539117Y-61644671D01*
X104521393Y-61628607D01*
X104505329Y-61610883D01*
X104491079Y-61591670D01*
X104478782Y-61571153D01*
X104468554Y-61549529D01*
X104460496Y-61527007D01*
X104454684Y-61503803D01*
X104451174Y-61480142D01*
X104450000Y-61456250D01*
X104450000Y-60543750D01*
X104451174Y-60519858D01*
X104454684Y-60496197D01*
X104460496Y-60472993D01*
X104468554Y-60450471D01*
X104478782Y-60428847D01*
X104491079Y-60408330D01*
X104505329Y-60389117D01*
X104521393Y-60371393D01*
X104539117Y-60355329D01*
X104558330Y-60341079D01*
X104578847Y-60328782D01*
X104600471Y-60318554D01*
X104622993Y-60310496D01*
X104646197Y-60304684D01*
X104669858Y-60301174D01*
X104693750Y-60300000D01*
X105181250Y-60300000D01*
X105205142Y-60301174D01*
X105205142Y-60301174D01*
G37*
D14*
G04 #@! TD*
G04 #@! TO.P,C15,1*
G04 #@! TO.N,GND*
X104937500Y-61000000D03*
D13*
G04 #@! TO.N,/AVCC*
G04 #@! TO.C,C16*
G36*
X105205142Y-75301174D02*
X105228803Y-75304684D01*
X105252007Y-75310496D01*
X105274529Y-75318554D01*
X105296153Y-75328782D01*
X105316670Y-75341079D01*
X105335883Y-75355329D01*
X105353607Y-75371393D01*
X105369671Y-75389117D01*
X105383921Y-75408330D01*
X105396218Y-75428847D01*
X105406446Y-75450471D01*
X105414504Y-75472993D01*
X105420316Y-75496197D01*
X105423826Y-75519858D01*
X105425000Y-75543750D01*
X105425000Y-76456250D01*
X105423826Y-76480142D01*
X105420316Y-76503803D01*
X105414504Y-76527007D01*
X105406446Y-76549529D01*
X105396218Y-76571153D01*
X105383921Y-76591670D01*
X105369671Y-76610883D01*
X105353607Y-76628607D01*
X105335883Y-76644671D01*
X105316670Y-76658921D01*
X105296153Y-76671218D01*
X105274529Y-76681446D01*
X105252007Y-76689504D01*
X105228803Y-76695316D01*
X105205142Y-76698826D01*
X105181250Y-76700000D01*
X104693750Y-76700000D01*
X104669858Y-76698826D01*
X104646197Y-76695316D01*
X104622993Y-76689504D01*
X104600471Y-76681446D01*
X104578847Y-76671218D01*
X104558330Y-76658921D01*
X104539117Y-76644671D01*
X104521393Y-76628607D01*
X104505329Y-76610883D01*
X104491079Y-76591670D01*
X104478782Y-76571153D01*
X104468554Y-76549529D01*
X104460496Y-76527007D01*
X104454684Y-76503803D01*
X104451174Y-76480142D01*
X104450000Y-76456250D01*
X104450000Y-75543750D01*
X104451174Y-75519858D01*
X104454684Y-75496197D01*
X104460496Y-75472993D01*
X104468554Y-75450471D01*
X104478782Y-75428847D01*
X104491079Y-75408330D01*
X104505329Y-75389117D01*
X104521393Y-75371393D01*
X104539117Y-75355329D01*
X104558330Y-75341079D01*
X104578847Y-75328782D01*
X104600471Y-75318554D01*
X104622993Y-75310496D01*
X104646197Y-75304684D01*
X104669858Y-75301174D01*
X104693750Y-75300000D01*
X105181250Y-75300000D01*
X105205142Y-75301174D01*
X105205142Y-75301174D01*
G37*
D14*
G04 #@! TD*
G04 #@! TO.P,C16,2*
G04 #@! TO.N,/AVCC*
X104937500Y-76000000D03*
D13*
G04 #@! TO.N,GND*
G04 #@! TO.C,C16*
G36*
X103330142Y-75301174D02*
X103353803Y-75304684D01*
X103377007Y-75310496D01*
X103399529Y-75318554D01*
X103421153Y-75328782D01*
X103441670Y-75341079D01*
X103460883Y-75355329D01*
X103478607Y-75371393D01*
X103494671Y-75389117D01*
X103508921Y-75408330D01*
X103521218Y-75428847D01*
X103531446Y-75450471D01*
X103539504Y-75472993D01*
X103545316Y-75496197D01*
X103548826Y-75519858D01*
X103550000Y-75543750D01*
X103550000Y-76456250D01*
X103548826Y-76480142D01*
X103545316Y-76503803D01*
X103539504Y-76527007D01*
X103531446Y-76549529D01*
X103521218Y-76571153D01*
X103508921Y-76591670D01*
X103494671Y-76610883D01*
X103478607Y-76628607D01*
X103460883Y-76644671D01*
X103441670Y-76658921D01*
X103421153Y-76671218D01*
X103399529Y-76681446D01*
X103377007Y-76689504D01*
X103353803Y-76695316D01*
X103330142Y-76698826D01*
X103306250Y-76700000D01*
X102818750Y-76700000D01*
X102794858Y-76698826D01*
X102771197Y-76695316D01*
X102747993Y-76689504D01*
X102725471Y-76681446D01*
X102703847Y-76671218D01*
X102683330Y-76658921D01*
X102664117Y-76644671D01*
X102646393Y-76628607D01*
X102630329Y-76610883D01*
X102616079Y-76591670D01*
X102603782Y-76571153D01*
X102593554Y-76549529D01*
X102585496Y-76527007D01*
X102579684Y-76503803D01*
X102576174Y-76480142D01*
X102575000Y-76456250D01*
X102575000Y-75543750D01*
X102576174Y-75519858D01*
X102579684Y-75496197D01*
X102585496Y-75472993D01*
X102593554Y-75450471D01*
X102603782Y-75428847D01*
X102616079Y-75408330D01*
X102630329Y-75389117D01*
X102646393Y-75371393D01*
X102664117Y-75355329D01*
X102683330Y-75341079D01*
X102703847Y-75328782D01*
X102725471Y-75318554D01*
X102747993Y-75310496D01*
X102771197Y-75304684D01*
X102794858Y-75301174D01*
X102818750Y-75300000D01*
X103306250Y-75300000D01*
X103330142Y-75301174D01*
X103330142Y-75301174D01*
G37*
D14*
G04 #@! TD*
G04 #@! TO.P,C16,1*
G04 #@! TO.N,GND*
X103062500Y-76000000D03*
D13*
G04 #@! TO.N,/AVCC*
G04 #@! TO.C,C17*
G36*
X105205142Y-69301174D02*
X105228803Y-69304684D01*
X105252007Y-69310496D01*
X105274529Y-69318554D01*
X105296153Y-69328782D01*
X105316670Y-69341079D01*
X105335883Y-69355329D01*
X105353607Y-69371393D01*
X105369671Y-69389117D01*
X105383921Y-69408330D01*
X105396218Y-69428847D01*
X105406446Y-69450471D01*
X105414504Y-69472993D01*
X105420316Y-69496197D01*
X105423826Y-69519858D01*
X105425000Y-69543750D01*
X105425000Y-70456250D01*
X105423826Y-70480142D01*
X105420316Y-70503803D01*
X105414504Y-70527007D01*
X105406446Y-70549529D01*
X105396218Y-70571153D01*
X105383921Y-70591670D01*
X105369671Y-70610883D01*
X105353607Y-70628607D01*
X105335883Y-70644671D01*
X105316670Y-70658921D01*
X105296153Y-70671218D01*
X105274529Y-70681446D01*
X105252007Y-70689504D01*
X105228803Y-70695316D01*
X105205142Y-70698826D01*
X105181250Y-70700000D01*
X104693750Y-70700000D01*
X104669858Y-70698826D01*
X104646197Y-70695316D01*
X104622993Y-70689504D01*
X104600471Y-70681446D01*
X104578847Y-70671218D01*
X104558330Y-70658921D01*
X104539117Y-70644671D01*
X104521393Y-70628607D01*
X104505329Y-70610883D01*
X104491079Y-70591670D01*
X104478782Y-70571153D01*
X104468554Y-70549529D01*
X104460496Y-70527007D01*
X104454684Y-70503803D01*
X104451174Y-70480142D01*
X104450000Y-70456250D01*
X104450000Y-69543750D01*
X104451174Y-69519858D01*
X104454684Y-69496197D01*
X104460496Y-69472993D01*
X104468554Y-69450471D01*
X104478782Y-69428847D01*
X104491079Y-69408330D01*
X104505329Y-69389117D01*
X104521393Y-69371393D01*
X104539117Y-69355329D01*
X104558330Y-69341079D01*
X104578847Y-69328782D01*
X104600471Y-69318554D01*
X104622993Y-69310496D01*
X104646197Y-69304684D01*
X104669858Y-69301174D01*
X104693750Y-69300000D01*
X105181250Y-69300000D01*
X105205142Y-69301174D01*
X105205142Y-69301174D01*
G37*
D14*
G04 #@! TD*
G04 #@! TO.P,C17,2*
G04 #@! TO.N,/AVCC*
X104937500Y-70000000D03*
D13*
G04 #@! TO.N,GND*
G04 #@! TO.C,C17*
G36*
X103330142Y-69301174D02*
X103353803Y-69304684D01*
X103377007Y-69310496D01*
X103399529Y-69318554D01*
X103421153Y-69328782D01*
X103441670Y-69341079D01*
X103460883Y-69355329D01*
X103478607Y-69371393D01*
X103494671Y-69389117D01*
X103508921Y-69408330D01*
X103521218Y-69428847D01*
X103531446Y-69450471D01*
X103539504Y-69472993D01*
X103545316Y-69496197D01*
X103548826Y-69519858D01*
X103550000Y-69543750D01*
X103550000Y-70456250D01*
X103548826Y-70480142D01*
X103545316Y-70503803D01*
X103539504Y-70527007D01*
X103531446Y-70549529D01*
X103521218Y-70571153D01*
X103508921Y-70591670D01*
X103494671Y-70610883D01*
X103478607Y-70628607D01*
X103460883Y-70644671D01*
X103441670Y-70658921D01*
X103421153Y-70671218D01*
X103399529Y-70681446D01*
X103377007Y-70689504D01*
X103353803Y-70695316D01*
X103330142Y-70698826D01*
X103306250Y-70700000D01*
X102818750Y-70700000D01*
X102794858Y-70698826D01*
X102771197Y-70695316D01*
X102747993Y-70689504D01*
X102725471Y-70681446D01*
X102703847Y-70671218D01*
X102683330Y-70658921D01*
X102664117Y-70644671D01*
X102646393Y-70628607D01*
X102630329Y-70610883D01*
X102616079Y-70591670D01*
X102603782Y-70571153D01*
X102593554Y-70549529D01*
X102585496Y-70527007D01*
X102579684Y-70503803D01*
X102576174Y-70480142D01*
X102575000Y-70456250D01*
X102575000Y-69543750D01*
X102576174Y-69519858D01*
X102579684Y-69496197D01*
X102585496Y-69472993D01*
X102593554Y-69450471D01*
X102603782Y-69428847D01*
X102616079Y-69408330D01*
X102630329Y-69389117D01*
X102646393Y-69371393D01*
X102664117Y-69355329D01*
X102683330Y-69341079D01*
X102703847Y-69328782D01*
X102725471Y-69318554D01*
X102747993Y-69310496D01*
X102771197Y-69304684D01*
X102794858Y-69301174D01*
X102818750Y-69300000D01*
X103306250Y-69300000D01*
X103330142Y-69301174D01*
X103330142Y-69301174D01*
G37*
D14*
G04 #@! TD*
G04 #@! TO.P,C17,1*
G04 #@! TO.N,GND*
X103062500Y-70000000D03*
D13*
G04 #@! TO.N,Net-(C14-Pad1)*
G04 #@! TO.C,L1*
G36*
X103330142Y-81301174D02*
X103353803Y-81304684D01*
X103377007Y-81310496D01*
X103399529Y-81318554D01*
X103421153Y-81328782D01*
X103441670Y-81341079D01*
X103460883Y-81355329D01*
X103478607Y-81371393D01*
X103494671Y-81389117D01*
X103508921Y-81408330D01*
X103521218Y-81428847D01*
X103531446Y-81450471D01*
X103539504Y-81472993D01*
X103545316Y-81496197D01*
X103548826Y-81519858D01*
X103550000Y-81543750D01*
X103550000Y-82456250D01*
X103548826Y-82480142D01*
X103545316Y-82503803D01*
X103539504Y-82527007D01*
X103531446Y-82549529D01*
X103521218Y-82571153D01*
X103508921Y-82591670D01*
X103494671Y-82610883D01*
X103478607Y-82628607D01*
X103460883Y-82644671D01*
X103441670Y-82658921D01*
X103421153Y-82671218D01*
X103399529Y-82681446D01*
X103377007Y-82689504D01*
X103353803Y-82695316D01*
X103330142Y-82698826D01*
X103306250Y-82700000D01*
X102818750Y-82700000D01*
X102794858Y-82698826D01*
X102771197Y-82695316D01*
X102747993Y-82689504D01*
X102725471Y-82681446D01*
X102703847Y-82671218D01*
X102683330Y-82658921D01*
X102664117Y-82644671D01*
X102646393Y-82628607D01*
X102630329Y-82610883D01*
X102616079Y-82591670D01*
X102603782Y-82571153D01*
X102593554Y-82549529D01*
X102585496Y-82527007D01*
X102579684Y-82503803D01*
X102576174Y-82480142D01*
X102575000Y-82456250D01*
X102575000Y-81543750D01*
X102576174Y-81519858D01*
X102579684Y-81496197D01*
X102585496Y-81472993D01*
X102593554Y-81450471D01*
X102603782Y-81428847D01*
X102616079Y-81408330D01*
X102630329Y-81389117D01*
X102646393Y-81371393D01*
X102664117Y-81355329D01*
X102683330Y-81341079D01*
X102703847Y-81328782D01*
X102725471Y-81318554D01*
X102747993Y-81310496D01*
X102771197Y-81304684D01*
X102794858Y-81301174D01*
X102818750Y-81300000D01*
X103306250Y-81300000D01*
X103330142Y-81301174D01*
X103330142Y-81301174D01*
G37*
D14*
G04 #@! TD*
G04 #@! TO.P,L1,2*
G04 #@! TO.N,Net-(C14-Pad1)*
X103062500Y-82000000D03*
D13*
G04 #@! TO.N,Net-(C12-Pad1)*
G04 #@! TO.C,L1*
G36*
X105205142Y-81301174D02*
X105228803Y-81304684D01*
X105252007Y-81310496D01*
X105274529Y-81318554D01*
X105296153Y-81328782D01*
X105316670Y-81341079D01*
X105335883Y-81355329D01*
X105353607Y-81371393D01*
X105369671Y-81389117D01*
X105383921Y-81408330D01*
X105396218Y-81428847D01*
X105406446Y-81450471D01*
X105414504Y-81472993D01*
X105420316Y-81496197D01*
X105423826Y-81519858D01*
X105425000Y-81543750D01*
X105425000Y-82456250D01*
X105423826Y-82480142D01*
X105420316Y-82503803D01*
X105414504Y-82527007D01*
X105406446Y-82549529D01*
X105396218Y-82571153D01*
X105383921Y-82591670D01*
X105369671Y-82610883D01*
X105353607Y-82628607D01*
X105335883Y-82644671D01*
X105316670Y-82658921D01*
X105296153Y-82671218D01*
X105274529Y-82681446D01*
X105252007Y-82689504D01*
X105228803Y-82695316D01*
X105205142Y-82698826D01*
X105181250Y-82700000D01*
X104693750Y-82700000D01*
X104669858Y-82698826D01*
X104646197Y-82695316D01*
X104622993Y-82689504D01*
X104600471Y-82681446D01*
X104578847Y-82671218D01*
X104558330Y-82658921D01*
X104539117Y-82644671D01*
X104521393Y-82628607D01*
X104505329Y-82610883D01*
X104491079Y-82591670D01*
X104478782Y-82571153D01*
X104468554Y-82549529D01*
X104460496Y-82527007D01*
X104454684Y-82503803D01*
X104451174Y-82480142D01*
X104450000Y-82456250D01*
X104450000Y-81543750D01*
X104451174Y-81519858D01*
X104454684Y-81496197D01*
X104460496Y-81472993D01*
X104468554Y-81450471D01*
X104478782Y-81428847D01*
X104491079Y-81408330D01*
X104505329Y-81389117D01*
X104521393Y-81371393D01*
X104539117Y-81355329D01*
X104558330Y-81341079D01*
X104578847Y-81328782D01*
X104600471Y-81318554D01*
X104622993Y-81310496D01*
X104646197Y-81304684D01*
X104669858Y-81301174D01*
X104693750Y-81300000D01*
X105181250Y-81300000D01*
X105205142Y-81301174D01*
X105205142Y-81301174D01*
G37*
D14*
G04 #@! TD*
G04 #@! TO.P,L1,1*
G04 #@! TO.N,Net-(C12-Pad1)*
X104937500Y-82000000D03*
D13*
G04 #@! TO.N,Net-(C15-Pad2)*
G04 #@! TO.C,L2*
G36*
X103330142Y-63301174D02*
X103353803Y-63304684D01*
X103377007Y-63310496D01*
X103399529Y-63318554D01*
X103421153Y-63328782D01*
X103441670Y-63341079D01*
X103460883Y-63355329D01*
X103478607Y-63371393D01*
X103494671Y-63389117D01*
X103508921Y-63408330D01*
X103521218Y-63428847D01*
X103531446Y-63450471D01*
X103539504Y-63472993D01*
X103545316Y-63496197D01*
X103548826Y-63519858D01*
X103550000Y-63543750D01*
X103550000Y-64456250D01*
X103548826Y-64480142D01*
X103545316Y-64503803D01*
X103539504Y-64527007D01*
X103531446Y-64549529D01*
X103521218Y-64571153D01*
X103508921Y-64591670D01*
X103494671Y-64610883D01*
X103478607Y-64628607D01*
X103460883Y-64644671D01*
X103441670Y-64658921D01*
X103421153Y-64671218D01*
X103399529Y-64681446D01*
X103377007Y-64689504D01*
X103353803Y-64695316D01*
X103330142Y-64698826D01*
X103306250Y-64700000D01*
X102818750Y-64700000D01*
X102794858Y-64698826D01*
X102771197Y-64695316D01*
X102747993Y-64689504D01*
X102725471Y-64681446D01*
X102703847Y-64671218D01*
X102683330Y-64658921D01*
X102664117Y-64644671D01*
X102646393Y-64628607D01*
X102630329Y-64610883D01*
X102616079Y-64591670D01*
X102603782Y-64571153D01*
X102593554Y-64549529D01*
X102585496Y-64527007D01*
X102579684Y-64503803D01*
X102576174Y-64480142D01*
X102575000Y-64456250D01*
X102575000Y-63543750D01*
X102576174Y-63519858D01*
X102579684Y-63496197D01*
X102585496Y-63472993D01*
X102593554Y-63450471D01*
X102603782Y-63428847D01*
X102616079Y-63408330D01*
X102630329Y-63389117D01*
X102646393Y-63371393D01*
X102664117Y-63355329D01*
X102683330Y-63341079D01*
X102703847Y-63328782D01*
X102725471Y-63318554D01*
X102747993Y-63310496D01*
X102771197Y-63304684D01*
X102794858Y-63301174D01*
X102818750Y-63300000D01*
X103306250Y-63300000D01*
X103330142Y-63301174D01*
X103330142Y-63301174D01*
G37*
D14*
G04 #@! TD*
G04 #@! TO.P,L2,2*
G04 #@! TO.N,Net-(C15-Pad2)*
X103062500Y-64000000D03*
D13*
G04 #@! TO.N,Net-(C13-Pad1)*
G04 #@! TO.C,L2*
G36*
X105205142Y-63301174D02*
X105228803Y-63304684D01*
X105252007Y-63310496D01*
X105274529Y-63318554D01*
X105296153Y-63328782D01*
X105316670Y-63341079D01*
X105335883Y-63355329D01*
X105353607Y-63371393D01*
X105369671Y-63389117D01*
X105383921Y-63408330D01*
X105396218Y-63428847D01*
X105406446Y-63450471D01*
X105414504Y-63472993D01*
X105420316Y-63496197D01*
X105423826Y-63519858D01*
X105425000Y-63543750D01*
X105425000Y-64456250D01*
X105423826Y-64480142D01*
X105420316Y-64503803D01*
X105414504Y-64527007D01*
X105406446Y-64549529D01*
X105396218Y-64571153D01*
X105383921Y-64591670D01*
X105369671Y-64610883D01*
X105353607Y-64628607D01*
X105335883Y-64644671D01*
X105316670Y-64658921D01*
X105296153Y-64671218D01*
X105274529Y-64681446D01*
X105252007Y-64689504D01*
X105228803Y-64695316D01*
X105205142Y-64698826D01*
X105181250Y-64700000D01*
X104693750Y-64700000D01*
X104669858Y-64698826D01*
X104646197Y-64695316D01*
X104622993Y-64689504D01*
X104600471Y-64681446D01*
X104578847Y-64671218D01*
X104558330Y-64658921D01*
X104539117Y-64644671D01*
X104521393Y-64628607D01*
X104505329Y-64610883D01*
X104491079Y-64591670D01*
X104478782Y-64571153D01*
X104468554Y-64549529D01*
X104460496Y-64527007D01*
X104454684Y-64503803D01*
X104451174Y-64480142D01*
X104450000Y-64456250D01*
X104450000Y-63543750D01*
X104451174Y-63519858D01*
X104454684Y-63496197D01*
X104460496Y-63472993D01*
X104468554Y-63450471D01*
X104478782Y-63428847D01*
X104491079Y-63408330D01*
X104505329Y-63389117D01*
X104521393Y-63371393D01*
X104539117Y-63355329D01*
X104558330Y-63341079D01*
X104578847Y-63328782D01*
X104600471Y-63318554D01*
X104622993Y-63310496D01*
X104646197Y-63304684D01*
X104669858Y-63301174D01*
X104693750Y-63300000D01*
X105181250Y-63300000D01*
X105205142Y-63301174D01*
X105205142Y-63301174D01*
G37*
D14*
G04 #@! TD*
G04 #@! TO.P,L2,1*
G04 #@! TO.N,Net-(C13-Pad1)*
X104937500Y-64000000D03*
D13*
G04 #@! TO.N,/AVCC*
G04 #@! TO.C,R1*
G36*
X105205142Y-72301174D02*
X105228803Y-72304684D01*
X105252007Y-72310496D01*
X105274529Y-72318554D01*
X105296153Y-72328782D01*
X105316670Y-72341079D01*
X105335883Y-72355329D01*
X105353607Y-72371393D01*
X105369671Y-72389117D01*
X105383921Y-72408330D01*
X105396218Y-72428847D01*
X105406446Y-72450471D01*
X105414504Y-72472993D01*
X105420316Y-72496197D01*
X105423826Y-72519858D01*
X105425000Y-72543750D01*
X105425000Y-73456250D01*
X105423826Y-73480142D01*
X105420316Y-73503803D01*
X105414504Y-73527007D01*
X105406446Y-73549529D01*
X105396218Y-73571153D01*
X105383921Y-73591670D01*
X105369671Y-73610883D01*
X105353607Y-73628607D01*
X105335883Y-73644671D01*
X105316670Y-73658921D01*
X105296153Y-73671218D01*
X105274529Y-73681446D01*
X105252007Y-73689504D01*
X105228803Y-73695316D01*
X105205142Y-73698826D01*
X105181250Y-73700000D01*
X104693750Y-73700000D01*
X104669858Y-73698826D01*
X104646197Y-73695316D01*
X104622993Y-73689504D01*
X104600471Y-73681446D01*
X104578847Y-73671218D01*
X104558330Y-73658921D01*
X104539117Y-73644671D01*
X104521393Y-73628607D01*
X104505329Y-73610883D01*
X104491079Y-73591670D01*
X104478782Y-73571153D01*
X104468554Y-73549529D01*
X104460496Y-73527007D01*
X104454684Y-73503803D01*
X104451174Y-73480142D01*
X104450000Y-73456250D01*
X104450000Y-72543750D01*
X104451174Y-72519858D01*
X104454684Y-72496197D01*
X104460496Y-72472993D01*
X104468554Y-72450471D01*
X104478782Y-72428847D01*
X104491079Y-72408330D01*
X104505329Y-72389117D01*
X104521393Y-72371393D01*
X104539117Y-72355329D01*
X104558330Y-72341079D01*
X104578847Y-72328782D01*
X104600471Y-72318554D01*
X104622993Y-72310496D01*
X104646197Y-72304684D01*
X104669858Y-72301174D01*
X104693750Y-72300000D01*
X105181250Y-72300000D01*
X105205142Y-72301174D01*
X105205142Y-72301174D01*
G37*
D14*
G04 #@! TD*
G04 #@! TO.P,R1,2*
G04 #@! TO.N,/AVCC*
X104937500Y-73000000D03*
D13*
G04 #@! TO.N,+12V*
G04 #@! TO.C,R1*
G36*
X103330142Y-72301174D02*
X103353803Y-72304684D01*
X103377007Y-72310496D01*
X103399529Y-72318554D01*
X103421153Y-72328782D01*
X103441670Y-72341079D01*
X103460883Y-72355329D01*
X103478607Y-72371393D01*
X103494671Y-72389117D01*
X103508921Y-72408330D01*
X103521218Y-72428847D01*
X103531446Y-72450471D01*
X103539504Y-72472993D01*
X103545316Y-72496197D01*
X103548826Y-72519858D01*
X103550000Y-72543750D01*
X103550000Y-73456250D01*
X103548826Y-73480142D01*
X103545316Y-73503803D01*
X103539504Y-73527007D01*
X103531446Y-73549529D01*
X103521218Y-73571153D01*
X103508921Y-73591670D01*
X103494671Y-73610883D01*
X103478607Y-73628607D01*
X103460883Y-73644671D01*
X103441670Y-73658921D01*
X103421153Y-73671218D01*
X103399529Y-73681446D01*
X103377007Y-73689504D01*
X103353803Y-73695316D01*
X103330142Y-73698826D01*
X103306250Y-73700000D01*
X102818750Y-73700000D01*
X102794858Y-73698826D01*
X102771197Y-73695316D01*
X102747993Y-73689504D01*
X102725471Y-73681446D01*
X102703847Y-73671218D01*
X102683330Y-73658921D01*
X102664117Y-73644671D01*
X102646393Y-73628607D01*
X102630329Y-73610883D01*
X102616079Y-73591670D01*
X102603782Y-73571153D01*
X102593554Y-73549529D01*
X102585496Y-73527007D01*
X102579684Y-73503803D01*
X102576174Y-73480142D01*
X102575000Y-73456250D01*
X102575000Y-72543750D01*
X102576174Y-72519858D01*
X102579684Y-72496197D01*
X102585496Y-72472993D01*
X102593554Y-72450471D01*
X102603782Y-72428847D01*
X102616079Y-72408330D01*
X102630329Y-72389117D01*
X102646393Y-72371393D01*
X102664117Y-72355329D01*
X102683330Y-72341079D01*
X102703847Y-72328782D01*
X102725471Y-72318554D01*
X102747993Y-72310496D01*
X102771197Y-72304684D01*
X102794858Y-72301174D01*
X102818750Y-72300000D01*
X103306250Y-72300000D01*
X103330142Y-72301174D01*
X103330142Y-72301174D01*
G37*
D14*
G04 #@! TD*
G04 #@! TO.P,R1,1*
G04 #@! TO.N,+12V*
X103062500Y-73000000D03*
D13*
G04 #@! TO.N,/ALERT*
G04 #@! TO.C,R2*
G36*
X108480142Y-57451174D02*
X108503803Y-57454684D01*
X108527007Y-57460496D01*
X108549529Y-57468554D01*
X108571153Y-57478782D01*
X108591670Y-57491079D01*
X108610883Y-57505329D01*
X108628607Y-57521393D01*
X108644671Y-57539117D01*
X108658921Y-57558330D01*
X108671218Y-57578847D01*
X108681446Y-57600471D01*
X108689504Y-57622993D01*
X108695316Y-57646197D01*
X108698826Y-57669858D01*
X108700000Y-57693750D01*
X108700000Y-58181250D01*
X108698826Y-58205142D01*
X108695316Y-58228803D01*
X108689504Y-58252007D01*
X108681446Y-58274529D01*
X108671218Y-58296153D01*
X108658921Y-58316670D01*
X108644671Y-58335883D01*
X108628607Y-58353607D01*
X108610883Y-58369671D01*
X108591670Y-58383921D01*
X108571153Y-58396218D01*
X108549529Y-58406446D01*
X108527007Y-58414504D01*
X108503803Y-58420316D01*
X108480142Y-58423826D01*
X108456250Y-58425000D01*
X107543750Y-58425000D01*
X107519858Y-58423826D01*
X107496197Y-58420316D01*
X107472993Y-58414504D01*
X107450471Y-58406446D01*
X107428847Y-58396218D01*
X107408330Y-58383921D01*
X107389117Y-58369671D01*
X107371393Y-58353607D01*
X107355329Y-58335883D01*
X107341079Y-58316670D01*
X107328782Y-58296153D01*
X107318554Y-58274529D01*
X107310496Y-58252007D01*
X107304684Y-58228803D01*
X107301174Y-58205142D01*
X107300000Y-58181250D01*
X107300000Y-57693750D01*
X107301174Y-57669858D01*
X107304684Y-57646197D01*
X107310496Y-57622993D01*
X107318554Y-57600471D01*
X107328782Y-57578847D01*
X107341079Y-57558330D01*
X107355329Y-57539117D01*
X107371393Y-57521393D01*
X107389117Y-57505329D01*
X107408330Y-57491079D01*
X107428847Y-57478782D01*
X107450471Y-57468554D01*
X107472993Y-57460496D01*
X107496197Y-57454684D01*
X107519858Y-57451174D01*
X107543750Y-57450000D01*
X108456250Y-57450000D01*
X108480142Y-57451174D01*
X108480142Y-57451174D01*
G37*
D14*
G04 #@! TD*
G04 #@! TO.P,R2,2*
G04 #@! TO.N,/ALERT*
X108000000Y-57937500D03*
D13*
G04 #@! TO.N,+3V3*
G04 #@! TO.C,R2*
G36*
X108480142Y-55576174D02*
X108503803Y-55579684D01*
X108527007Y-55585496D01*
X108549529Y-55593554D01*
X108571153Y-55603782D01*
X108591670Y-55616079D01*
X108610883Y-55630329D01*
X108628607Y-55646393D01*
X108644671Y-55664117D01*
X108658921Y-55683330D01*
X108671218Y-55703847D01*
X108681446Y-55725471D01*
X108689504Y-55747993D01*
X108695316Y-55771197D01*
X108698826Y-55794858D01*
X108700000Y-55818750D01*
X108700000Y-56306250D01*
X108698826Y-56330142D01*
X108695316Y-56353803D01*
X108689504Y-56377007D01*
X108681446Y-56399529D01*
X108671218Y-56421153D01*
X108658921Y-56441670D01*
X108644671Y-56460883D01*
X108628607Y-56478607D01*
X108610883Y-56494671D01*
X108591670Y-56508921D01*
X108571153Y-56521218D01*
X108549529Y-56531446D01*
X108527007Y-56539504D01*
X108503803Y-56545316D01*
X108480142Y-56548826D01*
X108456250Y-56550000D01*
X107543750Y-56550000D01*
X107519858Y-56548826D01*
X107496197Y-56545316D01*
X107472993Y-56539504D01*
X107450471Y-56531446D01*
X107428847Y-56521218D01*
X107408330Y-56508921D01*
X107389117Y-56494671D01*
X107371393Y-56478607D01*
X107355329Y-56460883D01*
X107341079Y-56441670D01*
X107328782Y-56421153D01*
X107318554Y-56399529D01*
X107310496Y-56377007D01*
X107304684Y-56353803D01*
X107301174Y-56330142D01*
X107300000Y-56306250D01*
X107300000Y-55818750D01*
X107301174Y-55794858D01*
X107304684Y-55771197D01*
X107310496Y-55747993D01*
X107318554Y-55725471D01*
X107328782Y-55703847D01*
X107341079Y-55683330D01*
X107355329Y-55664117D01*
X107371393Y-55646393D01*
X107389117Y-55630329D01*
X107408330Y-55616079D01*
X107428847Y-55603782D01*
X107450471Y-55593554D01*
X107472993Y-55585496D01*
X107496197Y-55579684D01*
X107519858Y-55576174D01*
X107543750Y-55575000D01*
X108456250Y-55575000D01*
X108480142Y-55576174D01*
X108480142Y-55576174D01*
G37*
D14*
G04 #@! TD*
G04 #@! TO.P,R2,1*
G04 #@! TO.N,+3V3*
X108000000Y-56062500D03*
D13*
G04 #@! TO.N,/SDA*
G04 #@! TO.C,R3*
G36*
X105480142Y-57451174D02*
X105503803Y-57454684D01*
X105527007Y-57460496D01*
X105549529Y-57468554D01*
X105571153Y-57478782D01*
X105591670Y-57491079D01*
X105610883Y-57505329D01*
X105628607Y-57521393D01*
X105644671Y-57539117D01*
X105658921Y-57558330D01*
X105671218Y-57578847D01*
X105681446Y-57600471D01*
X105689504Y-57622993D01*
X105695316Y-57646197D01*
X105698826Y-57669858D01*
X105700000Y-57693750D01*
X105700000Y-58181250D01*
X105698826Y-58205142D01*
X105695316Y-58228803D01*
X105689504Y-58252007D01*
X105681446Y-58274529D01*
X105671218Y-58296153D01*
X105658921Y-58316670D01*
X105644671Y-58335883D01*
X105628607Y-58353607D01*
X105610883Y-58369671D01*
X105591670Y-58383921D01*
X105571153Y-58396218D01*
X105549529Y-58406446D01*
X105527007Y-58414504D01*
X105503803Y-58420316D01*
X105480142Y-58423826D01*
X105456250Y-58425000D01*
X104543750Y-58425000D01*
X104519858Y-58423826D01*
X104496197Y-58420316D01*
X104472993Y-58414504D01*
X104450471Y-58406446D01*
X104428847Y-58396218D01*
X104408330Y-58383921D01*
X104389117Y-58369671D01*
X104371393Y-58353607D01*
X104355329Y-58335883D01*
X104341079Y-58316670D01*
X104328782Y-58296153D01*
X104318554Y-58274529D01*
X104310496Y-58252007D01*
X104304684Y-58228803D01*
X104301174Y-58205142D01*
X104300000Y-58181250D01*
X104300000Y-57693750D01*
X104301174Y-57669858D01*
X104304684Y-57646197D01*
X104310496Y-57622993D01*
X104318554Y-57600471D01*
X104328782Y-57578847D01*
X104341079Y-57558330D01*
X104355329Y-57539117D01*
X104371393Y-57521393D01*
X104389117Y-57505329D01*
X104408330Y-57491079D01*
X104428847Y-57478782D01*
X104450471Y-57468554D01*
X104472993Y-57460496D01*
X104496197Y-57454684D01*
X104519858Y-57451174D01*
X104543750Y-57450000D01*
X105456250Y-57450000D01*
X105480142Y-57451174D01*
X105480142Y-57451174D01*
G37*
D14*
G04 #@! TD*
G04 #@! TO.P,R3,2*
G04 #@! TO.N,/SDA*
X105000000Y-57937500D03*
D13*
G04 #@! TO.N,+3V3*
G04 #@! TO.C,R3*
G36*
X105480142Y-55576174D02*
X105503803Y-55579684D01*
X105527007Y-55585496D01*
X105549529Y-55593554D01*
X105571153Y-55603782D01*
X105591670Y-55616079D01*
X105610883Y-55630329D01*
X105628607Y-55646393D01*
X105644671Y-55664117D01*
X105658921Y-55683330D01*
X105671218Y-55703847D01*
X105681446Y-55725471D01*
X105689504Y-55747993D01*
X105695316Y-55771197D01*
X105698826Y-55794858D01*
X105700000Y-55818750D01*
X105700000Y-56306250D01*
X105698826Y-56330142D01*
X105695316Y-56353803D01*
X105689504Y-56377007D01*
X105681446Y-56399529D01*
X105671218Y-56421153D01*
X105658921Y-56441670D01*
X105644671Y-56460883D01*
X105628607Y-56478607D01*
X105610883Y-56494671D01*
X105591670Y-56508921D01*
X105571153Y-56521218D01*
X105549529Y-56531446D01*
X105527007Y-56539504D01*
X105503803Y-56545316D01*
X105480142Y-56548826D01*
X105456250Y-56550000D01*
X104543750Y-56550000D01*
X104519858Y-56548826D01*
X104496197Y-56545316D01*
X104472993Y-56539504D01*
X104450471Y-56531446D01*
X104428847Y-56521218D01*
X104408330Y-56508921D01*
X104389117Y-56494671D01*
X104371393Y-56478607D01*
X104355329Y-56460883D01*
X104341079Y-56441670D01*
X104328782Y-56421153D01*
X104318554Y-56399529D01*
X104310496Y-56377007D01*
X104304684Y-56353803D01*
X104301174Y-56330142D01*
X104300000Y-56306250D01*
X104300000Y-55818750D01*
X104301174Y-55794858D01*
X104304684Y-55771197D01*
X104310496Y-55747993D01*
X104318554Y-55725471D01*
X104328782Y-55703847D01*
X104341079Y-55683330D01*
X104355329Y-55664117D01*
X104371393Y-55646393D01*
X104389117Y-55630329D01*
X104408330Y-55616079D01*
X104428847Y-55603782D01*
X104450471Y-55593554D01*
X104472993Y-55585496D01*
X104496197Y-55579684D01*
X104519858Y-55576174D01*
X104543750Y-55575000D01*
X105456250Y-55575000D01*
X105480142Y-55576174D01*
X105480142Y-55576174D01*
G37*
D14*
G04 #@! TD*
G04 #@! TO.P,R3,1*
G04 #@! TO.N,+3V3*
X105000000Y-56062500D03*
D13*
G04 #@! TO.N,/SCL*
G04 #@! TO.C,R4*
G36*
X102980142Y-57451174D02*
X103003803Y-57454684D01*
X103027007Y-57460496D01*
X103049529Y-57468554D01*
X103071153Y-57478782D01*
X103091670Y-57491079D01*
X103110883Y-57505329D01*
X103128607Y-57521393D01*
X103144671Y-57539117D01*
X103158921Y-57558330D01*
X103171218Y-57578847D01*
X103181446Y-57600471D01*
X103189504Y-57622993D01*
X103195316Y-57646197D01*
X103198826Y-57669858D01*
X103200000Y-57693750D01*
X103200000Y-58181250D01*
X103198826Y-58205142D01*
X103195316Y-58228803D01*
X103189504Y-58252007D01*
X103181446Y-58274529D01*
X103171218Y-58296153D01*
X103158921Y-58316670D01*
X103144671Y-58335883D01*
X103128607Y-58353607D01*
X103110883Y-58369671D01*
X103091670Y-58383921D01*
X103071153Y-58396218D01*
X103049529Y-58406446D01*
X103027007Y-58414504D01*
X103003803Y-58420316D01*
X102980142Y-58423826D01*
X102956250Y-58425000D01*
X102043750Y-58425000D01*
X102019858Y-58423826D01*
X101996197Y-58420316D01*
X101972993Y-58414504D01*
X101950471Y-58406446D01*
X101928847Y-58396218D01*
X101908330Y-58383921D01*
X101889117Y-58369671D01*
X101871393Y-58353607D01*
X101855329Y-58335883D01*
X101841079Y-58316670D01*
X101828782Y-58296153D01*
X101818554Y-58274529D01*
X101810496Y-58252007D01*
X101804684Y-58228803D01*
X101801174Y-58205142D01*
X101800000Y-58181250D01*
X101800000Y-57693750D01*
X101801174Y-57669858D01*
X101804684Y-57646197D01*
X101810496Y-57622993D01*
X101818554Y-57600471D01*
X101828782Y-57578847D01*
X101841079Y-57558330D01*
X101855329Y-57539117D01*
X101871393Y-57521393D01*
X101889117Y-57505329D01*
X101908330Y-57491079D01*
X101928847Y-57478782D01*
X101950471Y-57468554D01*
X101972993Y-57460496D01*
X101996197Y-57454684D01*
X102019858Y-57451174D01*
X102043750Y-57450000D01*
X102956250Y-57450000D01*
X102980142Y-57451174D01*
X102980142Y-57451174D01*
G37*
D14*
G04 #@! TD*
G04 #@! TO.P,R4,2*
G04 #@! TO.N,/SCL*
X102500000Y-57937500D03*
D13*
G04 #@! TO.N,+3V3*
G04 #@! TO.C,R4*
G36*
X102980142Y-55576174D02*
X103003803Y-55579684D01*
X103027007Y-55585496D01*
X103049529Y-55593554D01*
X103071153Y-55603782D01*
X103091670Y-55616079D01*
X103110883Y-55630329D01*
X103128607Y-55646393D01*
X103144671Y-55664117D01*
X103158921Y-55683330D01*
X103171218Y-55703847D01*
X103181446Y-55725471D01*
X103189504Y-55747993D01*
X103195316Y-55771197D01*
X103198826Y-55794858D01*
X103200000Y-55818750D01*
X103200000Y-56306250D01*
X103198826Y-56330142D01*
X103195316Y-56353803D01*
X103189504Y-56377007D01*
X103181446Y-56399529D01*
X103171218Y-56421153D01*
X103158921Y-56441670D01*
X103144671Y-56460883D01*
X103128607Y-56478607D01*
X103110883Y-56494671D01*
X103091670Y-56508921D01*
X103071153Y-56521218D01*
X103049529Y-56531446D01*
X103027007Y-56539504D01*
X103003803Y-56545316D01*
X102980142Y-56548826D01*
X102956250Y-56550000D01*
X102043750Y-56550000D01*
X102019858Y-56548826D01*
X101996197Y-56545316D01*
X101972993Y-56539504D01*
X101950471Y-56531446D01*
X101928847Y-56521218D01*
X101908330Y-56508921D01*
X101889117Y-56494671D01*
X101871393Y-56478607D01*
X101855329Y-56460883D01*
X101841079Y-56441670D01*
X101828782Y-56421153D01*
X101818554Y-56399529D01*
X101810496Y-56377007D01*
X101804684Y-56353803D01*
X101801174Y-56330142D01*
X101800000Y-56306250D01*
X101800000Y-55818750D01*
X101801174Y-55794858D01*
X101804684Y-55771197D01*
X101810496Y-55747993D01*
X101818554Y-55725471D01*
X101828782Y-55703847D01*
X101841079Y-55683330D01*
X101855329Y-55664117D01*
X101871393Y-55646393D01*
X101889117Y-55630329D01*
X101908330Y-55616079D01*
X101928847Y-55603782D01*
X101950471Y-55593554D01*
X101972993Y-55585496D01*
X101996197Y-55579684D01*
X102019858Y-55576174D01*
X102043750Y-55575000D01*
X102956250Y-55575000D01*
X102980142Y-55576174D01*
X102980142Y-55576174D01*
G37*
D14*
G04 #@! TD*
G04 #@! TO.P,R4,1*
G04 #@! TO.N,+3V3*
X102500000Y-56062500D03*
D16*
G04 #@! TO.P,U2,16*
G04 #@! TO.N,GND*
X109300000Y-77445000D03*
G04 #@! TO.P,U2,15*
G04 #@! TO.N,Net-(C12-Pad1)*
X109300000Y-76175000D03*
G04 #@! TO.P,U2,14*
G04 #@! TO.N,Net-(C12-Pad2)*
X109300000Y-74905000D03*
G04 #@! TO.P,U2,13*
G04 #@! TO.N,/AVCC*
X109300000Y-73635000D03*
G04 #@! TO.P,U2,12*
G04 #@! TO.N,GND*
X109300000Y-72365000D03*
G04 #@! TO.P,U2,11*
G04 #@! TO.N,Net-(C13-Pad2)*
X109300000Y-71095000D03*
G04 #@! TO.P,U2,10*
G04 #@! TO.N,Net-(C13-Pad1)*
X109300000Y-69825000D03*
G04 #@! TO.P,U2,9*
G04 #@! TO.N,GND*
X109300000Y-68555000D03*
G04 #@! TO.P,U2,8*
G04 #@! TO.N,+12V*
X114700000Y-68555000D03*
G04 #@! TO.P,U2,7*
G04 #@! TO.N,/VCLAMP*
X114700000Y-69825000D03*
G04 #@! TO.P,U2,6*
G04 #@! TO.N,GND*
X114700000Y-71095000D03*
G04 #@! TO.P,U2,5*
X114700000Y-72365000D03*
G04 #@! TO.P,U2,4*
G04 #@! TO.N,Net-(C2-Pad1)*
X114700000Y-73635000D03*
G04 #@! TO.P,U2,3*
G04 #@! TO.N,Net-(C1-Pad1)*
X114700000Y-74905000D03*
G04 #@! TO.P,U2,2*
G04 #@! TO.N,/AVCC*
X114700000Y-76175000D03*
G04 #@! TO.P,U2,1*
G04 #@! TO.N,+12V*
X114700000Y-77445000D03*
G04 #@! TD*
D17*
G04 #@! TO.P,X1,6*
G04 #@! TO.N,/ALERT*
X97540000Y-66000000D03*
G04 #@! TO.P,X1,5*
G04 #@! TO.N,+5V*
X95000000Y-66000000D03*
G04 #@! TO.P,X1,4*
G04 #@! TO.N,+3V3*
X97540000Y-63460000D03*
G04 #@! TO.P,X1,3*
G04 #@! TO.N,/SDA*
X95000000Y-63460000D03*
G04 #@! TO.P,X1,2*
G04 #@! TO.N,/SCL*
X97540000Y-60920000D03*
D18*
G04 #@! TO.P,X1,1*
G04 #@! TO.N,GND*
X95000000Y-60920000D03*
G04 #@! TD*
D13*
G04 #@! TO.N,+12V*
G04 #@! TO.C,C11*
G36*
X113104197Y-43682888D02*
X113127858Y-43686398D01*
X113151062Y-43692210D01*
X113173584Y-43700268D01*
X113195208Y-43710496D01*
X113215725Y-43722793D01*
X113234938Y-43737043D01*
X113252662Y-43753107D01*
X113268726Y-43770831D01*
X113282976Y-43790044D01*
X113295273Y-43810561D01*
X113305501Y-43832185D01*
X113313559Y-43854707D01*
X113319371Y-43877911D01*
X113322881Y-43901572D01*
X113324055Y-43925464D01*
X113324055Y-44412964D01*
X113322881Y-44436856D01*
X113319371Y-44460517D01*
X113313559Y-44483721D01*
X113305501Y-44506243D01*
X113295273Y-44527867D01*
X113282976Y-44548384D01*
X113268726Y-44567597D01*
X113252662Y-44585321D01*
X113234938Y-44601385D01*
X113215725Y-44615635D01*
X113195208Y-44627932D01*
X113173584Y-44638160D01*
X113151062Y-44646218D01*
X113127858Y-44652030D01*
X113104197Y-44655540D01*
X113080305Y-44656714D01*
X112167805Y-44656714D01*
X112143913Y-44655540D01*
X112120252Y-44652030D01*
X112097048Y-44646218D01*
X112074526Y-44638160D01*
X112052902Y-44627932D01*
X112032385Y-44615635D01*
X112013172Y-44601385D01*
X111995448Y-44585321D01*
X111979384Y-44567597D01*
X111965134Y-44548384D01*
X111952837Y-44527867D01*
X111942609Y-44506243D01*
X111934551Y-44483721D01*
X111928739Y-44460517D01*
X111925229Y-44436856D01*
X111924055Y-44412964D01*
X111924055Y-43925464D01*
X111925229Y-43901572D01*
X111928739Y-43877911D01*
X111934551Y-43854707D01*
X111942609Y-43832185D01*
X111952837Y-43810561D01*
X111965134Y-43790044D01*
X111979384Y-43770831D01*
X111995448Y-43753107D01*
X112013172Y-43737043D01*
X112032385Y-43722793D01*
X112052902Y-43710496D01*
X112074526Y-43700268D01*
X112097048Y-43692210D01*
X112120252Y-43686398D01*
X112143913Y-43682888D01*
X112167805Y-43681714D01*
X113080305Y-43681714D01*
X113104197Y-43682888D01*
X113104197Y-43682888D01*
G37*
D14*
G04 #@! TD*
G04 #@! TO.P,C11,2*
G04 #@! TO.N,+12V*
X112624055Y-44169214D03*
D13*
G04 #@! TO.N,GND*
G04 #@! TO.C,C11*
G36*
X113104197Y-41807888D02*
X113127858Y-41811398D01*
X113151062Y-41817210D01*
X113173584Y-41825268D01*
X113195208Y-41835496D01*
X113215725Y-41847793D01*
X113234938Y-41862043D01*
X113252662Y-41878107D01*
X113268726Y-41895831D01*
X113282976Y-41915044D01*
X113295273Y-41935561D01*
X113305501Y-41957185D01*
X113313559Y-41979707D01*
X113319371Y-42002911D01*
X113322881Y-42026572D01*
X113324055Y-42050464D01*
X113324055Y-42537964D01*
X113322881Y-42561856D01*
X113319371Y-42585517D01*
X113313559Y-42608721D01*
X113305501Y-42631243D01*
X113295273Y-42652867D01*
X113282976Y-42673384D01*
X113268726Y-42692597D01*
X113252662Y-42710321D01*
X113234938Y-42726385D01*
X113215725Y-42740635D01*
X113195208Y-42752932D01*
X113173584Y-42763160D01*
X113151062Y-42771218D01*
X113127858Y-42777030D01*
X113104197Y-42780540D01*
X113080305Y-42781714D01*
X112167805Y-42781714D01*
X112143913Y-42780540D01*
X112120252Y-42777030D01*
X112097048Y-42771218D01*
X112074526Y-42763160D01*
X112052902Y-42752932D01*
X112032385Y-42740635D01*
X112013172Y-42726385D01*
X111995448Y-42710321D01*
X111979384Y-42692597D01*
X111965134Y-42673384D01*
X111952837Y-42652867D01*
X111942609Y-42631243D01*
X111934551Y-42608721D01*
X111928739Y-42585517D01*
X111925229Y-42561856D01*
X111924055Y-42537964D01*
X111924055Y-42050464D01*
X111925229Y-42026572D01*
X111928739Y-42002911D01*
X111934551Y-41979707D01*
X111942609Y-41957185D01*
X111952837Y-41935561D01*
X111965134Y-41915044D01*
X111979384Y-41895831D01*
X111995448Y-41878107D01*
X112013172Y-41862043D01*
X112032385Y-41847793D01*
X112052902Y-41835496D01*
X112074526Y-41825268D01*
X112097048Y-41817210D01*
X112120252Y-41811398D01*
X112143913Y-41807888D01*
X112167805Y-41806714D01*
X113080305Y-41806714D01*
X113104197Y-41807888D01*
X113104197Y-41807888D01*
G37*
D14*
G04 #@! TD*
G04 #@! TO.P,C11,1*
G04 #@! TO.N,GND*
X112624055Y-42294214D03*
D13*
G04 #@! TO.N,Net-(C18-Pad2)*
G04 #@! TO.C,C18*
G36*
X119830142Y-46032888D02*
X119853803Y-46036398D01*
X119877007Y-46042210D01*
X119899529Y-46050268D01*
X119921153Y-46060496D01*
X119941670Y-46072793D01*
X119960883Y-46087043D01*
X119978607Y-46103107D01*
X119994671Y-46120831D01*
X120008921Y-46140044D01*
X120021218Y-46160561D01*
X120031446Y-46182185D01*
X120039504Y-46204707D01*
X120045316Y-46227911D01*
X120048826Y-46251572D01*
X120050000Y-46275464D01*
X120050000Y-47187964D01*
X120048826Y-47211856D01*
X120045316Y-47235517D01*
X120039504Y-47258721D01*
X120031446Y-47281243D01*
X120021218Y-47302867D01*
X120008921Y-47323384D01*
X119994671Y-47342597D01*
X119978607Y-47360321D01*
X119960883Y-47376385D01*
X119941670Y-47390635D01*
X119921153Y-47402932D01*
X119899529Y-47413160D01*
X119877007Y-47421218D01*
X119853803Y-47427030D01*
X119830142Y-47430540D01*
X119806250Y-47431714D01*
X119318750Y-47431714D01*
X119294858Y-47430540D01*
X119271197Y-47427030D01*
X119247993Y-47421218D01*
X119225471Y-47413160D01*
X119203847Y-47402932D01*
X119183330Y-47390635D01*
X119164117Y-47376385D01*
X119146393Y-47360321D01*
X119130329Y-47342597D01*
X119116079Y-47323384D01*
X119103782Y-47302867D01*
X119093554Y-47281243D01*
X119085496Y-47258721D01*
X119079684Y-47235517D01*
X119076174Y-47211856D01*
X119075000Y-47187964D01*
X119075000Y-46275464D01*
X119076174Y-46251572D01*
X119079684Y-46227911D01*
X119085496Y-46204707D01*
X119093554Y-46182185D01*
X119103782Y-46160561D01*
X119116079Y-46140044D01*
X119130329Y-46120831D01*
X119146393Y-46103107D01*
X119164117Y-46087043D01*
X119183330Y-46072793D01*
X119203847Y-46060496D01*
X119225471Y-46050268D01*
X119247993Y-46042210D01*
X119271197Y-46036398D01*
X119294858Y-46032888D01*
X119318750Y-46031714D01*
X119806250Y-46031714D01*
X119830142Y-46032888D01*
X119830142Y-46032888D01*
G37*
D14*
G04 #@! TD*
G04 #@! TO.P,C18,2*
G04 #@! TO.N,Net-(C18-Pad2)*
X119562500Y-46731714D03*
D13*
G04 #@! TO.N,Net-(C18-Pad1)*
G04 #@! TO.C,C18*
G36*
X121705142Y-46032888D02*
X121728803Y-46036398D01*
X121752007Y-46042210D01*
X121774529Y-46050268D01*
X121796153Y-46060496D01*
X121816670Y-46072793D01*
X121835883Y-46087043D01*
X121853607Y-46103107D01*
X121869671Y-46120831D01*
X121883921Y-46140044D01*
X121896218Y-46160561D01*
X121906446Y-46182185D01*
X121914504Y-46204707D01*
X121920316Y-46227911D01*
X121923826Y-46251572D01*
X121925000Y-46275464D01*
X121925000Y-47187964D01*
X121923826Y-47211856D01*
X121920316Y-47235517D01*
X121914504Y-47258721D01*
X121906446Y-47281243D01*
X121896218Y-47302867D01*
X121883921Y-47323384D01*
X121869671Y-47342597D01*
X121853607Y-47360321D01*
X121835883Y-47376385D01*
X121816670Y-47390635D01*
X121796153Y-47402932D01*
X121774529Y-47413160D01*
X121752007Y-47421218D01*
X121728803Y-47427030D01*
X121705142Y-47430540D01*
X121681250Y-47431714D01*
X121193750Y-47431714D01*
X121169858Y-47430540D01*
X121146197Y-47427030D01*
X121122993Y-47421218D01*
X121100471Y-47413160D01*
X121078847Y-47402932D01*
X121058330Y-47390635D01*
X121039117Y-47376385D01*
X121021393Y-47360321D01*
X121005329Y-47342597D01*
X120991079Y-47323384D01*
X120978782Y-47302867D01*
X120968554Y-47281243D01*
X120960496Y-47258721D01*
X120954684Y-47235517D01*
X120951174Y-47211856D01*
X120950000Y-47187964D01*
X120950000Y-46275464D01*
X120951174Y-46251572D01*
X120954684Y-46227911D01*
X120960496Y-46204707D01*
X120968554Y-46182185D01*
X120978782Y-46160561D01*
X120991079Y-46140044D01*
X121005329Y-46120831D01*
X121021393Y-46103107D01*
X121039117Y-46087043D01*
X121058330Y-46072793D01*
X121078847Y-46060496D01*
X121100471Y-46050268D01*
X121122993Y-46042210D01*
X121146197Y-46036398D01*
X121169858Y-46032888D01*
X121193750Y-46031714D01*
X121681250Y-46031714D01*
X121705142Y-46032888D01*
X121705142Y-46032888D01*
G37*
D14*
G04 #@! TD*
G04 #@! TO.P,C18,1*
G04 #@! TO.N,Net-(C18-Pad1)*
X121437500Y-46731714D03*
D13*
G04 #@! TO.N,+12V*
G04 #@! TO.C,R5*
G36*
X115604197Y-43682888D02*
X115627858Y-43686398D01*
X115651062Y-43692210D01*
X115673584Y-43700268D01*
X115695208Y-43710496D01*
X115715725Y-43722793D01*
X115734938Y-43737043D01*
X115752662Y-43753107D01*
X115768726Y-43770831D01*
X115782976Y-43790044D01*
X115795273Y-43810561D01*
X115805501Y-43832185D01*
X115813559Y-43854707D01*
X115819371Y-43877911D01*
X115822881Y-43901572D01*
X115824055Y-43925464D01*
X115824055Y-44412964D01*
X115822881Y-44436856D01*
X115819371Y-44460517D01*
X115813559Y-44483721D01*
X115805501Y-44506243D01*
X115795273Y-44527867D01*
X115782976Y-44548384D01*
X115768726Y-44567597D01*
X115752662Y-44585321D01*
X115734938Y-44601385D01*
X115715725Y-44615635D01*
X115695208Y-44627932D01*
X115673584Y-44638160D01*
X115651062Y-44646218D01*
X115627858Y-44652030D01*
X115604197Y-44655540D01*
X115580305Y-44656714D01*
X114667805Y-44656714D01*
X114643913Y-44655540D01*
X114620252Y-44652030D01*
X114597048Y-44646218D01*
X114574526Y-44638160D01*
X114552902Y-44627932D01*
X114532385Y-44615635D01*
X114513172Y-44601385D01*
X114495448Y-44585321D01*
X114479384Y-44567597D01*
X114465134Y-44548384D01*
X114452837Y-44527867D01*
X114442609Y-44506243D01*
X114434551Y-44483721D01*
X114428739Y-44460517D01*
X114425229Y-44436856D01*
X114424055Y-44412964D01*
X114424055Y-43925464D01*
X114425229Y-43901572D01*
X114428739Y-43877911D01*
X114434551Y-43854707D01*
X114442609Y-43832185D01*
X114452837Y-43810561D01*
X114465134Y-43790044D01*
X114479384Y-43770831D01*
X114495448Y-43753107D01*
X114513172Y-43737043D01*
X114532385Y-43722793D01*
X114552902Y-43710496D01*
X114574526Y-43700268D01*
X114597048Y-43692210D01*
X114620252Y-43686398D01*
X114643913Y-43682888D01*
X114667805Y-43681714D01*
X115580305Y-43681714D01*
X115604197Y-43682888D01*
X115604197Y-43682888D01*
G37*
D14*
G04 #@! TD*
G04 #@! TO.P,R5,2*
G04 #@! TO.N,+12V*
X115124055Y-44169214D03*
D13*
G04 #@! TO.N,Net-(R5-Pad1)*
G04 #@! TO.C,R5*
G36*
X115604197Y-41807888D02*
X115627858Y-41811398D01*
X115651062Y-41817210D01*
X115673584Y-41825268D01*
X115695208Y-41835496D01*
X115715725Y-41847793D01*
X115734938Y-41862043D01*
X115752662Y-41878107D01*
X115768726Y-41895831D01*
X115782976Y-41915044D01*
X115795273Y-41935561D01*
X115805501Y-41957185D01*
X115813559Y-41979707D01*
X115819371Y-42002911D01*
X115822881Y-42026572D01*
X115824055Y-42050464D01*
X115824055Y-42537964D01*
X115822881Y-42561856D01*
X115819371Y-42585517D01*
X115813559Y-42608721D01*
X115805501Y-42631243D01*
X115795273Y-42652867D01*
X115782976Y-42673384D01*
X115768726Y-42692597D01*
X115752662Y-42710321D01*
X115734938Y-42726385D01*
X115715725Y-42740635D01*
X115695208Y-42752932D01*
X115673584Y-42763160D01*
X115651062Y-42771218D01*
X115627858Y-42777030D01*
X115604197Y-42780540D01*
X115580305Y-42781714D01*
X114667805Y-42781714D01*
X114643913Y-42780540D01*
X114620252Y-42777030D01*
X114597048Y-42771218D01*
X114574526Y-42763160D01*
X114552902Y-42752932D01*
X114532385Y-42740635D01*
X114513172Y-42726385D01*
X114495448Y-42710321D01*
X114479384Y-42692597D01*
X114465134Y-42673384D01*
X114452837Y-42652867D01*
X114442609Y-42631243D01*
X114434551Y-42608721D01*
X114428739Y-42585517D01*
X114425229Y-42561856D01*
X114424055Y-42537964D01*
X114424055Y-42050464D01*
X114425229Y-42026572D01*
X114428739Y-42002911D01*
X114434551Y-41979707D01*
X114442609Y-41957185D01*
X114452837Y-41935561D01*
X114465134Y-41915044D01*
X114479384Y-41895831D01*
X114495448Y-41878107D01*
X114513172Y-41862043D01*
X114532385Y-41847793D01*
X114552902Y-41835496D01*
X114574526Y-41825268D01*
X114597048Y-41817210D01*
X114620252Y-41811398D01*
X114643913Y-41807888D01*
X114667805Y-41806714D01*
X115580305Y-41806714D01*
X115604197Y-41807888D01*
X115604197Y-41807888D01*
G37*
D14*
G04 #@! TD*
G04 #@! TO.P,R5,1*
G04 #@! TO.N,Net-(R5-Pad1)*
X115124055Y-42294214D03*
D13*
G04 #@! TO.N,+5V*
G04 #@! TO.C,R6*
G36*
X124980142Y-43682888D02*
X125003803Y-43686398D01*
X125027007Y-43692210D01*
X125049529Y-43700268D01*
X125071153Y-43710496D01*
X125091670Y-43722793D01*
X125110883Y-43737043D01*
X125128607Y-43753107D01*
X125144671Y-43770831D01*
X125158921Y-43790044D01*
X125171218Y-43810561D01*
X125181446Y-43832185D01*
X125189504Y-43854707D01*
X125195316Y-43877911D01*
X125198826Y-43901572D01*
X125200000Y-43925464D01*
X125200000Y-44412964D01*
X125198826Y-44436856D01*
X125195316Y-44460517D01*
X125189504Y-44483721D01*
X125181446Y-44506243D01*
X125171218Y-44527867D01*
X125158921Y-44548384D01*
X125144671Y-44567597D01*
X125128607Y-44585321D01*
X125110883Y-44601385D01*
X125091670Y-44615635D01*
X125071153Y-44627932D01*
X125049529Y-44638160D01*
X125027007Y-44646218D01*
X125003803Y-44652030D01*
X124980142Y-44655540D01*
X124956250Y-44656714D01*
X124043750Y-44656714D01*
X124019858Y-44655540D01*
X123996197Y-44652030D01*
X123972993Y-44646218D01*
X123950471Y-44638160D01*
X123928847Y-44627932D01*
X123908330Y-44615635D01*
X123889117Y-44601385D01*
X123871393Y-44585321D01*
X123855329Y-44567597D01*
X123841079Y-44548384D01*
X123828782Y-44527867D01*
X123818554Y-44506243D01*
X123810496Y-44483721D01*
X123804684Y-44460517D01*
X123801174Y-44436856D01*
X123800000Y-44412964D01*
X123800000Y-43925464D01*
X123801174Y-43901572D01*
X123804684Y-43877911D01*
X123810496Y-43854707D01*
X123818554Y-43832185D01*
X123828782Y-43810561D01*
X123841079Y-43790044D01*
X123855329Y-43770831D01*
X123871393Y-43753107D01*
X123889117Y-43737043D01*
X123908330Y-43722793D01*
X123928847Y-43710496D01*
X123950471Y-43700268D01*
X123972993Y-43692210D01*
X123996197Y-43686398D01*
X124019858Y-43682888D01*
X124043750Y-43681714D01*
X124956250Y-43681714D01*
X124980142Y-43682888D01*
X124980142Y-43682888D01*
G37*
D14*
G04 #@! TD*
G04 #@! TO.P,R6,2*
G04 #@! TO.N,+5V*
X124500000Y-44169214D03*
D13*
G04 #@! TO.N,Net-(R6-Pad1)*
G04 #@! TO.C,R6*
G36*
X124980142Y-41807888D02*
X125003803Y-41811398D01*
X125027007Y-41817210D01*
X125049529Y-41825268D01*
X125071153Y-41835496D01*
X125091670Y-41847793D01*
X125110883Y-41862043D01*
X125128607Y-41878107D01*
X125144671Y-41895831D01*
X125158921Y-41915044D01*
X125171218Y-41935561D01*
X125181446Y-41957185D01*
X125189504Y-41979707D01*
X125195316Y-42002911D01*
X125198826Y-42026572D01*
X125200000Y-42050464D01*
X125200000Y-42537964D01*
X125198826Y-42561856D01*
X125195316Y-42585517D01*
X125189504Y-42608721D01*
X125181446Y-42631243D01*
X125171218Y-42652867D01*
X125158921Y-42673384D01*
X125144671Y-42692597D01*
X125128607Y-42710321D01*
X125110883Y-42726385D01*
X125091670Y-42740635D01*
X125071153Y-42752932D01*
X125049529Y-42763160D01*
X125027007Y-42771218D01*
X125003803Y-42777030D01*
X124980142Y-42780540D01*
X124956250Y-42781714D01*
X124043750Y-42781714D01*
X124019858Y-42780540D01*
X123996197Y-42777030D01*
X123972993Y-42771218D01*
X123950471Y-42763160D01*
X123928847Y-42752932D01*
X123908330Y-42740635D01*
X123889117Y-42726385D01*
X123871393Y-42710321D01*
X123855329Y-42692597D01*
X123841079Y-42673384D01*
X123828782Y-42652867D01*
X123818554Y-42631243D01*
X123810496Y-42608721D01*
X123804684Y-42585517D01*
X123801174Y-42561856D01*
X123800000Y-42537964D01*
X123800000Y-42050464D01*
X123801174Y-42026572D01*
X123804684Y-42002911D01*
X123810496Y-41979707D01*
X123818554Y-41957185D01*
X123828782Y-41935561D01*
X123841079Y-41915044D01*
X123855329Y-41895831D01*
X123871393Y-41878107D01*
X123889117Y-41862043D01*
X123908330Y-41847793D01*
X123928847Y-41835496D01*
X123950471Y-41825268D01*
X123972993Y-41817210D01*
X123996197Y-41811398D01*
X124019858Y-41807888D01*
X124043750Y-41806714D01*
X124956250Y-41806714D01*
X124980142Y-41807888D01*
X124980142Y-41807888D01*
G37*
D14*
G04 #@! TD*
G04 #@! TO.P,R6,1*
G04 #@! TO.N,Net-(R6-Pad1)*
X124500000Y-42294214D03*
D13*
G04 #@! TO.N,Net-(R6-Pad1)*
G04 #@! TO.C,R7*
G36*
X122604197Y-41807888D02*
X122627858Y-41811398D01*
X122651062Y-41817210D01*
X122673584Y-41825268D01*
X122695208Y-41835496D01*
X122715725Y-41847793D01*
X122734938Y-41862043D01*
X122752662Y-41878107D01*
X122768726Y-41895831D01*
X122782976Y-41915044D01*
X122795273Y-41935561D01*
X122805501Y-41957185D01*
X122813559Y-41979707D01*
X122819371Y-42002911D01*
X122822881Y-42026572D01*
X122824055Y-42050464D01*
X122824055Y-42537964D01*
X122822881Y-42561856D01*
X122819371Y-42585517D01*
X122813559Y-42608721D01*
X122805501Y-42631243D01*
X122795273Y-42652867D01*
X122782976Y-42673384D01*
X122768726Y-42692597D01*
X122752662Y-42710321D01*
X122734938Y-42726385D01*
X122715725Y-42740635D01*
X122695208Y-42752932D01*
X122673584Y-42763160D01*
X122651062Y-42771218D01*
X122627858Y-42777030D01*
X122604197Y-42780540D01*
X122580305Y-42781714D01*
X121667805Y-42781714D01*
X121643913Y-42780540D01*
X121620252Y-42777030D01*
X121597048Y-42771218D01*
X121574526Y-42763160D01*
X121552902Y-42752932D01*
X121532385Y-42740635D01*
X121513172Y-42726385D01*
X121495448Y-42710321D01*
X121479384Y-42692597D01*
X121465134Y-42673384D01*
X121452837Y-42652867D01*
X121442609Y-42631243D01*
X121434551Y-42608721D01*
X121428739Y-42585517D01*
X121425229Y-42561856D01*
X121424055Y-42537964D01*
X121424055Y-42050464D01*
X121425229Y-42026572D01*
X121428739Y-42002911D01*
X121434551Y-41979707D01*
X121442609Y-41957185D01*
X121452837Y-41935561D01*
X121465134Y-41915044D01*
X121479384Y-41895831D01*
X121495448Y-41878107D01*
X121513172Y-41862043D01*
X121532385Y-41847793D01*
X121552902Y-41835496D01*
X121574526Y-41825268D01*
X121597048Y-41817210D01*
X121620252Y-41811398D01*
X121643913Y-41807888D01*
X121667805Y-41806714D01*
X122580305Y-41806714D01*
X122604197Y-41807888D01*
X122604197Y-41807888D01*
G37*
D14*
G04 #@! TD*
G04 #@! TO.P,R7,2*
G04 #@! TO.N,Net-(R6-Pad1)*
X122124055Y-42294214D03*
D13*
G04 #@! TO.N,GND*
G04 #@! TO.C,R7*
G36*
X122604197Y-43682888D02*
X122627858Y-43686398D01*
X122651062Y-43692210D01*
X122673584Y-43700268D01*
X122695208Y-43710496D01*
X122715725Y-43722793D01*
X122734938Y-43737043D01*
X122752662Y-43753107D01*
X122768726Y-43770831D01*
X122782976Y-43790044D01*
X122795273Y-43810561D01*
X122805501Y-43832185D01*
X122813559Y-43854707D01*
X122819371Y-43877911D01*
X122822881Y-43901572D01*
X122824055Y-43925464D01*
X122824055Y-44412964D01*
X122822881Y-44436856D01*
X122819371Y-44460517D01*
X122813559Y-44483721D01*
X122805501Y-44506243D01*
X122795273Y-44527867D01*
X122782976Y-44548384D01*
X122768726Y-44567597D01*
X122752662Y-44585321D01*
X122734938Y-44601385D01*
X122715725Y-44615635D01*
X122695208Y-44627932D01*
X122673584Y-44638160D01*
X122651062Y-44646218D01*
X122627858Y-44652030D01*
X122604197Y-44655540D01*
X122580305Y-44656714D01*
X121667805Y-44656714D01*
X121643913Y-44655540D01*
X121620252Y-44652030D01*
X121597048Y-44646218D01*
X121574526Y-44638160D01*
X121552902Y-44627932D01*
X121532385Y-44615635D01*
X121513172Y-44601385D01*
X121495448Y-44585321D01*
X121479384Y-44567597D01*
X121465134Y-44548384D01*
X121452837Y-44527867D01*
X121442609Y-44506243D01*
X121434551Y-44483721D01*
X121428739Y-44460517D01*
X121425229Y-44436856D01*
X121424055Y-44412964D01*
X121424055Y-43925464D01*
X121425229Y-43901572D01*
X121428739Y-43877911D01*
X121434551Y-43854707D01*
X121442609Y-43832185D01*
X121452837Y-43810561D01*
X121465134Y-43790044D01*
X121479384Y-43770831D01*
X121495448Y-43753107D01*
X121513172Y-43737043D01*
X121532385Y-43722793D01*
X121552902Y-43710496D01*
X121574526Y-43700268D01*
X121597048Y-43692210D01*
X121620252Y-43686398D01*
X121643913Y-43682888D01*
X121667805Y-43681714D01*
X122580305Y-43681714D01*
X122604197Y-43682888D01*
X122604197Y-43682888D01*
G37*
D14*
G04 #@! TD*
G04 #@! TO.P,R7,1*
G04 #@! TO.N,GND*
X122124055Y-44169214D03*
D19*
G04 #@! TO.P,U1,5*
G04 #@! TO.N,+12V*
X117524055Y-43281714D03*
G04 #@! TO.P,U1,6*
G04 #@! TO.N,Net-(C18-Pad2)*
X117524055Y-44231714D03*
G04 #@! TO.P,U1,4*
G04 #@! TO.N,Net-(R5-Pad1)*
X117524055Y-42331714D03*
G04 #@! TO.P,U1,3*
G04 #@! TO.N,Net-(R6-Pad1)*
X119724055Y-42331714D03*
G04 #@! TO.P,U1,2*
G04 #@! TO.N,GND*
X119724055Y-43281714D03*
G04 #@! TO.P,U1,1*
G04 #@! TO.N,Net-(C18-Pad1)*
X119724055Y-44231714D03*
G04 #@! TD*
D20*
G04 #@! TO.N,GND*
X112000000Y-73000000D03*
D21*
X106000000Y-85000000D03*
X119500000Y-86400000D03*
X108000000Y-81500000D03*
X106000000Y-61000000D03*
X108000000Y-64500000D03*
X101500000Y-76000000D03*
X101500000Y-70000000D03*
X121500000Y-70000000D03*
X121500000Y-73000000D03*
X119500000Y-59000000D03*
X111000000Y-41500000D03*
X122000000Y-44250010D03*
G04 #@! TO.N,+12V*
X101750000Y-47750000D03*
G04 #@! TO.N,+5V*
X95884000Y-50968000D03*
G04 #@! TO.N,+3V3*
X101000000Y-63000000D03*
X103500000Y-89000000D03*
D22*
G04 #@! TO.N,/AVCC*
X113260419Y-76188207D03*
X106552000Y-74336000D03*
G04 #@! TO.N,/ALERT*
X100500000Y-65000000D03*
D21*
G04 #@! TO.N,Net-(C18-Pad2)*
X114000000Y-47000000D03*
G04 #@! TD*
D23*
G04 #@! TO.N,Net-(C1-Pad1)*
X114700000Y-74905000D02*
X116905000Y-74905000D01*
X116905000Y-74905000D02*
X118000000Y-76000000D01*
D24*
G04 #@! TO.N,/AUDIO*
X120000000Y-76000000D02*
X120000000Y-75654078D01*
X120000000Y-75654078D02*
X118989301Y-74643379D01*
X118989301Y-74643379D02*
X118989301Y-66585994D01*
X118989301Y-66585994D02*
X117173375Y-64770068D01*
X117173375Y-64770068D02*
X117173375Y-54819505D01*
X117173375Y-54819505D02*
X114838527Y-52484657D01*
X114838527Y-52484657D02*
X113988528Y-51634658D01*
D23*
G04 #@! TO.N,Net-(C2-Pad1)*
X114700000Y-73635000D02*
X117365000Y-73635000D01*
X117365000Y-73635000D02*
X118000000Y-73000000D01*
G04 #@! TO.N,GND*
X109300000Y-77445000D02*
X110650000Y-77445000D01*
X112000000Y-76095000D02*
X112000000Y-75121320D01*
X110650000Y-77445000D02*
X112000000Y-76095000D01*
X112000000Y-75121320D02*
X112000000Y-73000000D01*
X109300000Y-72365000D02*
X111365000Y-72365000D01*
X111365000Y-72365000D02*
X112000000Y-73000000D01*
D24*
X105052893Y-93481415D02*
X107592893Y-93481415D01*
X107592893Y-93481415D02*
X108882892Y-94771414D01*
X103802892Y-92231414D02*
X105052893Y-93481415D01*
D23*
X105000000Y-85000000D02*
X106000000Y-85000000D01*
X120050000Y-84000000D02*
X120050000Y-85850000D01*
X120050000Y-85850000D02*
X119500000Y-86400000D01*
X108000000Y-83000000D02*
X108000000Y-81500000D01*
X108000000Y-80000000D02*
X108000000Y-81500000D01*
X105000000Y-61000000D02*
X106000000Y-61000000D01*
X108000000Y-63000000D02*
X108000000Y-64500000D01*
X108000000Y-66000000D02*
X108000000Y-64500000D01*
X103000000Y-76000000D02*
X101500000Y-76000000D01*
X103000000Y-70000000D02*
X101500000Y-70000000D01*
X109300000Y-68555000D02*
X110650000Y-68555000D01*
X110650000Y-68555000D02*
X112000000Y-69905000D01*
X112000000Y-69905000D02*
X112000000Y-70878680D01*
X112000000Y-70878680D02*
X112000000Y-73000000D01*
X114700000Y-71095000D02*
X113905000Y-71095000D01*
X113905000Y-71095000D02*
X112000000Y-73000000D01*
X112715000Y-73000000D02*
X112000000Y-73000000D01*
X114700000Y-72365000D02*
X113350000Y-72365000D01*
X113350000Y-72365000D02*
X112715000Y-73000000D01*
X120000000Y-70000000D02*
X121500000Y-70000000D01*
X120000000Y-73000000D02*
X121500000Y-73000000D01*
X120177432Y-59677432D02*
X119500000Y-59000000D01*
X120177432Y-62000000D02*
X120177432Y-59677432D01*
D25*
X121236555Y-43281714D02*
X122124055Y-44169214D01*
X119724055Y-43281714D02*
X121236555Y-43281714D01*
D23*
X112624055Y-42294214D02*
X111794214Y-42294214D01*
X111794214Y-42294214D02*
X111000000Y-41500000D01*
G04 #@! TO.N,+12V*
X110000000Y-63000000D02*
X110000000Y-55085984D01*
X110000000Y-55085984D02*
X109124581Y-54210565D01*
X109124581Y-54210565D02*
X92473950Y-54210565D01*
X92473950Y-54210565D02*
X92473950Y-58500000D01*
X92473950Y-79500000D02*
X92473950Y-58500000D01*
X92473950Y-58500000D02*
X92473950Y-57500000D01*
X92473950Y-57500000D02*
X92473950Y-48026050D01*
X110000000Y-83000000D02*
X110000000Y-85143642D01*
X110000000Y-85143642D02*
X107643642Y-87500000D01*
X107643642Y-87500000D02*
X95000000Y-87500000D01*
X95000000Y-87500000D02*
X92473950Y-84973950D01*
X92473950Y-84973950D02*
X92473950Y-79500000D01*
X103050000Y-73000000D02*
X101700000Y-73000000D01*
X100160483Y-74539517D02*
X100160483Y-78075415D01*
X101700000Y-73000000D02*
X100160483Y-74539517D01*
X100160483Y-78075415D02*
X98735898Y-79500000D01*
X98735898Y-79500000D02*
X92473950Y-79500000D01*
X113950000Y-84000000D02*
X113200000Y-84000000D01*
X92473950Y-48026050D02*
X95500000Y-45000000D01*
X110000000Y-66000000D02*
X113045000Y-66000000D01*
X114700000Y-67655000D02*
X114700000Y-68555000D01*
X113045000Y-66000000D02*
X114700000Y-67655000D01*
X110000000Y-80000000D02*
X113045000Y-80000000D01*
X114700000Y-78345000D02*
X114700000Y-77445000D01*
X113045000Y-80000000D02*
X114700000Y-78345000D01*
X113950000Y-84000000D02*
X111000000Y-84000000D01*
X111000000Y-84000000D02*
X110000000Y-83000000D01*
X114077432Y-62000000D02*
X111000000Y-62000000D01*
X111000000Y-62000000D02*
X110000000Y-63000000D01*
X110000000Y-63000000D02*
X110000000Y-66000000D01*
X110000000Y-83000000D02*
X110000000Y-80000000D01*
X95500000Y-45000000D02*
X95500000Y-44750000D01*
X115124055Y-44169214D02*
X112624055Y-44169214D01*
X95500000Y-45250000D02*
X95500000Y-45000000D01*
X112624055Y-44169214D02*
X105830786Y-44169214D01*
X105830786Y-44169214D02*
X102250000Y-47750000D01*
X98000000Y-47750000D02*
X95500000Y-45250000D01*
X101750000Y-47750000D02*
X98000000Y-47750000D01*
X102250000Y-47750000D02*
X101750000Y-47750000D01*
D25*
X116011555Y-43281714D02*
X115124055Y-44169214D01*
X117524055Y-43281714D02*
X116011555Y-43281714D01*
D23*
G04 #@! TO.N,+5V*
X126881085Y-49287215D02*
X129228528Y-51634658D01*
X95884000Y-50968000D02*
X97564785Y-49287215D01*
X124500000Y-44169214D02*
X124500000Y-49287215D01*
X124500000Y-49287215D02*
X126881085Y-49287215D01*
X97564785Y-49287215D02*
X124500000Y-49287215D01*
G04 #@! TO.N,Net-(C12-Pad1)*
X105000000Y-79000000D02*
X105000000Y-81950000D01*
X105000000Y-81950000D02*
X104950000Y-82000000D01*
X109300000Y-76175000D02*
X108259998Y-76175000D01*
X108259998Y-76175000D02*
X105434998Y-79000000D01*
X105434998Y-79000000D02*
X105000000Y-79000000D01*
D24*
X104950000Y-79050000D02*
X105000000Y-79000000D01*
G04 #@! TO.N,Net-(C12-Pad2)*
X109300000Y-74905000D02*
X107988203Y-74905000D01*
X107988203Y-74905000D02*
X105192571Y-77700632D01*
X105192571Y-77700632D02*
X104174368Y-77700632D01*
X104174368Y-77700632D02*
X103000000Y-78875000D01*
X103000000Y-78875000D02*
X103000000Y-79000000D01*
D23*
G04 #@! TO.N,Net-(C13-Pad1)*
X105000000Y-67000000D02*
X105000000Y-64050000D01*
X105000000Y-64050000D02*
X104950000Y-64000000D01*
X108259997Y-69825000D02*
X109300000Y-69825000D01*
X105000000Y-67000000D02*
X105434997Y-67000000D01*
X105434997Y-67000000D02*
X108259997Y-69825000D01*
D24*
X104950000Y-66950000D02*
X105000000Y-67000000D01*
G04 #@! TO.N,Net-(C13-Pad2)*
X103000000Y-67000000D02*
X103000000Y-67125000D01*
X103000000Y-67125000D02*
X104338977Y-68463977D01*
X107551232Y-70725010D02*
X108930011Y-70725010D01*
X104338977Y-68463977D02*
X105290199Y-68463977D01*
X108930011Y-70725010D02*
X109300000Y-71095000D01*
X105290199Y-68463977D02*
X107551232Y-70725010D01*
D23*
G04 #@! TO.N,Net-(C14-Pad1)*
X103000000Y-85000000D02*
X103000000Y-82050000D01*
X103000000Y-82050000D02*
X103050000Y-82000000D01*
X103050000Y-82000000D02*
X97000000Y-82000000D01*
G04 #@! TO.N,Net-(C15-Pad2)*
X103000000Y-61000000D02*
X103000000Y-63950000D01*
X103000000Y-63950000D02*
X103050000Y-64000000D01*
X103050000Y-64000000D02*
X103050000Y-64300000D01*
X103050000Y-64300000D02*
X97000000Y-70350000D01*
X97000000Y-70350000D02*
X97000000Y-74750000D01*
X97000000Y-74750000D02*
X97000000Y-77000000D01*
D24*
G04 #@! TO.N,+3V3*
X106500000Y-56050000D02*
X106500000Y-58433248D01*
X106056417Y-58876831D02*
X101559840Y-58876831D01*
X106500000Y-58433248D02*
X106056417Y-58876831D01*
X101559840Y-58876831D02*
X101000000Y-59436671D01*
X101000000Y-62292894D02*
X101000000Y-63000000D01*
X101000000Y-59436671D02*
X101000000Y-62292894D01*
D23*
X98080000Y-63000000D02*
X97540000Y-63540000D01*
X101000000Y-63000000D02*
X98080000Y-63000000D01*
D24*
X106500000Y-56050000D02*
X108000000Y-56050000D01*
X105000000Y-56050000D02*
X106500000Y-56050000D01*
X102500000Y-56050000D02*
X105000000Y-56050000D01*
D23*
X98722892Y-94771414D02*
X97520811Y-94771414D01*
X96873532Y-94124135D02*
X96873532Y-90996368D01*
X97520811Y-94771414D02*
X96873532Y-94124135D01*
X96873532Y-90996368D02*
X98869900Y-89000000D01*
X98869900Y-89000000D02*
X103500000Y-89000000D01*
D24*
X103500000Y-89000000D02*
X115930876Y-89000000D01*
X115930876Y-89000000D02*
X117752893Y-90822017D01*
X117752893Y-90822017D02*
X117752893Y-93481415D01*
X117752893Y-93481415D02*
X118192893Y-93921415D01*
X118192893Y-93921415D02*
X119042892Y-94771414D01*
D23*
G04 #@! TO.N,/VCLAMP*
X114700000Y-69825000D02*
X117825000Y-69825000D01*
X117825000Y-69825000D02*
X118000000Y-70000000D01*
D24*
G04 #@! TO.N,/AVCC*
X113273626Y-76175000D02*
X113260419Y-76188207D01*
X114700000Y-76175000D02*
X113273626Y-76175000D01*
X106552000Y-74336000D02*
X107253000Y-73635000D01*
X107253000Y-73635000D02*
X107635000Y-73635000D01*
D23*
X107635000Y-73635000D02*
X107000000Y-73000000D01*
X107000000Y-73000000D02*
X104950000Y-73000000D01*
X109300000Y-73635000D02*
X107635000Y-73635000D01*
X105000000Y-76000000D02*
X105000000Y-73050000D01*
X105000000Y-73050000D02*
X104950000Y-73000000D01*
X105000000Y-70000000D02*
X105000000Y-72950000D01*
X105000000Y-72950000D02*
X104950000Y-73000000D01*
D24*
G04 #@! TO.N,/SDA*
X105000000Y-57950000D02*
X105000000Y-57536574D01*
X105000000Y-57536574D02*
X104480182Y-57016756D01*
X104480182Y-57016756D02*
X98052133Y-57016756D01*
X98052133Y-57016756D02*
X96276399Y-58792490D01*
X96276399Y-58792490D02*
X96276399Y-62263601D01*
X96276399Y-62263601D02*
X95863599Y-62676401D01*
X95863599Y-62676401D02*
X95000000Y-63540000D01*
G04 #@! TO.N,/SCL*
X102500000Y-57950000D02*
X98471268Y-57950000D01*
X98471268Y-57950000D02*
X97540000Y-58881268D01*
X97540000Y-58881268D02*
X97540000Y-61000000D01*
G04 #@! TO.N,/ALERT*
X108000000Y-57950000D02*
X108000000Y-58700000D01*
X107109165Y-59590835D02*
X102327074Y-59590835D01*
X108000000Y-58700000D02*
X107109165Y-59590835D01*
X102327074Y-59590835D02*
X101985594Y-59932315D01*
X101985594Y-59932315D02*
X101985594Y-63514406D01*
X101985594Y-63514406D02*
X100500000Y-65000000D01*
X100500000Y-65000000D02*
X98620000Y-65000000D01*
X98620000Y-65000000D02*
X97540000Y-66080000D01*
G04 #@! TO.N,Net-(C18-Pad1)*
X119724055Y-45018269D02*
X121437500Y-46731714D01*
X119724055Y-44231714D02*
X119724055Y-45018269D01*
D23*
G04 #@! TO.N,Net-(C18-Pad2)*
X116500000Y-47000000D02*
X117500000Y-46000000D01*
X117500000Y-45500000D02*
X117500000Y-45000000D01*
X117500000Y-46000000D02*
X117500000Y-45500000D01*
X118830786Y-46000000D02*
X119562500Y-46731714D01*
X117500000Y-46000000D02*
X118830786Y-46000000D01*
D25*
X117524055Y-44975945D02*
X117500000Y-45000000D01*
X117524055Y-44231714D02*
X117524055Y-44975945D01*
D23*
X116500000Y-47000000D02*
X114000000Y-47000000D01*
D24*
G04 #@! TO.N,Net-(R5-Pad1)*
X115161555Y-42331714D02*
X115124055Y-42294214D01*
X117524055Y-42331714D02*
X115161555Y-42331714D01*
G04 #@! TO.N,Net-(R6-Pad1)*
X122086555Y-42331714D02*
X122124055Y-42294214D01*
X119724055Y-42331714D02*
X122086555Y-42331714D01*
X124500000Y-42294214D02*
X122124055Y-42294214D01*
G04 #@! TD*
M02*
