G04 #@! TF.GenerationSoftware,KiCad,Pcbnew,5.0.2-bee76a0~70~ubuntu16.04.1*
G04 #@! TF.CreationDate,2019-04-26T01:24:52+02:00*
G04 #@! TF.ProjectId,mb-a,6d622d61-2e6b-4696-9361-645f70636258,rev?*
G04 #@! TF.SameCoordinates,Original*
G04 #@! TF.FileFunction,Soldermask,Top*
G04 #@! TF.FilePolarity,Negative*
%FSLAX46Y46*%
G04 Gerber Fmt 4.6, Leading zero omitted, Abs format (unit mm)*
G04 Created by KiCad (PCBNEW 5.0.2-bee76a0~70~ubuntu16.04.1) date Fri 26 Apr 2019 01:24:52 AM CEST*
%MOMM*%
%LPD*%
G01*
G04 APERTURE LIST*
%ADD10C,0.100000*%
G04 APERTURE END LIST*
D10*
G36*
X114088780Y-93725884D02*
X114269166Y-93761764D01*
X114460254Y-93840916D01*
X114632228Y-93955825D01*
X114778481Y-94102078D01*
X114893390Y-94274052D01*
X114972542Y-94465140D01*
X115012892Y-94667998D01*
X115012892Y-94874830D01*
X114972542Y-95077688D01*
X114893390Y-95268776D01*
X114778481Y-95440750D01*
X114632228Y-95587003D01*
X114460254Y-95701912D01*
X114269166Y-95781064D01*
X114088780Y-95816944D01*
X114066309Y-95821414D01*
X113859475Y-95821414D01*
X113837004Y-95816944D01*
X113656618Y-95781064D01*
X113465530Y-95701912D01*
X113293556Y-95587003D01*
X113147303Y-95440750D01*
X113032394Y-95268776D01*
X112953242Y-95077688D01*
X112912892Y-94874830D01*
X112912892Y-94667998D01*
X112953242Y-94465140D01*
X113032394Y-94274052D01*
X113147303Y-94102078D01*
X113293556Y-93955825D01*
X113465530Y-93840916D01*
X113656618Y-93761764D01*
X113837004Y-93725884D01*
X113859475Y-93721414D01*
X114066309Y-93721414D01*
X114088780Y-93725884D01*
X114088780Y-93725884D01*
G37*
G36*
X126788780Y-93725884D02*
X126969166Y-93761764D01*
X127160254Y-93840916D01*
X127332228Y-93955825D01*
X127478481Y-94102078D01*
X127593390Y-94274052D01*
X127672542Y-94465140D01*
X127712892Y-94667998D01*
X127712892Y-94874830D01*
X127672542Y-95077688D01*
X127593390Y-95268776D01*
X127478481Y-95440750D01*
X127332228Y-95587003D01*
X127160254Y-95701912D01*
X126969166Y-95781064D01*
X126788780Y-95816944D01*
X126766309Y-95821414D01*
X126559475Y-95821414D01*
X126537004Y-95816944D01*
X126356618Y-95781064D01*
X126165530Y-95701912D01*
X125993556Y-95587003D01*
X125847303Y-95440750D01*
X125732394Y-95268776D01*
X125653242Y-95077688D01*
X125612892Y-94874830D01*
X125612892Y-94667998D01*
X125653242Y-94465140D01*
X125732394Y-94274052D01*
X125847303Y-94102078D01*
X125993556Y-93955825D01*
X126165530Y-93840916D01*
X126356618Y-93761764D01*
X126537004Y-93725884D01*
X126559475Y-93721414D01*
X126766309Y-93721414D01*
X126788780Y-93725884D01*
X126788780Y-93725884D01*
G37*
G36*
X129328780Y-93725884D02*
X129509166Y-93761764D01*
X129700254Y-93840916D01*
X129872228Y-93955825D01*
X130018481Y-94102078D01*
X130133390Y-94274052D01*
X130212542Y-94465140D01*
X130252892Y-94667998D01*
X130252892Y-94874830D01*
X130212542Y-95077688D01*
X130133390Y-95268776D01*
X130018481Y-95440750D01*
X129872228Y-95587003D01*
X129700254Y-95701912D01*
X129509166Y-95781064D01*
X129328780Y-95816944D01*
X129306309Y-95821414D01*
X129099475Y-95821414D01*
X129077004Y-95816944D01*
X128896618Y-95781064D01*
X128705530Y-95701912D01*
X128533556Y-95587003D01*
X128387303Y-95440750D01*
X128272394Y-95268776D01*
X128193242Y-95077688D01*
X128152892Y-94874830D01*
X128152892Y-94667998D01*
X128193242Y-94465140D01*
X128272394Y-94274052D01*
X128387303Y-94102078D01*
X128533556Y-93955825D01*
X128705530Y-93840916D01*
X128896618Y-93761764D01*
X129077004Y-93725884D01*
X129099475Y-93721414D01*
X129306309Y-93721414D01*
X129328780Y-93725884D01*
X129328780Y-93725884D01*
G37*
G36*
X124248780Y-93725884D02*
X124429166Y-93761764D01*
X124620254Y-93840916D01*
X124792228Y-93955825D01*
X124938481Y-94102078D01*
X125053390Y-94274052D01*
X125132542Y-94465140D01*
X125172892Y-94667998D01*
X125172892Y-94874830D01*
X125132542Y-95077688D01*
X125053390Y-95268776D01*
X124938481Y-95440750D01*
X124792228Y-95587003D01*
X124620254Y-95701912D01*
X124429166Y-95781064D01*
X124248780Y-95816944D01*
X124226309Y-95821414D01*
X124019475Y-95821414D01*
X123997004Y-95816944D01*
X123816618Y-95781064D01*
X123625530Y-95701912D01*
X123453556Y-95587003D01*
X123307303Y-95440750D01*
X123192394Y-95268776D01*
X123113242Y-95077688D01*
X123072892Y-94874830D01*
X123072892Y-94667998D01*
X123113242Y-94465140D01*
X123192394Y-94274052D01*
X123307303Y-94102078D01*
X123453556Y-93955825D01*
X123625530Y-93840916D01*
X123816618Y-93761764D01*
X123997004Y-93725884D01*
X124019475Y-93721414D01*
X124226309Y-93721414D01*
X124248780Y-93725884D01*
X124248780Y-93725884D01*
G37*
G36*
X121708780Y-93725884D02*
X121889166Y-93761764D01*
X122080254Y-93840916D01*
X122252228Y-93955825D01*
X122398481Y-94102078D01*
X122513390Y-94274052D01*
X122592542Y-94465140D01*
X122632892Y-94667998D01*
X122632892Y-94874830D01*
X122592542Y-95077688D01*
X122513390Y-95268776D01*
X122398481Y-95440750D01*
X122252228Y-95587003D01*
X122080254Y-95701912D01*
X121889166Y-95781064D01*
X121708780Y-95816944D01*
X121686309Y-95821414D01*
X121479475Y-95821414D01*
X121457004Y-95816944D01*
X121276618Y-95781064D01*
X121085530Y-95701912D01*
X120913556Y-95587003D01*
X120767303Y-95440750D01*
X120652394Y-95268776D01*
X120573242Y-95077688D01*
X120532892Y-94874830D01*
X120532892Y-94667998D01*
X120573242Y-94465140D01*
X120652394Y-94274052D01*
X120767303Y-94102078D01*
X120913556Y-93955825D01*
X121085530Y-93840916D01*
X121276618Y-93761764D01*
X121457004Y-93725884D01*
X121479475Y-93721414D01*
X121686309Y-93721414D01*
X121708780Y-93725884D01*
X121708780Y-93725884D01*
G37*
G36*
X119168780Y-93725884D02*
X119349166Y-93761764D01*
X119540254Y-93840916D01*
X119712228Y-93955825D01*
X119858481Y-94102078D01*
X119973390Y-94274052D01*
X120052542Y-94465140D01*
X120092892Y-94667998D01*
X120092892Y-94874830D01*
X120052542Y-95077688D01*
X119973390Y-95268776D01*
X119858481Y-95440750D01*
X119712228Y-95587003D01*
X119540254Y-95701912D01*
X119349166Y-95781064D01*
X119168780Y-95816944D01*
X119146309Y-95821414D01*
X118939475Y-95821414D01*
X118917004Y-95816944D01*
X118736618Y-95781064D01*
X118545530Y-95701912D01*
X118373556Y-95587003D01*
X118227303Y-95440750D01*
X118112394Y-95268776D01*
X118033242Y-95077688D01*
X117992892Y-94874830D01*
X117992892Y-94667998D01*
X118033242Y-94465140D01*
X118112394Y-94274052D01*
X118227303Y-94102078D01*
X118373556Y-93955825D01*
X118545530Y-93840916D01*
X118736618Y-93761764D01*
X118917004Y-93725884D01*
X118939475Y-93721414D01*
X119146309Y-93721414D01*
X119168780Y-93725884D01*
X119168780Y-93725884D01*
G37*
G36*
X116628780Y-93725884D02*
X116809166Y-93761764D01*
X117000254Y-93840916D01*
X117172228Y-93955825D01*
X117318481Y-94102078D01*
X117433390Y-94274052D01*
X117512542Y-94465140D01*
X117552892Y-94667998D01*
X117552892Y-94874830D01*
X117512542Y-95077688D01*
X117433390Y-95268776D01*
X117318481Y-95440750D01*
X117172228Y-95587003D01*
X117000254Y-95701912D01*
X116809166Y-95781064D01*
X116628780Y-95816944D01*
X116606309Y-95821414D01*
X116399475Y-95821414D01*
X116377004Y-95816944D01*
X116196618Y-95781064D01*
X116005530Y-95701912D01*
X115833556Y-95587003D01*
X115687303Y-95440750D01*
X115572394Y-95268776D01*
X115493242Y-95077688D01*
X115452892Y-94874830D01*
X115452892Y-94667998D01*
X115493242Y-94465140D01*
X115572394Y-94274052D01*
X115687303Y-94102078D01*
X115833556Y-93955825D01*
X116005530Y-93840916D01*
X116196618Y-93761764D01*
X116377004Y-93725884D01*
X116399475Y-93721414D01*
X116606309Y-93721414D01*
X116628780Y-93725884D01*
X116628780Y-93725884D01*
G37*
G36*
X101388780Y-93725884D02*
X101569166Y-93761764D01*
X101760254Y-93840916D01*
X101932228Y-93955825D01*
X102078481Y-94102078D01*
X102193390Y-94274052D01*
X102272542Y-94465140D01*
X102312892Y-94667998D01*
X102312892Y-94874830D01*
X102272542Y-95077688D01*
X102193390Y-95268776D01*
X102078481Y-95440750D01*
X101932228Y-95587003D01*
X101760254Y-95701912D01*
X101569166Y-95781064D01*
X101388780Y-95816944D01*
X101366309Y-95821414D01*
X101159475Y-95821414D01*
X101137004Y-95816944D01*
X100956618Y-95781064D01*
X100765530Y-95701912D01*
X100593556Y-95587003D01*
X100447303Y-95440750D01*
X100332394Y-95268776D01*
X100253242Y-95077688D01*
X100212892Y-94874830D01*
X100212892Y-94667998D01*
X100253242Y-94465140D01*
X100332394Y-94274052D01*
X100447303Y-94102078D01*
X100593556Y-93955825D01*
X100765530Y-93840916D01*
X100956618Y-93761764D01*
X101137004Y-93725884D01*
X101159475Y-93721414D01*
X101366309Y-93721414D01*
X101388780Y-93725884D01*
X101388780Y-93725884D01*
G37*
G36*
X98848780Y-93725884D02*
X99029166Y-93761764D01*
X99220254Y-93840916D01*
X99392228Y-93955825D01*
X99538481Y-94102078D01*
X99653390Y-94274052D01*
X99732542Y-94465140D01*
X99772892Y-94667998D01*
X99772892Y-94874830D01*
X99732542Y-95077688D01*
X99653390Y-95268776D01*
X99538481Y-95440750D01*
X99392228Y-95587003D01*
X99220254Y-95701912D01*
X99029166Y-95781064D01*
X98848780Y-95816944D01*
X98826309Y-95821414D01*
X98619475Y-95821414D01*
X98597004Y-95816944D01*
X98416618Y-95781064D01*
X98225530Y-95701912D01*
X98053556Y-95587003D01*
X97907303Y-95440750D01*
X97792394Y-95268776D01*
X97713242Y-95077688D01*
X97672892Y-94874830D01*
X97672892Y-94667998D01*
X97713242Y-94465140D01*
X97792394Y-94274052D01*
X97907303Y-94102078D01*
X98053556Y-93955825D01*
X98225530Y-93840916D01*
X98416618Y-93761764D01*
X98597004Y-93725884D01*
X98619475Y-93721414D01*
X98826309Y-93721414D01*
X98848780Y-93725884D01*
X98848780Y-93725884D01*
G37*
G36*
X111548780Y-93725884D02*
X111729166Y-93761764D01*
X111920254Y-93840916D01*
X112092228Y-93955825D01*
X112238481Y-94102078D01*
X112353390Y-94274052D01*
X112432542Y-94465140D01*
X112472892Y-94667998D01*
X112472892Y-94874830D01*
X112432542Y-95077688D01*
X112353390Y-95268776D01*
X112238481Y-95440750D01*
X112092228Y-95587003D01*
X111920254Y-95701912D01*
X111729166Y-95781064D01*
X111548780Y-95816944D01*
X111526309Y-95821414D01*
X111319475Y-95821414D01*
X111297004Y-95816944D01*
X111116618Y-95781064D01*
X110925530Y-95701912D01*
X110753556Y-95587003D01*
X110607303Y-95440750D01*
X110492394Y-95268776D01*
X110413242Y-95077688D01*
X110372892Y-94874830D01*
X110372892Y-94667998D01*
X110413242Y-94465140D01*
X110492394Y-94274052D01*
X110607303Y-94102078D01*
X110753556Y-93955825D01*
X110925530Y-93840916D01*
X111116618Y-93761764D01*
X111297004Y-93725884D01*
X111319475Y-93721414D01*
X111526309Y-93721414D01*
X111548780Y-93725884D01*
X111548780Y-93725884D01*
G37*
G36*
X109008780Y-93725884D02*
X109189166Y-93761764D01*
X109380254Y-93840916D01*
X109552228Y-93955825D01*
X109698481Y-94102078D01*
X109813390Y-94274052D01*
X109892542Y-94465140D01*
X109932892Y-94667998D01*
X109932892Y-94874830D01*
X109892542Y-95077688D01*
X109813390Y-95268776D01*
X109698481Y-95440750D01*
X109552228Y-95587003D01*
X109380254Y-95701912D01*
X109189166Y-95781064D01*
X109008780Y-95816944D01*
X108986309Y-95821414D01*
X108779475Y-95821414D01*
X108757004Y-95816944D01*
X108576618Y-95781064D01*
X108385530Y-95701912D01*
X108213556Y-95587003D01*
X108067303Y-95440750D01*
X107952394Y-95268776D01*
X107873242Y-95077688D01*
X107832892Y-94874830D01*
X107832892Y-94667998D01*
X107873242Y-94465140D01*
X107952394Y-94274052D01*
X108067303Y-94102078D01*
X108213556Y-93955825D01*
X108385530Y-93840916D01*
X108576618Y-93761764D01*
X108757004Y-93725884D01*
X108779475Y-93721414D01*
X108986309Y-93721414D01*
X109008780Y-93725884D01*
X109008780Y-93725884D01*
G37*
G36*
X103928780Y-93725884D02*
X104109166Y-93761764D01*
X104300254Y-93840916D01*
X104472228Y-93955825D01*
X104618481Y-94102078D01*
X104733390Y-94274052D01*
X104812542Y-94465140D01*
X104852892Y-94667998D01*
X104852892Y-94874830D01*
X104812542Y-95077688D01*
X104733390Y-95268776D01*
X104618481Y-95440750D01*
X104472228Y-95587003D01*
X104300254Y-95701912D01*
X104109166Y-95781064D01*
X103928780Y-95816944D01*
X103906309Y-95821414D01*
X103699475Y-95821414D01*
X103677004Y-95816944D01*
X103496618Y-95781064D01*
X103305530Y-95701912D01*
X103133556Y-95587003D01*
X102987303Y-95440750D01*
X102872394Y-95268776D01*
X102793242Y-95077688D01*
X102752892Y-94874830D01*
X102752892Y-94667998D01*
X102793242Y-94465140D01*
X102872394Y-94274052D01*
X102987303Y-94102078D01*
X103133556Y-93955825D01*
X103305530Y-93840916D01*
X103496618Y-93761764D01*
X103677004Y-93725884D01*
X103699475Y-93721414D01*
X103906309Y-93721414D01*
X103928780Y-93725884D01*
X103928780Y-93725884D01*
G37*
G36*
X106468780Y-93725884D02*
X106649166Y-93761764D01*
X106840254Y-93840916D01*
X107012228Y-93955825D01*
X107158481Y-94102078D01*
X107273390Y-94274052D01*
X107352542Y-94465140D01*
X107392892Y-94667998D01*
X107392892Y-94874830D01*
X107352542Y-95077688D01*
X107273390Y-95268776D01*
X107158481Y-95440750D01*
X107012228Y-95587003D01*
X106840254Y-95701912D01*
X106649166Y-95781064D01*
X106468780Y-95816944D01*
X106446309Y-95821414D01*
X106239475Y-95821414D01*
X106217004Y-95816944D01*
X106036618Y-95781064D01*
X105845530Y-95701912D01*
X105673556Y-95587003D01*
X105527303Y-95440750D01*
X105412394Y-95268776D01*
X105333242Y-95077688D01*
X105292892Y-94874830D01*
X105292892Y-94667998D01*
X105333242Y-94465140D01*
X105412394Y-94274052D01*
X105527303Y-94102078D01*
X105673556Y-93955825D01*
X105845530Y-93840916D01*
X106036618Y-93761764D01*
X106217004Y-93725884D01*
X106239475Y-93721414D01*
X106446309Y-93721414D01*
X106468780Y-93725884D01*
X106468780Y-93725884D01*
G37*
G36*
X103928780Y-91185884D02*
X104109166Y-91221764D01*
X104300254Y-91300916D01*
X104472228Y-91415825D01*
X104618481Y-91562078D01*
X104733390Y-91734052D01*
X104812542Y-91925140D01*
X104852892Y-92127998D01*
X104852892Y-92334830D01*
X104812542Y-92537688D01*
X104733390Y-92728776D01*
X104618481Y-92900750D01*
X104472228Y-93047003D01*
X104300254Y-93161912D01*
X104109166Y-93241064D01*
X103928780Y-93276944D01*
X103906309Y-93281414D01*
X103699475Y-93281414D01*
X103677004Y-93276944D01*
X103496618Y-93241064D01*
X103305530Y-93161912D01*
X103133556Y-93047003D01*
X102987303Y-92900750D01*
X102872394Y-92728776D01*
X102793242Y-92537688D01*
X102752892Y-92334830D01*
X102752892Y-92127998D01*
X102793242Y-91925140D01*
X102872394Y-91734052D01*
X102987303Y-91562078D01*
X103133556Y-91415825D01*
X103305530Y-91300916D01*
X103496618Y-91221764D01*
X103677004Y-91185884D01*
X103699475Y-91181414D01*
X103906309Y-91181414D01*
X103928780Y-91185884D01*
X103928780Y-91185884D01*
G37*
G36*
X111548780Y-91185884D02*
X111729166Y-91221764D01*
X111920254Y-91300916D01*
X112092228Y-91415825D01*
X112238481Y-91562078D01*
X112353390Y-91734052D01*
X112432542Y-91925140D01*
X112472892Y-92127998D01*
X112472892Y-92334830D01*
X112432542Y-92537688D01*
X112353390Y-92728776D01*
X112238481Y-92900750D01*
X112092228Y-93047003D01*
X111920254Y-93161912D01*
X111729166Y-93241064D01*
X111548780Y-93276944D01*
X111526309Y-93281414D01*
X111319475Y-93281414D01*
X111297004Y-93276944D01*
X111116618Y-93241064D01*
X110925530Y-93161912D01*
X110753556Y-93047003D01*
X110607303Y-92900750D01*
X110492394Y-92728776D01*
X110413242Y-92537688D01*
X110372892Y-92334830D01*
X110372892Y-92127998D01*
X110413242Y-91925140D01*
X110492394Y-91734052D01*
X110607303Y-91562078D01*
X110753556Y-91415825D01*
X110925530Y-91300916D01*
X111116618Y-91221764D01*
X111297004Y-91185884D01*
X111319475Y-91181414D01*
X111526309Y-91181414D01*
X111548780Y-91185884D01*
X111548780Y-91185884D01*
G37*
G36*
X109008780Y-91185884D02*
X109189166Y-91221764D01*
X109380254Y-91300916D01*
X109552228Y-91415825D01*
X109698481Y-91562078D01*
X109813390Y-91734052D01*
X109892542Y-91925140D01*
X109932892Y-92127998D01*
X109932892Y-92334830D01*
X109892542Y-92537688D01*
X109813390Y-92728776D01*
X109698481Y-92900750D01*
X109552228Y-93047003D01*
X109380254Y-93161912D01*
X109189166Y-93241064D01*
X109008780Y-93276944D01*
X108986309Y-93281414D01*
X108779475Y-93281414D01*
X108757004Y-93276944D01*
X108576618Y-93241064D01*
X108385530Y-93161912D01*
X108213556Y-93047003D01*
X108067303Y-92900750D01*
X107952394Y-92728776D01*
X107873242Y-92537688D01*
X107832892Y-92334830D01*
X107832892Y-92127998D01*
X107873242Y-91925140D01*
X107952394Y-91734052D01*
X108067303Y-91562078D01*
X108213556Y-91415825D01*
X108385530Y-91300916D01*
X108576618Y-91221764D01*
X108757004Y-91185884D01*
X108779475Y-91181414D01*
X108986309Y-91181414D01*
X109008780Y-91185884D01*
X109008780Y-91185884D01*
G37*
G36*
X106468780Y-91185884D02*
X106649166Y-91221764D01*
X106840254Y-91300916D01*
X107012228Y-91415825D01*
X107158481Y-91562078D01*
X107273390Y-91734052D01*
X107352542Y-91925140D01*
X107392892Y-92127998D01*
X107392892Y-92334830D01*
X107352542Y-92537688D01*
X107273390Y-92728776D01*
X107158481Y-92900750D01*
X107012228Y-93047003D01*
X106840254Y-93161912D01*
X106649166Y-93241064D01*
X106468780Y-93276944D01*
X106446309Y-93281414D01*
X106239475Y-93281414D01*
X106217004Y-93276944D01*
X106036618Y-93241064D01*
X105845530Y-93161912D01*
X105673556Y-93047003D01*
X105527303Y-92900750D01*
X105412394Y-92728776D01*
X105333242Y-92537688D01*
X105292892Y-92334830D01*
X105292892Y-92127998D01*
X105333242Y-91925140D01*
X105412394Y-91734052D01*
X105527303Y-91562078D01*
X105673556Y-91415825D01*
X105845530Y-91300916D01*
X106036618Y-91221764D01*
X106217004Y-91185884D01*
X106239475Y-91181414D01*
X106446309Y-91181414D01*
X106468780Y-91185884D01*
X106468780Y-91185884D01*
G37*
G36*
X101388780Y-91185884D02*
X101569166Y-91221764D01*
X101760254Y-91300916D01*
X101932228Y-91415825D01*
X102078481Y-91562078D01*
X102193390Y-91734052D01*
X102272542Y-91925140D01*
X102312892Y-92127998D01*
X102312892Y-92334830D01*
X102272542Y-92537688D01*
X102193390Y-92728776D01*
X102078481Y-92900750D01*
X101932228Y-93047003D01*
X101760254Y-93161912D01*
X101569166Y-93241064D01*
X101388780Y-93276944D01*
X101366309Y-93281414D01*
X101159475Y-93281414D01*
X101137004Y-93276944D01*
X100956618Y-93241064D01*
X100765530Y-93161912D01*
X100593556Y-93047003D01*
X100447303Y-92900750D01*
X100332394Y-92728776D01*
X100253242Y-92537688D01*
X100212892Y-92334830D01*
X100212892Y-92127998D01*
X100253242Y-91925140D01*
X100332394Y-91734052D01*
X100447303Y-91562078D01*
X100593556Y-91415825D01*
X100765530Y-91300916D01*
X100956618Y-91221764D01*
X101137004Y-91185884D01*
X101159475Y-91181414D01*
X101366309Y-91181414D01*
X101388780Y-91185884D01*
X101388780Y-91185884D01*
G37*
G36*
X98848780Y-91185884D02*
X99029166Y-91221764D01*
X99220254Y-91300916D01*
X99392228Y-91415825D01*
X99538481Y-91562078D01*
X99653390Y-91734052D01*
X99732542Y-91925140D01*
X99772892Y-92127998D01*
X99772892Y-92334830D01*
X99732542Y-92537688D01*
X99653390Y-92728776D01*
X99538481Y-92900750D01*
X99392228Y-93047003D01*
X99220254Y-93161912D01*
X99029166Y-93241064D01*
X98848780Y-93276944D01*
X98826309Y-93281414D01*
X98619475Y-93281414D01*
X98597004Y-93276944D01*
X98416618Y-93241064D01*
X98225530Y-93161912D01*
X98053556Y-93047003D01*
X97907303Y-92900750D01*
X97792394Y-92728776D01*
X97713242Y-92537688D01*
X97672892Y-92334830D01*
X97672892Y-92127998D01*
X97713242Y-91925140D01*
X97792394Y-91734052D01*
X97907303Y-91562078D01*
X98053556Y-91415825D01*
X98225530Y-91300916D01*
X98416618Y-91221764D01*
X98597004Y-91185884D01*
X98619475Y-91181414D01*
X98826309Y-91181414D01*
X98848780Y-91185884D01*
X98848780Y-91185884D01*
G37*
G36*
X116628780Y-91185884D02*
X116809166Y-91221764D01*
X117000254Y-91300916D01*
X117172228Y-91415825D01*
X117318481Y-91562078D01*
X117433390Y-91734052D01*
X117512542Y-91925140D01*
X117552892Y-92127998D01*
X117552892Y-92334830D01*
X117512542Y-92537688D01*
X117433390Y-92728776D01*
X117318481Y-92900750D01*
X117172228Y-93047003D01*
X117000254Y-93161912D01*
X116809166Y-93241064D01*
X116628780Y-93276944D01*
X116606309Y-93281414D01*
X116399475Y-93281414D01*
X116377004Y-93276944D01*
X116196618Y-93241064D01*
X116005530Y-93161912D01*
X115833556Y-93047003D01*
X115687303Y-92900750D01*
X115572394Y-92728776D01*
X115493242Y-92537688D01*
X115452892Y-92334830D01*
X115452892Y-92127998D01*
X115493242Y-91925140D01*
X115572394Y-91734052D01*
X115687303Y-91562078D01*
X115833556Y-91415825D01*
X116005530Y-91300916D01*
X116196618Y-91221764D01*
X116377004Y-91185884D01*
X116399475Y-91181414D01*
X116606309Y-91181414D01*
X116628780Y-91185884D01*
X116628780Y-91185884D01*
G37*
G36*
X119168780Y-91185884D02*
X119349166Y-91221764D01*
X119540254Y-91300916D01*
X119712228Y-91415825D01*
X119858481Y-91562078D01*
X119973390Y-91734052D01*
X120052542Y-91925140D01*
X120092892Y-92127998D01*
X120092892Y-92334830D01*
X120052542Y-92537688D01*
X119973390Y-92728776D01*
X119858481Y-92900750D01*
X119712228Y-93047003D01*
X119540254Y-93161912D01*
X119349166Y-93241064D01*
X119168780Y-93276944D01*
X119146309Y-93281414D01*
X118939475Y-93281414D01*
X118917004Y-93276944D01*
X118736618Y-93241064D01*
X118545530Y-93161912D01*
X118373556Y-93047003D01*
X118227303Y-92900750D01*
X118112394Y-92728776D01*
X118033242Y-92537688D01*
X117992892Y-92334830D01*
X117992892Y-92127998D01*
X118033242Y-91925140D01*
X118112394Y-91734052D01*
X118227303Y-91562078D01*
X118373556Y-91415825D01*
X118545530Y-91300916D01*
X118736618Y-91221764D01*
X118917004Y-91185884D01*
X118939475Y-91181414D01*
X119146309Y-91181414D01*
X119168780Y-91185884D01*
X119168780Y-91185884D01*
G37*
G36*
X121708780Y-91185884D02*
X121889166Y-91221764D01*
X122080254Y-91300916D01*
X122252228Y-91415825D01*
X122398481Y-91562078D01*
X122513390Y-91734052D01*
X122592542Y-91925140D01*
X122632892Y-92127998D01*
X122632892Y-92334830D01*
X122592542Y-92537688D01*
X122513390Y-92728776D01*
X122398481Y-92900750D01*
X122252228Y-93047003D01*
X122080254Y-93161912D01*
X121889166Y-93241064D01*
X121708780Y-93276944D01*
X121686309Y-93281414D01*
X121479475Y-93281414D01*
X121457004Y-93276944D01*
X121276618Y-93241064D01*
X121085530Y-93161912D01*
X120913556Y-93047003D01*
X120767303Y-92900750D01*
X120652394Y-92728776D01*
X120573242Y-92537688D01*
X120532892Y-92334830D01*
X120532892Y-92127998D01*
X120573242Y-91925140D01*
X120652394Y-91734052D01*
X120767303Y-91562078D01*
X120913556Y-91415825D01*
X121085530Y-91300916D01*
X121276618Y-91221764D01*
X121457004Y-91185884D01*
X121479475Y-91181414D01*
X121686309Y-91181414D01*
X121708780Y-91185884D01*
X121708780Y-91185884D01*
G37*
G36*
X129328780Y-91185884D02*
X129509166Y-91221764D01*
X129700254Y-91300916D01*
X129872228Y-91415825D01*
X130018481Y-91562078D01*
X130133390Y-91734052D01*
X130212542Y-91925140D01*
X130252892Y-92127998D01*
X130252892Y-92334830D01*
X130212542Y-92537688D01*
X130133390Y-92728776D01*
X130018481Y-92900750D01*
X129872228Y-93047003D01*
X129700254Y-93161912D01*
X129509166Y-93241064D01*
X129328780Y-93276944D01*
X129306309Y-93281414D01*
X129099475Y-93281414D01*
X129077004Y-93276944D01*
X128896618Y-93241064D01*
X128705530Y-93161912D01*
X128533556Y-93047003D01*
X128387303Y-92900750D01*
X128272394Y-92728776D01*
X128193242Y-92537688D01*
X128152892Y-92334830D01*
X128152892Y-92127998D01*
X128193242Y-91925140D01*
X128272394Y-91734052D01*
X128387303Y-91562078D01*
X128533556Y-91415825D01*
X128705530Y-91300916D01*
X128896618Y-91221764D01*
X129077004Y-91185884D01*
X129099475Y-91181414D01*
X129306309Y-91181414D01*
X129328780Y-91185884D01*
X129328780Y-91185884D01*
G37*
G36*
X124248780Y-91185884D02*
X124429166Y-91221764D01*
X124620254Y-91300916D01*
X124792228Y-91415825D01*
X124938481Y-91562078D01*
X125053390Y-91734052D01*
X125132542Y-91925140D01*
X125172892Y-92127998D01*
X125172892Y-92334830D01*
X125132542Y-92537688D01*
X125053390Y-92728776D01*
X124938481Y-92900750D01*
X124792228Y-93047003D01*
X124620254Y-93161912D01*
X124429166Y-93241064D01*
X124248780Y-93276944D01*
X124226309Y-93281414D01*
X124019475Y-93281414D01*
X123997004Y-93276944D01*
X123816618Y-93241064D01*
X123625530Y-93161912D01*
X123453556Y-93047003D01*
X123307303Y-92900750D01*
X123192394Y-92728776D01*
X123113242Y-92537688D01*
X123072892Y-92334830D01*
X123072892Y-92127998D01*
X123113242Y-91925140D01*
X123192394Y-91734052D01*
X123307303Y-91562078D01*
X123453556Y-91415825D01*
X123625530Y-91300916D01*
X123816618Y-91221764D01*
X123997004Y-91185884D01*
X124019475Y-91181414D01*
X124226309Y-91181414D01*
X124248780Y-91185884D01*
X124248780Y-91185884D01*
G37*
G36*
X114088780Y-91185884D02*
X114269166Y-91221764D01*
X114460254Y-91300916D01*
X114632228Y-91415825D01*
X114778481Y-91562078D01*
X114893390Y-91734052D01*
X114972542Y-91925140D01*
X115012892Y-92127998D01*
X115012892Y-92334830D01*
X114972542Y-92537688D01*
X114893390Y-92728776D01*
X114778481Y-92900750D01*
X114632228Y-93047003D01*
X114460254Y-93161912D01*
X114269166Y-93241064D01*
X114088780Y-93276944D01*
X114066309Y-93281414D01*
X113859475Y-93281414D01*
X113837004Y-93276944D01*
X113656618Y-93241064D01*
X113465530Y-93161912D01*
X113293556Y-93047003D01*
X113147303Y-92900750D01*
X113032394Y-92728776D01*
X112953242Y-92537688D01*
X112912892Y-92334830D01*
X112912892Y-92127998D01*
X112953242Y-91925140D01*
X113032394Y-91734052D01*
X113147303Y-91562078D01*
X113293556Y-91415825D01*
X113465530Y-91300916D01*
X113656618Y-91221764D01*
X113837004Y-91185884D01*
X113859475Y-91181414D01*
X114066309Y-91181414D01*
X114088780Y-91185884D01*
X114088780Y-91185884D01*
G37*
G36*
X126788780Y-91185884D02*
X126969166Y-91221764D01*
X127160254Y-91300916D01*
X127332228Y-91415825D01*
X127478481Y-91562078D01*
X127593390Y-91734052D01*
X127672542Y-91925140D01*
X127712892Y-92127998D01*
X127712892Y-92334830D01*
X127672542Y-92537688D01*
X127593390Y-92728776D01*
X127478481Y-92900750D01*
X127332228Y-93047003D01*
X127160254Y-93161912D01*
X126969166Y-93241064D01*
X126788780Y-93276944D01*
X126766309Y-93281414D01*
X126559475Y-93281414D01*
X126537004Y-93276944D01*
X126356618Y-93241064D01*
X126165530Y-93161912D01*
X125993556Y-93047003D01*
X125847303Y-92900750D01*
X125732394Y-92728776D01*
X125653242Y-92537688D01*
X125612892Y-92334830D01*
X125612892Y-92127998D01*
X125653242Y-91925140D01*
X125732394Y-91734052D01*
X125847303Y-91562078D01*
X125993556Y-91415825D01*
X126165530Y-91300916D01*
X126356618Y-91221764D01*
X126537004Y-91185884D01*
X126559475Y-91181414D01*
X126766309Y-91181414D01*
X126788780Y-91185884D01*
X126788780Y-91185884D01*
G37*
G36*
X103523497Y-84105997D02*
X103576153Y-84121970D01*
X103624665Y-84147900D01*
X103667196Y-84182804D01*
X103702100Y-84225335D01*
X103728030Y-84273847D01*
X103744003Y-84326503D01*
X103750000Y-84387390D01*
X103750000Y-85612610D01*
X103744003Y-85673497D01*
X103728030Y-85726153D01*
X103702100Y-85774665D01*
X103667196Y-85817196D01*
X103624665Y-85852100D01*
X103576153Y-85878030D01*
X103523497Y-85894003D01*
X103462610Y-85900000D01*
X102662390Y-85900000D01*
X102601503Y-85894003D01*
X102548847Y-85878030D01*
X102500335Y-85852100D01*
X102457804Y-85817196D01*
X102422900Y-85774665D01*
X102396970Y-85726153D01*
X102380997Y-85673497D01*
X102375000Y-85612610D01*
X102375000Y-84387390D01*
X102380997Y-84326503D01*
X102396970Y-84273847D01*
X102422900Y-84225335D01*
X102457804Y-84182804D01*
X102500335Y-84147900D01*
X102548847Y-84121970D01*
X102601503Y-84105997D01*
X102662390Y-84100000D01*
X103462610Y-84100000D01*
X103523497Y-84105997D01*
X103523497Y-84105997D01*
G37*
G36*
X105398497Y-84105997D02*
X105451153Y-84121970D01*
X105499665Y-84147900D01*
X105542196Y-84182804D01*
X105577100Y-84225335D01*
X105603030Y-84273847D01*
X105619003Y-84326503D01*
X105625000Y-84387390D01*
X105625000Y-85612610D01*
X105619003Y-85673497D01*
X105603030Y-85726153D01*
X105577100Y-85774665D01*
X105542196Y-85817196D01*
X105499665Y-85852100D01*
X105451153Y-85878030D01*
X105398497Y-85894003D01*
X105337610Y-85900000D01*
X104537390Y-85900000D01*
X104476503Y-85894003D01*
X104423847Y-85878030D01*
X104375335Y-85852100D01*
X104332804Y-85817196D01*
X104297900Y-85774665D01*
X104271970Y-85726153D01*
X104255997Y-85673497D01*
X104250000Y-85612610D01*
X104250000Y-84387390D01*
X104255997Y-84326503D01*
X104271970Y-84273847D01*
X104297900Y-84225335D01*
X104332804Y-84182804D01*
X104375335Y-84147900D01*
X104423847Y-84121970D01*
X104476503Y-84105997D01*
X104537390Y-84100000D01*
X105337610Y-84100000D01*
X105398497Y-84105997D01*
X105398497Y-84105997D01*
G37*
G36*
X122046947Y-82554244D02*
X122082478Y-82565022D01*
X122115223Y-82582524D01*
X122143923Y-82606077D01*
X122167476Y-82634777D01*
X122184978Y-82667522D01*
X122195756Y-82703053D01*
X122200000Y-82746141D01*
X122200000Y-85253859D01*
X122195756Y-85296947D01*
X122184978Y-85332478D01*
X122167476Y-85365223D01*
X122143923Y-85393923D01*
X122115223Y-85417476D01*
X122082478Y-85434978D01*
X122046947Y-85445756D01*
X122003859Y-85450000D01*
X118496141Y-85450000D01*
X118453053Y-85445756D01*
X118417522Y-85434978D01*
X118384777Y-85417476D01*
X118356077Y-85393923D01*
X118332524Y-85365223D01*
X118315022Y-85332478D01*
X118304244Y-85296947D01*
X118300000Y-85253859D01*
X118300000Y-82746141D01*
X118304244Y-82703053D01*
X118315022Y-82667522D01*
X118332524Y-82634777D01*
X118356077Y-82606077D01*
X118384777Y-82582524D01*
X118417522Y-82565022D01*
X118453053Y-82554244D01*
X118496141Y-82550000D01*
X122003859Y-82550000D01*
X122046947Y-82554244D01*
X122046947Y-82554244D01*
G37*
G36*
X115546947Y-82554244D02*
X115582478Y-82565022D01*
X115615223Y-82582524D01*
X115643923Y-82606077D01*
X115667476Y-82634777D01*
X115684978Y-82667522D01*
X115695756Y-82703053D01*
X115700000Y-82746141D01*
X115700000Y-85253859D01*
X115695756Y-85296947D01*
X115684978Y-85332478D01*
X115667476Y-85365223D01*
X115643923Y-85393923D01*
X115615223Y-85417476D01*
X115582478Y-85434978D01*
X115546947Y-85445756D01*
X115503859Y-85450000D01*
X111996141Y-85450000D01*
X111953053Y-85445756D01*
X111917522Y-85434978D01*
X111884777Y-85417476D01*
X111856077Y-85393923D01*
X111832524Y-85365223D01*
X111815022Y-85332478D01*
X111804244Y-85296947D01*
X111800000Y-85253859D01*
X111800000Y-82746141D01*
X111804244Y-82703053D01*
X111815022Y-82667522D01*
X111832524Y-82634777D01*
X111856077Y-82606077D01*
X111884777Y-82582524D01*
X111917522Y-82565022D01*
X111953053Y-82554244D01*
X111996141Y-82550000D01*
X115503859Y-82550000D01*
X115546947Y-82554244D01*
X115546947Y-82554244D01*
G37*
G36*
X110398497Y-82105997D02*
X110451153Y-82121970D01*
X110499665Y-82147900D01*
X110542196Y-82182804D01*
X110577100Y-82225335D01*
X110603030Y-82273847D01*
X110619003Y-82326503D01*
X110625000Y-82387390D01*
X110625000Y-83612610D01*
X110619003Y-83673497D01*
X110603030Y-83726153D01*
X110577100Y-83774665D01*
X110542196Y-83817196D01*
X110499665Y-83852100D01*
X110451153Y-83878030D01*
X110398497Y-83894003D01*
X110337610Y-83900000D01*
X109537390Y-83900000D01*
X109476503Y-83894003D01*
X109423847Y-83878030D01*
X109375335Y-83852100D01*
X109332804Y-83817196D01*
X109297900Y-83774665D01*
X109271970Y-83726153D01*
X109255997Y-83673497D01*
X109250000Y-83612610D01*
X109250000Y-82387390D01*
X109255997Y-82326503D01*
X109271970Y-82273847D01*
X109297900Y-82225335D01*
X109332804Y-82182804D01*
X109375335Y-82147900D01*
X109423847Y-82121970D01*
X109476503Y-82105997D01*
X109537390Y-82100000D01*
X110337610Y-82100000D01*
X110398497Y-82105997D01*
X110398497Y-82105997D01*
G37*
G36*
X108523497Y-82105997D02*
X108576153Y-82121970D01*
X108624665Y-82147900D01*
X108667196Y-82182804D01*
X108702100Y-82225335D01*
X108728030Y-82273847D01*
X108744003Y-82326503D01*
X108750000Y-82387390D01*
X108750000Y-83612610D01*
X108744003Y-83673497D01*
X108728030Y-83726153D01*
X108702100Y-83774665D01*
X108667196Y-83817196D01*
X108624665Y-83852100D01*
X108576153Y-83878030D01*
X108523497Y-83894003D01*
X108462610Y-83900000D01*
X107662390Y-83900000D01*
X107601503Y-83894003D01*
X107548847Y-83878030D01*
X107500335Y-83852100D01*
X107457804Y-83817196D01*
X107422900Y-83774665D01*
X107396970Y-83726153D01*
X107380997Y-83673497D01*
X107375000Y-83612610D01*
X107375000Y-82387390D01*
X107380997Y-82326503D01*
X107396970Y-82273847D01*
X107422900Y-82225335D01*
X107457804Y-82182804D01*
X107500335Y-82147900D01*
X107548847Y-82121970D01*
X107601503Y-82105997D01*
X107662390Y-82100000D01*
X108462610Y-82100000D01*
X108523497Y-82105997D01*
X108523497Y-82105997D01*
G37*
G36*
X97363830Y-80554196D02*
X97534250Y-80570981D01*
X97807576Y-80653894D01*
X98059474Y-80788536D01*
X98280265Y-80969735D01*
X98461464Y-81190526D01*
X98596106Y-81442424D01*
X98679019Y-81715750D01*
X98707015Y-82000000D01*
X98679019Y-82284250D01*
X98596106Y-82557576D01*
X98461464Y-82809474D01*
X98280265Y-83030265D01*
X98059474Y-83211464D01*
X97807576Y-83346106D01*
X97534250Y-83429019D01*
X97363830Y-83445804D01*
X97321226Y-83450000D01*
X96678774Y-83450000D01*
X96636170Y-83445804D01*
X96465750Y-83429019D01*
X96192424Y-83346106D01*
X95940526Y-83211464D01*
X95719735Y-83030265D01*
X95538536Y-82809474D01*
X95403894Y-82557576D01*
X95320981Y-82284250D01*
X95292985Y-82000000D01*
X95320981Y-81715750D01*
X95403894Y-81442424D01*
X95538536Y-81190526D01*
X95719735Y-80969735D01*
X95940526Y-80788536D01*
X96192424Y-80653894D01*
X96465750Y-80570981D01*
X96636170Y-80554196D01*
X96678774Y-80550000D01*
X97321226Y-80550000D01*
X97363830Y-80554196D01*
X97363830Y-80554196D01*
G37*
G36*
X105398497Y-81105997D02*
X105451153Y-81121970D01*
X105499665Y-81147900D01*
X105542196Y-81182804D01*
X105577100Y-81225335D01*
X105603030Y-81273847D01*
X105619003Y-81326503D01*
X105625000Y-81387390D01*
X105625000Y-82612610D01*
X105619003Y-82673497D01*
X105603030Y-82726153D01*
X105577100Y-82774665D01*
X105542196Y-82817196D01*
X105499665Y-82852100D01*
X105451153Y-82878030D01*
X105398497Y-82894003D01*
X105337610Y-82900000D01*
X104537390Y-82900000D01*
X104476503Y-82894003D01*
X104423847Y-82878030D01*
X104375335Y-82852100D01*
X104332804Y-82817196D01*
X104297900Y-82774665D01*
X104271970Y-82726153D01*
X104255997Y-82673497D01*
X104250000Y-82612610D01*
X104250000Y-81387390D01*
X104255997Y-81326503D01*
X104271970Y-81273847D01*
X104297900Y-81225335D01*
X104332804Y-81182804D01*
X104375335Y-81147900D01*
X104423847Y-81121970D01*
X104476503Y-81105997D01*
X104537390Y-81100000D01*
X105337610Y-81100000D01*
X105398497Y-81105997D01*
X105398497Y-81105997D01*
G37*
G36*
X103523497Y-81105997D02*
X103576153Y-81121970D01*
X103624665Y-81147900D01*
X103667196Y-81182804D01*
X103702100Y-81225335D01*
X103728030Y-81273847D01*
X103744003Y-81326503D01*
X103750000Y-81387390D01*
X103750000Y-82612610D01*
X103744003Y-82673497D01*
X103728030Y-82726153D01*
X103702100Y-82774665D01*
X103667196Y-82817196D01*
X103624665Y-82852100D01*
X103576153Y-82878030D01*
X103523497Y-82894003D01*
X103462610Y-82900000D01*
X102662390Y-82900000D01*
X102601503Y-82894003D01*
X102548847Y-82878030D01*
X102500335Y-82852100D01*
X102457804Y-82817196D01*
X102422900Y-82774665D01*
X102396970Y-82726153D01*
X102380997Y-82673497D01*
X102375000Y-82612610D01*
X102375000Y-81387390D01*
X102380997Y-81326503D01*
X102396970Y-81273847D01*
X102422900Y-81225335D01*
X102457804Y-81182804D01*
X102500335Y-81147900D01*
X102548847Y-81121970D01*
X102601503Y-81105997D01*
X102662390Y-81100000D01*
X103462610Y-81100000D01*
X103523497Y-81105997D01*
X103523497Y-81105997D01*
G37*
G36*
X108523497Y-79105997D02*
X108576153Y-79121970D01*
X108624665Y-79147900D01*
X108667196Y-79182804D01*
X108702100Y-79225335D01*
X108728030Y-79273847D01*
X108744003Y-79326503D01*
X108750000Y-79387390D01*
X108750000Y-80612610D01*
X108744003Y-80673497D01*
X108728030Y-80726153D01*
X108702100Y-80774665D01*
X108667196Y-80817196D01*
X108624665Y-80852100D01*
X108576153Y-80878030D01*
X108523497Y-80894003D01*
X108462610Y-80900000D01*
X107662390Y-80900000D01*
X107601503Y-80894003D01*
X107548847Y-80878030D01*
X107500335Y-80852100D01*
X107457804Y-80817196D01*
X107422900Y-80774665D01*
X107396970Y-80726153D01*
X107380997Y-80673497D01*
X107375000Y-80612610D01*
X107375000Y-79387390D01*
X107380997Y-79326503D01*
X107396970Y-79273847D01*
X107422900Y-79225335D01*
X107457804Y-79182804D01*
X107500335Y-79147900D01*
X107548847Y-79121970D01*
X107601503Y-79105997D01*
X107662390Y-79100000D01*
X108462610Y-79100000D01*
X108523497Y-79105997D01*
X108523497Y-79105997D01*
G37*
G36*
X110398497Y-79105997D02*
X110451153Y-79121970D01*
X110499665Y-79147900D01*
X110542196Y-79182804D01*
X110577100Y-79225335D01*
X110603030Y-79273847D01*
X110619003Y-79326503D01*
X110625000Y-79387390D01*
X110625000Y-80612610D01*
X110619003Y-80673497D01*
X110603030Y-80726153D01*
X110577100Y-80774665D01*
X110542196Y-80817196D01*
X110499665Y-80852100D01*
X110451153Y-80878030D01*
X110398497Y-80894003D01*
X110337610Y-80900000D01*
X109537390Y-80900000D01*
X109476503Y-80894003D01*
X109423847Y-80878030D01*
X109375335Y-80852100D01*
X109332804Y-80817196D01*
X109297900Y-80774665D01*
X109271970Y-80726153D01*
X109255997Y-80673497D01*
X109250000Y-80612610D01*
X109250000Y-79387390D01*
X109255997Y-79326503D01*
X109271970Y-79273847D01*
X109297900Y-79225335D01*
X109332804Y-79182804D01*
X109375335Y-79147900D01*
X109423847Y-79121970D01*
X109476503Y-79105997D01*
X109537390Y-79100000D01*
X110337610Y-79100000D01*
X110398497Y-79105997D01*
X110398497Y-79105997D01*
G37*
G36*
X103523497Y-78105997D02*
X103576153Y-78121970D01*
X103624665Y-78147900D01*
X103667196Y-78182804D01*
X103702100Y-78225335D01*
X103728030Y-78273847D01*
X103744003Y-78326503D01*
X103750000Y-78387390D01*
X103750000Y-79612610D01*
X103744003Y-79673497D01*
X103728030Y-79726153D01*
X103702100Y-79774665D01*
X103667196Y-79817196D01*
X103624665Y-79852100D01*
X103576153Y-79878030D01*
X103523497Y-79894003D01*
X103462610Y-79900000D01*
X102662390Y-79900000D01*
X102601503Y-79894003D01*
X102548847Y-79878030D01*
X102500335Y-79852100D01*
X102457804Y-79817196D01*
X102422900Y-79774665D01*
X102396970Y-79726153D01*
X102380997Y-79673497D01*
X102375000Y-79612610D01*
X102375000Y-78387390D01*
X102380997Y-78326503D01*
X102396970Y-78273847D01*
X102422900Y-78225335D01*
X102457804Y-78182804D01*
X102500335Y-78147900D01*
X102548847Y-78121970D01*
X102601503Y-78105997D01*
X102662390Y-78100000D01*
X103462610Y-78100000D01*
X103523497Y-78105997D01*
X103523497Y-78105997D01*
G37*
G36*
X105398497Y-78105997D02*
X105451153Y-78121970D01*
X105499665Y-78147900D01*
X105542196Y-78182804D01*
X105577100Y-78225335D01*
X105603030Y-78273847D01*
X105619003Y-78326503D01*
X105625000Y-78387390D01*
X105625000Y-79612610D01*
X105619003Y-79673497D01*
X105603030Y-79726153D01*
X105577100Y-79774665D01*
X105542196Y-79817196D01*
X105499665Y-79852100D01*
X105451153Y-79878030D01*
X105398497Y-79894003D01*
X105337610Y-79900000D01*
X104537390Y-79900000D01*
X104476503Y-79894003D01*
X104423847Y-79878030D01*
X104375335Y-79852100D01*
X104332804Y-79817196D01*
X104297900Y-79774665D01*
X104271970Y-79726153D01*
X104255997Y-79673497D01*
X104250000Y-79612610D01*
X104250000Y-78387390D01*
X104255997Y-78326503D01*
X104271970Y-78273847D01*
X104297900Y-78225335D01*
X104332804Y-78182804D01*
X104375335Y-78147900D01*
X104423847Y-78121970D01*
X104476503Y-78105997D01*
X104537390Y-78100000D01*
X105337610Y-78100000D01*
X105398497Y-78105997D01*
X105398497Y-78105997D01*
G37*
G36*
X97363830Y-75554196D02*
X97534250Y-75570981D01*
X97807576Y-75653894D01*
X98059474Y-75788536D01*
X98280265Y-75969735D01*
X98461464Y-76190526D01*
X98596106Y-76442424D01*
X98679019Y-76715750D01*
X98707015Y-77000000D01*
X98679019Y-77284250D01*
X98596106Y-77557576D01*
X98461464Y-77809474D01*
X98280265Y-78030265D01*
X98059474Y-78211464D01*
X97807576Y-78346106D01*
X97534250Y-78429019D01*
X97363830Y-78445804D01*
X97321226Y-78450000D01*
X96678774Y-78450000D01*
X96636170Y-78445804D01*
X96465750Y-78429019D01*
X96192424Y-78346106D01*
X95940526Y-78211464D01*
X95719735Y-78030265D01*
X95538536Y-77809474D01*
X95403894Y-77557576D01*
X95320981Y-77284250D01*
X95292985Y-77000000D01*
X95320981Y-76715750D01*
X95403894Y-76442424D01*
X95538536Y-76190526D01*
X95719735Y-75969735D01*
X95940526Y-75788536D01*
X96192424Y-75653894D01*
X96465750Y-75570981D01*
X96636170Y-75554196D01*
X96678774Y-75550000D01*
X97321226Y-75550000D01*
X97363830Y-75554196D01*
X97363830Y-75554196D01*
G37*
G36*
X110250000Y-77945000D02*
X108350000Y-77945000D01*
X108350000Y-76945000D01*
X110250000Y-76945000D01*
X110250000Y-77945000D01*
X110250000Y-77945000D01*
G37*
G36*
X115650000Y-77945000D02*
X113750000Y-77945000D01*
X113750000Y-76945000D01*
X115650000Y-76945000D01*
X115650000Y-77945000D01*
X115650000Y-77945000D01*
G37*
G36*
X118523497Y-75105997D02*
X118576153Y-75121970D01*
X118624665Y-75147900D01*
X118667196Y-75182804D01*
X118702100Y-75225335D01*
X118728030Y-75273847D01*
X118744003Y-75326503D01*
X118750000Y-75387390D01*
X118750000Y-76612610D01*
X118744003Y-76673497D01*
X118728030Y-76726153D01*
X118702100Y-76774665D01*
X118667196Y-76817196D01*
X118624665Y-76852100D01*
X118576153Y-76878030D01*
X118523497Y-76894003D01*
X118462610Y-76900000D01*
X117662390Y-76900000D01*
X117601503Y-76894003D01*
X117548847Y-76878030D01*
X117500335Y-76852100D01*
X117457804Y-76817196D01*
X117422900Y-76774665D01*
X117396970Y-76726153D01*
X117380997Y-76673497D01*
X117375000Y-76612610D01*
X117375000Y-75387390D01*
X117380997Y-75326503D01*
X117396970Y-75273847D01*
X117422900Y-75225335D01*
X117457804Y-75182804D01*
X117500335Y-75147900D01*
X117548847Y-75121970D01*
X117601503Y-75105997D01*
X117662390Y-75100000D01*
X118462610Y-75100000D01*
X118523497Y-75105997D01*
X118523497Y-75105997D01*
G37*
G36*
X120398497Y-75105997D02*
X120451153Y-75121970D01*
X120499665Y-75147900D01*
X120542196Y-75182804D01*
X120577100Y-75225335D01*
X120603030Y-75273847D01*
X120619003Y-75326503D01*
X120625000Y-75387390D01*
X120625000Y-76612610D01*
X120619003Y-76673497D01*
X120603030Y-76726153D01*
X120577100Y-76774665D01*
X120542196Y-76817196D01*
X120499665Y-76852100D01*
X120451153Y-76878030D01*
X120398497Y-76894003D01*
X120337610Y-76900000D01*
X119537390Y-76900000D01*
X119476503Y-76894003D01*
X119423847Y-76878030D01*
X119375335Y-76852100D01*
X119332804Y-76817196D01*
X119297900Y-76774665D01*
X119271970Y-76726153D01*
X119255997Y-76673497D01*
X119250000Y-76612610D01*
X119250000Y-75387390D01*
X119255997Y-75326503D01*
X119271970Y-75273847D01*
X119297900Y-75225335D01*
X119332804Y-75182804D01*
X119375335Y-75147900D01*
X119423847Y-75121970D01*
X119476503Y-75105997D01*
X119537390Y-75100000D01*
X120337610Y-75100000D01*
X120398497Y-75105997D01*
X120398497Y-75105997D01*
G37*
G36*
X105398497Y-75105997D02*
X105451153Y-75121970D01*
X105499665Y-75147900D01*
X105542196Y-75182804D01*
X105577100Y-75225335D01*
X105603030Y-75273847D01*
X105619003Y-75326503D01*
X105625000Y-75387390D01*
X105625000Y-76612610D01*
X105619003Y-76673497D01*
X105603030Y-76726153D01*
X105577100Y-76774665D01*
X105542196Y-76817196D01*
X105499665Y-76852100D01*
X105451153Y-76878030D01*
X105398497Y-76894003D01*
X105337610Y-76900000D01*
X104537390Y-76900000D01*
X104476503Y-76894003D01*
X104423847Y-76878030D01*
X104375335Y-76852100D01*
X104332804Y-76817196D01*
X104297900Y-76774665D01*
X104271970Y-76726153D01*
X104255997Y-76673497D01*
X104250000Y-76612610D01*
X104250000Y-75387390D01*
X104255997Y-75326503D01*
X104271970Y-75273847D01*
X104297900Y-75225335D01*
X104332804Y-75182804D01*
X104375335Y-75147900D01*
X104423847Y-75121970D01*
X104476503Y-75105997D01*
X104537390Y-75100000D01*
X105337610Y-75100000D01*
X105398497Y-75105997D01*
X105398497Y-75105997D01*
G37*
G36*
X103523497Y-75105997D02*
X103576153Y-75121970D01*
X103624665Y-75147900D01*
X103667196Y-75182804D01*
X103702100Y-75225335D01*
X103728030Y-75273847D01*
X103744003Y-75326503D01*
X103750000Y-75387390D01*
X103750000Y-76612610D01*
X103744003Y-76673497D01*
X103728030Y-76726153D01*
X103702100Y-76774665D01*
X103667196Y-76817196D01*
X103624665Y-76852100D01*
X103576153Y-76878030D01*
X103523497Y-76894003D01*
X103462610Y-76900000D01*
X102662390Y-76900000D01*
X102601503Y-76894003D01*
X102548847Y-76878030D01*
X102500335Y-76852100D01*
X102457804Y-76817196D01*
X102422900Y-76774665D01*
X102396970Y-76726153D01*
X102380997Y-76673497D01*
X102375000Y-76612610D01*
X102375000Y-75387390D01*
X102380997Y-75326503D01*
X102396970Y-75273847D01*
X102422900Y-75225335D01*
X102457804Y-75182804D01*
X102500335Y-75147900D01*
X102548847Y-75121970D01*
X102601503Y-75105997D01*
X102662390Y-75100000D01*
X103462610Y-75100000D01*
X103523497Y-75105997D01*
X103523497Y-75105997D01*
G37*
G36*
X110250000Y-76675000D02*
X108350000Y-76675000D01*
X108350000Y-75675000D01*
X110250000Y-75675000D01*
X110250000Y-76675000D01*
X110250000Y-76675000D01*
G37*
G36*
X115650000Y-76675000D02*
X113750000Y-76675000D01*
X113750000Y-75675000D01*
X115650000Y-75675000D01*
X115650000Y-76675000D01*
X115650000Y-76675000D01*
G37*
G36*
X115650000Y-75405000D02*
X113750000Y-75405000D01*
X113750000Y-74405000D01*
X115650000Y-74405000D01*
X115650000Y-75405000D01*
X115650000Y-75405000D01*
G37*
G36*
X110250000Y-75405000D02*
X108350000Y-75405000D01*
X108350000Y-74405000D01*
X110250000Y-74405000D01*
X110250000Y-75405000D01*
X110250000Y-75405000D01*
G37*
G36*
X115650000Y-74135000D02*
X113750000Y-74135000D01*
X113750000Y-73135000D01*
X115650000Y-73135000D01*
X115650000Y-74135000D01*
X115650000Y-74135000D01*
G37*
G36*
X110250000Y-74135000D02*
X108350000Y-74135000D01*
X108350000Y-73135000D01*
X110250000Y-73135000D01*
X110250000Y-74135000D01*
X110250000Y-74135000D01*
G37*
G36*
X118523497Y-72105997D02*
X118576153Y-72121970D01*
X118624665Y-72147900D01*
X118667196Y-72182804D01*
X118702100Y-72225335D01*
X118728030Y-72273847D01*
X118744003Y-72326503D01*
X118750000Y-72387390D01*
X118750000Y-73612610D01*
X118744003Y-73673497D01*
X118728030Y-73726153D01*
X118702100Y-73774665D01*
X118667196Y-73817196D01*
X118624665Y-73852100D01*
X118576153Y-73878030D01*
X118523497Y-73894003D01*
X118462610Y-73900000D01*
X117662390Y-73900000D01*
X117601503Y-73894003D01*
X117548847Y-73878030D01*
X117500335Y-73852100D01*
X117457804Y-73817196D01*
X117422900Y-73774665D01*
X117396970Y-73726153D01*
X117380997Y-73673497D01*
X117375000Y-73612610D01*
X117375000Y-72387390D01*
X117380997Y-72326503D01*
X117396970Y-72273847D01*
X117422900Y-72225335D01*
X117457804Y-72182804D01*
X117500335Y-72147900D01*
X117548847Y-72121970D01*
X117601503Y-72105997D01*
X117662390Y-72100000D01*
X118462610Y-72100000D01*
X118523497Y-72105997D01*
X118523497Y-72105997D01*
G37*
G36*
X120398497Y-72105997D02*
X120451153Y-72121970D01*
X120499665Y-72147900D01*
X120542196Y-72182804D01*
X120577100Y-72225335D01*
X120603030Y-72273847D01*
X120619003Y-72326503D01*
X120625000Y-72387390D01*
X120625000Y-73612610D01*
X120619003Y-73673497D01*
X120603030Y-73726153D01*
X120577100Y-73774665D01*
X120542196Y-73817196D01*
X120499665Y-73852100D01*
X120451153Y-73878030D01*
X120398497Y-73894003D01*
X120337610Y-73900000D01*
X119537390Y-73900000D01*
X119476503Y-73894003D01*
X119423847Y-73878030D01*
X119375335Y-73852100D01*
X119332804Y-73817196D01*
X119297900Y-73774665D01*
X119271970Y-73726153D01*
X119255997Y-73673497D01*
X119250000Y-73612610D01*
X119250000Y-72387390D01*
X119255997Y-72326503D01*
X119271970Y-72273847D01*
X119297900Y-72225335D01*
X119332804Y-72182804D01*
X119375335Y-72147900D01*
X119423847Y-72121970D01*
X119476503Y-72105997D01*
X119537390Y-72100000D01*
X120337610Y-72100000D01*
X120398497Y-72105997D01*
X120398497Y-72105997D01*
G37*
G36*
X105398497Y-72105997D02*
X105451153Y-72121970D01*
X105499665Y-72147900D01*
X105542196Y-72182804D01*
X105577100Y-72225335D01*
X105603030Y-72273847D01*
X105619003Y-72326503D01*
X105625000Y-72387390D01*
X105625000Y-73612610D01*
X105619003Y-73673497D01*
X105603030Y-73726153D01*
X105577100Y-73774665D01*
X105542196Y-73817196D01*
X105499665Y-73852100D01*
X105451153Y-73878030D01*
X105398497Y-73894003D01*
X105337610Y-73900000D01*
X104537390Y-73900000D01*
X104476503Y-73894003D01*
X104423847Y-73878030D01*
X104375335Y-73852100D01*
X104332804Y-73817196D01*
X104297900Y-73774665D01*
X104271970Y-73726153D01*
X104255997Y-73673497D01*
X104250000Y-73612610D01*
X104250000Y-72387390D01*
X104255997Y-72326503D01*
X104271970Y-72273847D01*
X104297900Y-72225335D01*
X104332804Y-72182804D01*
X104375335Y-72147900D01*
X104423847Y-72121970D01*
X104476503Y-72105997D01*
X104537390Y-72100000D01*
X105337610Y-72100000D01*
X105398497Y-72105997D01*
X105398497Y-72105997D01*
G37*
G36*
X103523497Y-72105997D02*
X103576153Y-72121970D01*
X103624665Y-72147900D01*
X103667196Y-72182804D01*
X103702100Y-72225335D01*
X103728030Y-72273847D01*
X103744003Y-72326503D01*
X103750000Y-72387390D01*
X103750000Y-73612610D01*
X103744003Y-73673497D01*
X103728030Y-73726153D01*
X103702100Y-73774665D01*
X103667196Y-73817196D01*
X103624665Y-73852100D01*
X103576153Y-73878030D01*
X103523497Y-73894003D01*
X103462610Y-73900000D01*
X102662390Y-73900000D01*
X102601503Y-73894003D01*
X102548847Y-73878030D01*
X102500335Y-73852100D01*
X102457804Y-73817196D01*
X102422900Y-73774665D01*
X102396970Y-73726153D01*
X102380997Y-73673497D01*
X102375000Y-73612610D01*
X102375000Y-72387390D01*
X102380997Y-72326503D01*
X102396970Y-72273847D01*
X102422900Y-72225335D01*
X102457804Y-72182804D01*
X102500335Y-72147900D01*
X102548847Y-72121970D01*
X102601503Y-72105997D01*
X102662390Y-72100000D01*
X103462610Y-72100000D01*
X103523497Y-72105997D01*
X103523497Y-72105997D01*
G37*
G36*
X115650000Y-72865000D02*
X113750000Y-72865000D01*
X113750000Y-71865000D01*
X115650000Y-71865000D01*
X115650000Y-72865000D01*
X115650000Y-72865000D01*
G37*
G36*
X110250000Y-72865000D02*
X108350000Y-72865000D01*
X108350000Y-71865000D01*
X110250000Y-71865000D01*
X110250000Y-72865000D01*
X110250000Y-72865000D01*
G37*
G36*
X115650000Y-71595000D02*
X113750000Y-71595000D01*
X113750000Y-70595000D01*
X115650000Y-70595000D01*
X115650000Y-71595000D01*
X115650000Y-71595000D01*
G37*
G36*
X110250000Y-71595000D02*
X108350000Y-71595000D01*
X108350000Y-70595000D01*
X110250000Y-70595000D01*
X110250000Y-71595000D01*
X110250000Y-71595000D01*
G37*
G36*
X120398497Y-69105997D02*
X120451153Y-69121970D01*
X120499665Y-69147900D01*
X120542196Y-69182804D01*
X120577100Y-69225335D01*
X120603030Y-69273847D01*
X120619003Y-69326503D01*
X120625000Y-69387390D01*
X120625000Y-70612610D01*
X120619003Y-70673497D01*
X120603030Y-70726153D01*
X120577100Y-70774665D01*
X120542196Y-70817196D01*
X120499665Y-70852100D01*
X120451153Y-70878030D01*
X120398497Y-70894003D01*
X120337610Y-70900000D01*
X119537390Y-70900000D01*
X119476503Y-70894003D01*
X119423847Y-70878030D01*
X119375335Y-70852100D01*
X119332804Y-70817196D01*
X119297900Y-70774665D01*
X119271970Y-70726153D01*
X119255997Y-70673497D01*
X119250000Y-70612610D01*
X119250000Y-69387390D01*
X119255997Y-69326503D01*
X119271970Y-69273847D01*
X119297900Y-69225335D01*
X119332804Y-69182804D01*
X119375335Y-69147900D01*
X119423847Y-69121970D01*
X119476503Y-69105997D01*
X119537390Y-69100000D01*
X120337610Y-69100000D01*
X120398497Y-69105997D01*
X120398497Y-69105997D01*
G37*
G36*
X118523497Y-69105997D02*
X118576153Y-69121970D01*
X118624665Y-69147900D01*
X118667196Y-69182804D01*
X118702100Y-69225335D01*
X118728030Y-69273847D01*
X118744003Y-69326503D01*
X118750000Y-69387390D01*
X118750000Y-70612610D01*
X118744003Y-70673497D01*
X118728030Y-70726153D01*
X118702100Y-70774665D01*
X118667196Y-70817196D01*
X118624665Y-70852100D01*
X118576153Y-70878030D01*
X118523497Y-70894003D01*
X118462610Y-70900000D01*
X117662390Y-70900000D01*
X117601503Y-70894003D01*
X117548847Y-70878030D01*
X117500335Y-70852100D01*
X117457804Y-70817196D01*
X117422900Y-70774665D01*
X117396970Y-70726153D01*
X117380997Y-70673497D01*
X117375000Y-70612610D01*
X117375000Y-69387390D01*
X117380997Y-69326503D01*
X117396970Y-69273847D01*
X117422900Y-69225335D01*
X117457804Y-69182804D01*
X117500335Y-69147900D01*
X117548847Y-69121970D01*
X117601503Y-69105997D01*
X117662390Y-69100000D01*
X118462610Y-69100000D01*
X118523497Y-69105997D01*
X118523497Y-69105997D01*
G37*
G36*
X105398497Y-69105997D02*
X105451153Y-69121970D01*
X105499665Y-69147900D01*
X105542196Y-69182804D01*
X105577100Y-69225335D01*
X105603030Y-69273847D01*
X105619003Y-69326503D01*
X105625000Y-69387390D01*
X105625000Y-70612610D01*
X105619003Y-70673497D01*
X105603030Y-70726153D01*
X105577100Y-70774665D01*
X105542196Y-70817196D01*
X105499665Y-70852100D01*
X105451153Y-70878030D01*
X105398497Y-70894003D01*
X105337610Y-70900000D01*
X104537390Y-70900000D01*
X104476503Y-70894003D01*
X104423847Y-70878030D01*
X104375335Y-70852100D01*
X104332804Y-70817196D01*
X104297900Y-70774665D01*
X104271970Y-70726153D01*
X104255997Y-70673497D01*
X104250000Y-70612610D01*
X104250000Y-69387390D01*
X104255997Y-69326503D01*
X104271970Y-69273847D01*
X104297900Y-69225335D01*
X104332804Y-69182804D01*
X104375335Y-69147900D01*
X104423847Y-69121970D01*
X104476503Y-69105997D01*
X104537390Y-69100000D01*
X105337610Y-69100000D01*
X105398497Y-69105997D01*
X105398497Y-69105997D01*
G37*
G36*
X103523497Y-69105997D02*
X103576153Y-69121970D01*
X103624665Y-69147900D01*
X103667196Y-69182804D01*
X103702100Y-69225335D01*
X103728030Y-69273847D01*
X103744003Y-69326503D01*
X103750000Y-69387390D01*
X103750000Y-70612610D01*
X103744003Y-70673497D01*
X103728030Y-70726153D01*
X103702100Y-70774665D01*
X103667196Y-70817196D01*
X103624665Y-70852100D01*
X103576153Y-70878030D01*
X103523497Y-70894003D01*
X103462610Y-70900000D01*
X102662390Y-70900000D01*
X102601503Y-70894003D01*
X102548847Y-70878030D01*
X102500335Y-70852100D01*
X102457804Y-70817196D01*
X102422900Y-70774665D01*
X102396970Y-70726153D01*
X102380997Y-70673497D01*
X102375000Y-70612610D01*
X102375000Y-69387390D01*
X102380997Y-69326503D01*
X102396970Y-69273847D01*
X102422900Y-69225335D01*
X102457804Y-69182804D01*
X102500335Y-69147900D01*
X102548847Y-69121970D01*
X102601503Y-69105997D01*
X102662390Y-69100000D01*
X103462610Y-69100000D01*
X103523497Y-69105997D01*
X103523497Y-69105997D01*
G37*
G36*
X110250000Y-70325000D02*
X108350000Y-70325000D01*
X108350000Y-69325000D01*
X110250000Y-69325000D01*
X110250000Y-70325000D01*
X110250000Y-70325000D01*
G37*
G36*
X115650000Y-70325000D02*
X113750000Y-70325000D01*
X113750000Y-69325000D01*
X115650000Y-69325000D01*
X115650000Y-70325000D01*
X115650000Y-70325000D01*
G37*
G36*
X115650000Y-69055000D02*
X113750000Y-69055000D01*
X113750000Y-68055000D01*
X115650000Y-68055000D01*
X115650000Y-69055000D01*
X115650000Y-69055000D01*
G37*
G36*
X110250000Y-69055000D02*
X108350000Y-69055000D01*
X108350000Y-68055000D01*
X110250000Y-68055000D01*
X110250000Y-69055000D01*
X110250000Y-69055000D01*
G37*
G36*
X105398497Y-66105997D02*
X105451153Y-66121970D01*
X105499665Y-66147900D01*
X105542196Y-66182804D01*
X105577100Y-66225335D01*
X105603030Y-66273847D01*
X105619003Y-66326503D01*
X105625000Y-66387390D01*
X105625000Y-67612610D01*
X105619003Y-67673497D01*
X105603030Y-67726153D01*
X105577100Y-67774665D01*
X105542196Y-67817196D01*
X105499665Y-67852100D01*
X105451153Y-67878030D01*
X105398497Y-67894003D01*
X105337610Y-67900000D01*
X104537390Y-67900000D01*
X104476503Y-67894003D01*
X104423847Y-67878030D01*
X104375335Y-67852100D01*
X104332804Y-67817196D01*
X104297900Y-67774665D01*
X104271970Y-67726153D01*
X104255997Y-67673497D01*
X104250000Y-67612610D01*
X104250000Y-66387390D01*
X104255997Y-66326503D01*
X104271970Y-66273847D01*
X104297900Y-66225335D01*
X104332804Y-66182804D01*
X104375335Y-66147900D01*
X104423847Y-66121970D01*
X104476503Y-66105997D01*
X104537390Y-66100000D01*
X105337610Y-66100000D01*
X105398497Y-66105997D01*
X105398497Y-66105997D01*
G37*
G36*
X103523497Y-66105997D02*
X103576153Y-66121970D01*
X103624665Y-66147900D01*
X103667196Y-66182804D01*
X103702100Y-66225335D01*
X103728030Y-66273847D01*
X103744003Y-66326503D01*
X103750000Y-66387390D01*
X103750000Y-67612610D01*
X103744003Y-67673497D01*
X103728030Y-67726153D01*
X103702100Y-67774665D01*
X103667196Y-67817196D01*
X103624665Y-67852100D01*
X103576153Y-67878030D01*
X103523497Y-67894003D01*
X103462610Y-67900000D01*
X102662390Y-67900000D01*
X102601503Y-67894003D01*
X102548847Y-67878030D01*
X102500335Y-67852100D01*
X102457804Y-67817196D01*
X102422900Y-67774665D01*
X102396970Y-67726153D01*
X102380997Y-67673497D01*
X102375000Y-67612610D01*
X102375000Y-66387390D01*
X102380997Y-66326503D01*
X102396970Y-66273847D01*
X102422900Y-66225335D01*
X102457804Y-66182804D01*
X102500335Y-66147900D01*
X102548847Y-66121970D01*
X102601503Y-66105997D01*
X102662390Y-66100000D01*
X103462610Y-66100000D01*
X103523497Y-66105997D01*
X103523497Y-66105997D01*
G37*
G36*
X95208503Y-64951789D02*
X95408991Y-65012607D01*
X95593764Y-65111369D01*
X95755718Y-65244282D01*
X95888631Y-65406236D01*
X95987393Y-65591009D01*
X96048211Y-65791497D01*
X96068746Y-66000000D01*
X96048211Y-66208503D01*
X95987393Y-66408991D01*
X95888631Y-66593764D01*
X95755718Y-66755718D01*
X95593764Y-66888631D01*
X95408991Y-66987393D01*
X95208503Y-67048211D01*
X95052251Y-67063600D01*
X94947749Y-67063600D01*
X94791497Y-67048211D01*
X94591009Y-66987393D01*
X94406236Y-66888631D01*
X94244282Y-66755718D01*
X94111369Y-66593764D01*
X94012607Y-66408991D01*
X93951789Y-66208503D01*
X93931254Y-66000000D01*
X93951789Y-65791497D01*
X94012607Y-65591009D01*
X94111369Y-65406236D01*
X94244282Y-65244282D01*
X94406236Y-65111369D01*
X94591009Y-65012607D01*
X94791497Y-64951789D01*
X94947749Y-64936400D01*
X95052251Y-64936400D01*
X95208503Y-64951789D01*
X95208503Y-64951789D01*
G37*
G36*
X97748503Y-64951789D02*
X97948991Y-65012607D01*
X98133764Y-65111369D01*
X98295718Y-65244282D01*
X98428631Y-65406236D01*
X98527393Y-65591009D01*
X98588211Y-65791497D01*
X98608746Y-66000000D01*
X98588211Y-66208503D01*
X98527393Y-66408991D01*
X98428631Y-66593764D01*
X98295718Y-66755718D01*
X98133764Y-66888631D01*
X97948991Y-66987393D01*
X97748503Y-67048211D01*
X97592251Y-67063600D01*
X97487749Y-67063600D01*
X97331497Y-67048211D01*
X97131009Y-66987393D01*
X96946236Y-66888631D01*
X96784282Y-66755718D01*
X96651369Y-66593764D01*
X96552607Y-66408991D01*
X96491789Y-66208503D01*
X96471254Y-66000000D01*
X96491789Y-65791497D01*
X96552607Y-65591009D01*
X96651369Y-65406236D01*
X96784282Y-65244282D01*
X96946236Y-65111369D01*
X97131009Y-65012607D01*
X97331497Y-64951789D01*
X97487749Y-64936400D01*
X97592251Y-64936400D01*
X97748503Y-64951789D01*
X97748503Y-64951789D01*
G37*
G36*
X110398497Y-65105997D02*
X110451153Y-65121970D01*
X110499665Y-65147900D01*
X110542196Y-65182804D01*
X110577100Y-65225335D01*
X110603030Y-65273847D01*
X110619003Y-65326503D01*
X110625000Y-65387390D01*
X110625000Y-66612610D01*
X110619003Y-66673497D01*
X110603030Y-66726153D01*
X110577100Y-66774665D01*
X110542196Y-66817196D01*
X110499665Y-66852100D01*
X110451153Y-66878030D01*
X110398497Y-66894003D01*
X110337610Y-66900000D01*
X109537390Y-66900000D01*
X109476503Y-66894003D01*
X109423847Y-66878030D01*
X109375335Y-66852100D01*
X109332804Y-66817196D01*
X109297900Y-66774665D01*
X109271970Y-66726153D01*
X109255997Y-66673497D01*
X109250000Y-66612610D01*
X109250000Y-65387390D01*
X109255997Y-65326503D01*
X109271970Y-65273847D01*
X109297900Y-65225335D01*
X109332804Y-65182804D01*
X109375335Y-65147900D01*
X109423847Y-65121970D01*
X109476503Y-65105997D01*
X109537390Y-65100000D01*
X110337610Y-65100000D01*
X110398497Y-65105997D01*
X110398497Y-65105997D01*
G37*
G36*
X108523497Y-65105997D02*
X108576153Y-65121970D01*
X108624665Y-65147900D01*
X108667196Y-65182804D01*
X108702100Y-65225335D01*
X108728030Y-65273847D01*
X108744003Y-65326503D01*
X108750000Y-65387390D01*
X108750000Y-66612610D01*
X108744003Y-66673497D01*
X108728030Y-66726153D01*
X108702100Y-66774665D01*
X108667196Y-66817196D01*
X108624665Y-66852100D01*
X108576153Y-66878030D01*
X108523497Y-66894003D01*
X108462610Y-66900000D01*
X107662390Y-66900000D01*
X107601503Y-66894003D01*
X107548847Y-66878030D01*
X107500335Y-66852100D01*
X107457804Y-66817196D01*
X107422900Y-66774665D01*
X107396970Y-66726153D01*
X107380997Y-66673497D01*
X107375000Y-66612610D01*
X107375000Y-65387390D01*
X107380997Y-65326503D01*
X107396970Y-65273847D01*
X107422900Y-65225335D01*
X107457804Y-65182804D01*
X107500335Y-65147900D01*
X107548847Y-65121970D01*
X107601503Y-65105997D01*
X107662390Y-65100000D01*
X108462610Y-65100000D01*
X108523497Y-65105997D01*
X108523497Y-65105997D01*
G37*
G36*
X105398497Y-63105997D02*
X105451153Y-63121970D01*
X105499665Y-63147900D01*
X105542196Y-63182804D01*
X105577100Y-63225335D01*
X105603030Y-63273847D01*
X105619003Y-63326503D01*
X105625000Y-63387390D01*
X105625000Y-64612610D01*
X105619003Y-64673497D01*
X105603030Y-64726153D01*
X105577100Y-64774665D01*
X105542196Y-64817196D01*
X105499665Y-64852100D01*
X105451153Y-64878030D01*
X105398497Y-64894003D01*
X105337610Y-64900000D01*
X104537390Y-64900000D01*
X104476503Y-64894003D01*
X104423847Y-64878030D01*
X104375335Y-64852100D01*
X104332804Y-64817196D01*
X104297900Y-64774665D01*
X104271970Y-64726153D01*
X104255997Y-64673497D01*
X104250000Y-64612610D01*
X104250000Y-63387390D01*
X104255997Y-63326503D01*
X104271970Y-63273847D01*
X104297900Y-63225335D01*
X104332804Y-63182804D01*
X104375335Y-63147900D01*
X104423847Y-63121970D01*
X104476503Y-63105997D01*
X104537390Y-63100000D01*
X105337610Y-63100000D01*
X105398497Y-63105997D01*
X105398497Y-63105997D01*
G37*
G36*
X103523497Y-63105997D02*
X103576153Y-63121970D01*
X103624665Y-63147900D01*
X103667196Y-63182804D01*
X103702100Y-63225335D01*
X103728030Y-63273847D01*
X103744003Y-63326503D01*
X103750000Y-63387390D01*
X103750000Y-64612610D01*
X103744003Y-64673497D01*
X103728030Y-64726153D01*
X103702100Y-64774665D01*
X103667196Y-64817196D01*
X103624665Y-64852100D01*
X103576153Y-64878030D01*
X103523497Y-64894003D01*
X103462610Y-64900000D01*
X102662390Y-64900000D01*
X102601503Y-64894003D01*
X102548847Y-64878030D01*
X102500335Y-64852100D01*
X102457804Y-64817196D01*
X102422900Y-64774665D01*
X102396970Y-64726153D01*
X102380997Y-64673497D01*
X102375000Y-64612610D01*
X102375000Y-63387390D01*
X102380997Y-63326503D01*
X102396970Y-63273847D01*
X102422900Y-63225335D01*
X102457804Y-63182804D01*
X102500335Y-63147900D01*
X102548847Y-63121970D01*
X102601503Y-63105997D01*
X102662390Y-63100000D01*
X103462610Y-63100000D01*
X103523497Y-63105997D01*
X103523497Y-63105997D01*
G37*
G36*
X95208503Y-62411789D02*
X95408991Y-62472607D01*
X95593764Y-62571369D01*
X95755718Y-62704282D01*
X95888631Y-62866236D01*
X95987393Y-63051009D01*
X96048211Y-63251497D01*
X96068746Y-63460000D01*
X96048211Y-63668503D01*
X95987393Y-63868991D01*
X95888631Y-64053764D01*
X95755718Y-64215718D01*
X95593764Y-64348631D01*
X95408991Y-64447393D01*
X95208503Y-64508211D01*
X95052251Y-64523600D01*
X94947749Y-64523600D01*
X94791497Y-64508211D01*
X94591009Y-64447393D01*
X94406236Y-64348631D01*
X94244282Y-64215718D01*
X94111369Y-64053764D01*
X94012607Y-63868991D01*
X93951789Y-63668503D01*
X93931254Y-63460000D01*
X93951789Y-63251497D01*
X94012607Y-63051009D01*
X94111369Y-62866236D01*
X94244282Y-62704282D01*
X94406236Y-62571369D01*
X94591009Y-62472607D01*
X94791497Y-62411789D01*
X94947749Y-62396400D01*
X95052251Y-62396400D01*
X95208503Y-62411789D01*
X95208503Y-62411789D01*
G37*
G36*
X97748503Y-62411789D02*
X97948991Y-62472607D01*
X98133764Y-62571369D01*
X98295718Y-62704282D01*
X98428631Y-62866236D01*
X98527393Y-63051009D01*
X98588211Y-63251497D01*
X98608746Y-63460000D01*
X98588211Y-63668503D01*
X98527393Y-63868991D01*
X98428631Y-64053764D01*
X98295718Y-64215718D01*
X98133764Y-64348631D01*
X97948991Y-64447393D01*
X97748503Y-64508211D01*
X97592251Y-64523600D01*
X97487749Y-64523600D01*
X97331497Y-64508211D01*
X97131009Y-64447393D01*
X96946236Y-64348631D01*
X96784282Y-64215718D01*
X96651369Y-64053764D01*
X96552607Y-63868991D01*
X96491789Y-63668503D01*
X96471254Y-63460000D01*
X96491789Y-63251497D01*
X96552607Y-63051009D01*
X96651369Y-62866236D01*
X96784282Y-62704282D01*
X96946236Y-62571369D01*
X97131009Y-62472607D01*
X97331497Y-62411789D01*
X97487749Y-62396400D01*
X97592251Y-62396400D01*
X97748503Y-62411789D01*
X97748503Y-62411789D01*
G37*
G36*
X110398497Y-62105997D02*
X110451153Y-62121970D01*
X110499665Y-62147900D01*
X110542196Y-62182804D01*
X110577100Y-62225335D01*
X110603030Y-62273847D01*
X110619003Y-62326503D01*
X110625000Y-62387390D01*
X110625000Y-63612610D01*
X110619003Y-63673497D01*
X110603030Y-63726153D01*
X110577100Y-63774665D01*
X110542196Y-63817196D01*
X110499665Y-63852100D01*
X110451153Y-63878030D01*
X110398497Y-63894003D01*
X110337610Y-63900000D01*
X109537390Y-63900000D01*
X109476503Y-63894003D01*
X109423847Y-63878030D01*
X109375335Y-63852100D01*
X109332804Y-63817196D01*
X109297900Y-63774665D01*
X109271970Y-63726153D01*
X109255997Y-63673497D01*
X109250000Y-63612610D01*
X109250000Y-62387390D01*
X109255997Y-62326503D01*
X109271970Y-62273847D01*
X109297900Y-62225335D01*
X109332804Y-62182804D01*
X109375335Y-62147900D01*
X109423847Y-62121970D01*
X109476503Y-62105997D01*
X109537390Y-62100000D01*
X110337610Y-62100000D01*
X110398497Y-62105997D01*
X110398497Y-62105997D01*
G37*
G36*
X108523497Y-62105997D02*
X108576153Y-62121970D01*
X108624665Y-62147900D01*
X108667196Y-62182804D01*
X108702100Y-62225335D01*
X108728030Y-62273847D01*
X108744003Y-62326503D01*
X108750000Y-62387390D01*
X108750000Y-63612610D01*
X108744003Y-63673497D01*
X108728030Y-63726153D01*
X108702100Y-63774665D01*
X108667196Y-63817196D01*
X108624665Y-63852100D01*
X108576153Y-63878030D01*
X108523497Y-63894003D01*
X108462610Y-63900000D01*
X107662390Y-63900000D01*
X107601503Y-63894003D01*
X107548847Y-63878030D01*
X107500335Y-63852100D01*
X107457804Y-63817196D01*
X107422900Y-63774665D01*
X107396970Y-63726153D01*
X107380997Y-63673497D01*
X107375000Y-63612610D01*
X107375000Y-62387390D01*
X107380997Y-62326503D01*
X107396970Y-62273847D01*
X107422900Y-62225335D01*
X107457804Y-62182804D01*
X107500335Y-62147900D01*
X107548847Y-62121970D01*
X107601503Y-62105997D01*
X107662390Y-62100000D01*
X108462610Y-62100000D01*
X108523497Y-62105997D01*
X108523497Y-62105997D01*
G37*
G36*
X115674379Y-60554244D02*
X115709910Y-60565022D01*
X115742655Y-60582524D01*
X115771355Y-60606077D01*
X115794908Y-60634777D01*
X115812410Y-60667522D01*
X115823188Y-60703053D01*
X115827432Y-60746141D01*
X115827432Y-63253859D01*
X115823188Y-63296947D01*
X115812410Y-63332478D01*
X115794908Y-63365223D01*
X115771355Y-63393923D01*
X115742655Y-63417476D01*
X115709910Y-63434978D01*
X115674379Y-63445756D01*
X115631291Y-63450000D01*
X112123573Y-63450000D01*
X112080485Y-63445756D01*
X112044954Y-63434978D01*
X112012209Y-63417476D01*
X111983509Y-63393923D01*
X111959956Y-63365223D01*
X111942454Y-63332478D01*
X111931676Y-63296947D01*
X111927432Y-63253859D01*
X111927432Y-60746141D01*
X111931676Y-60703053D01*
X111942454Y-60667522D01*
X111959956Y-60634777D01*
X111983509Y-60606077D01*
X112012209Y-60582524D01*
X112044954Y-60565022D01*
X112080485Y-60554244D01*
X112123573Y-60550000D01*
X115631291Y-60550000D01*
X115674379Y-60554244D01*
X115674379Y-60554244D01*
G37*
G36*
X122174379Y-60554244D02*
X122209910Y-60565022D01*
X122242655Y-60582524D01*
X122271355Y-60606077D01*
X122294908Y-60634777D01*
X122312410Y-60667522D01*
X122323188Y-60703053D01*
X122327432Y-60746141D01*
X122327432Y-63253859D01*
X122323188Y-63296947D01*
X122312410Y-63332478D01*
X122294908Y-63365223D01*
X122271355Y-63393923D01*
X122242655Y-63417476D01*
X122209910Y-63434978D01*
X122174379Y-63445756D01*
X122131291Y-63450000D01*
X118623573Y-63450000D01*
X118580485Y-63445756D01*
X118544954Y-63434978D01*
X118512209Y-63417476D01*
X118483509Y-63393923D01*
X118459956Y-63365223D01*
X118442454Y-63332478D01*
X118431676Y-63296947D01*
X118427432Y-63253859D01*
X118427432Y-60746141D01*
X118431676Y-60703053D01*
X118442454Y-60667522D01*
X118459956Y-60634777D01*
X118483509Y-60606077D01*
X118512209Y-60582524D01*
X118544954Y-60565022D01*
X118580485Y-60554244D01*
X118623573Y-60550000D01*
X122131291Y-60550000D01*
X122174379Y-60554244D01*
X122174379Y-60554244D01*
G37*
G36*
X97748503Y-59871789D02*
X97948991Y-59932607D01*
X98133764Y-60031369D01*
X98295718Y-60164282D01*
X98428631Y-60326236D01*
X98527393Y-60511009D01*
X98588211Y-60711497D01*
X98608746Y-60920000D01*
X98588211Y-61128503D01*
X98527393Y-61328991D01*
X98428631Y-61513764D01*
X98295718Y-61675718D01*
X98133764Y-61808631D01*
X97948991Y-61907393D01*
X97748503Y-61968211D01*
X97592251Y-61983600D01*
X97487749Y-61983600D01*
X97331497Y-61968211D01*
X97131009Y-61907393D01*
X96946236Y-61808631D01*
X96784282Y-61675718D01*
X96651369Y-61513764D01*
X96552607Y-61328991D01*
X96491789Y-61128503D01*
X96471254Y-60920000D01*
X96491789Y-60711497D01*
X96552607Y-60511009D01*
X96651369Y-60326236D01*
X96784282Y-60164282D01*
X96946236Y-60031369D01*
X97131009Y-59932607D01*
X97331497Y-59871789D01*
X97487749Y-59856400D01*
X97592251Y-59856400D01*
X97748503Y-59871789D01*
X97748503Y-59871789D01*
G37*
G36*
X96063600Y-61983600D02*
X93936400Y-61983600D01*
X93936400Y-59856400D01*
X96063600Y-59856400D01*
X96063600Y-61983600D01*
X96063600Y-61983600D01*
G37*
G36*
X103523497Y-60105997D02*
X103576153Y-60121970D01*
X103624665Y-60147900D01*
X103667196Y-60182804D01*
X103702100Y-60225335D01*
X103728030Y-60273847D01*
X103744003Y-60326503D01*
X103750000Y-60387390D01*
X103750000Y-61612610D01*
X103744003Y-61673497D01*
X103728030Y-61726153D01*
X103702100Y-61774665D01*
X103667196Y-61817196D01*
X103624665Y-61852100D01*
X103576153Y-61878030D01*
X103523497Y-61894003D01*
X103462610Y-61900000D01*
X102662390Y-61900000D01*
X102601503Y-61894003D01*
X102548847Y-61878030D01*
X102500335Y-61852100D01*
X102457804Y-61817196D01*
X102422900Y-61774665D01*
X102396970Y-61726153D01*
X102380997Y-61673497D01*
X102375000Y-61612610D01*
X102375000Y-60387390D01*
X102380997Y-60326503D01*
X102396970Y-60273847D01*
X102422900Y-60225335D01*
X102457804Y-60182804D01*
X102500335Y-60147900D01*
X102548847Y-60121970D01*
X102601503Y-60105997D01*
X102662390Y-60100000D01*
X103462610Y-60100000D01*
X103523497Y-60105997D01*
X103523497Y-60105997D01*
G37*
G36*
X105398497Y-60105997D02*
X105451153Y-60121970D01*
X105499665Y-60147900D01*
X105542196Y-60182804D01*
X105577100Y-60225335D01*
X105603030Y-60273847D01*
X105619003Y-60326503D01*
X105625000Y-60387390D01*
X105625000Y-61612610D01*
X105619003Y-61673497D01*
X105603030Y-61726153D01*
X105577100Y-61774665D01*
X105542196Y-61817196D01*
X105499665Y-61852100D01*
X105451153Y-61878030D01*
X105398497Y-61894003D01*
X105337610Y-61900000D01*
X104537390Y-61900000D01*
X104476503Y-61894003D01*
X104423847Y-61878030D01*
X104375335Y-61852100D01*
X104332804Y-61817196D01*
X104297900Y-61774665D01*
X104271970Y-61726153D01*
X104255997Y-61673497D01*
X104250000Y-61612610D01*
X104250000Y-60387390D01*
X104255997Y-60326503D01*
X104271970Y-60273847D01*
X104297900Y-60225335D01*
X104332804Y-60182804D01*
X104375335Y-60147900D01*
X104423847Y-60121970D01*
X104476503Y-60105997D01*
X104537390Y-60100000D01*
X105337610Y-60100000D01*
X105398497Y-60105997D01*
X105398497Y-60105997D01*
G37*
G36*
X103173497Y-57255997D02*
X103226153Y-57271970D01*
X103274665Y-57297900D01*
X103317196Y-57332804D01*
X103352100Y-57375335D01*
X103378030Y-57423847D01*
X103394003Y-57476503D01*
X103400000Y-57537390D01*
X103400000Y-58337610D01*
X103394003Y-58398497D01*
X103378030Y-58451153D01*
X103352100Y-58499665D01*
X103317196Y-58542196D01*
X103274665Y-58577100D01*
X103226153Y-58603030D01*
X103173497Y-58619003D01*
X103112610Y-58625000D01*
X101887390Y-58625000D01*
X101826503Y-58619003D01*
X101773847Y-58603030D01*
X101725335Y-58577100D01*
X101682804Y-58542196D01*
X101647900Y-58499665D01*
X101621970Y-58451153D01*
X101605997Y-58398497D01*
X101600000Y-58337610D01*
X101600000Y-57537390D01*
X101605997Y-57476503D01*
X101621970Y-57423847D01*
X101647900Y-57375335D01*
X101682804Y-57332804D01*
X101725335Y-57297900D01*
X101773847Y-57271970D01*
X101826503Y-57255997D01*
X101887390Y-57250000D01*
X103112610Y-57250000D01*
X103173497Y-57255997D01*
X103173497Y-57255997D01*
G37*
G36*
X108673497Y-57255997D02*
X108726153Y-57271970D01*
X108774665Y-57297900D01*
X108817196Y-57332804D01*
X108852100Y-57375335D01*
X108878030Y-57423847D01*
X108894003Y-57476503D01*
X108900000Y-57537390D01*
X108900000Y-58337610D01*
X108894003Y-58398497D01*
X108878030Y-58451153D01*
X108852100Y-58499665D01*
X108817196Y-58542196D01*
X108774665Y-58577100D01*
X108726153Y-58603030D01*
X108673497Y-58619003D01*
X108612610Y-58625000D01*
X107387390Y-58625000D01*
X107326503Y-58619003D01*
X107273847Y-58603030D01*
X107225335Y-58577100D01*
X107182804Y-58542196D01*
X107147900Y-58499665D01*
X107121970Y-58451153D01*
X107105997Y-58398497D01*
X107100000Y-58337610D01*
X107100000Y-57537390D01*
X107105997Y-57476503D01*
X107121970Y-57423847D01*
X107147900Y-57375335D01*
X107182804Y-57332804D01*
X107225335Y-57297900D01*
X107273847Y-57271970D01*
X107326503Y-57255997D01*
X107387390Y-57250000D01*
X108612610Y-57250000D01*
X108673497Y-57255997D01*
X108673497Y-57255997D01*
G37*
G36*
X105673497Y-57255997D02*
X105726153Y-57271970D01*
X105774665Y-57297900D01*
X105817196Y-57332804D01*
X105852100Y-57375335D01*
X105878030Y-57423847D01*
X105894003Y-57476503D01*
X105900000Y-57537390D01*
X105900000Y-58337610D01*
X105894003Y-58398497D01*
X105878030Y-58451153D01*
X105852100Y-58499665D01*
X105817196Y-58542196D01*
X105774665Y-58577100D01*
X105726153Y-58603030D01*
X105673497Y-58619003D01*
X105612610Y-58625000D01*
X104387390Y-58625000D01*
X104326503Y-58619003D01*
X104273847Y-58603030D01*
X104225335Y-58577100D01*
X104182804Y-58542196D01*
X104147900Y-58499665D01*
X104121970Y-58451153D01*
X104105997Y-58398497D01*
X104100000Y-58337610D01*
X104100000Y-57537390D01*
X104105997Y-57476503D01*
X104121970Y-57423847D01*
X104147900Y-57375335D01*
X104182804Y-57332804D01*
X104225335Y-57297900D01*
X104273847Y-57271970D01*
X104326503Y-57255997D01*
X104387390Y-57250000D01*
X105612610Y-57250000D01*
X105673497Y-57255997D01*
X105673497Y-57255997D01*
G37*
G36*
X103173497Y-55380997D02*
X103226153Y-55396970D01*
X103274665Y-55422900D01*
X103317196Y-55457804D01*
X103352100Y-55500335D01*
X103378030Y-55548847D01*
X103394003Y-55601503D01*
X103400000Y-55662390D01*
X103400000Y-56462610D01*
X103394003Y-56523497D01*
X103378030Y-56576153D01*
X103352100Y-56624665D01*
X103317196Y-56667196D01*
X103274665Y-56702100D01*
X103226153Y-56728030D01*
X103173497Y-56744003D01*
X103112610Y-56750000D01*
X101887390Y-56750000D01*
X101826503Y-56744003D01*
X101773847Y-56728030D01*
X101725335Y-56702100D01*
X101682804Y-56667196D01*
X101647900Y-56624665D01*
X101621970Y-56576153D01*
X101605997Y-56523497D01*
X101600000Y-56462610D01*
X101600000Y-55662390D01*
X101605997Y-55601503D01*
X101621970Y-55548847D01*
X101647900Y-55500335D01*
X101682804Y-55457804D01*
X101725335Y-55422900D01*
X101773847Y-55396970D01*
X101826503Y-55380997D01*
X101887390Y-55375000D01*
X103112610Y-55375000D01*
X103173497Y-55380997D01*
X103173497Y-55380997D01*
G37*
G36*
X105673497Y-55380997D02*
X105726153Y-55396970D01*
X105774665Y-55422900D01*
X105817196Y-55457804D01*
X105852100Y-55500335D01*
X105878030Y-55548847D01*
X105894003Y-55601503D01*
X105900000Y-55662390D01*
X105900000Y-56462610D01*
X105894003Y-56523497D01*
X105878030Y-56576153D01*
X105852100Y-56624665D01*
X105817196Y-56667196D01*
X105774665Y-56702100D01*
X105726153Y-56728030D01*
X105673497Y-56744003D01*
X105612610Y-56750000D01*
X104387390Y-56750000D01*
X104326503Y-56744003D01*
X104273847Y-56728030D01*
X104225335Y-56702100D01*
X104182804Y-56667196D01*
X104147900Y-56624665D01*
X104121970Y-56576153D01*
X104105997Y-56523497D01*
X104100000Y-56462610D01*
X104100000Y-55662390D01*
X104105997Y-55601503D01*
X104121970Y-55548847D01*
X104147900Y-55500335D01*
X104182804Y-55457804D01*
X104225335Y-55422900D01*
X104273847Y-55396970D01*
X104326503Y-55380997D01*
X104387390Y-55375000D01*
X105612610Y-55375000D01*
X105673497Y-55380997D01*
X105673497Y-55380997D01*
G37*
G36*
X108673497Y-55380997D02*
X108726153Y-55396970D01*
X108774665Y-55422900D01*
X108817196Y-55457804D01*
X108852100Y-55500335D01*
X108878030Y-55548847D01*
X108894003Y-55601503D01*
X108900000Y-55662390D01*
X108900000Y-56462610D01*
X108894003Y-56523497D01*
X108878030Y-56576153D01*
X108852100Y-56624665D01*
X108817196Y-56667196D01*
X108774665Y-56702100D01*
X108726153Y-56728030D01*
X108673497Y-56744003D01*
X108612610Y-56750000D01*
X107387390Y-56750000D01*
X107326503Y-56744003D01*
X107273847Y-56728030D01*
X107225335Y-56702100D01*
X107182804Y-56667196D01*
X107147900Y-56624665D01*
X107121970Y-56576153D01*
X107105997Y-56523497D01*
X107100000Y-56462610D01*
X107100000Y-55662390D01*
X107105997Y-55601503D01*
X107121970Y-55548847D01*
X107147900Y-55500335D01*
X107182804Y-55457804D01*
X107225335Y-55422900D01*
X107273847Y-55396970D01*
X107326503Y-55380997D01*
X107387390Y-55375000D01*
X108612610Y-55375000D01*
X108673497Y-55380997D01*
X108673497Y-55380997D01*
G37*
G36*
X114114416Y-50589128D02*
X114294802Y-50625008D01*
X114485890Y-50704160D01*
X114657864Y-50819069D01*
X114804117Y-50965322D01*
X114919026Y-51137296D01*
X114998178Y-51328384D01*
X115038528Y-51531242D01*
X115038528Y-51738074D01*
X114998178Y-51940932D01*
X114919026Y-52132020D01*
X114804117Y-52303994D01*
X114657864Y-52450247D01*
X114485890Y-52565156D01*
X114294802Y-52644308D01*
X114114416Y-52680188D01*
X114091945Y-52684658D01*
X113885111Y-52684658D01*
X113862640Y-52680188D01*
X113682254Y-52644308D01*
X113491166Y-52565156D01*
X113319192Y-52450247D01*
X113172939Y-52303994D01*
X113058030Y-52132020D01*
X112978878Y-51940932D01*
X112938528Y-51738074D01*
X112938528Y-51531242D01*
X112978878Y-51328384D01*
X113058030Y-51137296D01*
X113172939Y-50965322D01*
X113319192Y-50819069D01*
X113491166Y-50704160D01*
X113682254Y-50625008D01*
X113862640Y-50589128D01*
X113885111Y-50584658D01*
X114091945Y-50584658D01*
X114114416Y-50589128D01*
X114114416Y-50589128D01*
G37*
G36*
X111574416Y-50589128D02*
X111754802Y-50625008D01*
X111945890Y-50704160D01*
X112117864Y-50819069D01*
X112264117Y-50965322D01*
X112379026Y-51137296D01*
X112458178Y-51328384D01*
X112498528Y-51531242D01*
X112498528Y-51738074D01*
X112458178Y-51940932D01*
X112379026Y-52132020D01*
X112264117Y-52303994D01*
X112117864Y-52450247D01*
X111945890Y-52565156D01*
X111754802Y-52644308D01*
X111574416Y-52680188D01*
X111551945Y-52684658D01*
X111345111Y-52684658D01*
X111322640Y-52680188D01*
X111142254Y-52644308D01*
X110951166Y-52565156D01*
X110779192Y-52450247D01*
X110632939Y-52303994D01*
X110518030Y-52132020D01*
X110438878Y-51940932D01*
X110398528Y-51738074D01*
X110398528Y-51531242D01*
X110438878Y-51328384D01*
X110518030Y-51137296D01*
X110632939Y-50965322D01*
X110779192Y-50819069D01*
X110951166Y-50704160D01*
X111142254Y-50625008D01*
X111322640Y-50589128D01*
X111345111Y-50584658D01*
X111551945Y-50584658D01*
X111574416Y-50589128D01*
X111574416Y-50589128D01*
G37*
G36*
X106494416Y-50589128D02*
X106674802Y-50625008D01*
X106865890Y-50704160D01*
X107037864Y-50819069D01*
X107184117Y-50965322D01*
X107299026Y-51137296D01*
X107378178Y-51328384D01*
X107418528Y-51531242D01*
X107418528Y-51738074D01*
X107378178Y-51940932D01*
X107299026Y-52132020D01*
X107184117Y-52303994D01*
X107037864Y-52450247D01*
X106865890Y-52565156D01*
X106674802Y-52644308D01*
X106494416Y-52680188D01*
X106471945Y-52684658D01*
X106265111Y-52684658D01*
X106242640Y-52680188D01*
X106062254Y-52644308D01*
X105871166Y-52565156D01*
X105699192Y-52450247D01*
X105552939Y-52303994D01*
X105438030Y-52132020D01*
X105358878Y-51940932D01*
X105318528Y-51738074D01*
X105318528Y-51531242D01*
X105358878Y-51328384D01*
X105438030Y-51137296D01*
X105552939Y-50965322D01*
X105699192Y-50819069D01*
X105871166Y-50704160D01*
X106062254Y-50625008D01*
X106242640Y-50589128D01*
X106265111Y-50584658D01*
X106471945Y-50584658D01*
X106494416Y-50589128D01*
X106494416Y-50589128D01*
G37*
G36*
X121734416Y-50589128D02*
X121914802Y-50625008D01*
X122105890Y-50704160D01*
X122277864Y-50819069D01*
X122424117Y-50965322D01*
X122539026Y-51137296D01*
X122618178Y-51328384D01*
X122658528Y-51531242D01*
X122658528Y-51738074D01*
X122618178Y-51940932D01*
X122539026Y-52132020D01*
X122424117Y-52303994D01*
X122277864Y-52450247D01*
X122105890Y-52565156D01*
X121914802Y-52644308D01*
X121734416Y-52680188D01*
X121711945Y-52684658D01*
X121505111Y-52684658D01*
X121482640Y-52680188D01*
X121302254Y-52644308D01*
X121111166Y-52565156D01*
X120939192Y-52450247D01*
X120792939Y-52303994D01*
X120678030Y-52132020D01*
X120598878Y-51940932D01*
X120558528Y-51738074D01*
X120558528Y-51531242D01*
X120598878Y-51328384D01*
X120678030Y-51137296D01*
X120792939Y-50965322D01*
X120939192Y-50819069D01*
X121111166Y-50704160D01*
X121302254Y-50625008D01*
X121482640Y-50589128D01*
X121505111Y-50584658D01*
X121711945Y-50584658D01*
X121734416Y-50589128D01*
X121734416Y-50589128D01*
G37*
G36*
X129354416Y-50589128D02*
X129534802Y-50625008D01*
X129725890Y-50704160D01*
X129897864Y-50819069D01*
X130044117Y-50965322D01*
X130159026Y-51137296D01*
X130238178Y-51328384D01*
X130278528Y-51531242D01*
X130278528Y-51738074D01*
X130238178Y-51940932D01*
X130159026Y-52132020D01*
X130044117Y-52303994D01*
X129897864Y-52450247D01*
X129725890Y-52565156D01*
X129534802Y-52644308D01*
X129354416Y-52680188D01*
X129331945Y-52684658D01*
X129125111Y-52684658D01*
X129102640Y-52680188D01*
X128922254Y-52644308D01*
X128731166Y-52565156D01*
X128559192Y-52450247D01*
X128412939Y-52303994D01*
X128298030Y-52132020D01*
X128218878Y-51940932D01*
X128178528Y-51738074D01*
X128178528Y-51531242D01*
X128218878Y-51328384D01*
X128298030Y-51137296D01*
X128412939Y-50965322D01*
X128559192Y-50819069D01*
X128731166Y-50704160D01*
X128922254Y-50625008D01*
X129102640Y-50589128D01*
X129125111Y-50584658D01*
X129331945Y-50584658D01*
X129354416Y-50589128D01*
X129354416Y-50589128D01*
G37*
G36*
X126814416Y-50589128D02*
X126994802Y-50625008D01*
X127185890Y-50704160D01*
X127357864Y-50819069D01*
X127504117Y-50965322D01*
X127619026Y-51137296D01*
X127698178Y-51328384D01*
X127738528Y-51531242D01*
X127738528Y-51738074D01*
X127698178Y-51940932D01*
X127619026Y-52132020D01*
X127504117Y-52303994D01*
X127357864Y-52450247D01*
X127185890Y-52565156D01*
X126994802Y-52644308D01*
X126814416Y-52680188D01*
X126791945Y-52684658D01*
X126585111Y-52684658D01*
X126562640Y-52680188D01*
X126382254Y-52644308D01*
X126191166Y-52565156D01*
X126019192Y-52450247D01*
X125872939Y-52303994D01*
X125758030Y-52132020D01*
X125678878Y-51940932D01*
X125638528Y-51738074D01*
X125638528Y-51531242D01*
X125678878Y-51328384D01*
X125758030Y-51137296D01*
X125872939Y-50965322D01*
X126019192Y-50819069D01*
X126191166Y-50704160D01*
X126382254Y-50625008D01*
X126562640Y-50589128D01*
X126585111Y-50584658D01*
X126791945Y-50584658D01*
X126814416Y-50589128D01*
X126814416Y-50589128D01*
G37*
G36*
X124274416Y-50589128D02*
X124454802Y-50625008D01*
X124645890Y-50704160D01*
X124817864Y-50819069D01*
X124964117Y-50965322D01*
X125079026Y-51137296D01*
X125158178Y-51328384D01*
X125198528Y-51531242D01*
X125198528Y-51738074D01*
X125158178Y-51940932D01*
X125079026Y-52132020D01*
X124964117Y-52303994D01*
X124817864Y-52450247D01*
X124645890Y-52565156D01*
X124454802Y-52644308D01*
X124274416Y-52680188D01*
X124251945Y-52684658D01*
X124045111Y-52684658D01*
X124022640Y-52680188D01*
X123842254Y-52644308D01*
X123651166Y-52565156D01*
X123479192Y-52450247D01*
X123332939Y-52303994D01*
X123218030Y-52132020D01*
X123138878Y-51940932D01*
X123098528Y-51738074D01*
X123098528Y-51531242D01*
X123138878Y-51328384D01*
X123218030Y-51137296D01*
X123332939Y-50965322D01*
X123479192Y-50819069D01*
X123651166Y-50704160D01*
X123842254Y-50625008D01*
X124022640Y-50589128D01*
X124045111Y-50584658D01*
X124251945Y-50584658D01*
X124274416Y-50589128D01*
X124274416Y-50589128D01*
G37*
G36*
X119194416Y-50589128D02*
X119374802Y-50625008D01*
X119565890Y-50704160D01*
X119737864Y-50819069D01*
X119884117Y-50965322D01*
X119999026Y-51137296D01*
X120078178Y-51328384D01*
X120118528Y-51531242D01*
X120118528Y-51738074D01*
X120078178Y-51940932D01*
X119999026Y-52132020D01*
X119884117Y-52303994D01*
X119737864Y-52450247D01*
X119565890Y-52565156D01*
X119374802Y-52644308D01*
X119194416Y-52680188D01*
X119171945Y-52684658D01*
X118965111Y-52684658D01*
X118942640Y-52680188D01*
X118762254Y-52644308D01*
X118571166Y-52565156D01*
X118399192Y-52450247D01*
X118252939Y-52303994D01*
X118138030Y-52132020D01*
X118058878Y-51940932D01*
X118018528Y-51738074D01*
X118018528Y-51531242D01*
X118058878Y-51328384D01*
X118138030Y-51137296D01*
X118252939Y-50965322D01*
X118399192Y-50819069D01*
X118571166Y-50704160D01*
X118762254Y-50625008D01*
X118942640Y-50589128D01*
X118965111Y-50584658D01*
X119171945Y-50584658D01*
X119194416Y-50589128D01*
X119194416Y-50589128D01*
G37*
G36*
X116654416Y-50589128D02*
X116834802Y-50625008D01*
X117025890Y-50704160D01*
X117197864Y-50819069D01*
X117344117Y-50965322D01*
X117459026Y-51137296D01*
X117538178Y-51328384D01*
X117578528Y-51531242D01*
X117578528Y-51738074D01*
X117538178Y-51940932D01*
X117459026Y-52132020D01*
X117344117Y-52303994D01*
X117197864Y-52450247D01*
X117025890Y-52565156D01*
X116834802Y-52644308D01*
X116654416Y-52680188D01*
X116631945Y-52684658D01*
X116425111Y-52684658D01*
X116402640Y-52680188D01*
X116222254Y-52644308D01*
X116031166Y-52565156D01*
X115859192Y-52450247D01*
X115712939Y-52303994D01*
X115598030Y-52132020D01*
X115518878Y-51940932D01*
X115478528Y-51738074D01*
X115478528Y-51531242D01*
X115518878Y-51328384D01*
X115598030Y-51137296D01*
X115712939Y-50965322D01*
X115859192Y-50819069D01*
X116031166Y-50704160D01*
X116222254Y-50625008D01*
X116402640Y-50589128D01*
X116425111Y-50584658D01*
X116631945Y-50584658D01*
X116654416Y-50589128D01*
X116654416Y-50589128D01*
G37*
G36*
X103954416Y-50589128D02*
X104134802Y-50625008D01*
X104325890Y-50704160D01*
X104497864Y-50819069D01*
X104644117Y-50965322D01*
X104759026Y-51137296D01*
X104838178Y-51328384D01*
X104878528Y-51531242D01*
X104878528Y-51738074D01*
X104838178Y-51940932D01*
X104759026Y-52132020D01*
X104644117Y-52303994D01*
X104497864Y-52450247D01*
X104325890Y-52565156D01*
X104134802Y-52644308D01*
X103954416Y-52680188D01*
X103931945Y-52684658D01*
X103725111Y-52684658D01*
X103702640Y-52680188D01*
X103522254Y-52644308D01*
X103331166Y-52565156D01*
X103159192Y-52450247D01*
X103012939Y-52303994D01*
X102898030Y-52132020D01*
X102818878Y-51940932D01*
X102778528Y-51738074D01*
X102778528Y-51531242D01*
X102818878Y-51328384D01*
X102898030Y-51137296D01*
X103012939Y-50965322D01*
X103159192Y-50819069D01*
X103331166Y-50704160D01*
X103522254Y-50625008D01*
X103702640Y-50589128D01*
X103725111Y-50584658D01*
X103931945Y-50584658D01*
X103954416Y-50589128D01*
X103954416Y-50589128D01*
G37*
G36*
X109034416Y-50589128D02*
X109214802Y-50625008D01*
X109405890Y-50704160D01*
X109577864Y-50819069D01*
X109724117Y-50965322D01*
X109839026Y-51137296D01*
X109918178Y-51328384D01*
X109958528Y-51531242D01*
X109958528Y-51738074D01*
X109918178Y-51940932D01*
X109839026Y-52132020D01*
X109724117Y-52303994D01*
X109577864Y-52450247D01*
X109405890Y-52565156D01*
X109214802Y-52644308D01*
X109034416Y-52680188D01*
X109011945Y-52684658D01*
X108805111Y-52684658D01*
X108782640Y-52680188D01*
X108602254Y-52644308D01*
X108411166Y-52565156D01*
X108239192Y-52450247D01*
X108092939Y-52303994D01*
X107978030Y-52132020D01*
X107898878Y-51940932D01*
X107858528Y-51738074D01*
X107858528Y-51531242D01*
X107898878Y-51328384D01*
X107978030Y-51137296D01*
X108092939Y-50965322D01*
X108239192Y-50819069D01*
X108411166Y-50704160D01*
X108602254Y-50625008D01*
X108782640Y-50589128D01*
X108805111Y-50584658D01*
X109011945Y-50584658D01*
X109034416Y-50589128D01*
X109034416Y-50589128D01*
G37*
G36*
X101414416Y-50589128D02*
X101594802Y-50625008D01*
X101785890Y-50704160D01*
X101957864Y-50819069D01*
X102104117Y-50965322D01*
X102219026Y-51137296D01*
X102298178Y-51328384D01*
X102338528Y-51531242D01*
X102338528Y-51738074D01*
X102298178Y-51940932D01*
X102219026Y-52132020D01*
X102104117Y-52303994D01*
X101957864Y-52450247D01*
X101785890Y-52565156D01*
X101594802Y-52644308D01*
X101414416Y-52680188D01*
X101391945Y-52684658D01*
X101185111Y-52684658D01*
X101162640Y-52680188D01*
X100982254Y-52644308D01*
X100791166Y-52565156D01*
X100619192Y-52450247D01*
X100472939Y-52303994D01*
X100358030Y-52132020D01*
X100278878Y-51940932D01*
X100238528Y-51738074D01*
X100238528Y-51531242D01*
X100278878Y-51328384D01*
X100358030Y-51137296D01*
X100472939Y-50965322D01*
X100619192Y-50819069D01*
X100791166Y-50704160D01*
X100982254Y-50625008D01*
X101162640Y-50589128D01*
X101185111Y-50584658D01*
X101391945Y-50584658D01*
X101414416Y-50589128D01*
X101414416Y-50589128D01*
G37*
G36*
X98874416Y-50589128D02*
X99054802Y-50625008D01*
X99245890Y-50704160D01*
X99417864Y-50819069D01*
X99564117Y-50965322D01*
X99679026Y-51137296D01*
X99758178Y-51328384D01*
X99798528Y-51531242D01*
X99798528Y-51738074D01*
X99758178Y-51940932D01*
X99679026Y-52132020D01*
X99564117Y-52303994D01*
X99417864Y-52450247D01*
X99245890Y-52565156D01*
X99054802Y-52644308D01*
X98874416Y-52680188D01*
X98851945Y-52684658D01*
X98645111Y-52684658D01*
X98622640Y-52680188D01*
X98442254Y-52644308D01*
X98251166Y-52565156D01*
X98079192Y-52450247D01*
X97932939Y-52303994D01*
X97818030Y-52132020D01*
X97738878Y-51940932D01*
X97698528Y-51738074D01*
X97698528Y-51531242D01*
X97738878Y-51328384D01*
X97818030Y-51137296D01*
X97932939Y-50965322D01*
X98079192Y-50819069D01*
X98251166Y-50704160D01*
X98442254Y-50625008D01*
X98622640Y-50589128D01*
X98645111Y-50584658D01*
X98851945Y-50584658D01*
X98874416Y-50589128D01*
X98874416Y-50589128D01*
G37*
G36*
X121898497Y-45837711D02*
X121951153Y-45853684D01*
X121999665Y-45879614D01*
X122042196Y-45914518D01*
X122077100Y-45957049D01*
X122103030Y-46005561D01*
X122119003Y-46058217D01*
X122125000Y-46119104D01*
X122125000Y-47344324D01*
X122119003Y-47405211D01*
X122103030Y-47457867D01*
X122077100Y-47506379D01*
X122042196Y-47548910D01*
X121999665Y-47583814D01*
X121951153Y-47609744D01*
X121898497Y-47625717D01*
X121837610Y-47631714D01*
X121037390Y-47631714D01*
X120976503Y-47625717D01*
X120923847Y-47609744D01*
X120875335Y-47583814D01*
X120832804Y-47548910D01*
X120797900Y-47506379D01*
X120771970Y-47457867D01*
X120755997Y-47405211D01*
X120750000Y-47344324D01*
X120750000Y-46119104D01*
X120755997Y-46058217D01*
X120771970Y-46005561D01*
X120797900Y-45957049D01*
X120832804Y-45914518D01*
X120875335Y-45879614D01*
X120923847Y-45853684D01*
X120976503Y-45837711D01*
X121037390Y-45831714D01*
X121837610Y-45831714D01*
X121898497Y-45837711D01*
X121898497Y-45837711D01*
G37*
G36*
X120023497Y-45837711D02*
X120076153Y-45853684D01*
X120124665Y-45879614D01*
X120167196Y-45914518D01*
X120202100Y-45957049D01*
X120228030Y-46005561D01*
X120244003Y-46058217D01*
X120250000Y-46119104D01*
X120250000Y-47344324D01*
X120244003Y-47405211D01*
X120228030Y-47457867D01*
X120202100Y-47506379D01*
X120167196Y-47548910D01*
X120124665Y-47583814D01*
X120076153Y-47609744D01*
X120023497Y-47625717D01*
X119962610Y-47631714D01*
X119162390Y-47631714D01*
X119101503Y-47625717D01*
X119048847Y-47609744D01*
X119000335Y-47583814D01*
X118957804Y-47548910D01*
X118922900Y-47506379D01*
X118896970Y-47457867D01*
X118880997Y-47405211D01*
X118875000Y-47344324D01*
X118875000Y-46119104D01*
X118880997Y-46058217D01*
X118896970Y-46005561D01*
X118922900Y-45957049D01*
X118957804Y-45914518D01*
X119000335Y-45879614D01*
X119048847Y-45853684D01*
X119101503Y-45837711D01*
X119162390Y-45831714D01*
X119962610Y-45831714D01*
X120023497Y-45837711D01*
X120023497Y-45837711D01*
G37*
G36*
X95784250Y-43320981D02*
X96057576Y-43403894D01*
X96309474Y-43538536D01*
X96530265Y-43719735D01*
X96711464Y-43940526D01*
X96846106Y-44192424D01*
X96929019Y-44465751D01*
X96950000Y-44678776D01*
X96950000Y-45321225D01*
X96929019Y-45534250D01*
X96846106Y-45807576D01*
X96711464Y-46059474D01*
X96711462Y-46059476D01*
X96530265Y-46280265D01*
X96309476Y-46461462D01*
X96309474Y-46461463D01*
X96309473Y-46461464D01*
X96057575Y-46596106D01*
X95784249Y-46679019D01*
X95500000Y-46707015D01*
X95215750Y-46679019D01*
X94942424Y-46596106D01*
X94690526Y-46461464D01*
X94632244Y-46413633D01*
X94469735Y-46280265D01*
X94288538Y-46059476D01*
X94287865Y-46058217D01*
X94153894Y-45807575D01*
X94070981Y-45534249D01*
X94050000Y-45321224D01*
X94050000Y-44678775D01*
X94070981Y-44465750D01*
X94153894Y-44192424D01*
X94288536Y-43940526D01*
X94336367Y-43882244D01*
X94469735Y-43719735D01*
X94690524Y-43538538D01*
X94690526Y-43538537D01*
X94690527Y-43538536D01*
X94942425Y-43403894D01*
X95215751Y-43320981D01*
X95500000Y-43292985D01*
X95784250Y-43320981D01*
X95784250Y-43320981D01*
G37*
G36*
X100784250Y-43320981D02*
X101057576Y-43403894D01*
X101309474Y-43538536D01*
X101530265Y-43719735D01*
X101711464Y-43940526D01*
X101846106Y-44192424D01*
X101929019Y-44465751D01*
X101950000Y-44678776D01*
X101950000Y-45321225D01*
X101929019Y-45534250D01*
X101846106Y-45807576D01*
X101711464Y-46059474D01*
X101711462Y-46059476D01*
X101530265Y-46280265D01*
X101309476Y-46461462D01*
X101309474Y-46461463D01*
X101309473Y-46461464D01*
X101057575Y-46596106D01*
X100784249Y-46679019D01*
X100500000Y-46707015D01*
X100215750Y-46679019D01*
X99942424Y-46596106D01*
X99690526Y-46461464D01*
X99632244Y-46413633D01*
X99469735Y-46280265D01*
X99288538Y-46059476D01*
X99287865Y-46058217D01*
X99153894Y-45807575D01*
X99070981Y-45534249D01*
X99050000Y-45321224D01*
X99050000Y-44678775D01*
X99070981Y-44465750D01*
X99153894Y-44192424D01*
X99288536Y-43940526D01*
X99336367Y-43882244D01*
X99469735Y-43719735D01*
X99690524Y-43538538D01*
X99690526Y-43538537D01*
X99690527Y-43538536D01*
X99942425Y-43403894D01*
X100215751Y-43320981D01*
X100500000Y-43292985D01*
X100784250Y-43320981D01*
X100784250Y-43320981D01*
G37*
G36*
X122797552Y-43487711D02*
X122850208Y-43503684D01*
X122898720Y-43529614D01*
X122941251Y-43564518D01*
X122976155Y-43607049D01*
X123002085Y-43655561D01*
X123018058Y-43708217D01*
X123024055Y-43769104D01*
X123024055Y-44569324D01*
X123018058Y-44630211D01*
X123002085Y-44682867D01*
X122976155Y-44731379D01*
X122941251Y-44773910D01*
X122898720Y-44808814D01*
X122850208Y-44834744D01*
X122797552Y-44850717D01*
X122736665Y-44856714D01*
X121511445Y-44856714D01*
X121450558Y-44850717D01*
X121397902Y-44834744D01*
X121349390Y-44808814D01*
X121306859Y-44773910D01*
X121271955Y-44731379D01*
X121246025Y-44682867D01*
X121230052Y-44630211D01*
X121224055Y-44569324D01*
X121224055Y-43769104D01*
X121230052Y-43708217D01*
X121246025Y-43655561D01*
X121271955Y-43607049D01*
X121306859Y-43564518D01*
X121349390Y-43529614D01*
X121397902Y-43503684D01*
X121450558Y-43487711D01*
X121511445Y-43481714D01*
X122736665Y-43481714D01*
X122797552Y-43487711D01*
X122797552Y-43487711D01*
G37*
G36*
X125173497Y-43487711D02*
X125226153Y-43503684D01*
X125274665Y-43529614D01*
X125317196Y-43564518D01*
X125352100Y-43607049D01*
X125378030Y-43655561D01*
X125394003Y-43708217D01*
X125400000Y-43769104D01*
X125400000Y-44569324D01*
X125394003Y-44630211D01*
X125378030Y-44682867D01*
X125352100Y-44731379D01*
X125317196Y-44773910D01*
X125274665Y-44808814D01*
X125226153Y-44834744D01*
X125173497Y-44850717D01*
X125112610Y-44856714D01*
X123887390Y-44856714D01*
X123826503Y-44850717D01*
X123773847Y-44834744D01*
X123725335Y-44808814D01*
X123682804Y-44773910D01*
X123647900Y-44731379D01*
X123621970Y-44682867D01*
X123605997Y-44630211D01*
X123600000Y-44569324D01*
X123600000Y-43769104D01*
X123605997Y-43708217D01*
X123621970Y-43655561D01*
X123647900Y-43607049D01*
X123682804Y-43564518D01*
X123725335Y-43529614D01*
X123773847Y-43503684D01*
X123826503Y-43487711D01*
X123887390Y-43481714D01*
X125112610Y-43481714D01*
X125173497Y-43487711D01*
X125173497Y-43487711D01*
G37*
G36*
X115797552Y-43487711D02*
X115850208Y-43503684D01*
X115898720Y-43529614D01*
X115941251Y-43564518D01*
X115976155Y-43607049D01*
X116002085Y-43655561D01*
X116018058Y-43708217D01*
X116024055Y-43769104D01*
X116024055Y-44569324D01*
X116018058Y-44630211D01*
X116002085Y-44682867D01*
X115976155Y-44731379D01*
X115941251Y-44773910D01*
X115898720Y-44808814D01*
X115850208Y-44834744D01*
X115797552Y-44850717D01*
X115736665Y-44856714D01*
X114511445Y-44856714D01*
X114450558Y-44850717D01*
X114397902Y-44834744D01*
X114349390Y-44808814D01*
X114306859Y-44773910D01*
X114271955Y-44731379D01*
X114246025Y-44682867D01*
X114230052Y-44630211D01*
X114224055Y-44569324D01*
X114224055Y-43769104D01*
X114230052Y-43708217D01*
X114246025Y-43655561D01*
X114271955Y-43607049D01*
X114306859Y-43564518D01*
X114349390Y-43529614D01*
X114397902Y-43503684D01*
X114450558Y-43487711D01*
X114511445Y-43481714D01*
X115736665Y-43481714D01*
X115797552Y-43487711D01*
X115797552Y-43487711D01*
G37*
G36*
X113297552Y-43487711D02*
X113350208Y-43503684D01*
X113398720Y-43529614D01*
X113441251Y-43564518D01*
X113476155Y-43607049D01*
X113502085Y-43655561D01*
X113518058Y-43708217D01*
X113524055Y-43769104D01*
X113524055Y-44569324D01*
X113518058Y-44630211D01*
X113502085Y-44682867D01*
X113476155Y-44731379D01*
X113441251Y-44773910D01*
X113398720Y-44808814D01*
X113350208Y-44834744D01*
X113297552Y-44850717D01*
X113236665Y-44856714D01*
X112011445Y-44856714D01*
X111950558Y-44850717D01*
X111897902Y-44834744D01*
X111849390Y-44808814D01*
X111806859Y-44773910D01*
X111771955Y-44731379D01*
X111746025Y-44682867D01*
X111730052Y-44630211D01*
X111724055Y-44569324D01*
X111724055Y-43769104D01*
X111730052Y-43708217D01*
X111746025Y-43655561D01*
X111771955Y-43607049D01*
X111806859Y-43564518D01*
X111849390Y-43529614D01*
X111897902Y-43503684D01*
X111950558Y-43487711D01*
X112011445Y-43481714D01*
X113236665Y-43481714D01*
X113297552Y-43487711D01*
X113297552Y-43487711D01*
G37*
G36*
X120454055Y-44756714D02*
X118994055Y-44756714D01*
X118994055Y-41806714D01*
X120454055Y-41806714D01*
X120454055Y-44756714D01*
X120454055Y-44756714D01*
G37*
G36*
X118254055Y-44756714D02*
X116794055Y-44756714D01*
X116794055Y-41806714D01*
X118254055Y-41806714D01*
X118254055Y-44756714D01*
X118254055Y-44756714D01*
G37*
G36*
X113297552Y-41612711D02*
X113350208Y-41628684D01*
X113398720Y-41654614D01*
X113441251Y-41689518D01*
X113476155Y-41732049D01*
X113502085Y-41780561D01*
X113518058Y-41833217D01*
X113524055Y-41894104D01*
X113524055Y-42694324D01*
X113518058Y-42755211D01*
X113502085Y-42807867D01*
X113476155Y-42856379D01*
X113441251Y-42898910D01*
X113398720Y-42933814D01*
X113350208Y-42959744D01*
X113297552Y-42975717D01*
X113236665Y-42981714D01*
X112011445Y-42981714D01*
X111950558Y-42975717D01*
X111897902Y-42959744D01*
X111849390Y-42933814D01*
X111806859Y-42898910D01*
X111771955Y-42856379D01*
X111746025Y-42807867D01*
X111730052Y-42755211D01*
X111724055Y-42694324D01*
X111724055Y-41894104D01*
X111730052Y-41833217D01*
X111746025Y-41780561D01*
X111771955Y-41732049D01*
X111806859Y-41689518D01*
X111849390Y-41654614D01*
X111897902Y-41628684D01*
X111950558Y-41612711D01*
X112011445Y-41606714D01*
X113236665Y-41606714D01*
X113297552Y-41612711D01*
X113297552Y-41612711D01*
G37*
G36*
X115797552Y-41612711D02*
X115850208Y-41628684D01*
X115898720Y-41654614D01*
X115941251Y-41689518D01*
X115976155Y-41732049D01*
X116002085Y-41780561D01*
X116018058Y-41833217D01*
X116024055Y-41894104D01*
X116024055Y-42694324D01*
X116018058Y-42755211D01*
X116002085Y-42807867D01*
X115976155Y-42856379D01*
X115941251Y-42898910D01*
X115898720Y-42933814D01*
X115850208Y-42959744D01*
X115797552Y-42975717D01*
X115736665Y-42981714D01*
X114511445Y-42981714D01*
X114450558Y-42975717D01*
X114397902Y-42959744D01*
X114349390Y-42933814D01*
X114306859Y-42898910D01*
X114271955Y-42856379D01*
X114246025Y-42807867D01*
X114230052Y-42755211D01*
X114224055Y-42694324D01*
X114224055Y-41894104D01*
X114230052Y-41833217D01*
X114246025Y-41780561D01*
X114271955Y-41732049D01*
X114306859Y-41689518D01*
X114349390Y-41654614D01*
X114397902Y-41628684D01*
X114450558Y-41612711D01*
X114511445Y-41606714D01*
X115736665Y-41606714D01*
X115797552Y-41612711D01*
X115797552Y-41612711D01*
G37*
G36*
X125173497Y-41612711D02*
X125226153Y-41628684D01*
X125274665Y-41654614D01*
X125317196Y-41689518D01*
X125352100Y-41732049D01*
X125378030Y-41780561D01*
X125394003Y-41833217D01*
X125400000Y-41894104D01*
X125400000Y-42694324D01*
X125394003Y-42755211D01*
X125378030Y-42807867D01*
X125352100Y-42856379D01*
X125317196Y-42898910D01*
X125274665Y-42933814D01*
X125226153Y-42959744D01*
X125173497Y-42975717D01*
X125112610Y-42981714D01*
X123887390Y-42981714D01*
X123826503Y-42975717D01*
X123773847Y-42959744D01*
X123725335Y-42933814D01*
X123682804Y-42898910D01*
X123647900Y-42856379D01*
X123621970Y-42807867D01*
X123605997Y-42755211D01*
X123600000Y-42694324D01*
X123600000Y-41894104D01*
X123605997Y-41833217D01*
X123621970Y-41780561D01*
X123647900Y-41732049D01*
X123682804Y-41689518D01*
X123725335Y-41654614D01*
X123773847Y-41628684D01*
X123826503Y-41612711D01*
X123887390Y-41606714D01*
X125112610Y-41606714D01*
X125173497Y-41612711D01*
X125173497Y-41612711D01*
G37*
G36*
X122797552Y-41612711D02*
X122850208Y-41628684D01*
X122898720Y-41654614D01*
X122941251Y-41689518D01*
X122976155Y-41732049D01*
X123002085Y-41780561D01*
X123018058Y-41833217D01*
X123024055Y-41894104D01*
X123024055Y-42694324D01*
X123018058Y-42755211D01*
X123002085Y-42807867D01*
X122976155Y-42856379D01*
X122941251Y-42898910D01*
X122898720Y-42933814D01*
X122850208Y-42959744D01*
X122797552Y-42975717D01*
X122736665Y-42981714D01*
X121511445Y-42981714D01*
X121450558Y-42975717D01*
X121397902Y-42959744D01*
X121349390Y-42933814D01*
X121306859Y-42898910D01*
X121271955Y-42856379D01*
X121246025Y-42807867D01*
X121230052Y-42755211D01*
X121224055Y-42694324D01*
X121224055Y-41894104D01*
X121230052Y-41833217D01*
X121246025Y-41780561D01*
X121271955Y-41732049D01*
X121306859Y-41689518D01*
X121349390Y-41654614D01*
X121397902Y-41628684D01*
X121450558Y-41612711D01*
X121511445Y-41606714D01*
X122736665Y-41606714D01*
X122797552Y-41612711D01*
X122797552Y-41612711D01*
G37*
M02*
