G04 #@! TF.FileFunction,Copper,L1,Top,Signal*
%FSLAX46Y46*%
G04 Gerber Fmt 4.6, Leading zero omitted, Abs format (unit mm)*
G04 Created by KiCad (PCBNEW 4.0.7-e2-6376~58~ubuntu16.04.1) date Fri Feb  1 18:55:09 2019*
%MOMM*%
%LPD*%
G01*
G04 APERTURE LIST*
%ADD10C,0.100000*%
%ADD11R,1.300000X0.700000*%
%ADD12O,3.000000X2.500000*%
%ADD13O,2.500000X3.000000*%
%ADD14R,1.727200X1.727200*%
%ADD15O,1.727200X1.727200*%
%ADD16R,1.500000X0.600000*%
%ADD17R,2.000000X3.800000*%
%ADD18R,2.000000X1.500000*%
%ADD19R,0.700000X1.300000*%
%ADD20C,1.700000*%
%ADD21R,1.000000X1.250000*%
%ADD22R,4.000000X2.500000*%
%ADD23R,1.250000X1.000000*%
%ADD24C,1.000000*%
%ADD25C,3.000000*%
%ADD26C,0.600000*%
%ADD27C,1.000000*%
%ADD28C,0.400000*%
G04 APERTURE END LIST*
D10*
D11*
X102500000Y-56050000D03*
X102500000Y-57950000D03*
X105000000Y-56050000D03*
X105000000Y-57950000D03*
X108000000Y-56050000D03*
X108000000Y-57950000D03*
D12*
X97000000Y-77000000D03*
X97000000Y-82000000D03*
D13*
X100500000Y-45000000D03*
X95500000Y-45000000D03*
D14*
X95000000Y-61000000D03*
D15*
X97540000Y-61000000D03*
X95000000Y-63540000D03*
X97540000Y-63540000D03*
X95000000Y-66080000D03*
X97540000Y-66080000D03*
D16*
X114700000Y-77445000D03*
X114700000Y-76175000D03*
X114700000Y-74905000D03*
X114700000Y-73635000D03*
X114700000Y-72365000D03*
X114700000Y-71095000D03*
X114700000Y-69825000D03*
X114700000Y-68555000D03*
X109300000Y-68555000D03*
X109300000Y-69825000D03*
X109300000Y-71095000D03*
X109300000Y-72365000D03*
X109300000Y-73635000D03*
X109300000Y-74905000D03*
X109300000Y-76175000D03*
X109300000Y-77445000D03*
D17*
X115500000Y-45000000D03*
D18*
X109200000Y-45000000D03*
X109200000Y-47300000D03*
X109200000Y-42700000D03*
D19*
X103050000Y-73000000D03*
X104950000Y-73000000D03*
D20*
X98722892Y-94771414D03*
X98722892Y-92231414D03*
X101262892Y-94771414D03*
X101262892Y-92231414D03*
X103802892Y-94771414D03*
X103802892Y-92231414D03*
X106342892Y-94771414D03*
X106342892Y-92231414D03*
X108882892Y-94771414D03*
X108882892Y-92231414D03*
X111422892Y-94771414D03*
X111422892Y-92231414D03*
X113962892Y-94771414D03*
X113962892Y-92231414D03*
X116502892Y-94771414D03*
X116502892Y-92231414D03*
X119042892Y-94771414D03*
X119042892Y-92231414D03*
X121582892Y-94771414D03*
X121582892Y-92231414D03*
X124122892Y-94771414D03*
X124122892Y-92231414D03*
X126662892Y-94771414D03*
X126662892Y-92231414D03*
X129202892Y-94771414D03*
X129202892Y-92231414D03*
X98748528Y-51634658D03*
X101288528Y-51634658D03*
X103828528Y-51634658D03*
X106368528Y-51634658D03*
X108908528Y-51634658D03*
X111448528Y-51634658D03*
X113988528Y-51634658D03*
X116528528Y-51634658D03*
X119068528Y-51634658D03*
X121608528Y-51634658D03*
X124148528Y-51634658D03*
X126688528Y-51634658D03*
X129228528Y-51634658D03*
D19*
X104950000Y-64000000D03*
X103050000Y-64000000D03*
X104950000Y-82000000D03*
X103050000Y-82000000D03*
D21*
X103000000Y-70000000D03*
X105000000Y-70000000D03*
X103000000Y-76000000D03*
X105000000Y-76000000D03*
X105000000Y-61000000D03*
X103000000Y-61000000D03*
X103000000Y-85000000D03*
X105000000Y-85000000D03*
X105000000Y-67000000D03*
X103000000Y-67000000D03*
X105000000Y-79000000D03*
X103000000Y-79000000D03*
D22*
X120400000Y-45000000D03*
X126500000Y-45000000D03*
X113950000Y-84000000D03*
X120050000Y-84000000D03*
D21*
X108000000Y-83000000D03*
X110000000Y-83000000D03*
X108000000Y-80000000D03*
X110000000Y-80000000D03*
X108000000Y-66000000D03*
X110000000Y-66000000D03*
X108000000Y-63000000D03*
X110000000Y-63000000D03*
D22*
X114077432Y-62000000D03*
X120177432Y-62000000D03*
D23*
X106000000Y-44000000D03*
X106000000Y-46000000D03*
D21*
X118000000Y-70000000D03*
X120000000Y-70000000D03*
X118000000Y-73000000D03*
X120000000Y-73000000D03*
X118000000Y-76000000D03*
X120000000Y-76000000D03*
D24*
X125048397Y-42123017D03*
D25*
X112000000Y-73000000D03*
D24*
X106000000Y-85000000D03*
X119500000Y-86400000D03*
X108000000Y-81500000D03*
X106000000Y-61000000D03*
X108000000Y-64500000D03*
X101500000Y-76000000D03*
X101500000Y-70000000D03*
X121500000Y-70000000D03*
X121500000Y-73000000D03*
X119500000Y-59000000D03*
X107300000Y-42700000D03*
X95884000Y-50968000D03*
X101000000Y-63000000D03*
X103500000Y-89000000D03*
D26*
X113260419Y-76188207D03*
X106552000Y-74336000D03*
X100500000Y-65000000D03*
D27*
X114700000Y-74905000D02*
X116905000Y-74905000D01*
X116905000Y-74905000D02*
X118000000Y-76000000D01*
D28*
X120000000Y-76000000D02*
X120000000Y-75654078D01*
X120000000Y-75654078D02*
X118989301Y-74643379D01*
X118989301Y-74643379D02*
X118989301Y-66585994D01*
X118989301Y-66585994D02*
X117173375Y-64770068D01*
X117173375Y-64770068D02*
X117173375Y-54819505D01*
X117173375Y-54819505D02*
X114838527Y-52484657D01*
X114838527Y-52484657D02*
X113988528Y-51634658D01*
D27*
X114700000Y-73635000D02*
X117365000Y-73635000D01*
X117365000Y-73635000D02*
X118000000Y-73000000D01*
X125755503Y-42123017D02*
X125048397Y-42123017D01*
X125873017Y-42123017D02*
X125755503Y-42123017D01*
X126500000Y-42750000D02*
X125873017Y-42123017D01*
X126500000Y-45000000D02*
X126500000Y-42750000D01*
X109300000Y-77445000D02*
X110650000Y-77445000D01*
X112000000Y-76095000D02*
X112000000Y-75121320D01*
X110650000Y-77445000D02*
X112000000Y-76095000D01*
X112000000Y-75121320D02*
X112000000Y-73000000D01*
X109300000Y-72365000D02*
X111365000Y-72365000D01*
X111365000Y-72365000D02*
X112000000Y-73000000D01*
D28*
X105052893Y-93481415D02*
X107592893Y-93481415D01*
X107592893Y-93481415D02*
X108882892Y-94771414D01*
X103802892Y-92231414D02*
X105052893Y-93481415D01*
D27*
X105000000Y-85000000D02*
X106000000Y-85000000D01*
X120050000Y-84000000D02*
X120050000Y-85850000D01*
X120050000Y-85850000D02*
X119500000Y-86400000D01*
X108000000Y-83000000D02*
X108000000Y-81500000D01*
X108000000Y-80000000D02*
X108000000Y-81500000D01*
X105000000Y-61000000D02*
X106000000Y-61000000D01*
X108000000Y-63000000D02*
X108000000Y-64500000D01*
X108000000Y-66000000D02*
X108000000Y-64500000D01*
X103000000Y-76000000D02*
X101500000Y-76000000D01*
X103000000Y-70000000D02*
X101500000Y-70000000D01*
X109300000Y-68555000D02*
X110650000Y-68555000D01*
X110650000Y-68555000D02*
X112000000Y-69905000D01*
X112000000Y-69905000D02*
X112000000Y-70878680D01*
X112000000Y-70878680D02*
X112000000Y-73000000D01*
X114700000Y-71095000D02*
X113905000Y-71095000D01*
X113905000Y-71095000D02*
X112000000Y-73000000D01*
X112715000Y-73000000D02*
X112000000Y-73000000D01*
X114700000Y-72365000D02*
X113350000Y-72365000D01*
X113350000Y-72365000D02*
X112715000Y-73000000D01*
X120000000Y-70000000D02*
X121500000Y-70000000D01*
X120000000Y-73000000D02*
X121500000Y-73000000D01*
X120177432Y-59677432D02*
X119500000Y-59000000D01*
X120177432Y-62000000D02*
X120177432Y-59677432D01*
X109200000Y-42700000D02*
X107300000Y-42700000D01*
X107300000Y-42700000D02*
X106000000Y-44000000D01*
X110000000Y-63000000D02*
X110000000Y-55085984D01*
X110000000Y-55085984D02*
X109124581Y-54210565D01*
X109124581Y-54210565D02*
X92473950Y-54210565D01*
X92473950Y-54210565D02*
X92473950Y-58500000D01*
X106000000Y-47300000D02*
X105356449Y-47943551D01*
X105356449Y-47943551D02*
X98193551Y-47943551D01*
X98193551Y-47943551D02*
X95500000Y-45250000D01*
X95500000Y-45250000D02*
X95500000Y-45000000D01*
X92473950Y-79500000D02*
X92473950Y-58500000D01*
X92473950Y-58500000D02*
X92473950Y-57500000D01*
X92473950Y-57500000D02*
X92473950Y-48026050D01*
X110000000Y-83000000D02*
X110000000Y-85143642D01*
X110000000Y-85143642D02*
X107643642Y-87500000D01*
X107643642Y-87500000D02*
X95000000Y-87500000D01*
X95000000Y-87500000D02*
X92473950Y-84973950D01*
X92473950Y-84973950D02*
X92473950Y-79500000D01*
X103050000Y-73000000D02*
X101700000Y-73000000D01*
X100160483Y-74539517D02*
X100160483Y-78075415D01*
X101700000Y-73000000D02*
X100160483Y-74539517D01*
X100160483Y-78075415D02*
X98735898Y-79500000D01*
X98735898Y-79500000D02*
X92473950Y-79500000D01*
X113950000Y-84000000D02*
X113200000Y-84000000D01*
X92473950Y-48026050D02*
X95500000Y-45000000D01*
X110000000Y-66000000D02*
X113045000Y-66000000D01*
X114700000Y-67655000D02*
X114700000Y-68555000D01*
X113045000Y-66000000D02*
X114700000Y-67655000D01*
X110000000Y-80000000D02*
X113045000Y-80000000D01*
X114700000Y-78345000D02*
X114700000Y-77445000D01*
X113045000Y-80000000D02*
X114700000Y-78345000D01*
X113950000Y-84000000D02*
X111000000Y-84000000D01*
X111000000Y-84000000D02*
X110000000Y-83000000D01*
X114077432Y-62000000D02*
X111000000Y-62000000D01*
X111000000Y-62000000D02*
X110000000Y-63000000D01*
X110000000Y-63000000D02*
X110000000Y-66000000D01*
X110000000Y-83000000D02*
X110000000Y-80000000D01*
X109200000Y-47300000D02*
X106000000Y-47300000D01*
X106000000Y-46000000D02*
X106000000Y-47300000D01*
X126881085Y-49287215D02*
X120268000Y-49287215D01*
X120268000Y-49287215D02*
X97564785Y-49287215D01*
X120400000Y-45000000D02*
X120400000Y-49155215D01*
X120400000Y-49155215D02*
X120268000Y-49287215D01*
X129228528Y-51634658D02*
X126881085Y-49287215D01*
X97564785Y-49287215D02*
X95884000Y-50968000D01*
X115500000Y-45900000D02*
X115500000Y-45000000D01*
X115500000Y-45000000D02*
X120400000Y-45000000D01*
X109200000Y-45000000D02*
X115500000Y-45000000D01*
X105000000Y-79000000D02*
X105000000Y-81950000D01*
X105000000Y-81950000D02*
X104950000Y-82000000D01*
X109300000Y-76175000D02*
X108259998Y-76175000D01*
X108259998Y-76175000D02*
X105434998Y-79000000D01*
X105434998Y-79000000D02*
X105000000Y-79000000D01*
D28*
X104950000Y-79050000D02*
X105000000Y-79000000D01*
X109300000Y-74905000D02*
X107988203Y-74905000D01*
X107988203Y-74905000D02*
X105192571Y-77700632D01*
X105192571Y-77700632D02*
X104174368Y-77700632D01*
X104174368Y-77700632D02*
X103000000Y-78875000D01*
X103000000Y-78875000D02*
X103000000Y-79000000D01*
D27*
X105000000Y-67000000D02*
X105000000Y-64050000D01*
X105000000Y-64050000D02*
X104950000Y-64000000D01*
X108259997Y-69825000D02*
X109300000Y-69825000D01*
X105000000Y-67000000D02*
X105434997Y-67000000D01*
X105434997Y-67000000D02*
X108259997Y-69825000D01*
D28*
X104950000Y-66950000D02*
X105000000Y-67000000D01*
X103000000Y-67000000D02*
X103000000Y-67125000D01*
X103000000Y-67125000D02*
X104338977Y-68463977D01*
X107551232Y-70725010D02*
X108930011Y-70725010D01*
X104338977Y-68463977D02*
X105290199Y-68463977D01*
X108930011Y-70725010D02*
X109300000Y-71095000D01*
X105290199Y-68463977D02*
X107551232Y-70725010D01*
D27*
X103000000Y-85000000D02*
X103000000Y-82050000D01*
X103000000Y-82050000D02*
X103050000Y-82000000D01*
X103050000Y-82000000D02*
X97000000Y-82000000D01*
X103000000Y-61000000D02*
X103000000Y-63950000D01*
X103000000Y-63950000D02*
X103050000Y-64000000D01*
X103050000Y-64000000D02*
X103050000Y-64300000D01*
X103050000Y-64300000D02*
X97000000Y-70350000D01*
X97000000Y-70350000D02*
X97000000Y-74750000D01*
X97000000Y-74750000D02*
X97000000Y-77000000D01*
D28*
X106500000Y-56050000D02*
X106500000Y-58433248D01*
X106056417Y-58876831D02*
X101559840Y-58876831D01*
X106500000Y-58433248D02*
X106056417Y-58876831D01*
X101559840Y-58876831D02*
X101000000Y-59436671D01*
X101000000Y-62292894D02*
X101000000Y-63000000D01*
X101000000Y-59436671D02*
X101000000Y-62292894D01*
D27*
X98080000Y-63000000D02*
X97540000Y-63540000D01*
X101000000Y-63000000D02*
X98080000Y-63000000D01*
D28*
X106500000Y-56050000D02*
X108000000Y-56050000D01*
X105000000Y-56050000D02*
X106500000Y-56050000D01*
X102500000Y-56050000D02*
X105000000Y-56050000D01*
D27*
X98722892Y-94771414D02*
X97520811Y-94771414D01*
X96873532Y-94124135D02*
X96873532Y-90996368D01*
X97520811Y-94771414D02*
X96873532Y-94124135D01*
X96873532Y-90996368D02*
X98869900Y-89000000D01*
X98869900Y-89000000D02*
X103500000Y-89000000D01*
D28*
X103500000Y-89000000D02*
X115930876Y-89000000D01*
X115930876Y-89000000D02*
X117752893Y-90822017D01*
X117752893Y-90822017D02*
X117752893Y-93481415D01*
X117752893Y-93481415D02*
X118192893Y-93921415D01*
X118192893Y-93921415D02*
X119042892Y-94771414D01*
D27*
X114700000Y-69825000D02*
X117825000Y-69825000D01*
X117825000Y-69825000D02*
X118000000Y-70000000D01*
D28*
X113273626Y-76175000D02*
X113260419Y-76188207D01*
X114700000Y-76175000D02*
X113273626Y-76175000D01*
X106552000Y-74336000D02*
X107253000Y-73635000D01*
X107253000Y-73635000D02*
X107635000Y-73635000D01*
D27*
X107635000Y-73635000D02*
X107000000Y-73000000D01*
X107000000Y-73000000D02*
X104950000Y-73000000D01*
X109300000Y-73635000D02*
X107635000Y-73635000D01*
X105000000Y-76000000D02*
X105000000Y-73050000D01*
X105000000Y-73050000D02*
X104950000Y-73000000D01*
X105000000Y-70000000D02*
X105000000Y-72950000D01*
X105000000Y-72950000D02*
X104950000Y-73000000D01*
D28*
X105000000Y-57950000D02*
X105000000Y-57536574D01*
X105000000Y-57536574D02*
X104480182Y-57016756D01*
X104480182Y-57016756D02*
X98052133Y-57016756D01*
X98052133Y-57016756D02*
X96276399Y-58792490D01*
X96276399Y-58792490D02*
X96276399Y-62263601D01*
X96276399Y-62263601D02*
X95863599Y-62676401D01*
X95863599Y-62676401D02*
X95000000Y-63540000D01*
X102500000Y-57950000D02*
X98471268Y-57950000D01*
X98471268Y-57950000D02*
X97540000Y-58881268D01*
X97540000Y-58881268D02*
X97540000Y-61000000D01*
X108000000Y-57950000D02*
X108000000Y-58700000D01*
X107109165Y-59590835D02*
X102327074Y-59590835D01*
X108000000Y-58700000D02*
X107109165Y-59590835D01*
X102327074Y-59590835D02*
X101985594Y-59932315D01*
X101985594Y-59932315D02*
X101985594Y-63514406D01*
X101985594Y-63514406D02*
X100500000Y-65000000D01*
X100500000Y-65000000D02*
X98620000Y-65000000D01*
X98620000Y-65000000D02*
X97540000Y-66080000D01*
M02*
