G04 #@! TF.GenerationSoftware,KiCad,Pcbnew,5.1.5+dfsg1-2build2*
G04 #@! TF.CreationDate,2021-03-05T11:50:16+01:00*
G04 #@! TF.ProjectId,buttons,62757474-6f6e-4732-9e6b-696361645f70,rev?*
G04 #@! TF.SameCoordinates,Original*
G04 #@! TF.FileFunction,Legend,Top*
G04 #@! TF.FilePolarity,Positive*
%FSLAX46Y46*%
G04 Gerber Fmt 4.6, Leading zero omitted, Abs format (unit mm)*
G04 Created by KiCad (PCBNEW 5.1.5+dfsg1-2build2) date 2021-03-05 11:50:16*
%MOMM*%
%LPD*%
G04 APERTURE LIST*
%ADD10C,0.150000*%
%ADD11C,0.120000*%
G04 APERTURE END LIST*
D10*
X205835595Y-88952380D02*
X205835595Y-88285714D01*
X205835595Y-88476190D02*
X205883214Y-88380952D01*
X205930833Y-88333333D01*
X206026071Y-88285714D01*
X206121309Y-88285714D01*
X206835595Y-88904761D02*
X206740357Y-88952380D01*
X206549880Y-88952380D01*
X206454642Y-88904761D01*
X206407023Y-88809523D01*
X206407023Y-88428571D01*
X206454642Y-88333333D01*
X206549880Y-88285714D01*
X206740357Y-88285714D01*
X206835595Y-88333333D01*
X206883214Y-88428571D01*
X206883214Y-88523809D01*
X206407023Y-88619047D01*
X207168928Y-88285714D02*
X207549880Y-88285714D01*
X207311785Y-87952380D02*
X207311785Y-88809523D01*
X207359404Y-88904761D01*
X207454642Y-88952380D01*
X207549880Y-88952380D01*
X207883214Y-88952380D02*
X207883214Y-88285714D01*
X207883214Y-88476190D02*
X207930833Y-88380952D01*
X207978452Y-88333333D01*
X208073690Y-88285714D01*
X208168928Y-88285714D01*
X208930833Y-88952380D02*
X208930833Y-88428571D01*
X208883214Y-88333333D01*
X208787976Y-88285714D01*
X208597500Y-88285714D01*
X208502261Y-88333333D01*
X208930833Y-88904761D02*
X208835595Y-88952380D01*
X208597500Y-88952380D01*
X208502261Y-88904761D01*
X208454642Y-88809523D01*
X208454642Y-88714285D01*
X208502261Y-88619047D01*
X208597500Y-88571428D01*
X208835595Y-88571428D01*
X208930833Y-88523809D01*
X209835595Y-88952380D02*
X209835595Y-87952380D01*
X209835595Y-88904761D02*
X209740357Y-88952380D01*
X209549880Y-88952380D01*
X209454642Y-88904761D01*
X209407023Y-88857142D01*
X209359404Y-88761904D01*
X209359404Y-88476190D01*
X209407023Y-88380952D01*
X209454642Y-88333333D01*
X209549880Y-88285714D01*
X209740357Y-88285714D01*
X209835595Y-88333333D01*
X210311785Y-88952380D02*
X210311785Y-88285714D01*
X210311785Y-87952380D02*
X210264166Y-88000000D01*
X210311785Y-88047619D01*
X210359404Y-88000000D01*
X210311785Y-87952380D01*
X210311785Y-88047619D01*
X210930833Y-88952380D02*
X210835595Y-88904761D01*
X210787976Y-88857142D01*
X210740357Y-88761904D01*
X210740357Y-88476190D01*
X210787976Y-88380952D01*
X210835595Y-88333333D01*
X210930833Y-88285714D01*
X211073690Y-88285714D01*
X211168928Y-88333333D01*
X211216547Y-88380952D01*
X211264166Y-88476190D01*
X211264166Y-88761904D01*
X211216547Y-88857142D01*
X211168928Y-88904761D01*
X211073690Y-88952380D01*
X210930833Y-88952380D01*
X211692738Y-88857142D02*
X211740357Y-88904761D01*
X211692738Y-88952380D01*
X211645119Y-88904761D01*
X211692738Y-88857142D01*
X211692738Y-88952380D01*
X212168928Y-88285714D02*
X212168928Y-88952380D01*
X212168928Y-88380952D02*
X212216547Y-88333333D01*
X212311785Y-88285714D01*
X212454642Y-88285714D01*
X212549880Y-88333333D01*
X212597500Y-88428571D01*
X212597500Y-88952380D01*
X213454642Y-88904761D02*
X213359404Y-88952380D01*
X213168928Y-88952380D01*
X213073690Y-88904761D01*
X213026071Y-88809523D01*
X213026071Y-88428571D01*
X213073690Y-88333333D01*
X213168928Y-88285714D01*
X213359404Y-88285714D01*
X213454642Y-88333333D01*
X213502261Y-88428571D01*
X213502261Y-88523809D01*
X213026071Y-88619047D01*
X213787976Y-88285714D02*
X214168928Y-88285714D01*
X213930833Y-87952380D02*
X213930833Y-88809523D01*
X213978452Y-88904761D01*
X214073690Y-88952380D01*
X214168928Y-88952380D01*
X215835595Y-88857142D02*
X215787976Y-88904761D01*
X215645119Y-88952380D01*
X215549880Y-88952380D01*
X215407023Y-88904761D01*
X215311785Y-88809523D01*
X215264166Y-88714285D01*
X215216547Y-88523809D01*
X215216547Y-88380952D01*
X215264166Y-88190476D01*
X215311785Y-88095238D01*
X215407023Y-88000000D01*
X215549880Y-87952380D01*
X215645119Y-87952380D01*
X215787976Y-88000000D01*
X215835595Y-88047619D01*
X216835595Y-88857142D02*
X216787976Y-88904761D01*
X216645119Y-88952380D01*
X216549880Y-88952380D01*
X216407023Y-88904761D01*
X216311785Y-88809523D01*
X216264166Y-88714285D01*
X216216547Y-88523809D01*
X216216547Y-88380952D01*
X216264166Y-88190476D01*
X216311785Y-88095238D01*
X216407023Y-88000000D01*
X216549880Y-87952380D01*
X216645119Y-87952380D01*
X216787976Y-88000000D01*
X216835595Y-88047619D01*
X217264166Y-88571428D02*
X218026071Y-88571428D01*
X218835595Y-88428571D02*
X218978452Y-88476190D01*
X219026071Y-88523809D01*
X219073690Y-88619047D01*
X219073690Y-88761904D01*
X219026071Y-88857142D01*
X218978452Y-88904761D01*
X218883214Y-88952380D01*
X218502261Y-88952380D01*
X218502261Y-87952380D01*
X218835595Y-87952380D01*
X218930833Y-88000000D01*
X218978452Y-88047619D01*
X219026071Y-88142857D01*
X219026071Y-88238095D01*
X218978452Y-88333333D01*
X218930833Y-88380952D01*
X218835595Y-88428571D01*
X218502261Y-88428571D01*
X219692738Y-88476190D02*
X219692738Y-88952380D01*
X219359404Y-87952380D02*
X219692738Y-88476190D01*
X220026071Y-87952380D01*
X220359404Y-88571428D02*
X221121309Y-88571428D01*
X221549880Y-88904761D02*
X221692738Y-88952380D01*
X221930833Y-88952380D01*
X222026071Y-88904761D01*
X222073690Y-88857142D01*
X222121309Y-88761904D01*
X222121309Y-88666666D01*
X222073690Y-88571428D01*
X222026071Y-88523809D01*
X221930833Y-88476190D01*
X221740357Y-88428571D01*
X221645119Y-88380952D01*
X221597500Y-88333333D01*
X221549880Y-88238095D01*
X221549880Y-88142857D01*
X221597500Y-88047619D01*
X221645119Y-88000000D01*
X221740357Y-87952380D01*
X221978452Y-87952380D01*
X222121309Y-88000000D01*
X222502261Y-88666666D02*
X222978452Y-88666666D01*
X222407023Y-88952380D02*
X222740357Y-87952380D01*
X223073690Y-88952380D01*
X224073690Y-88285714D02*
X224311785Y-88952380D01*
X224549880Y-88285714D01*
X224883214Y-88047619D02*
X224930833Y-88000000D01*
X225026071Y-87952380D01*
X225264166Y-87952380D01*
X225359404Y-88000000D01*
X225407023Y-88047619D01*
X225454642Y-88142857D01*
X225454642Y-88238095D01*
X225407023Y-88380952D01*
X224835595Y-88952380D01*
X225454642Y-88952380D01*
X225883214Y-88857142D02*
X225930833Y-88904761D01*
X225883214Y-88952380D01*
X225835595Y-88904761D01*
X225883214Y-88857142D01*
X225883214Y-88952380D01*
X226549880Y-87952380D02*
X226645119Y-87952380D01*
X226740357Y-88000000D01*
X226787976Y-88047619D01*
X226835595Y-88142857D01*
X226883214Y-88333333D01*
X226883214Y-88571428D01*
X226835595Y-88761904D01*
X226787976Y-88857142D01*
X226740357Y-88904761D01*
X226645119Y-88952380D01*
X226549880Y-88952380D01*
X226454642Y-88904761D01*
X226407023Y-88857142D01*
X226359404Y-88761904D01*
X226311785Y-88571428D01*
X226311785Y-88333333D01*
X226359404Y-88142857D01*
X226407023Y-88047619D01*
X226454642Y-88000000D01*
X226549880Y-87952380D01*
X201738095Y-117452380D02*
X201738095Y-116452380D01*
X201976190Y-116452380D01*
X202119047Y-116500000D01*
X202214285Y-116595238D01*
X202261904Y-116690476D01*
X202309523Y-116880952D01*
X202309523Y-117023809D01*
X202261904Y-117214285D01*
X202214285Y-117309523D01*
X202119047Y-117404761D01*
X201976190Y-117452380D01*
X201738095Y-117452380D01*
X200309523Y-117357142D02*
X200261904Y-117404761D01*
X200119047Y-117452380D01*
X200023809Y-117452380D01*
X199880952Y-117404761D01*
X199785714Y-117309523D01*
X199738095Y-117214285D01*
X199690476Y-117023809D01*
X199690476Y-116880952D01*
X199738095Y-116690476D01*
X199785714Y-116595238D01*
X199880952Y-116500000D01*
X200023809Y-116452380D01*
X200119047Y-116452380D01*
X200261904Y-116500000D01*
X200309523Y-116547619D01*
X202071428Y-109428571D02*
X202214285Y-109476190D01*
X202261904Y-109523809D01*
X202309523Y-109619047D01*
X202309523Y-109761904D01*
X202261904Y-109857142D01*
X202214285Y-109904761D01*
X202119047Y-109952380D01*
X201738095Y-109952380D01*
X201738095Y-108952380D01*
X202071428Y-108952380D01*
X202166666Y-109000000D01*
X202214285Y-109047619D01*
X202261904Y-109142857D01*
X202261904Y-109238095D01*
X202214285Y-109333333D01*
X202166666Y-109380952D01*
X202071428Y-109428571D01*
X201738095Y-109428571D01*
X199761904Y-109666666D02*
X200238095Y-109666666D01*
X199666666Y-109952380D02*
X200000000Y-108952380D01*
X200333333Y-109952380D01*
X205642857Y-93904761D02*
X205785714Y-93952380D01*
X206023809Y-93952380D01*
X206119047Y-93904761D01*
X206166666Y-93857142D01*
X206214285Y-93761904D01*
X206214285Y-93666666D01*
X206166666Y-93571428D01*
X206119047Y-93523809D01*
X206023809Y-93476190D01*
X205833333Y-93428571D01*
X205738095Y-93380952D01*
X205690476Y-93333333D01*
X205642857Y-93238095D01*
X205642857Y-93142857D01*
X205690476Y-93047619D01*
X205738095Y-93000000D01*
X205833333Y-92952380D01*
X206071428Y-92952380D01*
X206214285Y-93000000D01*
X206547619Y-92952380D02*
X206785714Y-93952380D01*
X206976190Y-93238095D01*
X207166666Y-93952380D01*
X207404761Y-92952380D01*
X207785714Y-93952380D02*
X207785714Y-92952380D01*
X208023809Y-92952380D01*
X208166666Y-93000000D01*
X208261904Y-93095238D01*
X208309523Y-93190476D01*
X208357142Y-93380952D01*
X208357142Y-93523809D01*
X208309523Y-93714285D01*
X208261904Y-93809523D01*
X208166666Y-93904761D01*
X208023809Y-93952380D01*
X207785714Y-93952380D01*
X205690000Y-92270000D02*
X205690000Y-89730000D01*
X213310000Y-92270000D02*
X205690000Y-92270000D01*
X213310000Y-89730000D02*
X213310000Y-92270000D01*
X205690000Y-89730000D02*
X213310000Y-89730000D01*
X208230000Y-89730000D02*
X208230000Y-92270000D01*
D11*
X205400000Y-124655000D02*
X205400000Y-122115000D01*
X205400000Y-124655000D02*
X207940000Y-124655000D01*
X205650000Y-124405000D02*
X205650000Y-115055000D01*
X221430000Y-124405000D02*
X205650000Y-124405000D01*
X221430000Y-115055000D02*
X221430000Y-124405000D01*
X205650000Y-115055000D02*
X221430000Y-115055000D01*
X200640000Y-95225000D02*
X198825000Y-95225000D01*
X200640000Y-94990000D02*
X200640000Y-95225000D01*
X204500000Y-94990000D02*
X200640000Y-94990000D01*
X208360000Y-94990000D02*
X208360000Y-95225000D01*
X204500000Y-94990000D02*
X208360000Y-94990000D01*
X200640000Y-108010000D02*
X200640000Y-107775000D01*
X204500000Y-108010000D02*
X200640000Y-108010000D01*
X208360000Y-108010000D02*
X208360000Y-107775000D01*
X204500000Y-108010000D02*
X208360000Y-108010000D01*
X220261252Y-91290000D02*
X219738748Y-91290000D01*
X220261252Y-92710000D02*
X219738748Y-92710000D01*
X220236252Y-94290000D02*
X219713748Y-94290000D01*
X220236252Y-95710000D02*
X219713748Y-95710000D01*
X220261252Y-97290000D02*
X219738748Y-97290000D01*
X220261252Y-98710000D02*
X219738748Y-98710000D01*
X220261252Y-100290000D02*
X219738748Y-100290000D01*
X220261252Y-101710000D02*
X219738748Y-101710000D01*
X220261252Y-103290000D02*
X219738748Y-103290000D01*
X220261252Y-104710000D02*
X219738748Y-104710000D01*
X220261252Y-106290000D02*
X219738748Y-106290000D01*
X220261252Y-107710000D02*
X219738748Y-107710000D01*
X220261252Y-109290000D02*
X219738748Y-109290000D01*
X220261252Y-110710000D02*
X219738748Y-110710000D01*
X220261252Y-112290000D02*
X219738748Y-112290000D01*
X220261252Y-113710000D02*
X219738748Y-113710000D01*
X213210000Y-111786252D02*
X213210000Y-111263748D01*
X211790000Y-111786252D02*
X211790000Y-111263748D01*
X210710000Y-111786252D02*
X210710000Y-111263748D01*
X209290000Y-111786252D02*
X209290000Y-111263748D01*
X208210000Y-111786252D02*
X208210000Y-111263748D01*
X206790000Y-111786252D02*
X206790000Y-111263748D01*
X205710000Y-111786252D02*
X205710000Y-111263748D01*
X204290000Y-111786252D02*
X204290000Y-111263748D01*
X228330000Y-123250000D02*
X227000000Y-123250000D01*
X228330000Y-121920000D02*
X228330000Y-123250000D01*
X225730000Y-123250000D02*
X223130000Y-123250000D01*
X225730000Y-120650000D02*
X225730000Y-123250000D01*
X228330000Y-120650000D02*
X225730000Y-120650000D01*
X223130000Y-123250000D02*
X223130000Y-112970000D01*
X228330000Y-120650000D02*
X228330000Y-112970000D01*
X228330000Y-112970000D02*
X223130000Y-112970000D01*
X228330000Y-111830000D02*
X227000000Y-111830000D01*
X228330000Y-110500000D02*
X228330000Y-111830000D01*
X225730000Y-111830000D02*
X223130000Y-111830000D01*
X225730000Y-109230000D02*
X225730000Y-111830000D01*
X228330000Y-109230000D02*
X225730000Y-109230000D01*
X223130000Y-111830000D02*
X223130000Y-91390000D01*
X228330000Y-109230000D02*
X228330000Y-91390000D01*
X228330000Y-91390000D02*
X223130000Y-91390000D01*
X198950000Y-113500000D02*
X203050000Y-113500000D01*
X203050000Y-113500000D02*
X203050000Y-115500000D01*
X203050000Y-115500000D02*
X198950000Y-115500000D01*
X198950000Y-115500000D02*
X198950000Y-113500000D01*
X199700000Y-115700000D02*
X199400000Y-116000000D01*
X199400000Y-116000000D02*
X200000000Y-116000000D01*
X199700000Y-115700000D02*
X200000000Y-116000000D01*
X198950000Y-110500000D02*
X203050000Y-110500000D01*
X203050000Y-110500000D02*
X203050000Y-112500000D01*
X203050000Y-112500000D02*
X198950000Y-112500000D01*
X198950000Y-112500000D02*
X198950000Y-110500000D01*
X199700000Y-112700000D02*
X199400000Y-113000000D01*
X199400000Y-113000000D02*
X200000000Y-113000000D01*
X199700000Y-112700000D02*
X200000000Y-113000000D01*
X216261252Y-91290000D02*
X215738748Y-91290000D01*
X216261252Y-92710000D02*
X215738748Y-92710000D01*
X216261252Y-94290000D02*
X215738748Y-94290000D01*
X216261252Y-95710000D02*
X215738748Y-95710000D01*
X216261252Y-97290000D02*
X215738748Y-97290000D01*
X216261252Y-98710000D02*
X215738748Y-98710000D01*
X216261252Y-100290000D02*
X215738748Y-100290000D01*
X216261252Y-101710000D02*
X215738748Y-101710000D01*
X216261252Y-103290000D02*
X215738748Y-103290000D01*
X216261252Y-104710000D02*
X215738748Y-104710000D01*
X216261252Y-106290000D02*
X215738748Y-106290000D01*
X216261252Y-107710000D02*
X215738748Y-107710000D01*
X216261252Y-109290000D02*
X215738748Y-109290000D01*
X216261252Y-110710000D02*
X215738748Y-110710000D01*
X216286252Y-112290000D02*
X215763748Y-112290000D01*
X216286252Y-113710000D02*
X215763748Y-113710000D01*
X212460000Y-107261252D02*
X212460000Y-106738748D01*
X211040000Y-107261252D02*
X211040000Y-106738748D01*
X211040000Y-100738748D02*
X211040000Y-101261252D01*
X212460000Y-100738748D02*
X212460000Y-101261252D01*
X219614285Y-90771428D02*
X219414285Y-90485714D01*
X219271428Y-90771428D02*
X219271428Y-90171428D01*
X219500000Y-90171428D01*
X219557142Y-90200000D01*
X219585714Y-90228571D01*
X219614285Y-90285714D01*
X219614285Y-90371428D01*
X219585714Y-90428571D01*
X219557142Y-90457142D01*
X219500000Y-90485714D01*
X219271428Y-90485714D01*
X220185714Y-90771428D02*
X219842857Y-90771428D01*
X220014285Y-90771428D02*
X220014285Y-90171428D01*
X219957142Y-90257142D01*
X219900000Y-90314285D01*
X219842857Y-90342857D01*
X220414285Y-90228571D02*
X220442857Y-90200000D01*
X220500000Y-90171428D01*
X220642857Y-90171428D01*
X220700000Y-90200000D01*
X220728571Y-90228571D01*
X220757142Y-90285714D01*
X220757142Y-90342857D01*
X220728571Y-90428571D01*
X220385714Y-90771428D01*
X220757142Y-90771428D01*
X219589285Y-93771428D02*
X219389285Y-93485714D01*
X219246428Y-93771428D02*
X219246428Y-93171428D01*
X219475000Y-93171428D01*
X219532142Y-93200000D01*
X219560714Y-93228571D01*
X219589285Y-93285714D01*
X219589285Y-93371428D01*
X219560714Y-93428571D01*
X219532142Y-93457142D01*
X219475000Y-93485714D01*
X219246428Y-93485714D01*
X220160714Y-93771428D02*
X219817857Y-93771428D01*
X219989285Y-93771428D02*
X219989285Y-93171428D01*
X219932142Y-93257142D01*
X219875000Y-93314285D01*
X219817857Y-93342857D01*
X220732142Y-93771428D02*
X220389285Y-93771428D01*
X220560714Y-93771428D02*
X220560714Y-93171428D01*
X220503571Y-93257142D01*
X220446428Y-93314285D01*
X220389285Y-93342857D01*
X219614285Y-96771428D02*
X219414285Y-96485714D01*
X219271428Y-96771428D02*
X219271428Y-96171428D01*
X219500000Y-96171428D01*
X219557142Y-96200000D01*
X219585714Y-96228571D01*
X219614285Y-96285714D01*
X219614285Y-96371428D01*
X219585714Y-96428571D01*
X219557142Y-96457142D01*
X219500000Y-96485714D01*
X219271428Y-96485714D01*
X220185714Y-96771428D02*
X219842857Y-96771428D01*
X220014285Y-96771428D02*
X220014285Y-96171428D01*
X219957142Y-96257142D01*
X219900000Y-96314285D01*
X219842857Y-96342857D01*
X220557142Y-96171428D02*
X220614285Y-96171428D01*
X220671428Y-96200000D01*
X220700000Y-96228571D01*
X220728571Y-96285714D01*
X220757142Y-96400000D01*
X220757142Y-96542857D01*
X220728571Y-96657142D01*
X220700000Y-96714285D01*
X220671428Y-96742857D01*
X220614285Y-96771428D01*
X220557142Y-96771428D01*
X220500000Y-96742857D01*
X220471428Y-96714285D01*
X220442857Y-96657142D01*
X220414285Y-96542857D01*
X220414285Y-96400000D01*
X220442857Y-96285714D01*
X220471428Y-96228571D01*
X220500000Y-96200000D01*
X220557142Y-96171428D01*
X219900000Y-99771428D02*
X219700000Y-99485714D01*
X219557142Y-99771428D02*
X219557142Y-99171428D01*
X219785714Y-99171428D01*
X219842857Y-99200000D01*
X219871428Y-99228571D01*
X219900000Y-99285714D01*
X219900000Y-99371428D01*
X219871428Y-99428571D01*
X219842857Y-99457142D01*
X219785714Y-99485714D01*
X219557142Y-99485714D01*
X220185714Y-99771428D02*
X220300000Y-99771428D01*
X220357142Y-99742857D01*
X220385714Y-99714285D01*
X220442857Y-99628571D01*
X220471428Y-99514285D01*
X220471428Y-99285714D01*
X220442857Y-99228571D01*
X220414285Y-99200000D01*
X220357142Y-99171428D01*
X220242857Y-99171428D01*
X220185714Y-99200000D01*
X220157142Y-99228571D01*
X220128571Y-99285714D01*
X220128571Y-99428571D01*
X220157142Y-99485714D01*
X220185714Y-99514285D01*
X220242857Y-99542857D01*
X220357142Y-99542857D01*
X220414285Y-99514285D01*
X220442857Y-99485714D01*
X220471428Y-99428571D01*
X219900000Y-102771428D02*
X219700000Y-102485714D01*
X219557142Y-102771428D02*
X219557142Y-102171428D01*
X219785714Y-102171428D01*
X219842857Y-102200000D01*
X219871428Y-102228571D01*
X219900000Y-102285714D01*
X219900000Y-102371428D01*
X219871428Y-102428571D01*
X219842857Y-102457142D01*
X219785714Y-102485714D01*
X219557142Y-102485714D01*
X220242857Y-102428571D02*
X220185714Y-102400000D01*
X220157142Y-102371428D01*
X220128571Y-102314285D01*
X220128571Y-102285714D01*
X220157142Y-102228571D01*
X220185714Y-102200000D01*
X220242857Y-102171428D01*
X220357142Y-102171428D01*
X220414285Y-102200000D01*
X220442857Y-102228571D01*
X220471428Y-102285714D01*
X220471428Y-102314285D01*
X220442857Y-102371428D01*
X220414285Y-102400000D01*
X220357142Y-102428571D01*
X220242857Y-102428571D01*
X220185714Y-102457142D01*
X220157142Y-102485714D01*
X220128571Y-102542857D01*
X220128571Y-102657142D01*
X220157142Y-102714285D01*
X220185714Y-102742857D01*
X220242857Y-102771428D01*
X220357142Y-102771428D01*
X220414285Y-102742857D01*
X220442857Y-102714285D01*
X220471428Y-102657142D01*
X220471428Y-102542857D01*
X220442857Y-102485714D01*
X220414285Y-102457142D01*
X220357142Y-102428571D01*
X219900000Y-105771428D02*
X219700000Y-105485714D01*
X219557142Y-105771428D02*
X219557142Y-105171428D01*
X219785714Y-105171428D01*
X219842857Y-105200000D01*
X219871428Y-105228571D01*
X219900000Y-105285714D01*
X219900000Y-105371428D01*
X219871428Y-105428571D01*
X219842857Y-105457142D01*
X219785714Y-105485714D01*
X219557142Y-105485714D01*
X220100000Y-105171428D02*
X220500000Y-105171428D01*
X220242857Y-105771428D01*
X219900000Y-108771428D02*
X219700000Y-108485714D01*
X219557142Y-108771428D02*
X219557142Y-108171428D01*
X219785714Y-108171428D01*
X219842857Y-108200000D01*
X219871428Y-108228571D01*
X219900000Y-108285714D01*
X219900000Y-108371428D01*
X219871428Y-108428571D01*
X219842857Y-108457142D01*
X219785714Y-108485714D01*
X219557142Y-108485714D01*
X220414285Y-108171428D02*
X220300000Y-108171428D01*
X220242857Y-108200000D01*
X220214285Y-108228571D01*
X220157142Y-108314285D01*
X220128571Y-108428571D01*
X220128571Y-108657142D01*
X220157142Y-108714285D01*
X220185714Y-108742857D01*
X220242857Y-108771428D01*
X220357142Y-108771428D01*
X220414285Y-108742857D01*
X220442857Y-108714285D01*
X220471428Y-108657142D01*
X220471428Y-108514285D01*
X220442857Y-108457142D01*
X220414285Y-108428571D01*
X220357142Y-108400000D01*
X220242857Y-108400000D01*
X220185714Y-108428571D01*
X220157142Y-108457142D01*
X220128571Y-108514285D01*
X219900000Y-111771428D02*
X219700000Y-111485714D01*
X219557142Y-111771428D02*
X219557142Y-111171428D01*
X219785714Y-111171428D01*
X219842857Y-111200000D01*
X219871428Y-111228571D01*
X219900000Y-111285714D01*
X219900000Y-111371428D01*
X219871428Y-111428571D01*
X219842857Y-111457142D01*
X219785714Y-111485714D01*
X219557142Y-111485714D01*
X220442857Y-111171428D02*
X220157142Y-111171428D01*
X220128571Y-111457142D01*
X220157142Y-111428571D01*
X220214285Y-111400000D01*
X220357142Y-111400000D01*
X220414285Y-111428571D01*
X220442857Y-111457142D01*
X220471428Y-111514285D01*
X220471428Y-111657142D01*
X220442857Y-111714285D01*
X220414285Y-111742857D01*
X220357142Y-111771428D01*
X220214285Y-111771428D01*
X220157142Y-111742857D01*
X220128571Y-111714285D01*
X212400000Y-114271428D02*
X212200000Y-113985714D01*
X212057142Y-114271428D02*
X212057142Y-113671428D01*
X212285714Y-113671428D01*
X212342857Y-113700000D01*
X212371428Y-113728571D01*
X212400000Y-113785714D01*
X212400000Y-113871428D01*
X212371428Y-113928571D01*
X212342857Y-113957142D01*
X212285714Y-113985714D01*
X212057142Y-113985714D01*
X212914285Y-113871428D02*
X212914285Y-114271428D01*
X212771428Y-113642857D02*
X212628571Y-114071428D01*
X213000000Y-114071428D01*
X209900000Y-114271428D02*
X209700000Y-113985714D01*
X209557142Y-114271428D02*
X209557142Y-113671428D01*
X209785714Y-113671428D01*
X209842857Y-113700000D01*
X209871428Y-113728571D01*
X209900000Y-113785714D01*
X209900000Y-113871428D01*
X209871428Y-113928571D01*
X209842857Y-113957142D01*
X209785714Y-113985714D01*
X209557142Y-113985714D01*
X210100000Y-113671428D02*
X210471428Y-113671428D01*
X210271428Y-113900000D01*
X210357142Y-113900000D01*
X210414285Y-113928571D01*
X210442857Y-113957142D01*
X210471428Y-114014285D01*
X210471428Y-114157142D01*
X210442857Y-114214285D01*
X210414285Y-114242857D01*
X210357142Y-114271428D01*
X210185714Y-114271428D01*
X210128571Y-114242857D01*
X210100000Y-114214285D01*
X207400000Y-114271428D02*
X207200000Y-113985714D01*
X207057142Y-114271428D02*
X207057142Y-113671428D01*
X207285714Y-113671428D01*
X207342857Y-113700000D01*
X207371428Y-113728571D01*
X207400000Y-113785714D01*
X207400000Y-113871428D01*
X207371428Y-113928571D01*
X207342857Y-113957142D01*
X207285714Y-113985714D01*
X207057142Y-113985714D01*
X207628571Y-113728571D02*
X207657142Y-113700000D01*
X207714285Y-113671428D01*
X207857142Y-113671428D01*
X207914285Y-113700000D01*
X207942857Y-113728571D01*
X207971428Y-113785714D01*
X207971428Y-113842857D01*
X207942857Y-113928571D01*
X207600000Y-114271428D01*
X207971428Y-114271428D01*
X204900000Y-114271428D02*
X204700000Y-113985714D01*
X204557142Y-114271428D02*
X204557142Y-113671428D01*
X204785714Y-113671428D01*
X204842857Y-113700000D01*
X204871428Y-113728571D01*
X204900000Y-113785714D01*
X204900000Y-113871428D01*
X204871428Y-113928571D01*
X204842857Y-113957142D01*
X204785714Y-113985714D01*
X204557142Y-113985714D01*
X205471428Y-114271428D02*
X205128571Y-114271428D01*
X205300000Y-114271428D02*
X205300000Y-113671428D01*
X205242857Y-113757142D01*
X205185714Y-113814285D01*
X205128571Y-113842857D01*
X215614285Y-90714285D02*
X215585714Y-90742857D01*
X215500000Y-90771428D01*
X215442857Y-90771428D01*
X215357142Y-90742857D01*
X215300000Y-90685714D01*
X215271428Y-90628571D01*
X215242857Y-90514285D01*
X215242857Y-90428571D01*
X215271428Y-90314285D01*
X215300000Y-90257142D01*
X215357142Y-90200000D01*
X215442857Y-90171428D01*
X215500000Y-90171428D01*
X215585714Y-90200000D01*
X215614285Y-90228571D01*
X216185714Y-90771428D02*
X215842857Y-90771428D01*
X216014285Y-90771428D02*
X216014285Y-90171428D01*
X215957142Y-90257142D01*
X215900000Y-90314285D01*
X215842857Y-90342857D01*
X216557142Y-90171428D02*
X216614285Y-90171428D01*
X216671428Y-90200000D01*
X216700000Y-90228571D01*
X216728571Y-90285714D01*
X216757142Y-90400000D01*
X216757142Y-90542857D01*
X216728571Y-90657142D01*
X216700000Y-90714285D01*
X216671428Y-90742857D01*
X216614285Y-90771428D01*
X216557142Y-90771428D01*
X216500000Y-90742857D01*
X216471428Y-90714285D01*
X216442857Y-90657142D01*
X216414285Y-90542857D01*
X216414285Y-90400000D01*
X216442857Y-90285714D01*
X216471428Y-90228571D01*
X216500000Y-90200000D01*
X216557142Y-90171428D01*
X215900000Y-93714285D02*
X215871428Y-93742857D01*
X215785714Y-93771428D01*
X215728571Y-93771428D01*
X215642857Y-93742857D01*
X215585714Y-93685714D01*
X215557142Y-93628571D01*
X215528571Y-93514285D01*
X215528571Y-93428571D01*
X215557142Y-93314285D01*
X215585714Y-93257142D01*
X215642857Y-93200000D01*
X215728571Y-93171428D01*
X215785714Y-93171428D01*
X215871428Y-93200000D01*
X215900000Y-93228571D01*
X216185714Y-93771428D02*
X216300000Y-93771428D01*
X216357142Y-93742857D01*
X216385714Y-93714285D01*
X216442857Y-93628571D01*
X216471428Y-93514285D01*
X216471428Y-93285714D01*
X216442857Y-93228571D01*
X216414285Y-93200000D01*
X216357142Y-93171428D01*
X216242857Y-93171428D01*
X216185714Y-93200000D01*
X216157142Y-93228571D01*
X216128571Y-93285714D01*
X216128571Y-93428571D01*
X216157142Y-93485714D01*
X216185714Y-93514285D01*
X216242857Y-93542857D01*
X216357142Y-93542857D01*
X216414285Y-93514285D01*
X216442857Y-93485714D01*
X216471428Y-93428571D01*
X215900000Y-96714285D02*
X215871428Y-96742857D01*
X215785714Y-96771428D01*
X215728571Y-96771428D01*
X215642857Y-96742857D01*
X215585714Y-96685714D01*
X215557142Y-96628571D01*
X215528571Y-96514285D01*
X215528571Y-96428571D01*
X215557142Y-96314285D01*
X215585714Y-96257142D01*
X215642857Y-96200000D01*
X215728571Y-96171428D01*
X215785714Y-96171428D01*
X215871428Y-96200000D01*
X215900000Y-96228571D01*
X216242857Y-96428571D02*
X216185714Y-96400000D01*
X216157142Y-96371428D01*
X216128571Y-96314285D01*
X216128571Y-96285714D01*
X216157142Y-96228571D01*
X216185714Y-96200000D01*
X216242857Y-96171428D01*
X216357142Y-96171428D01*
X216414285Y-96200000D01*
X216442857Y-96228571D01*
X216471428Y-96285714D01*
X216471428Y-96314285D01*
X216442857Y-96371428D01*
X216414285Y-96400000D01*
X216357142Y-96428571D01*
X216242857Y-96428571D01*
X216185714Y-96457142D01*
X216157142Y-96485714D01*
X216128571Y-96542857D01*
X216128571Y-96657142D01*
X216157142Y-96714285D01*
X216185714Y-96742857D01*
X216242857Y-96771428D01*
X216357142Y-96771428D01*
X216414285Y-96742857D01*
X216442857Y-96714285D01*
X216471428Y-96657142D01*
X216471428Y-96542857D01*
X216442857Y-96485714D01*
X216414285Y-96457142D01*
X216357142Y-96428571D01*
X215900000Y-99714285D02*
X215871428Y-99742857D01*
X215785714Y-99771428D01*
X215728571Y-99771428D01*
X215642857Y-99742857D01*
X215585714Y-99685714D01*
X215557142Y-99628571D01*
X215528571Y-99514285D01*
X215528571Y-99428571D01*
X215557142Y-99314285D01*
X215585714Y-99257142D01*
X215642857Y-99200000D01*
X215728571Y-99171428D01*
X215785714Y-99171428D01*
X215871428Y-99200000D01*
X215900000Y-99228571D01*
X216100000Y-99171428D02*
X216500000Y-99171428D01*
X216242857Y-99771428D01*
X215900000Y-102714285D02*
X215871428Y-102742857D01*
X215785714Y-102771428D01*
X215728571Y-102771428D01*
X215642857Y-102742857D01*
X215585714Y-102685714D01*
X215557142Y-102628571D01*
X215528571Y-102514285D01*
X215528571Y-102428571D01*
X215557142Y-102314285D01*
X215585714Y-102257142D01*
X215642857Y-102200000D01*
X215728571Y-102171428D01*
X215785714Y-102171428D01*
X215871428Y-102200000D01*
X215900000Y-102228571D01*
X216414285Y-102171428D02*
X216300000Y-102171428D01*
X216242857Y-102200000D01*
X216214285Y-102228571D01*
X216157142Y-102314285D01*
X216128571Y-102428571D01*
X216128571Y-102657142D01*
X216157142Y-102714285D01*
X216185714Y-102742857D01*
X216242857Y-102771428D01*
X216357142Y-102771428D01*
X216414285Y-102742857D01*
X216442857Y-102714285D01*
X216471428Y-102657142D01*
X216471428Y-102514285D01*
X216442857Y-102457142D01*
X216414285Y-102428571D01*
X216357142Y-102400000D01*
X216242857Y-102400000D01*
X216185714Y-102428571D01*
X216157142Y-102457142D01*
X216128571Y-102514285D01*
X215900000Y-105714285D02*
X215871428Y-105742857D01*
X215785714Y-105771428D01*
X215728571Y-105771428D01*
X215642857Y-105742857D01*
X215585714Y-105685714D01*
X215557142Y-105628571D01*
X215528571Y-105514285D01*
X215528571Y-105428571D01*
X215557142Y-105314285D01*
X215585714Y-105257142D01*
X215642857Y-105200000D01*
X215728571Y-105171428D01*
X215785714Y-105171428D01*
X215871428Y-105200000D01*
X215900000Y-105228571D01*
X216442857Y-105171428D02*
X216157142Y-105171428D01*
X216128571Y-105457142D01*
X216157142Y-105428571D01*
X216214285Y-105400000D01*
X216357142Y-105400000D01*
X216414285Y-105428571D01*
X216442857Y-105457142D01*
X216471428Y-105514285D01*
X216471428Y-105657142D01*
X216442857Y-105714285D01*
X216414285Y-105742857D01*
X216357142Y-105771428D01*
X216214285Y-105771428D01*
X216157142Y-105742857D01*
X216128571Y-105714285D01*
X215900000Y-108714285D02*
X215871428Y-108742857D01*
X215785714Y-108771428D01*
X215728571Y-108771428D01*
X215642857Y-108742857D01*
X215585714Y-108685714D01*
X215557142Y-108628571D01*
X215528571Y-108514285D01*
X215528571Y-108428571D01*
X215557142Y-108314285D01*
X215585714Y-108257142D01*
X215642857Y-108200000D01*
X215728571Y-108171428D01*
X215785714Y-108171428D01*
X215871428Y-108200000D01*
X215900000Y-108228571D01*
X216414285Y-108371428D02*
X216414285Y-108771428D01*
X216271428Y-108142857D02*
X216128571Y-108571428D01*
X216500000Y-108571428D01*
X215900000Y-111714285D02*
X215871428Y-111742857D01*
X215785714Y-111771428D01*
X215728571Y-111771428D01*
X215642857Y-111742857D01*
X215585714Y-111685714D01*
X215557142Y-111628571D01*
X215528571Y-111514285D01*
X215528571Y-111428571D01*
X215557142Y-111314285D01*
X215585714Y-111257142D01*
X215642857Y-111200000D01*
X215728571Y-111171428D01*
X215785714Y-111171428D01*
X215871428Y-111200000D01*
X215900000Y-111228571D01*
X216100000Y-111171428D02*
X216471428Y-111171428D01*
X216271428Y-111400000D01*
X216357142Y-111400000D01*
X216414285Y-111428571D01*
X216442857Y-111457142D01*
X216471428Y-111514285D01*
X216471428Y-111657142D01*
X216442857Y-111714285D01*
X216414285Y-111742857D01*
X216357142Y-111771428D01*
X216185714Y-111771428D01*
X216128571Y-111742857D01*
X216100000Y-111714285D01*
X211650000Y-104714285D02*
X211621428Y-104742857D01*
X211535714Y-104771428D01*
X211478571Y-104771428D01*
X211392857Y-104742857D01*
X211335714Y-104685714D01*
X211307142Y-104628571D01*
X211278571Y-104514285D01*
X211278571Y-104428571D01*
X211307142Y-104314285D01*
X211335714Y-104257142D01*
X211392857Y-104200000D01*
X211478571Y-104171428D01*
X211535714Y-104171428D01*
X211621428Y-104200000D01*
X211650000Y-104228571D01*
X211878571Y-104228571D02*
X211907142Y-104200000D01*
X211964285Y-104171428D01*
X212107142Y-104171428D01*
X212164285Y-104200000D01*
X212192857Y-104228571D01*
X212221428Y-104285714D01*
X212221428Y-104342857D01*
X212192857Y-104428571D01*
X211850000Y-104771428D01*
X212221428Y-104771428D01*
X211650000Y-98714285D02*
X211621428Y-98742857D01*
X211535714Y-98771428D01*
X211478571Y-98771428D01*
X211392857Y-98742857D01*
X211335714Y-98685714D01*
X211307142Y-98628571D01*
X211278571Y-98514285D01*
X211278571Y-98428571D01*
X211307142Y-98314285D01*
X211335714Y-98257142D01*
X211392857Y-98200000D01*
X211478571Y-98171428D01*
X211535714Y-98171428D01*
X211621428Y-98200000D01*
X211650000Y-98228571D01*
X212221428Y-98771428D02*
X211878571Y-98771428D01*
X212050000Y-98771428D02*
X212050000Y-98171428D01*
X211992857Y-98257142D01*
X211935714Y-98314285D01*
X211878571Y-98342857D01*
M02*
