G04 #@! TF.GenerationSoftware,KiCad,Pcbnew,5.1.5+dfsg1-2build2*
G04 #@! TF.CreationDate,2021-03-05T11:50:16+01:00*
G04 #@! TF.ProjectId,buttons,62757474-6f6e-4732-9e6b-696361645f70,rev?*
G04 #@! TF.SameCoordinates,Original*
G04 #@! TF.FileFunction,Copper,L2,Bot*
G04 #@! TF.FilePolarity,Positive*
%FSLAX46Y46*%
G04 Gerber Fmt 4.6, Leading zero omitted, Abs format (unit mm)*
G04 Created by KiCad (PCBNEW 5.1.5+dfsg1-2build2) date 2021-03-05 11:50:16*
%MOMM*%
%LPD*%
G04 APERTURE LIST*
%ADD10C,1.524000*%
%ADD11O,1.727200X1.727200*%
%ADD12R,1.727200X1.727200*%
%ADD13O,1.700000X1.700000*%
%ADD14R,1.700000X1.700000*%
%ADD15C,0.800000*%
%ADD16C,0.600000*%
%ADD17C,0.600000*%
%ADD18C,0.400000*%
%ADD19C,0.254000*%
G04 APERTURE END LIST*
D10*
X212040000Y-91000000D03*
X209500000Y-91000000D03*
X206960000Y-91000000D03*
D11*
X216080000Y-118460000D03*
X216080000Y-121000000D03*
X213540000Y-118460000D03*
X213540000Y-121000000D03*
X211000000Y-118460000D03*
D12*
X211000000Y-121000000D03*
D13*
X224460000Y-114300000D03*
X227000000Y-114300000D03*
X224460000Y-116840000D03*
X227000000Y-116840000D03*
X224460000Y-119380000D03*
X227000000Y-119380000D03*
X224460000Y-121920000D03*
D14*
X227000000Y-121920000D03*
D13*
X224460000Y-92720000D03*
X227000000Y-92720000D03*
X224460000Y-95260000D03*
X227000000Y-95260000D03*
X224460000Y-97800000D03*
X227000000Y-97800000D03*
X224460000Y-100340000D03*
X227000000Y-100340000D03*
X224460000Y-102880000D03*
X227000000Y-102880000D03*
X224460000Y-105420000D03*
X227000000Y-105420000D03*
X224460000Y-107960000D03*
X227000000Y-107960000D03*
X224460000Y-110500000D03*
D14*
X227000000Y-110500000D03*
D15*
X199750000Y-114500000D03*
X199750000Y-111500000D03*
X211750000Y-106000000D03*
X215000000Y-113000000D03*
X215000000Y-110000000D03*
X215000000Y-107000000D03*
X215000000Y-104000000D03*
X215000000Y-101000000D03*
X215000000Y-98000000D03*
X215000000Y-95000000D03*
X215000000Y-92000000D03*
D16*
X211750000Y-102025000D03*
D15*
X211750000Y-100000000D03*
D16*
X202300000Y-111500000D03*
X204750000Y-104000000D03*
X202000000Y-106250000D03*
X202250000Y-105250000D03*
X206750000Y-95000000D03*
X206750000Y-95000000D03*
X205750000Y-95750000D03*
X200000000Y-109750000D03*
X201000000Y-114500000D03*
X199500000Y-108500000D03*
X203500000Y-108500000D03*
D17*
X213540000Y-118460000D02*
X213540000Y-114040000D01*
X213540000Y-114040000D02*
X204250000Y-104750000D01*
X204250000Y-104750000D02*
X203750000Y-104250000D01*
X203750000Y-104250000D02*
X203750000Y-101000000D01*
X203750000Y-101000000D02*
X204750000Y-100000000D01*
X204750000Y-100000000D02*
X211750000Y-100000000D01*
D18*
X201750000Y-104250000D02*
X203750000Y-104250000D01*
X201000000Y-105000000D02*
X201750000Y-104250000D01*
X201000000Y-106500000D02*
X201000000Y-105000000D01*
X201750000Y-107250000D02*
X201000000Y-106500000D01*
X204500000Y-108250000D02*
X203500000Y-107250000D01*
X203500000Y-107250000D02*
X201750000Y-107250000D01*
X204500000Y-109250000D02*
X204500000Y-108250000D01*
X202300000Y-111450000D02*
X204500000Y-109250000D01*
X202300000Y-111500000D02*
X202300000Y-111450000D01*
X216080000Y-115330000D02*
X216080000Y-118460000D01*
X204750000Y-104000000D02*
X216080000Y-115330000D01*
X202000000Y-106250000D02*
X203500000Y-106250000D01*
X211000000Y-113750000D02*
X211000000Y-118460000D01*
X203500000Y-106250000D02*
X211000000Y-113750000D01*
X212263601Y-119723601D02*
X213540000Y-121000000D01*
X203750000Y-105250000D02*
X212263601Y-113763601D01*
X212263601Y-113763601D02*
X212263601Y-119723601D01*
X202250000Y-105250000D02*
X203750000Y-105250000D01*
X206750000Y-91210000D02*
X206960000Y-91000000D01*
X206750000Y-95000000D02*
X206750000Y-91210000D01*
X207290000Y-95750000D02*
X212040000Y-91000000D01*
X205750000Y-95750000D02*
X207290000Y-95750000D01*
X200000000Y-109750000D02*
X201000000Y-110750000D01*
X201000000Y-110750000D02*
X201000000Y-114500000D01*
X199500000Y-108500000D02*
X203500000Y-108500000D01*
D19*
G36*
X227254782Y-87713267D02*
G01*
X227499855Y-87787259D01*
X227725890Y-87907443D01*
X227924281Y-88069248D01*
X228087460Y-88266497D01*
X228209220Y-88491687D01*
X228284924Y-88736247D01*
X228315000Y-89022398D01*
X228315000Y-92044111D01*
X228271641Y-91953080D01*
X228097588Y-91719731D01*
X227881355Y-91524822D01*
X227631252Y-91375843D01*
X227356891Y-91278519D01*
X227127000Y-91399186D01*
X227127000Y-92593000D01*
X227147000Y-92593000D01*
X227147000Y-92847000D01*
X227127000Y-92847000D01*
X227127000Y-95133000D01*
X227147000Y-95133000D01*
X227147000Y-95387000D01*
X227127000Y-95387000D01*
X227127000Y-97673000D01*
X227147000Y-97673000D01*
X227147000Y-97927000D01*
X227127000Y-97927000D01*
X227127000Y-100213000D01*
X227147000Y-100213000D01*
X227147000Y-100467000D01*
X227127000Y-100467000D01*
X227127000Y-102753000D01*
X227147000Y-102753000D01*
X227147000Y-103007000D01*
X227127000Y-103007000D01*
X227127000Y-105293000D01*
X227147000Y-105293000D01*
X227147000Y-105547000D01*
X227127000Y-105547000D01*
X227127000Y-107833000D01*
X227147000Y-107833000D01*
X227147000Y-108087000D01*
X227127000Y-108087000D01*
X227127000Y-110373000D01*
X227147000Y-110373000D01*
X227147000Y-110627000D01*
X227127000Y-110627000D01*
X227127000Y-111826250D01*
X227285750Y-111985000D01*
X227850000Y-111988072D01*
X227974482Y-111975812D01*
X228094180Y-111939502D01*
X228204494Y-111880537D01*
X228301185Y-111801185D01*
X228315001Y-111784351D01*
X228315001Y-113624113D01*
X228271641Y-113533080D01*
X228097588Y-113299731D01*
X227881355Y-113104822D01*
X227631252Y-112955843D01*
X227356891Y-112858519D01*
X227127000Y-112979186D01*
X227127000Y-114173000D01*
X227147000Y-114173000D01*
X227147000Y-114427000D01*
X227127000Y-114427000D01*
X227127000Y-116713000D01*
X227147000Y-116713000D01*
X227147000Y-116967000D01*
X227127000Y-116967000D01*
X227127000Y-119253000D01*
X227147000Y-119253000D01*
X227147000Y-119507000D01*
X227127000Y-119507000D01*
X227127000Y-121793000D01*
X227147000Y-121793000D01*
X227147000Y-122047000D01*
X227127000Y-122047000D01*
X227127000Y-123246250D01*
X227285750Y-123405000D01*
X227850000Y-123408072D01*
X227974482Y-123395812D01*
X228094180Y-123359502D01*
X228204494Y-123300537D01*
X228289051Y-123231143D01*
X228286733Y-123254782D01*
X228212741Y-123499855D01*
X228092554Y-123725893D01*
X227930754Y-123924279D01*
X227733503Y-124087460D01*
X227508310Y-124209221D01*
X227263753Y-124284924D01*
X226977602Y-124315000D01*
X200033505Y-124315000D01*
X199745218Y-124286733D01*
X199500145Y-124212741D01*
X199274107Y-124092554D01*
X199075721Y-123930754D01*
X198912540Y-123733503D01*
X198790779Y-123508310D01*
X198715076Y-123263753D01*
X198685000Y-122977602D01*
X198685000Y-120814344D01*
X200115000Y-120814344D01*
X200115000Y-121185656D01*
X200187439Y-121549834D01*
X200329534Y-121892882D01*
X200535825Y-122201618D01*
X200798382Y-122464175D01*
X201107118Y-122670466D01*
X201450166Y-122812561D01*
X201814344Y-122885000D01*
X202185656Y-122885000D01*
X202549834Y-122812561D01*
X202892882Y-122670466D01*
X203201618Y-122464175D01*
X203464175Y-122201618D01*
X203670466Y-121892882D01*
X203682594Y-121863600D01*
X209498328Y-121863600D01*
X209510588Y-121988082D01*
X209546898Y-122107780D01*
X209605863Y-122218094D01*
X209685215Y-122314785D01*
X209781906Y-122394137D01*
X209892220Y-122453102D01*
X210011918Y-122489412D01*
X210136400Y-122501672D01*
X210714250Y-122498600D01*
X210873000Y-122339850D01*
X210873000Y-121127000D01*
X209660150Y-121127000D01*
X209501400Y-121285750D01*
X209498328Y-121863600D01*
X203682594Y-121863600D01*
X203812561Y-121549834D01*
X203885000Y-121185656D01*
X203885000Y-120814344D01*
X203812561Y-120450166D01*
X203670466Y-120107118D01*
X203464175Y-119798382D01*
X203201618Y-119535825D01*
X202892882Y-119329534D01*
X202549834Y-119187439D01*
X202185656Y-119115000D01*
X201814344Y-119115000D01*
X201450166Y-119187439D01*
X201107118Y-119329534D01*
X200798382Y-119535825D01*
X200535825Y-119798382D01*
X200329534Y-120107118D01*
X200187439Y-120450166D01*
X200115000Y-120814344D01*
X198685000Y-120814344D01*
X198685000Y-108963222D01*
X198773738Y-109096028D01*
X198903972Y-109226262D01*
X199057111Y-109328586D01*
X199147082Y-109365853D01*
X199100932Y-109477271D01*
X199065000Y-109657911D01*
X199065000Y-109842089D01*
X199100932Y-110022729D01*
X199171414Y-110192889D01*
X199273738Y-110346028D01*
X199403972Y-110476262D01*
X199557111Y-110578586D01*
X199711787Y-110642654D01*
X200165000Y-111095869D01*
X200165001Y-114072594D01*
X200100932Y-114227271D01*
X200065000Y-114407911D01*
X200065000Y-114592089D01*
X200100932Y-114772729D01*
X200171414Y-114942889D01*
X200273738Y-115096028D01*
X200403972Y-115226262D01*
X200557111Y-115328586D01*
X200727271Y-115399068D01*
X200907911Y-115435000D01*
X201092089Y-115435000D01*
X201272729Y-115399068D01*
X201442889Y-115328586D01*
X201596028Y-115226262D01*
X201726262Y-115096028D01*
X201828586Y-114942889D01*
X201899068Y-114772729D01*
X201935000Y-114592089D01*
X201935000Y-114407911D01*
X201899068Y-114227271D01*
X201835000Y-114072596D01*
X201835000Y-112313812D01*
X201857111Y-112328586D01*
X202027271Y-112399068D01*
X202207911Y-112435000D01*
X202392089Y-112435000D01*
X202572729Y-112399068D01*
X202742889Y-112328586D01*
X202896028Y-112226262D01*
X203026262Y-112096028D01*
X203128586Y-111942889D01*
X203199068Y-111772729D01*
X203209231Y-111721636D01*
X205061433Y-109869436D01*
X205093291Y-109843291D01*
X205131619Y-109796589D01*
X205197636Y-109716146D01*
X205275172Y-109571087D01*
X205322918Y-109413689D01*
X205337255Y-109268123D01*
X210165000Y-114095869D01*
X210165001Y-117215578D01*
X210044698Y-117295961D01*
X209835961Y-117504698D01*
X209671958Y-117750147D01*
X209558990Y-118022875D01*
X209501400Y-118312401D01*
X209501400Y-118607599D01*
X209558990Y-118897125D01*
X209671958Y-119169853D01*
X209835961Y-119415302D01*
X209950023Y-119529364D01*
X209892220Y-119546898D01*
X209781906Y-119605863D01*
X209685215Y-119685215D01*
X209605863Y-119781906D01*
X209546898Y-119892220D01*
X209510588Y-120011918D01*
X209498328Y-120136400D01*
X209501400Y-120714250D01*
X209660150Y-120873000D01*
X210873000Y-120873000D01*
X210873000Y-120853000D01*
X211127000Y-120853000D01*
X211127000Y-120873000D01*
X211147000Y-120873000D01*
X211147000Y-121127000D01*
X211127000Y-121127000D01*
X211127000Y-122339850D01*
X211285750Y-122498600D01*
X211863600Y-122501672D01*
X211988082Y-122489412D01*
X212107780Y-122453102D01*
X212218094Y-122394137D01*
X212314785Y-122314785D01*
X212394137Y-122218094D01*
X212453102Y-122107780D01*
X212470636Y-122049977D01*
X212584698Y-122164039D01*
X212830147Y-122328042D01*
X213102875Y-122441010D01*
X213392401Y-122498600D01*
X213687599Y-122498600D01*
X213977125Y-122441010D01*
X214249853Y-122328042D01*
X214495302Y-122164039D01*
X214704039Y-121955302D01*
X214810000Y-121796719D01*
X214915961Y-121955302D01*
X215124698Y-122164039D01*
X215370147Y-122328042D01*
X215642875Y-122441010D01*
X215932401Y-122498600D01*
X216227599Y-122498600D01*
X216517125Y-122441010D01*
X216789853Y-122328042D01*
X217035302Y-122164039D01*
X217244039Y-121955302D01*
X217408042Y-121709853D01*
X217521010Y-121437125D01*
X217578600Y-121147599D01*
X217578600Y-120852401D01*
X217521010Y-120562875D01*
X217408042Y-120290147D01*
X217244039Y-120044698D01*
X217035302Y-119835961D01*
X216876719Y-119730000D01*
X217035302Y-119624039D01*
X217244039Y-119415302D01*
X217408042Y-119169853D01*
X217521010Y-118897125D01*
X217578600Y-118607599D01*
X217578600Y-118312401D01*
X217521010Y-118022875D01*
X217408042Y-117750147D01*
X217244039Y-117504698D01*
X217035302Y-117295961D01*
X216915000Y-117215578D01*
X216915000Y-115371018D01*
X216919040Y-115330000D01*
X216902918Y-115166312D01*
X216855172Y-115008913D01*
X216777636Y-114863854D01*
X216699439Y-114768570D01*
X216699437Y-114768568D01*
X216673291Y-114736709D01*
X216641433Y-114710564D01*
X216084609Y-114153740D01*
X222975000Y-114153740D01*
X222975000Y-114446260D01*
X223032068Y-114733158D01*
X223144010Y-115003411D01*
X223306525Y-115246632D01*
X223513368Y-115453475D01*
X223687760Y-115570000D01*
X223513368Y-115686525D01*
X223306525Y-115893368D01*
X223144010Y-116136589D01*
X223032068Y-116406842D01*
X222975000Y-116693740D01*
X222975000Y-116986260D01*
X223032068Y-117273158D01*
X223144010Y-117543411D01*
X223306525Y-117786632D01*
X223513368Y-117993475D01*
X223687760Y-118110000D01*
X223513368Y-118226525D01*
X223306525Y-118433368D01*
X223144010Y-118676589D01*
X223032068Y-118946842D01*
X222975000Y-119233740D01*
X222975000Y-119526260D01*
X223032068Y-119813158D01*
X223144010Y-120083411D01*
X223306525Y-120326632D01*
X223513368Y-120533475D01*
X223687760Y-120650000D01*
X223513368Y-120766525D01*
X223306525Y-120973368D01*
X223144010Y-121216589D01*
X223032068Y-121486842D01*
X222975000Y-121773740D01*
X222975000Y-122066260D01*
X223032068Y-122353158D01*
X223144010Y-122623411D01*
X223306525Y-122866632D01*
X223513368Y-123073475D01*
X223756589Y-123235990D01*
X224026842Y-123347932D01*
X224313740Y-123405000D01*
X224606260Y-123405000D01*
X224893158Y-123347932D01*
X225163411Y-123235990D01*
X225406632Y-123073475D01*
X225538487Y-122941620D01*
X225560498Y-123014180D01*
X225619463Y-123124494D01*
X225698815Y-123221185D01*
X225795506Y-123300537D01*
X225905820Y-123359502D01*
X226025518Y-123395812D01*
X226150000Y-123408072D01*
X226714250Y-123405000D01*
X226873000Y-123246250D01*
X226873000Y-122047000D01*
X226853000Y-122047000D01*
X226853000Y-121793000D01*
X226873000Y-121793000D01*
X226873000Y-119507000D01*
X226853000Y-119507000D01*
X226853000Y-119253000D01*
X226873000Y-119253000D01*
X226873000Y-116967000D01*
X226853000Y-116967000D01*
X226853000Y-116713000D01*
X226873000Y-116713000D01*
X226873000Y-114427000D01*
X226853000Y-114427000D01*
X226853000Y-114173000D01*
X226873000Y-114173000D01*
X226873000Y-112979186D01*
X226643109Y-112858519D01*
X226368748Y-112955843D01*
X226118645Y-113104822D01*
X225902412Y-113299731D01*
X225731100Y-113529406D01*
X225613475Y-113353368D01*
X225406632Y-113146525D01*
X225163411Y-112984010D01*
X224893158Y-112872068D01*
X224606260Y-112815000D01*
X224313740Y-112815000D01*
X224026842Y-112872068D01*
X223756589Y-112984010D01*
X223513368Y-113146525D01*
X223306525Y-113353368D01*
X223144010Y-113596589D01*
X223032068Y-113866842D01*
X222975000Y-114153740D01*
X216084609Y-114153740D01*
X205642655Y-103711788D01*
X205578586Y-103557111D01*
X205476262Y-103403972D01*
X205346028Y-103273738D01*
X205192889Y-103171414D01*
X205022729Y-103100932D01*
X204842089Y-103065000D01*
X204685000Y-103065000D01*
X204685000Y-101387289D01*
X205137289Y-100935000D01*
X211302705Y-100935000D01*
X211448102Y-100995226D01*
X211648061Y-101035000D01*
X211851939Y-101035000D01*
X212051898Y-100995226D01*
X212240256Y-100917205D01*
X212409774Y-100803937D01*
X212553937Y-100659774D01*
X212667205Y-100490256D01*
X212745226Y-100301898D01*
X212785000Y-100101939D01*
X212785000Y-99898061D01*
X212745226Y-99698102D01*
X212667205Y-99509744D01*
X212553937Y-99340226D01*
X212409774Y-99196063D01*
X212240256Y-99082795D01*
X212051898Y-99004774D01*
X211851939Y-98965000D01*
X211648061Y-98965000D01*
X211448102Y-99004774D01*
X211302705Y-99065000D01*
X204795935Y-99065000D01*
X204750000Y-99060476D01*
X204566708Y-99078528D01*
X204390459Y-99131993D01*
X204366458Y-99144822D01*
X204228028Y-99218814D01*
X204085656Y-99335656D01*
X204056370Y-99371341D01*
X203121336Y-100306375D01*
X203085657Y-100335656D01*
X202968815Y-100478028D01*
X202945327Y-100521972D01*
X202881994Y-100640460D01*
X202828529Y-100816709D01*
X202810476Y-101000000D01*
X202815001Y-101045942D01*
X202815000Y-103415000D01*
X201791018Y-103415000D01*
X201749999Y-103410960D01*
X201708981Y-103415000D01*
X201586311Y-103427082D01*
X201428913Y-103474828D01*
X201283854Y-103552364D01*
X201156709Y-103656709D01*
X201130558Y-103688574D01*
X200438574Y-104380559D01*
X200406710Y-104406709D01*
X200350806Y-104474828D01*
X200302364Y-104533855D01*
X200224828Y-104678914D01*
X200177082Y-104836312D01*
X200160960Y-105000000D01*
X200165001Y-105041028D01*
X200165000Y-106458981D01*
X200160960Y-106500000D01*
X200165000Y-106541018D01*
X200177082Y-106663688D01*
X200224828Y-106821086D01*
X200302364Y-106966145D01*
X200406709Y-107093291D01*
X200438578Y-107119446D01*
X200984132Y-107665000D01*
X199927404Y-107665000D01*
X199772729Y-107600932D01*
X199592089Y-107565000D01*
X199407911Y-107565000D01*
X199227271Y-107600932D01*
X199057111Y-107671414D01*
X198903972Y-107773738D01*
X198773738Y-107903972D01*
X198685000Y-108036778D01*
X198685000Y-95657911D01*
X204815000Y-95657911D01*
X204815000Y-95842089D01*
X204850932Y-96022729D01*
X204921414Y-96192889D01*
X205023738Y-96346028D01*
X205153972Y-96476262D01*
X205307111Y-96578586D01*
X205477271Y-96649068D01*
X205657911Y-96685000D01*
X205842089Y-96685000D01*
X206022729Y-96649068D01*
X206177404Y-96585000D01*
X207248982Y-96585000D01*
X207290000Y-96589040D01*
X207331018Y-96585000D01*
X207331019Y-96585000D01*
X207453689Y-96572918D01*
X207611087Y-96525172D01*
X207756146Y-96447636D01*
X207883291Y-96343291D01*
X207909446Y-96311421D01*
X211647127Y-92573740D01*
X222975000Y-92573740D01*
X222975000Y-92866260D01*
X223032068Y-93153158D01*
X223144010Y-93423411D01*
X223306525Y-93666632D01*
X223513368Y-93873475D01*
X223687760Y-93990000D01*
X223513368Y-94106525D01*
X223306525Y-94313368D01*
X223144010Y-94556589D01*
X223032068Y-94826842D01*
X222975000Y-95113740D01*
X222975000Y-95406260D01*
X223032068Y-95693158D01*
X223144010Y-95963411D01*
X223306525Y-96206632D01*
X223513368Y-96413475D01*
X223687760Y-96530000D01*
X223513368Y-96646525D01*
X223306525Y-96853368D01*
X223144010Y-97096589D01*
X223032068Y-97366842D01*
X222975000Y-97653740D01*
X222975000Y-97946260D01*
X223032068Y-98233158D01*
X223144010Y-98503411D01*
X223306525Y-98746632D01*
X223513368Y-98953475D01*
X223687760Y-99070000D01*
X223513368Y-99186525D01*
X223306525Y-99393368D01*
X223144010Y-99636589D01*
X223032068Y-99906842D01*
X222975000Y-100193740D01*
X222975000Y-100486260D01*
X223032068Y-100773158D01*
X223144010Y-101043411D01*
X223306525Y-101286632D01*
X223513368Y-101493475D01*
X223687760Y-101610000D01*
X223513368Y-101726525D01*
X223306525Y-101933368D01*
X223144010Y-102176589D01*
X223032068Y-102446842D01*
X222975000Y-102733740D01*
X222975000Y-103026260D01*
X223032068Y-103313158D01*
X223144010Y-103583411D01*
X223306525Y-103826632D01*
X223513368Y-104033475D01*
X223687760Y-104150000D01*
X223513368Y-104266525D01*
X223306525Y-104473368D01*
X223144010Y-104716589D01*
X223032068Y-104986842D01*
X222975000Y-105273740D01*
X222975000Y-105566260D01*
X223032068Y-105853158D01*
X223144010Y-106123411D01*
X223306525Y-106366632D01*
X223513368Y-106573475D01*
X223687760Y-106690000D01*
X223513368Y-106806525D01*
X223306525Y-107013368D01*
X223144010Y-107256589D01*
X223032068Y-107526842D01*
X222975000Y-107813740D01*
X222975000Y-108106260D01*
X223032068Y-108393158D01*
X223144010Y-108663411D01*
X223306525Y-108906632D01*
X223513368Y-109113475D01*
X223687760Y-109230000D01*
X223513368Y-109346525D01*
X223306525Y-109553368D01*
X223144010Y-109796589D01*
X223032068Y-110066842D01*
X222975000Y-110353740D01*
X222975000Y-110646260D01*
X223032068Y-110933158D01*
X223144010Y-111203411D01*
X223306525Y-111446632D01*
X223513368Y-111653475D01*
X223756589Y-111815990D01*
X224026842Y-111927932D01*
X224313740Y-111985000D01*
X224606260Y-111985000D01*
X224893158Y-111927932D01*
X225163411Y-111815990D01*
X225406632Y-111653475D01*
X225538487Y-111521620D01*
X225560498Y-111594180D01*
X225619463Y-111704494D01*
X225698815Y-111801185D01*
X225795506Y-111880537D01*
X225905820Y-111939502D01*
X226025518Y-111975812D01*
X226150000Y-111988072D01*
X226714250Y-111985000D01*
X226873000Y-111826250D01*
X226873000Y-110627000D01*
X226853000Y-110627000D01*
X226853000Y-110373000D01*
X226873000Y-110373000D01*
X226873000Y-108087000D01*
X226853000Y-108087000D01*
X226853000Y-107833000D01*
X226873000Y-107833000D01*
X226873000Y-105547000D01*
X226853000Y-105547000D01*
X226853000Y-105293000D01*
X226873000Y-105293000D01*
X226873000Y-103007000D01*
X226853000Y-103007000D01*
X226853000Y-102753000D01*
X226873000Y-102753000D01*
X226873000Y-100467000D01*
X226853000Y-100467000D01*
X226853000Y-100213000D01*
X226873000Y-100213000D01*
X226873000Y-97927000D01*
X226853000Y-97927000D01*
X226853000Y-97673000D01*
X226873000Y-97673000D01*
X226873000Y-95387000D01*
X226853000Y-95387000D01*
X226853000Y-95133000D01*
X226873000Y-95133000D01*
X226873000Y-92847000D01*
X226853000Y-92847000D01*
X226853000Y-92593000D01*
X226873000Y-92593000D01*
X226873000Y-91399186D01*
X226643109Y-91278519D01*
X226368748Y-91375843D01*
X226118645Y-91524822D01*
X225902412Y-91719731D01*
X225731100Y-91949406D01*
X225613475Y-91773368D01*
X225406632Y-91566525D01*
X225163411Y-91404010D01*
X224893158Y-91292068D01*
X224606260Y-91235000D01*
X224313740Y-91235000D01*
X224026842Y-91292068D01*
X223756589Y-91404010D01*
X223513368Y-91566525D01*
X223306525Y-91773368D01*
X223144010Y-92016589D01*
X223032068Y-92286842D01*
X222975000Y-92573740D01*
X211647127Y-92573740D01*
X211836898Y-92383969D01*
X211902408Y-92397000D01*
X212177592Y-92397000D01*
X212447490Y-92343314D01*
X212701727Y-92238005D01*
X212930535Y-92085120D01*
X213125120Y-91890535D01*
X213278005Y-91661727D01*
X213383314Y-91407490D01*
X213437000Y-91137592D01*
X213437000Y-90862408D01*
X213383314Y-90592510D01*
X213278005Y-90338273D01*
X213125120Y-90109465D01*
X212930535Y-89914880D01*
X212701727Y-89761995D01*
X212447490Y-89656686D01*
X212177592Y-89603000D01*
X211902408Y-89603000D01*
X211632510Y-89656686D01*
X211378273Y-89761995D01*
X211149465Y-89914880D01*
X210954880Y-90109465D01*
X210801995Y-90338273D01*
X210772308Y-90409943D01*
X210767636Y-90396977D01*
X210705656Y-90281020D01*
X210465565Y-90214040D01*
X209679605Y-91000000D01*
X209693748Y-91014143D01*
X209514143Y-91193748D01*
X209500000Y-91179605D01*
X208714040Y-91965565D01*
X208781020Y-92205656D01*
X209030048Y-92322756D01*
X209297135Y-92389023D01*
X209462363Y-92396769D01*
X207585000Y-94274133D01*
X207585000Y-92253218D01*
X207621727Y-92238005D01*
X207850535Y-92085120D01*
X208045120Y-91890535D01*
X208198005Y-91661727D01*
X208227692Y-91590057D01*
X208232364Y-91603023D01*
X208294344Y-91718980D01*
X208534435Y-91785960D01*
X209320395Y-91000000D01*
X208534435Y-90214040D01*
X208294344Y-90281020D01*
X208230515Y-90416760D01*
X208198005Y-90338273D01*
X208045120Y-90109465D01*
X207970090Y-90034435D01*
X208714040Y-90034435D01*
X209500000Y-90820395D01*
X210285960Y-90034435D01*
X210218980Y-89794344D01*
X209969952Y-89677244D01*
X209702865Y-89610977D01*
X209427983Y-89598090D01*
X209155867Y-89639078D01*
X208896977Y-89732364D01*
X208781020Y-89794344D01*
X208714040Y-90034435D01*
X207970090Y-90034435D01*
X207850535Y-89914880D01*
X207621727Y-89761995D01*
X207367490Y-89656686D01*
X207097592Y-89603000D01*
X206822408Y-89603000D01*
X206552510Y-89656686D01*
X206298273Y-89761995D01*
X206069465Y-89914880D01*
X205874880Y-90109465D01*
X205721995Y-90338273D01*
X205616686Y-90592510D01*
X205563000Y-90862408D01*
X205563000Y-91137592D01*
X205616686Y-91407490D01*
X205721995Y-91661727D01*
X205874880Y-91890535D01*
X205915001Y-91930656D01*
X205915000Y-94572596D01*
X205850932Y-94727271D01*
X205833481Y-94815000D01*
X205657911Y-94815000D01*
X205477271Y-94850932D01*
X205307111Y-94921414D01*
X205153972Y-95023738D01*
X205023738Y-95153972D01*
X204921414Y-95307111D01*
X204850932Y-95477271D01*
X204815000Y-95657911D01*
X198685000Y-95657911D01*
X198685000Y-90814344D01*
X200115000Y-90814344D01*
X200115000Y-91185656D01*
X200187439Y-91549834D01*
X200329534Y-91892882D01*
X200535825Y-92201618D01*
X200798382Y-92464175D01*
X201107118Y-92670466D01*
X201450166Y-92812561D01*
X201814344Y-92885000D01*
X202185656Y-92885000D01*
X202549834Y-92812561D01*
X202892882Y-92670466D01*
X203201618Y-92464175D01*
X203464175Y-92201618D01*
X203670466Y-91892882D01*
X203812561Y-91549834D01*
X203885000Y-91185656D01*
X203885000Y-90814344D01*
X203812561Y-90450166D01*
X203670466Y-90107118D01*
X203464175Y-89798382D01*
X203201618Y-89535825D01*
X202892882Y-89329534D01*
X202549834Y-89187439D01*
X202185656Y-89115000D01*
X201814344Y-89115000D01*
X201450166Y-89187439D01*
X201107118Y-89329534D01*
X200798382Y-89535825D01*
X200535825Y-89798382D01*
X200329534Y-90107118D01*
X200187439Y-90450166D01*
X200115000Y-90814344D01*
X198685000Y-90814344D01*
X198685000Y-89033505D01*
X198713267Y-88745218D01*
X198787259Y-88500145D01*
X198907443Y-88274110D01*
X199069248Y-88075719D01*
X199266497Y-87912540D01*
X199491687Y-87790780D01*
X199736247Y-87715076D01*
X200022398Y-87685000D01*
X226966495Y-87685000D01*
X227254782Y-87713267D01*
G37*
X227254782Y-87713267D02*
X227499855Y-87787259D01*
X227725890Y-87907443D01*
X227924281Y-88069248D01*
X228087460Y-88266497D01*
X228209220Y-88491687D01*
X228284924Y-88736247D01*
X228315000Y-89022398D01*
X228315000Y-92044111D01*
X228271641Y-91953080D01*
X228097588Y-91719731D01*
X227881355Y-91524822D01*
X227631252Y-91375843D01*
X227356891Y-91278519D01*
X227127000Y-91399186D01*
X227127000Y-92593000D01*
X227147000Y-92593000D01*
X227147000Y-92847000D01*
X227127000Y-92847000D01*
X227127000Y-95133000D01*
X227147000Y-95133000D01*
X227147000Y-95387000D01*
X227127000Y-95387000D01*
X227127000Y-97673000D01*
X227147000Y-97673000D01*
X227147000Y-97927000D01*
X227127000Y-97927000D01*
X227127000Y-100213000D01*
X227147000Y-100213000D01*
X227147000Y-100467000D01*
X227127000Y-100467000D01*
X227127000Y-102753000D01*
X227147000Y-102753000D01*
X227147000Y-103007000D01*
X227127000Y-103007000D01*
X227127000Y-105293000D01*
X227147000Y-105293000D01*
X227147000Y-105547000D01*
X227127000Y-105547000D01*
X227127000Y-107833000D01*
X227147000Y-107833000D01*
X227147000Y-108087000D01*
X227127000Y-108087000D01*
X227127000Y-110373000D01*
X227147000Y-110373000D01*
X227147000Y-110627000D01*
X227127000Y-110627000D01*
X227127000Y-111826250D01*
X227285750Y-111985000D01*
X227850000Y-111988072D01*
X227974482Y-111975812D01*
X228094180Y-111939502D01*
X228204494Y-111880537D01*
X228301185Y-111801185D01*
X228315001Y-111784351D01*
X228315001Y-113624113D01*
X228271641Y-113533080D01*
X228097588Y-113299731D01*
X227881355Y-113104822D01*
X227631252Y-112955843D01*
X227356891Y-112858519D01*
X227127000Y-112979186D01*
X227127000Y-114173000D01*
X227147000Y-114173000D01*
X227147000Y-114427000D01*
X227127000Y-114427000D01*
X227127000Y-116713000D01*
X227147000Y-116713000D01*
X227147000Y-116967000D01*
X227127000Y-116967000D01*
X227127000Y-119253000D01*
X227147000Y-119253000D01*
X227147000Y-119507000D01*
X227127000Y-119507000D01*
X227127000Y-121793000D01*
X227147000Y-121793000D01*
X227147000Y-122047000D01*
X227127000Y-122047000D01*
X227127000Y-123246250D01*
X227285750Y-123405000D01*
X227850000Y-123408072D01*
X227974482Y-123395812D01*
X228094180Y-123359502D01*
X228204494Y-123300537D01*
X228289051Y-123231143D01*
X228286733Y-123254782D01*
X228212741Y-123499855D01*
X228092554Y-123725893D01*
X227930754Y-123924279D01*
X227733503Y-124087460D01*
X227508310Y-124209221D01*
X227263753Y-124284924D01*
X226977602Y-124315000D01*
X200033505Y-124315000D01*
X199745218Y-124286733D01*
X199500145Y-124212741D01*
X199274107Y-124092554D01*
X199075721Y-123930754D01*
X198912540Y-123733503D01*
X198790779Y-123508310D01*
X198715076Y-123263753D01*
X198685000Y-122977602D01*
X198685000Y-120814344D01*
X200115000Y-120814344D01*
X200115000Y-121185656D01*
X200187439Y-121549834D01*
X200329534Y-121892882D01*
X200535825Y-122201618D01*
X200798382Y-122464175D01*
X201107118Y-122670466D01*
X201450166Y-122812561D01*
X201814344Y-122885000D01*
X202185656Y-122885000D01*
X202549834Y-122812561D01*
X202892882Y-122670466D01*
X203201618Y-122464175D01*
X203464175Y-122201618D01*
X203670466Y-121892882D01*
X203682594Y-121863600D01*
X209498328Y-121863600D01*
X209510588Y-121988082D01*
X209546898Y-122107780D01*
X209605863Y-122218094D01*
X209685215Y-122314785D01*
X209781906Y-122394137D01*
X209892220Y-122453102D01*
X210011918Y-122489412D01*
X210136400Y-122501672D01*
X210714250Y-122498600D01*
X210873000Y-122339850D01*
X210873000Y-121127000D01*
X209660150Y-121127000D01*
X209501400Y-121285750D01*
X209498328Y-121863600D01*
X203682594Y-121863600D01*
X203812561Y-121549834D01*
X203885000Y-121185656D01*
X203885000Y-120814344D01*
X203812561Y-120450166D01*
X203670466Y-120107118D01*
X203464175Y-119798382D01*
X203201618Y-119535825D01*
X202892882Y-119329534D01*
X202549834Y-119187439D01*
X202185656Y-119115000D01*
X201814344Y-119115000D01*
X201450166Y-119187439D01*
X201107118Y-119329534D01*
X200798382Y-119535825D01*
X200535825Y-119798382D01*
X200329534Y-120107118D01*
X200187439Y-120450166D01*
X200115000Y-120814344D01*
X198685000Y-120814344D01*
X198685000Y-108963222D01*
X198773738Y-109096028D01*
X198903972Y-109226262D01*
X199057111Y-109328586D01*
X199147082Y-109365853D01*
X199100932Y-109477271D01*
X199065000Y-109657911D01*
X199065000Y-109842089D01*
X199100932Y-110022729D01*
X199171414Y-110192889D01*
X199273738Y-110346028D01*
X199403972Y-110476262D01*
X199557111Y-110578586D01*
X199711787Y-110642654D01*
X200165000Y-111095869D01*
X200165001Y-114072594D01*
X200100932Y-114227271D01*
X200065000Y-114407911D01*
X200065000Y-114592089D01*
X200100932Y-114772729D01*
X200171414Y-114942889D01*
X200273738Y-115096028D01*
X200403972Y-115226262D01*
X200557111Y-115328586D01*
X200727271Y-115399068D01*
X200907911Y-115435000D01*
X201092089Y-115435000D01*
X201272729Y-115399068D01*
X201442889Y-115328586D01*
X201596028Y-115226262D01*
X201726262Y-115096028D01*
X201828586Y-114942889D01*
X201899068Y-114772729D01*
X201935000Y-114592089D01*
X201935000Y-114407911D01*
X201899068Y-114227271D01*
X201835000Y-114072596D01*
X201835000Y-112313812D01*
X201857111Y-112328586D01*
X202027271Y-112399068D01*
X202207911Y-112435000D01*
X202392089Y-112435000D01*
X202572729Y-112399068D01*
X202742889Y-112328586D01*
X202896028Y-112226262D01*
X203026262Y-112096028D01*
X203128586Y-111942889D01*
X203199068Y-111772729D01*
X203209231Y-111721636D01*
X205061433Y-109869436D01*
X205093291Y-109843291D01*
X205131619Y-109796589D01*
X205197636Y-109716146D01*
X205275172Y-109571087D01*
X205322918Y-109413689D01*
X205337255Y-109268123D01*
X210165000Y-114095869D01*
X210165001Y-117215578D01*
X210044698Y-117295961D01*
X209835961Y-117504698D01*
X209671958Y-117750147D01*
X209558990Y-118022875D01*
X209501400Y-118312401D01*
X209501400Y-118607599D01*
X209558990Y-118897125D01*
X209671958Y-119169853D01*
X209835961Y-119415302D01*
X209950023Y-119529364D01*
X209892220Y-119546898D01*
X209781906Y-119605863D01*
X209685215Y-119685215D01*
X209605863Y-119781906D01*
X209546898Y-119892220D01*
X209510588Y-120011918D01*
X209498328Y-120136400D01*
X209501400Y-120714250D01*
X209660150Y-120873000D01*
X210873000Y-120873000D01*
X210873000Y-120853000D01*
X211127000Y-120853000D01*
X211127000Y-120873000D01*
X211147000Y-120873000D01*
X211147000Y-121127000D01*
X211127000Y-121127000D01*
X211127000Y-122339850D01*
X211285750Y-122498600D01*
X211863600Y-122501672D01*
X211988082Y-122489412D01*
X212107780Y-122453102D01*
X212218094Y-122394137D01*
X212314785Y-122314785D01*
X212394137Y-122218094D01*
X212453102Y-122107780D01*
X212470636Y-122049977D01*
X212584698Y-122164039D01*
X212830147Y-122328042D01*
X213102875Y-122441010D01*
X213392401Y-122498600D01*
X213687599Y-122498600D01*
X213977125Y-122441010D01*
X214249853Y-122328042D01*
X214495302Y-122164039D01*
X214704039Y-121955302D01*
X214810000Y-121796719D01*
X214915961Y-121955302D01*
X215124698Y-122164039D01*
X215370147Y-122328042D01*
X215642875Y-122441010D01*
X215932401Y-122498600D01*
X216227599Y-122498600D01*
X216517125Y-122441010D01*
X216789853Y-122328042D01*
X217035302Y-122164039D01*
X217244039Y-121955302D01*
X217408042Y-121709853D01*
X217521010Y-121437125D01*
X217578600Y-121147599D01*
X217578600Y-120852401D01*
X217521010Y-120562875D01*
X217408042Y-120290147D01*
X217244039Y-120044698D01*
X217035302Y-119835961D01*
X216876719Y-119730000D01*
X217035302Y-119624039D01*
X217244039Y-119415302D01*
X217408042Y-119169853D01*
X217521010Y-118897125D01*
X217578600Y-118607599D01*
X217578600Y-118312401D01*
X217521010Y-118022875D01*
X217408042Y-117750147D01*
X217244039Y-117504698D01*
X217035302Y-117295961D01*
X216915000Y-117215578D01*
X216915000Y-115371018D01*
X216919040Y-115330000D01*
X216902918Y-115166312D01*
X216855172Y-115008913D01*
X216777636Y-114863854D01*
X216699439Y-114768570D01*
X216699437Y-114768568D01*
X216673291Y-114736709D01*
X216641433Y-114710564D01*
X216084609Y-114153740D01*
X222975000Y-114153740D01*
X222975000Y-114446260D01*
X223032068Y-114733158D01*
X223144010Y-115003411D01*
X223306525Y-115246632D01*
X223513368Y-115453475D01*
X223687760Y-115570000D01*
X223513368Y-115686525D01*
X223306525Y-115893368D01*
X223144010Y-116136589D01*
X223032068Y-116406842D01*
X222975000Y-116693740D01*
X222975000Y-116986260D01*
X223032068Y-117273158D01*
X223144010Y-117543411D01*
X223306525Y-117786632D01*
X223513368Y-117993475D01*
X223687760Y-118110000D01*
X223513368Y-118226525D01*
X223306525Y-118433368D01*
X223144010Y-118676589D01*
X223032068Y-118946842D01*
X222975000Y-119233740D01*
X222975000Y-119526260D01*
X223032068Y-119813158D01*
X223144010Y-120083411D01*
X223306525Y-120326632D01*
X223513368Y-120533475D01*
X223687760Y-120650000D01*
X223513368Y-120766525D01*
X223306525Y-120973368D01*
X223144010Y-121216589D01*
X223032068Y-121486842D01*
X222975000Y-121773740D01*
X222975000Y-122066260D01*
X223032068Y-122353158D01*
X223144010Y-122623411D01*
X223306525Y-122866632D01*
X223513368Y-123073475D01*
X223756589Y-123235990D01*
X224026842Y-123347932D01*
X224313740Y-123405000D01*
X224606260Y-123405000D01*
X224893158Y-123347932D01*
X225163411Y-123235990D01*
X225406632Y-123073475D01*
X225538487Y-122941620D01*
X225560498Y-123014180D01*
X225619463Y-123124494D01*
X225698815Y-123221185D01*
X225795506Y-123300537D01*
X225905820Y-123359502D01*
X226025518Y-123395812D01*
X226150000Y-123408072D01*
X226714250Y-123405000D01*
X226873000Y-123246250D01*
X226873000Y-122047000D01*
X226853000Y-122047000D01*
X226853000Y-121793000D01*
X226873000Y-121793000D01*
X226873000Y-119507000D01*
X226853000Y-119507000D01*
X226853000Y-119253000D01*
X226873000Y-119253000D01*
X226873000Y-116967000D01*
X226853000Y-116967000D01*
X226853000Y-116713000D01*
X226873000Y-116713000D01*
X226873000Y-114427000D01*
X226853000Y-114427000D01*
X226853000Y-114173000D01*
X226873000Y-114173000D01*
X226873000Y-112979186D01*
X226643109Y-112858519D01*
X226368748Y-112955843D01*
X226118645Y-113104822D01*
X225902412Y-113299731D01*
X225731100Y-113529406D01*
X225613475Y-113353368D01*
X225406632Y-113146525D01*
X225163411Y-112984010D01*
X224893158Y-112872068D01*
X224606260Y-112815000D01*
X224313740Y-112815000D01*
X224026842Y-112872068D01*
X223756589Y-112984010D01*
X223513368Y-113146525D01*
X223306525Y-113353368D01*
X223144010Y-113596589D01*
X223032068Y-113866842D01*
X222975000Y-114153740D01*
X216084609Y-114153740D01*
X205642655Y-103711788D01*
X205578586Y-103557111D01*
X205476262Y-103403972D01*
X205346028Y-103273738D01*
X205192889Y-103171414D01*
X205022729Y-103100932D01*
X204842089Y-103065000D01*
X204685000Y-103065000D01*
X204685000Y-101387289D01*
X205137289Y-100935000D01*
X211302705Y-100935000D01*
X211448102Y-100995226D01*
X211648061Y-101035000D01*
X211851939Y-101035000D01*
X212051898Y-100995226D01*
X212240256Y-100917205D01*
X212409774Y-100803937D01*
X212553937Y-100659774D01*
X212667205Y-100490256D01*
X212745226Y-100301898D01*
X212785000Y-100101939D01*
X212785000Y-99898061D01*
X212745226Y-99698102D01*
X212667205Y-99509744D01*
X212553937Y-99340226D01*
X212409774Y-99196063D01*
X212240256Y-99082795D01*
X212051898Y-99004774D01*
X211851939Y-98965000D01*
X211648061Y-98965000D01*
X211448102Y-99004774D01*
X211302705Y-99065000D01*
X204795935Y-99065000D01*
X204750000Y-99060476D01*
X204566708Y-99078528D01*
X204390459Y-99131993D01*
X204366458Y-99144822D01*
X204228028Y-99218814D01*
X204085656Y-99335656D01*
X204056370Y-99371341D01*
X203121336Y-100306375D01*
X203085657Y-100335656D01*
X202968815Y-100478028D01*
X202945327Y-100521972D01*
X202881994Y-100640460D01*
X202828529Y-100816709D01*
X202810476Y-101000000D01*
X202815001Y-101045942D01*
X202815000Y-103415000D01*
X201791018Y-103415000D01*
X201749999Y-103410960D01*
X201708981Y-103415000D01*
X201586311Y-103427082D01*
X201428913Y-103474828D01*
X201283854Y-103552364D01*
X201156709Y-103656709D01*
X201130558Y-103688574D01*
X200438574Y-104380559D01*
X200406710Y-104406709D01*
X200350806Y-104474828D01*
X200302364Y-104533855D01*
X200224828Y-104678914D01*
X200177082Y-104836312D01*
X200160960Y-105000000D01*
X200165001Y-105041028D01*
X200165000Y-106458981D01*
X200160960Y-106500000D01*
X200165000Y-106541018D01*
X200177082Y-106663688D01*
X200224828Y-106821086D01*
X200302364Y-106966145D01*
X200406709Y-107093291D01*
X200438578Y-107119446D01*
X200984132Y-107665000D01*
X199927404Y-107665000D01*
X199772729Y-107600932D01*
X199592089Y-107565000D01*
X199407911Y-107565000D01*
X199227271Y-107600932D01*
X199057111Y-107671414D01*
X198903972Y-107773738D01*
X198773738Y-107903972D01*
X198685000Y-108036778D01*
X198685000Y-95657911D01*
X204815000Y-95657911D01*
X204815000Y-95842089D01*
X204850932Y-96022729D01*
X204921414Y-96192889D01*
X205023738Y-96346028D01*
X205153972Y-96476262D01*
X205307111Y-96578586D01*
X205477271Y-96649068D01*
X205657911Y-96685000D01*
X205842089Y-96685000D01*
X206022729Y-96649068D01*
X206177404Y-96585000D01*
X207248982Y-96585000D01*
X207290000Y-96589040D01*
X207331018Y-96585000D01*
X207331019Y-96585000D01*
X207453689Y-96572918D01*
X207611087Y-96525172D01*
X207756146Y-96447636D01*
X207883291Y-96343291D01*
X207909446Y-96311421D01*
X211647127Y-92573740D01*
X222975000Y-92573740D01*
X222975000Y-92866260D01*
X223032068Y-93153158D01*
X223144010Y-93423411D01*
X223306525Y-93666632D01*
X223513368Y-93873475D01*
X223687760Y-93990000D01*
X223513368Y-94106525D01*
X223306525Y-94313368D01*
X223144010Y-94556589D01*
X223032068Y-94826842D01*
X222975000Y-95113740D01*
X222975000Y-95406260D01*
X223032068Y-95693158D01*
X223144010Y-95963411D01*
X223306525Y-96206632D01*
X223513368Y-96413475D01*
X223687760Y-96530000D01*
X223513368Y-96646525D01*
X223306525Y-96853368D01*
X223144010Y-97096589D01*
X223032068Y-97366842D01*
X222975000Y-97653740D01*
X222975000Y-97946260D01*
X223032068Y-98233158D01*
X223144010Y-98503411D01*
X223306525Y-98746632D01*
X223513368Y-98953475D01*
X223687760Y-99070000D01*
X223513368Y-99186525D01*
X223306525Y-99393368D01*
X223144010Y-99636589D01*
X223032068Y-99906842D01*
X222975000Y-100193740D01*
X222975000Y-100486260D01*
X223032068Y-100773158D01*
X223144010Y-101043411D01*
X223306525Y-101286632D01*
X223513368Y-101493475D01*
X223687760Y-101610000D01*
X223513368Y-101726525D01*
X223306525Y-101933368D01*
X223144010Y-102176589D01*
X223032068Y-102446842D01*
X222975000Y-102733740D01*
X222975000Y-103026260D01*
X223032068Y-103313158D01*
X223144010Y-103583411D01*
X223306525Y-103826632D01*
X223513368Y-104033475D01*
X223687760Y-104150000D01*
X223513368Y-104266525D01*
X223306525Y-104473368D01*
X223144010Y-104716589D01*
X223032068Y-104986842D01*
X222975000Y-105273740D01*
X222975000Y-105566260D01*
X223032068Y-105853158D01*
X223144010Y-106123411D01*
X223306525Y-106366632D01*
X223513368Y-106573475D01*
X223687760Y-106690000D01*
X223513368Y-106806525D01*
X223306525Y-107013368D01*
X223144010Y-107256589D01*
X223032068Y-107526842D01*
X222975000Y-107813740D01*
X222975000Y-108106260D01*
X223032068Y-108393158D01*
X223144010Y-108663411D01*
X223306525Y-108906632D01*
X223513368Y-109113475D01*
X223687760Y-109230000D01*
X223513368Y-109346525D01*
X223306525Y-109553368D01*
X223144010Y-109796589D01*
X223032068Y-110066842D01*
X222975000Y-110353740D01*
X222975000Y-110646260D01*
X223032068Y-110933158D01*
X223144010Y-111203411D01*
X223306525Y-111446632D01*
X223513368Y-111653475D01*
X223756589Y-111815990D01*
X224026842Y-111927932D01*
X224313740Y-111985000D01*
X224606260Y-111985000D01*
X224893158Y-111927932D01*
X225163411Y-111815990D01*
X225406632Y-111653475D01*
X225538487Y-111521620D01*
X225560498Y-111594180D01*
X225619463Y-111704494D01*
X225698815Y-111801185D01*
X225795506Y-111880537D01*
X225905820Y-111939502D01*
X226025518Y-111975812D01*
X226150000Y-111988072D01*
X226714250Y-111985000D01*
X226873000Y-111826250D01*
X226873000Y-110627000D01*
X226853000Y-110627000D01*
X226853000Y-110373000D01*
X226873000Y-110373000D01*
X226873000Y-108087000D01*
X226853000Y-108087000D01*
X226853000Y-107833000D01*
X226873000Y-107833000D01*
X226873000Y-105547000D01*
X226853000Y-105547000D01*
X226853000Y-105293000D01*
X226873000Y-105293000D01*
X226873000Y-103007000D01*
X226853000Y-103007000D01*
X226853000Y-102753000D01*
X226873000Y-102753000D01*
X226873000Y-100467000D01*
X226853000Y-100467000D01*
X226853000Y-100213000D01*
X226873000Y-100213000D01*
X226873000Y-97927000D01*
X226853000Y-97927000D01*
X226853000Y-97673000D01*
X226873000Y-97673000D01*
X226873000Y-95387000D01*
X226853000Y-95387000D01*
X226853000Y-95133000D01*
X226873000Y-95133000D01*
X226873000Y-92847000D01*
X226853000Y-92847000D01*
X226853000Y-92593000D01*
X226873000Y-92593000D01*
X226873000Y-91399186D01*
X226643109Y-91278519D01*
X226368748Y-91375843D01*
X226118645Y-91524822D01*
X225902412Y-91719731D01*
X225731100Y-91949406D01*
X225613475Y-91773368D01*
X225406632Y-91566525D01*
X225163411Y-91404010D01*
X224893158Y-91292068D01*
X224606260Y-91235000D01*
X224313740Y-91235000D01*
X224026842Y-91292068D01*
X223756589Y-91404010D01*
X223513368Y-91566525D01*
X223306525Y-91773368D01*
X223144010Y-92016589D01*
X223032068Y-92286842D01*
X222975000Y-92573740D01*
X211647127Y-92573740D01*
X211836898Y-92383969D01*
X211902408Y-92397000D01*
X212177592Y-92397000D01*
X212447490Y-92343314D01*
X212701727Y-92238005D01*
X212930535Y-92085120D01*
X213125120Y-91890535D01*
X213278005Y-91661727D01*
X213383314Y-91407490D01*
X213437000Y-91137592D01*
X213437000Y-90862408D01*
X213383314Y-90592510D01*
X213278005Y-90338273D01*
X213125120Y-90109465D01*
X212930535Y-89914880D01*
X212701727Y-89761995D01*
X212447490Y-89656686D01*
X212177592Y-89603000D01*
X211902408Y-89603000D01*
X211632510Y-89656686D01*
X211378273Y-89761995D01*
X211149465Y-89914880D01*
X210954880Y-90109465D01*
X210801995Y-90338273D01*
X210772308Y-90409943D01*
X210767636Y-90396977D01*
X210705656Y-90281020D01*
X210465565Y-90214040D01*
X209679605Y-91000000D01*
X209693748Y-91014143D01*
X209514143Y-91193748D01*
X209500000Y-91179605D01*
X208714040Y-91965565D01*
X208781020Y-92205656D01*
X209030048Y-92322756D01*
X209297135Y-92389023D01*
X209462363Y-92396769D01*
X207585000Y-94274133D01*
X207585000Y-92253218D01*
X207621727Y-92238005D01*
X207850535Y-92085120D01*
X208045120Y-91890535D01*
X208198005Y-91661727D01*
X208227692Y-91590057D01*
X208232364Y-91603023D01*
X208294344Y-91718980D01*
X208534435Y-91785960D01*
X209320395Y-91000000D01*
X208534435Y-90214040D01*
X208294344Y-90281020D01*
X208230515Y-90416760D01*
X208198005Y-90338273D01*
X208045120Y-90109465D01*
X207970090Y-90034435D01*
X208714040Y-90034435D01*
X209500000Y-90820395D01*
X210285960Y-90034435D01*
X210218980Y-89794344D01*
X209969952Y-89677244D01*
X209702865Y-89610977D01*
X209427983Y-89598090D01*
X209155867Y-89639078D01*
X208896977Y-89732364D01*
X208781020Y-89794344D01*
X208714040Y-90034435D01*
X207970090Y-90034435D01*
X207850535Y-89914880D01*
X207621727Y-89761995D01*
X207367490Y-89656686D01*
X207097592Y-89603000D01*
X206822408Y-89603000D01*
X206552510Y-89656686D01*
X206298273Y-89761995D01*
X206069465Y-89914880D01*
X205874880Y-90109465D01*
X205721995Y-90338273D01*
X205616686Y-90592510D01*
X205563000Y-90862408D01*
X205563000Y-91137592D01*
X205616686Y-91407490D01*
X205721995Y-91661727D01*
X205874880Y-91890535D01*
X205915001Y-91930656D01*
X205915000Y-94572596D01*
X205850932Y-94727271D01*
X205833481Y-94815000D01*
X205657911Y-94815000D01*
X205477271Y-94850932D01*
X205307111Y-94921414D01*
X205153972Y-95023738D01*
X205023738Y-95153972D01*
X204921414Y-95307111D01*
X204850932Y-95477271D01*
X204815000Y-95657911D01*
X198685000Y-95657911D01*
X198685000Y-90814344D01*
X200115000Y-90814344D01*
X200115000Y-91185656D01*
X200187439Y-91549834D01*
X200329534Y-91892882D01*
X200535825Y-92201618D01*
X200798382Y-92464175D01*
X201107118Y-92670466D01*
X201450166Y-92812561D01*
X201814344Y-92885000D01*
X202185656Y-92885000D01*
X202549834Y-92812561D01*
X202892882Y-92670466D01*
X203201618Y-92464175D01*
X203464175Y-92201618D01*
X203670466Y-91892882D01*
X203812561Y-91549834D01*
X203885000Y-91185656D01*
X203885000Y-90814344D01*
X203812561Y-90450166D01*
X203670466Y-90107118D01*
X203464175Y-89798382D01*
X203201618Y-89535825D01*
X202892882Y-89329534D01*
X202549834Y-89187439D01*
X202185656Y-89115000D01*
X201814344Y-89115000D01*
X201450166Y-89187439D01*
X201107118Y-89329534D01*
X200798382Y-89535825D01*
X200535825Y-89798382D01*
X200329534Y-90107118D01*
X200187439Y-90450166D01*
X200115000Y-90814344D01*
X198685000Y-90814344D01*
X198685000Y-89033505D01*
X198713267Y-88745218D01*
X198787259Y-88500145D01*
X198907443Y-88274110D01*
X199069248Y-88075719D01*
X199266497Y-87912540D01*
X199491687Y-87790780D01*
X199736247Y-87715076D01*
X200022398Y-87685000D01*
X226966495Y-87685000D01*
X227254782Y-87713267D01*
M02*
