M48
; DRILL file {KiCad 5.1.5+dfsg1-2build2} date Pá 5. března 2021, 11:50:18
; FORMAT={-:-/ absolute / inch / decimal}
; #@! TF.CreationDate,2021-03-05T11:50:18+01:00
; #@! TF.GenerationSoftware,Kicad,Pcbnew,5.1.5+dfsg1-2build2
; #@! TF.FileFunction,Plated,1,2,PTH
FMAT,2
INCH
T1C0.0157
T2C0.0236
T3C0.0394
T4C0.0400
%
G90
G05
T1
X7.8543Y-4.2717
X7.874Y-4.3209
X7.9134Y-4.5079
X7.9528Y-4.1831
X7.9626Y-4.1437
X7.9646Y-4.3898
X8.0118Y-4.2717
X8.061Y-4.0945
X8.1004Y-3.7697
X8.1398Y-3.7402
X8.1398Y-3.7402
X8.3366Y-4.0167
T2
X7.8642Y-4.3898
X7.8642Y-4.5079
X8.3366Y-3.937
X8.3366Y-4.1732
X8.4646Y-3.622
X8.4646Y-3.7402
X8.4646Y-3.8583
X8.4646Y-3.9764
X8.4646Y-4.0945
X8.4646Y-4.2126
X8.4646Y-4.3307
X8.4646Y-4.4488
T3
X8.837Y-3.6504
X8.837Y-3.7504
X8.837Y-3.8504
X8.837Y-3.9504
X8.837Y-4.0504
X8.837Y-4.1504
X8.837Y-4.2504
X8.837Y-4.3504
X8.937Y-3.6504
X8.937Y-3.7504
X8.937Y-3.8504
X8.937Y-3.9504
X8.937Y-4.0504
X8.937Y-4.1504
X8.937Y-4.2504
X8.937Y-4.3504
X8.837Y-4.5
X8.837Y-4.6
X8.837Y-4.7
X8.837Y-4.8
X8.937Y-4.5
X8.937Y-4.6
X8.937Y-4.7
X8.937Y-4.8
T4
X8.3071Y-4.6638
X8.3071Y-4.7638
X8.4071Y-4.6638
X8.4071Y-4.7638
X8.5071Y-4.6638
X8.5071Y-4.7638
X8.148Y-3.5827
X8.248Y-3.5827
X8.348Y-3.5827
T0
M30
